<?xml version="1.0" encoding="utf-8"?>
<!-- Generator: Adobe Illustrator 20.1.0, SVG Export Plug-In . SVG Version: 6.00 Build 0)  -->
<svg version="1.1" id="Layer_1" xmlns="http://www.w3.org/2000/svg" xmlns:xlink="http://www.w3.org/1999/xlink" x="0px" y="0px"
	 width="500px" height="500px" viewBox="0 0 500 500" enable-background="new 0 0 500 500" xml:space="preserve">
<path d="M250,52c2.8,0,6.6,1,8.1,3.7l220.7,386.4c0.5,0.8,0.6,1.3,0,2.3c-1,1.7-3.7,3.7-8.1,3.7H29.3c-4.4,0-7.1-2-8.1-3.7
	c-0.6-1-0.5-1.4,0-2.3L241.9,55.7C243.4,53,247.2,52,250,52 M250,31.2c-10.4,0-20.8,4.7-26.2,14.2L3.1,431.7
	c-9.7,17,4.4,37.1,26.2,37.1h441.4c21.8,0,35.9-20.1,26.2-37.1L276.2,45.3C270.8,35.9,260.4,31.2,250,31.2L250,31.2z M263,313V138.9
	c0-7.2-5.8-13-13-13c-7.2,0-13,5.8-13,13V313c0,7.2,5.8,13,13,13C257.2,326,263,320.2,263,313z M265.6,395.1v-11.3
	c0-8.6-7-15.6-15.6-15.6c-8.6,0-15.6,7-15.6,15.6v11.3c0,8.6,7,15.6,15.6,15.6C258.6,410.7,265.6,403.7,265.6,395.1z"/>
</svg>
