<?xml version="1.0" encoding="utf-8"?>
<!-- Generator: Adobe Illustrator 20.1.0, SVG Export Plug-In . SVG Version: 6.00 Build 0)  -->
<svg version="1.1" id="Layer_1" xmlns="http://www.w3.org/2000/svg" xmlns:xlink="http://www.w3.org/1999/xlink" x="0px" y="0px"
	 width="500px" height="500px" viewBox="0 0 500 500" enable-background="new 0 0 500 500" xml:space="preserve">
<g>
	<g>
		<path d="M456.8,369.7c-2.5,4.5-7.3,7-12.2,7c-2.3,0-4.8-0.7-7-2L264.1,274.5V475c0,7.7-6.3,14.1-14.1,14.1
			c-7.7,0-14.1-6.3-14.1-14.1V274.3L62,374c-2.3,1.4-4.8,1.8-7,1.8c-5,0-9.8-2.5-12.5-7c-3.9-6.8-1.4-15.4,5.4-19.3L221.7,250
			L48.2,149.8c-6.8-3.9-9.1-12.7-5-19.5c3.9-6.6,12.5-9.1,19.3-5l173.5,100.2V25c0-7.7,6.3-14.1,14.1-14.1c7.7,0,14.1,6.4,14.1,14.1
			v200.7L438,126c6.8-3.9,15.4-1.6,19.5,5.2c3.9,6.8,1.4,15.4-5.4,19.3L278.3,250l173.5,100.2C458.6,354.1,460.9,362.9,456.8,369.7z
			"/>
	</g>
</g>
</svg>
