<?xml version="1.0" encoding="utf-8"?>
<!-- Generator: Adobe Illustrator 20.1.0, SVG Export Plug-In . SVG Version: 6.00 Build 0)  -->
<svg version="1.1" id="Layer_1" xmlns="http://www.w3.org/2000/svg" xmlns:xlink="http://www.w3.org/1999/xlink" x="0px" y="0px"
	 width="500px" height="500px" viewBox="0 0 500 500" enable-background="new 0 0 500 500" xml:space="preserve">
<path d="M296.2,443.3c-6.7,19-24.8,32.9-46.2,32.9s-39.5-13.8-46.2-32.9H179c7.4,32.6,36.4,56.7,71,56.7s63.6-24,71-56.7H296.2z
	 M437.6,333.3v-96.4c0-2.6,0-5-0.2-7.4c-3.3-90-70.2-163.3-156.9-177.6c2.9-5,4.5-10.7,4.5-16.9c0-19.3-15.7-35-35-35
	s-35,15.7-35,35c0,6.2,1.7,11.9,4.5,16.9C132.9,66.2,66,139.5,62.6,229.5c-0.2,2.4-0.2,4.8-0.2,7.4v96.4L0,395.5h500L437.6,333.3z
	 M250,23.8c6.2,0,11.2,5,11.2,11.2c0,6-5,11-11.2,11s-11.2-5-11.2-11C238.8,28.8,243.8,23.8,250,23.8z M86.2,236.9
	c0-2.4,0-5,0.5-7.4C90.2,142.6,162.1,73.3,250,73.3s159.8,69.3,163.3,156.2c0.5,2.4,0.5,5,0.5,7.4v16.4v89.8l6.9,6.9l21.7,21.7H57.6
	L79.3,350l6.9-6.9v-89.8V236.9z"/>
</svg>
