<?xml version="1.0" encoding="utf-8"?>
<!-- Generator: Adobe Illustrator 20.1.0, SVG Export Plug-In . SVG Version: 6.00 Build 0)  -->
<svg version="1.1" id="Layer_1" xmlns="http://www.w3.org/2000/svg" xmlns:xlink="http://www.w3.org/1999/xlink" x="0px" y="0px"
	 width="500px" height="500px" viewBox="0 0 500 500" enable-background="new 0 0 500 500" xml:space="preserve">
<g>
	<g>
		<path d="M192,37.2V61h116V37.2H192z"/>
		<path d="M379.3,37.2V61h97v55.4H23.8V61h97V37.2H0v462.5h500V37.2H379.3z M476.2,475.9H23.8V140.1h452.5V475.9z"/>
	</g>
	<g>
		<g>
			<path d="M168.3,12.2v61.5c0,6.7-5.5,11.9-11.9,11.9c-6.7,0-11.9-5.2-11.9-11.9V12.2c0-6.4,5.2-11.9,11.9-11.9
				C162.8,0.4,168.3,5.8,168.3,12.2z"/>
		</g>
	</g>
	<g>
		<g>
			<path d="M355.5,12.2v61.5c0,6.7-5.2,11.9-11.9,11.9c-6.4,0-11.9-5.2-11.9-11.9V12.2c0-6.4,5.5-11.9,11.9-11.9
				C350.3,0.4,355.5,5.8,355.5,12.2z"/>
		</g>
	</g>
	<g>
		<path d="M425.6,312.1c4.8,0,8.3-3.6,8.3-8.3c0-4.5-3.6-8.3-8.3-8.3h-42.3v-56.6h42.3c4.8,0,8.3-3.6,8.3-8.3c0-4.5-3.6-8.1-8.3-8.1
			h-42.3v-38.5c0-4.8-3.8-8.3-8.3-8.3c-4.8,0-8.3,3.6-8.3,8.3v38.5h-66.8v-38.5c0-4.8-3.6-8.3-8.3-8.3c-4.5,0-8.3,3.6-8.3,8.3v38.5
			h-66.5v-38.5c0-4.8-3.8-8.3-8.3-8.3c-4.8,0-8.3,3.6-8.3,8.3v38.5h-66.8v-38.5c0-4.8-3.6-8.3-8.3-8.3c-4.5,0-8.3,3.6-8.3,8.3v38.5
			H77.9c-4.8,0-8.3,3.6-8.3,8.1c0,4.8,3.6,8.3,8.3,8.3h38.7v56.6H77.9c-4.8,0-8.3,3.8-8.3,8.3c0,4.8,3.6,8.3,8.3,8.3h38.7v56.6H77.9
			c-4.8,0-8.3,3.8-8.3,8.3s3.6,8.3,8.3,8.3h38.7v39.2c0,4.5,3.8,8.3,8.3,8.3c4.8,0,8.3-3.8,8.3-8.3v-39.2h66.8v39.2
			c0,4.5,3.6,8.3,8.3,8.3c4.5,0,8.3-3.8,8.3-8.3v-39.2h66.5v39.2c0,4.5,3.8,8.3,8.3,8.3c4.8,0,8.3-3.8,8.3-8.3v-39.2h66.8v39.2
			c0,4.5,3.6,8.3,8.3,8.3c4.5,0,8.3-3.8,8.3-8.3v-39.2h42.3c4.8,0,8.3-3.8,8.3-8.3s-3.6-8.3-8.3-8.3h-42.3v-56.6H425.6z
			 M200.1,368.7h-66.8v-56.6h66.8V368.7z M200.1,295.5h-66.8v-56.6h66.8V295.5z M283.3,368.7h-66.5v-56.6h66.5V368.7z M283.3,295.5
			h-66.5v-56.6h66.5V295.5z M366.7,368.7h-66.8v-56.6h66.8V368.7z M366.7,295.5h-66.8v-56.6h66.8V295.5z"/>
	</g>
</g>
</svg>
