<?xml version="1.0" encoding="utf-8"?>
<!-- Generator: Adobe Illustrator 20.1.0, SVG Export Plug-In . SVG Version: 6.00 Build 0)  -->
<svg version="1.1" id="Layer_1" xmlns="http://www.w3.org/2000/svg" xmlns:xlink="http://www.w3.org/1999/xlink" x="0px" y="0px"
	 width="500px" height="500px" viewBox="0 0 500 500" enable-background="new 0 0 500 500" xml:space="preserve">
<g>
	<g>
		<g>
			<path d="M250,20.8c126.4,0,229.2,102.8,229.2,229.2S376.4,479.2,250,479.2S20.8,376.4,20.8,250S123.6,20.8,250,20.8 M250,0
				C111.9,0,0,111.9,0,250s111.9,250,250,250s250-111.9,250-250S388.1,0,250,0L250,0z"/>
		</g>
	</g>
	<g>
		<path d="M218.8,346.5l-92.7-92.7c-5.1-5.1-5.1-13.3,0-18.4c5-5.1,13.3-5.1,18.4,0l74.3,74.3l146.9-146.9c5.1-5.1,13.3-5.1,18.4,0
			c5.1,5.1,5.1,13.3,0,18.4L218.8,346.5z"/>
	</g>
</g>
</svg>
