<?xml version="1.0" encoding="utf-8"?>
<!-- Generator: Adobe Illustrator 20.1.0, SVG Export Plug-In . SVG Version: 6.00 Build 0)  -->
<svg version="1.1" id="Layer_1" xmlns="http://www.w3.org/2000/svg" xmlns:xlink="http://www.w3.org/1999/xlink" x="0px" y="0px"
	 width="500px" height="500px" viewBox="0 0 500 500" enable-background="new 0 0 500 500" xml:space="preserve">
<g>
	<g>
		<path d="M250,0C111.9,0,0,111.9,0,250s111.9,250,250,250s250-111.9,250-250S388.1,0,250,0z M250,479.2
			C123.5,479.2,20.8,376.5,20.8,250S123.5,20.8,250,20.8S479.2,123.5,479.2,250S376.5,479.2,250,479.2z"/>
	</g>
	<g>
		<path d="M357.9,250c0,5.8-4.8,10.4-10.4,10.4H250c-5.8,0-10.4-4.6-10.4-10.4V93.8c0-5.8,4.6-10.4,10.4-10.4s10.4,4.6,10.4,10.4
			v145.8h87.1C353.1,239.6,357.9,244.2,357.9,250z"/>
	</g>
</g>
</svg>
