<?xml version="1.0" encoding="utf-8"?>
<!-- Generator: Adobe Illustrator 20.1.0, SVG Export Plug-In . SVG Version: 6.00 Build 0)  -->
<svg version="1.1" id="Layer_1" xmlns="http://www.w3.org/2000/svg" xmlns:xlink="http://www.w3.org/1999/xlink" x="0px" y="0px"
	 width="500px" height="500px" viewBox="0 0 500 500" enable-background="new 0 0 500 500" xml:space="preserve">
<path d="M290.5,86.4h27.3L208.1,413.8h-27.3L290.5,86.4z M386,450.9c19.1,0,35-18,35-42.4V296.6c0-22.3,6.9-39.2,24.4-46.6
	c-17.5-7.4-24.4-24.4-24.4-46.6V91.6c0-24.9-15.9-42.4-35-42.4h-32.3V20H386c33.9,0,66.3,27.6,66.3,71.6v108.6
	c0,19.6,9,36.6,27.5,36.6v26.5c-18.5,0-27.5,17-27.5,36.6V409c0,43.5-32.3,71-66.3,71h-32.3v-29.1H386z M146.3,450.9V480H114
	c-33.9,0-66.3-27.5-66.3-71V299.8c0-19.6-9-36.6-27.5-36.6v-26.5c18.5,0,27.5-17,27.5-36.6V91.6c0-44,32.3-71.6,66.3-71.6h32.3v29.1
	H114c-19.1,0-35,17.5-35,42.4v111.8c0,22.2-6.9,39.2-24.4,46.6c17.5,7.4,24.4,24.4,24.4,46.6v111.8c0,24.4,15.9,42.4,35,42.4H146.3z
	"/>
</svg>
