<?xml version="1.0" encoding="utf-8"?>
<!-- Generator: Adobe Illustrator 20.1.0, SVG Export Plug-In . SVG Version: 6.00 Build 0)  -->
<svg version="1.1" id="Layer_1" xmlns="http://www.w3.org/2000/svg" xmlns:xlink="http://www.w3.org/1999/xlink" x="0px" y="0px"
	 width="500px" height="500px" viewBox="0 0 500 500" enable-background="new 0 0 500 500" xml:space="preserve">
<g>
	<path d="M382.3,390.4c-8.3,1.2-16.9,2.4-25.5,2.9c-3.6,0.5-7.1,1-10.7,1c-32.2,13.3-83.7,23.1-146.1,23.1
		c-104.1,0-182.1-28.8-182.1-54.8c0-13.3,20.7-27.4,55.3-38.1c-3.6-5.2-6.2-10.7-8.1-16.4C26.5,320.3,0,338.7,0,362.5
		c0,1.4,0,2.6,0.2,3.8c-0.2,0.2-0.2,0.2,0,0.5C0,367,0,367.3,0,367.5v58.6v2.4c0,0.2,0,0.7,0.2,1c0,1,0.2,1.7,0.5,2.6
		c8.3,43.4,106.8,66.7,199.2,66.7c97,0,200.2-25.5,200.2-72.7v-38.6c-4.3,0.7-8.6,1.4-12.9,2.1C385.6,389.9,383.9,390.1,382.3,390.4
		z M65.5,461.9c-29.8-10.2-47.7-23.1-47.7-35.7v-32.2c9.3,7.4,21.9,14.1,36.9,19.5c3.3,1.2,6.9,2.4,10.7,3.6V461.9z M129.2,476.2
		c-18.1-2.4-34.8-5.7-49.3-10v-45c15.3,4.1,31.9,7.1,49.3,9.5V476.2z M192.8,480.9c-17.4-0.2-33.8-1.2-49.3-3.1v-45.5
		c16.2,1.7,32.9,2.6,49.3,2.9V480.9z M256.7,477.8c-15.5,1.9-32.2,2.9-49.6,3.1v-45.8c16.7-0.2,33.4-1.2,49.6-2.9V477.8z
		 M320.3,466.2c-14.5,4.3-31,7.6-49.3,10v-45.5c17.4-2.4,34.1-5.5,49.3-9.5V466.2z M382.3,426.1c0,12.6-17.9,25.5-47.7,35.7v-44.8
		c3.6-1.2,7.2-2.4,10.7-3.6c15-5.5,27.6-12.2,36.9-19.5V426.1z"/>
	<path d="M499.8,224.7c0.2-1.2,0.2-2.4,0.2-3.8c0-24.3-27.2-42.7-67-54.8c-2.4,5.5-5.5,10.7-9.5,15.5c36.9,10.7,58.6,25.5,58.6,39.3
		c0,26-77.9,54.8-182.1,54.8c-70.3,0-128.7-13.1-159.2-29.8c-1.9,0-3.6-0.2-5.5-0.5c-6-0.5-11.7-1.2-17.4-2.1
		c-3.6-0.5-7.1-1-10.5-1.7c-2.6-0.2-5-0.7-7.4-1.2v46.5c0,0.2,0,0.5,0.2,0.7c0.2,3.8,1.2,7.6,2.9,11c2.6,5.7,6.9,11,12.6,15.7
		c32.4,28.1,110.1,42.9,184.2,42.9c26.2,0,52.9-1.9,77.9-5.5c6.4-1,12.6-1.9,18.8-3.1C455.2,337.5,500,316,500,284.8v-58.9
		c0-0.2,0-0.5-0.2-0.7C500,225,500,225,499.8,224.7z M165.4,320.1c-8.6-2.9-16.2-6-22.6-9.3c-9.5-5-16.7-10.2-20.5-15.5
		c-2.9-3.6-4.3-6.9-4.3-10.5v-32.4c9.3,7.4,21.7,13.8,36.5,19.3c3.3,1.4,7.2,2.6,11,3.8V320.1z M229.3,334.6c-18.4-2.4-35-6-49.6-10
		v-45c15.3,4.1,32.2,7.1,49.6,9.5V334.6z M292.9,339.4c-17.4-0.2-33.8-1.2-49.3-3.1v-45.5c16.2,1.7,32.9,2.6,49.3,2.9V339.4z
		 M356.5,336.5c-15.5,1.7-31.9,2.6-49.3,2.9v-45.8c16.4-0.2,33.1-1.2,49.3-2.9V336.5z M420.4,325.1c-10.7,2.9-22.9,5.5-36,7.6
		c-4.3,1-8.8,1.7-13.6,2.1v-45.8c17.4-2.4,34.3-5.5,49.6-9.5V325.1z M482.1,284.8c0,12.4-17.4,25.5-47.4,35.7v-45
		c3.8-1.2,7.6-2.4,11-3.8c14.8-5.5,27.2-11.9,36.5-19.3V284.8z"/>
	<path d="M0.7,143.5c5.2,28.6,49.6,48.4,105.6,58.6c6.7,1.2,13.8,2.4,20.7,3.3c23.6,3.1,48.4,4.8,72.9,4.8
		c69.8,0,142.5-13.1,178.3-38.1c6.7-4.8,12.2-10,15.7-15.5c4.1-6,6.2-12.2,6.2-19.1V78.9c0-0.2,0-0.5-0.2-0.7c0.2-0.2,0.2-0.2,0-0.5
		c0.2-1.2,0.2-2.6,0.2-3.8C400.1,26.7,297,1.2,200,1.2C103.2,1.2,0,26.7,0,73.9c0,1.2,0,2.6,0.2,3.8c-0.2,0.2-0.2,0.2,0,0.5
		C0,78.4,0,78.6,0,78.9v58.6v2.4c0,0.2,0,0.7,0.2,1C0.2,141.8,0.5,142.5,0.7,143.5z M129.2,187.8c-2.4-0.5-5-1-7.4-1.2
		c-15.5-2.4-29.3-5.5-41.9-9.1v-45c15.3,4.1,31.9,7.1,49.3,9.5V187.8z M192.8,192.3c-13.8-0.2-27.2-1-39.8-2.1
		c-3.1-0.2-6.4-0.5-9.5-0.7v-45.8c16.2,1.7,32.9,2.6,49.3,2.9V192.3z M256.7,189.2c-15.5,1.9-32.2,2.9-49.6,3.1v-45.8
		c16.7-0.2,33.4-1.2,49.6-2.9V189.2z M320.3,177.5c-14.5,4.3-31,7.6-49.3,10.2v-38.6v-0.5V142c17.4-2.4,34.1-5.5,49.3-9.5V177.5z
		 M382.3,137.5c0,5.2-3.3,10.7-9.3,15.7c-6,5.5-14.8,10.5-25.7,15c-3.8,1.9-8.1,3.3-12.6,5v-44.8c3.6-1.2,7.2-2.4,10.7-3.6
		c15-5.5,27.6-12.2,36.9-19.5V137.5z M200,19.1c107.5,0,182.3,28.8,182.3,54.8c0,26-77.9,54.8-182.3,54.8
		c-104.1,0-182.1-28.8-182.1-54.8C17.9,48.1,95.8,19.1,200,19.1z M17.9,105.3c9.3,7.4,21.9,14.1,36.9,19.5c3.3,1.2,6.9,2.4,10.7,3.6
		v44.8c-29.8-10.2-47.7-23.4-47.7-35.7V105.3z"/>
</g>
</svg>
