<?xml version="1.0" encoding="utf-8"?>
<!-- Generator: Adobe Illustrator 21.0.0, SVG Export Plug-In . SVG Version: 6.00 Build 0)  -->
<svg version="1.1" id="Layer_1" xmlns="http://www.w3.org/2000/svg" xmlns:xlink="http://www.w3.org/1999/xlink" x="0px" y="0px"
	 width="500px" height="500px" viewBox="0 0 500 500" style="enable-background:new 0 0 500 500;" xml:space="preserve">
<style type="text/css">
	.st0{fill:#444444;}
</style>
<g>
	<path class="st0" d="M93.5,265c36.6,8.8,79.6,13.2,122.6,13.2c84,0,169-16.9,201.9-50.1c8.1-8.3,13.2-23,12.8-23
		c0.7-1,1.4-6.1,1.4-7.5v-62.7c0-0.7,0-1.4-0.3-1.7v-0.3c0.3-1,0.3-2,0.3-3C432.2,24.1,0,24.1,0,129.8c0,1,0,2,0.3,3v0.3
		c-0.3,0.3-0.3,1-0.3,1.7v62.7c0,2.7,0.3,5.1,1,7.5c4.4,23,30.5,40.6,67.8,53.2C68.8,258.2,87,263.9,93.5,265z M138.2,247
		c-8.5-1-16.6-2.4-24.4-4.1c-8.1-1.7-15.9-3.4-23-5.4v-41c14.2,3.7,29.5,6.4,45.7,8.8c0.7,0,1-0.3,1.7-0.3V247z M205.9,252.4
		c-16.9-0.3-32.5-1.4-47.4-2.7v-42c15.6,1.4,31.5,2.4,47.4,2.4V252.4z M273.7,249.7c-14.9,1.4-30.5,2.4-47.4,2.7v-42.3
		c15.9,0,31.8-1,47.4-2.4V249.7z M341.4,237.5c-13.9,3.7-29.8,7.1-47.4,9.5v-41.7c16.6-2,32.5-5.1,47.4-8.8V237.5z M406.5,197.5
		c0,0.3,0,1-0.3,1.4c-0.7,6.4-7.8,13.9-20,21c-6.8,4.1-14.9,7.8-24.4,11.2v-40.3c17.6-5.8,32.9-12.5,44.7-20.7V197.5z M216.1,74.9
		c116.2,0,190.4,32.5,190.4,54.9c0,22.4-74.2,54.9-190.4,54.9c-116.2,0-190.4-32.5-190.4-54.9C25.7,107.5,99.9,74.9,216.1,74.9z
		 M25.7,197.5v-27.4c11.9,8.1,27.1,14.9,44.7,20.7v40.3C41.7,220.6,25.7,208,25.7,197.5z"/>
	<path class="st0" d="M499.7,303.2v-0.3h0c0.3-1,0.3-2,0.3-3c0-20.1-15.8-36.3-41.1-48.8c-5.5,10.9-19.2,19.4-19.2,19.4
		c22.3,9.5,34.6,20.1,34.6,29.3c0,22.4-74.2,54.9-190.4,54.9h0c-90.2,0-154.9-19.6-179.4-38.8l-0.1,0.1c0,0-0.4-0.2-0.6-0.2
		c-2.8-0.4-21.7-2.9-36-5.9v57.7c0,2.7,0.3,5.1,1,7.5c0,0,1.7,9.9,13.2,23c32.9,33.2,117.9,50.1,201.9,50.1
		c40.7,0,81.2-4.1,116.4-11.9l0.1-0.1c0,0,16.4-2.8,30.8-7.8c0,0,0-0.1,0-0.1c41-13.9,68.8-33.9,68.8-60.6v-62.7
		C500,304.2,500,303.6,499.7,303.2z M138.2,401.1c-9.5-3.4-17.6-7.1-24.4-11.2c-12.2-7.1-19.3-14.6-20-21h-0.3v-28.8
		c11.9,8.1,27.1,14.9,44.7,20.7V401.1z M205.9,417.1c-17.6-2.4-33.5-5.8-47.4-9.5v-41c14.9,3.7,30.8,6.8,47.4,8.8V417.1z
		 M273.7,422.5c-16.9-0.3-32.5-1.4-47.4-2.7v-42c15.6,1.4,31.5,2.4,47.4,2.4V422.5z M341.4,419.8c-14.9,1.4-30.5,2.4-47.4,2.7v-42.3
		c15.9,0,31.8-1,47.4-2.4V419.8z M409.2,407.6c-7.1,2-14.9,3.7-23,5.4c-7.8,1.7-15.9,3-24.4,4.1v-42c0.7,0,1,0.3,1.7,0.3
		c16.3-2.4,31.5-5.1,45.7-8.8V407.6z M474.2,367.6c0,10.5-15.9,23-44.7,33.5v-40.3c17.6-5.8,32.9-12.5,44.7-20.7V367.6z"/>
</g>
</svg>
