<?xml version="1.0" encoding="iso-8859-1"?>
<!-- Generator: Adobe Illustrator 20.1.0, SVG Export Plug-In . SVG Version: 6.00 Build 0)  -->
<svg version="1.1" id="Layer_1" xmlns="http://www.w3.org/2000/svg" xmlns:xlink="http://www.w3.org/1999/xlink" x="0px" y="0px"
	 width="500px" height="500px" viewBox="0 0 500 500" enable-background="new 0 0 500 500" xml:space="preserve">
<path d="M250,0C111.9,0,0,112.1,0,250c0,138.1,111.9,250,250,250s250-111.9,250-250C500,112.1,388.1,0,250,0z M250,479.2
	C123.5,479.2,20.8,376.5,20.8,250C20.8,123.8,123.5,20.8,250,20.8S479.2,123.8,479.2,250C479.2,376.5,376.5,479.2,250,479.2z
	 M366.5,154.4H365h-29.4h-171H135h-2.5H121v11.2v0.2v4.2v29.4v133.3v5v10h11.5h2.9h229.2h4.6h9.8v-8.3v-6.9V199.4V170v-3.1v-0.2
	v-12.3h-12.3H366.5z M185.4,175.2h129.4h29.4L250,269.4l-94.2-94.2H185.4z M358.1,220.2v88.1l-40.6-47.5l-14.8,14.8l44,51.2h-95.2
	h-2.9h-95.2l44-51.2l-14.8-14.8l-40.6,47.5v-88.1v-29.4l54.4,54.4l14.6,14.6L250,299l39.2-39.2l14.6-14.6l54.4-54.4V220.2z"/>
</svg>
