<?xml version="1.0" encoding="utf-8"?>
<!-- Generator: Adobe Illustrator 20.1.0, SVG Export Plug-In . SVG Version: 6.00 Build 0)  -->
<svg version="1.1" id="Layer_1" xmlns="http://www.w3.org/2000/svg" xmlns:xlink="http://www.w3.org/1999/xlink" x="0px" y="0px"
	 width="500px" height="500px" viewBox="0 0 500 500" enable-background="new 0 0 500 500" xml:space="preserve">
<path d="M475.8,226.9l-245.6-85.4l3.7-31L45.8,45.2v-9.5c0-6-5-10.8-10.8-10.8c-6,0-10.8,4.7-10.8,10.8v428.5
	c0,5.8,4.7,10.8,10.8,10.8c5.8,0,10.8-4.9,10.8-10.8V297.7L193.8,263l-3.7,31L475.8,226.9z M398.7,222.8L215.1,266l1.1-8.4
	l11.2-94.3h0.2L398.7,222.8z M45.8,275.7V67.8l164.8,57.2l-1.1,9.3l-12.7,105.9h-0.2L45.8,275.7z M227.4,163.4l-11.2,94.3h0.2
	l11.2-94.3H227.4z M209.1,134.1l-12.5,106.1h0.2l12.7-105.9L209.1,134.1z"/>
</svg>
