<?xml version="1.0" encoding="utf-8"?>
<!-- Generator: Adobe Illustrator 20.1.0, SVG Export Plug-In . SVG Version: 6.00 Build 0)  -->
<svg version="1.1" id="Layer_1" xmlns="http://www.w3.org/2000/svg" xmlns:xlink="http://www.w3.org/1999/xlink" x="0px" y="0px"
	 width="500px" height="500px" viewBox="0 0 500 500" enable-background="new 0 0 500 500" xml:space="preserve">
<g>
	<path d="M499.4,233.5c-0.4-7.1-1.3-14.2-2.3-21.3l-21.5-2.3l-43.6-4.8c-4.6-18.6-11.9-36.1-21.7-52V153l27.5-34l13.6-17.1
		c-4.2-5.6-8.8-11.3-13.4-16.5c-7.3-8.3-15-16.1-23.4-23.4c-5.2-4.6-10.9-9.2-16.5-13.4l-17.1,13.6l-34,27.5h-0.2
		c-15.9-9.8-33.4-17.1-52-21.7l-4.8-43.6l-2.3-21.5c-7.1-1-14.2-1.9-21.3-2.3C261.1,0.2,255.4,0,250,0s-11.1,0.2-16.5,0.6
		c-7.1,0.4-14.2,1.3-21.3,2.3l-2.3,21.5L205.1,68c-18.6,4.6-36.1,11.9-52,21.7H153l-34-27.5l-17.1-13.6c-5.6,4.2-11.3,8.8-16.5,13.4
		C77,69.3,69.3,77,62,85.4c-4.6,5.2-9.2,10.9-13.4,16.5l13.6,17.1l27.5,34v0.2c-9.8,15.9-17.1,33.4-21.7,52l-43.6,4.8l-21.5,2.3
		c-1,7.1-1.9,14.2-2.3,21.3C0.2,238.9,0,244.6,0,250s0.2,11.1,0.6,16.5c0.4,7.1,1.3,14.2,2.3,21.3l21.5,2.3l43.6,4.8
		c4.6,18.6,11.9,36.1,21.7,52v0.2l-27.5,34l-13.6,17.1c4.2,5.6,8.8,11.3,13.4,16.5c7.3,8.3,15,16.1,23.4,23.4
		c5.2,4.6,10.9,9.2,16.5,13.4l17.1-13.6l34-27.5h0.2c15.9,9.8,33.4,17.1,52,21.7l4.8,43.6l2.3,21.5c7.1,1,14.2,1.9,21.3,2.3
		c5.4,0.4,11.1,0.6,16.5,0.6s11.1-0.2,16.5-0.6c7.1-0.4,14.2-1.3,21.3-2.3l2.3-21.5l4.8-43.6c18.6-4.6,36.1-11.9,52-21.7h0.2
		l34,27.5l17.1,13.6c5.6-4.2,11.3-8.8,16.5-13.4c8.3-7.3,16.1-15,23.4-23.4c4.6-5.2,9.2-10.9,13.4-16.5l-13.6-17.1l-27.5-34v-0.2
		c9.8-15.9,17.1-33.4,21.7-52l43.6-4.8l21.5-2.3c1-7.1,1.9-14.2,2.3-21.3c0.4-5.4,0.6-11.1,0.6-16.5S499.8,238.9,499.4,233.5z
		 M435.9,273.4l-21.3,2.5c-1.3,7.3-2.9,14.6-5,21.5c-3.3,11.3-7.7,21.9-13.4,31.9c-3.5,6.5-7.3,12.7-11.9,18.6l13.6,16.9l26.7,33.2
		c-8.1,9.6-17.1,18.6-26.7,26.7L364.8,398l-16.9-13.6c-5.8,4.6-12.1,8.3-18.6,11.9c-10,5.6-20.7,10-31.9,13.4
		c-6.9,2.1-14.2,3.8-21.5,5l-2.5,21.3l-4.6,42.4c-6.3,0.6-12.5,0.8-18.8,0.8s-12.5-0.2-18.8-0.8l-4.6-42.4l-2.5-21.3
		c-7.3-1.3-14.6-2.9-21.5-5c-11.3-3.3-21.9-7.7-31.9-13.4c-6.5-3.5-12.7-7.3-18.6-11.9L135.2,398L102,424.7
		c-9.6-8.1-18.6-17.1-26.7-26.7l26.7-33.2l13.6-16.9c-4.6-5.8-8.3-12.1-11.9-18.6c-5.6-10-10-20.7-13.4-31.9
		c-2.1-6.9-3.8-14.2-5-21.5l-21.3-2.5l-42.4-4.6c-0.6-6.3-0.8-12.5-0.8-18.8s0.2-12.5,0.8-18.8l42.4-4.6l21.3-2.5
		c1.3-7.3,2.9-14.6,5-21.5c3.3-11.3,7.7-21.9,13.4-31.9c3.5-6.5,7.3-12.7,11.9-18.6L102,135.2L75.3,102c8.1-9.6,17.1-18.6,26.7-26.7
		l33.2,26.7l16.9,13.6c5.8-4.6,12.1-8.3,18.6-11.9c10-5.6,20.7-10,31.9-13.4c6.9-2.1,14.2-3.8,21.5-5l2.5-21.3l4.6-42.4
		c6.3-0.6,12.5-0.8,18.8-0.8s12.5,0.2,18.8,0.8l4.6,42.4l2.5,21.3c7.3,1.3,14.6,2.9,21.5,5c11.3,3.3,21.9,7.7,31.9,13.4
		c6.5,3.5,12.7,7.3,18.6,11.9l16.9-13.6L398,75.3c9.6,8.1,18.6,17.1,26.7,26.7L398,135.2l-13.6,16.9c4.6,5.8,8.3,12.1,11.9,18.6
		c5.6,10,10,20.7,13.4,31.9c2.1,6.9,3.8,14.2,5,21.5l21.3,2.5l42.4,4.6c0.6,6.3,0.8,12.5,0.8,18.8s-0.2,12.5-0.8,18.8L435.9,273.4z"
		/>
	<path d="M336,212.6c-9.4-21.7-26.9-39.2-48.6-48.6c-1-0.4-2.1-0.8-3.1-1.3c-10.6-4.2-22.1-6.5-34.2-6.5s-23.6,2.3-34.2,6.5
		c-1,0.4-2.1,0.8-3.1,1.3c-21.7,9.4-39.2,26.9-48.6,48.6c-0.4,1-0.8,2.1-1.3,3.1c-4.2,10.6-6.5,22.1-6.5,34.2
		c0,12.1,2.3,23.6,6.5,34.2c0.4,1,0.8,2.1,1.3,3.1c9.4,21.7,26.9,39.2,48.6,48.6c1,0.4,2.1,0.8,3.1,1.3c10.6,4.2,22.1,6.5,34.2,6.5
		s23.6-2.3,34.2-6.5c1-0.4,2.1-0.8,3.1-1.3c21.7-9.4,39.2-26.9,48.6-48.6c0.4-1,0.8-2.1,1.3-3.1c4.2-10.6,6.5-22.1,6.5-34.2
		c0-12.1-2.3-23.6-6.5-34.2C336.8,214.7,336.4,213.7,336,212.6z M250,322.8c-40.1,0-72.8-32.8-72.8-72.8c0-40.1,32.8-72.8,72.8-72.8
		s72.8,32.8,72.8,72.8C322.8,290.1,290.1,322.8,250,322.8z"/>
</g>
</svg>
