<?xml version="1.0" encoding="utf-8"?>
<!-- Generator: Adobe Illustrator 20.1.0, SVG Export Plug-In . SVG Version: 6.00 Build 0)  -->
<svg version="1.1" id="Layer_1" xmlns="http://www.w3.org/2000/svg" xmlns:xlink="http://www.w3.org/1999/xlink" x="0px" y="0px"
	 width="500px" height="500px" viewBox="0 0 500 500" enable-background="new 0 0 500 500" xml:space="preserve">
<path d="M499.6,238.5C493.8,105.8,384.4,0,250,0C111.9,0,0,111.9,0,250s111.9,250,250,250c131.5,0,239.2-101.5,249.2-230.2
	C500,259.4,500.2,249,499.6,238.5z M395.2,74.8c4.8,4.2,9.8,7.7,14.4,11l1.2,0.8c11.5,11.5,21.7,24,30.6,37.5
	c-3.1-1.2-6.5-2.5-9.8-2.9c-3.3-0.6-6.7-0.8-9.6-0.8h-2.3c-0.2-2.3-0.6-4.6-1.7-6.7c-0.8-1.7-1.7-3.1-2.9-4.4l-1-9.4
	c-1.7-12.5-13.5-16.5-19.8-18.5c-1.2-0.4-3.3-1-4.6-1.7C390.4,78.3,392.5,76.5,395.2,74.8z M404,122.7c-10.4,4.4-21.7,6.9-32.5,6.9
	H370c-2.1,0-2.7-1-2.3-3.5c4.2-4.4,18.7-8.5,28.1-8.5c2.3,0,4.2,0.2,5.6,0.8C403.4,118.5,404.8,121,404,122.7z M56.7,169
	c2.1-3.7,4.8-8.3,7.1-14.4c3.7-10.2,3.7-19.8,3.7-28.3c-0.2-6.5-0.2-11.9,1.2-16.7c11.5-14.6,24.4-27.5,38.7-39
	c6.9-3.8,12.5-4.4,20.8-4.4h7.5l2.5,0.2c7.9,0,13.7,0.4,17.9,0.8c-2.9,4.2-5,10.2-3.1,18.3c2.7,10.8,11.7,17.5,23.3,17.5
	c6,0,11.7-1.7,16-3.1c6.9-2.1,12.5-5,17.3-7.7c6.2-3.3,10-5.2,14-5.2c1.7,0,3.5,0.4,5.6,1c6,1.9,12.1,7.1,11.5,13.1
	c-0.4,2.9-1,3.7-1,3.7c-1,1-6.5,2.1-9.6,2.7c-3.1,0.6-6.2,1.2-9.6,2.1c-22.5,6-38.5,22.1-52.7,36.3c-10.8,10.8-21.3,21.2-33.1,26
	c-1.5,0.4-5.6,0.6-8.3,0.8c-10.2,0.6-24,1.5-32.1,12.1c-3.3,4.2-6.9,11.7-4.8,22.9c0.4,2.3,1,4.4,2.1,6.5c-1.2-1-2.5-1.9-3.8-2.9
	c-10.6-8.5-25.2-20.4-32.1-31C52.7,175.6,52.7,175.6,56.7,169z M250,479.2C123.6,479.2,20.9,376.5,20.9,250
	c0-41.9,11.2-80.8,30.8-114.6c-0.2,4.6-0.8,9.2-2.5,13.7c-6,16.5-17.9,21.7-6.5,39.6c8.1,12.9,23.8,25.4,35.6,35
	c15.8,12.9,36.2,25.2,57.1,27.9c2.9,0.4,5.4,0.6,7.5,0.6c10,0,7.5-5-2.9-16.5c-7.9-8.8-32.9-18.8-35-30.8
	c-4.2-21.2,24.4-14,35.4-18.3c32.3-12.9,49.6-52.5,84.4-61.9c14.6-3.7,29.6-2.1,31.5-22.1c1.5-14-9.6-25.4-22.1-29.6
	c-3.7-1-7.3-1.7-10.4-1.7c-13.3,0-22.1,9.4-35.8,13.5c-2.5,0.8-7.3,2.5-11.5,2.5c-3.7,0-7.1-1.2-8.1-5.6c-1.9-7.5,5.2-8.5,8.7-13.8
	c12.1-18.3-33.5-17.3-40.2-17.3c33.3-19.2,71.9-30,113.1-30c50,0,96,16,133.7,43.1c-7.1,5.2-12.1,12.7-9.4,21.9
	c3.3,11,23.3,9.8,24.2,16.2c-11,2.3-71.9,8.5-55.2,32.1c6.3,10.4,16,13.7,26.5,13.7c11.7,0,24.2-4.2,33.7-7.3
	c7.7-2.5,11.9-4.6,18.5-4.6c2.1,0,4.4,0.2,7.1,0.6c6.5,1,16,6.9,23.8,7.1c6.9,12.7,12.3,26.3,16.7,40.2h-1c-4.2,0-8.3,0.2-12.5,0.2
	c-1.7,0-3.5,0-5.2-0.2c-18.8-1.5-17.7-14.6-30.2-20.6c-3.3-1.7-7.3-2.5-11.5-2.5c-11.7,0-25.4,5.2-35.2,7.7
	c-24.2,6.3-31.7,10.4-40.4,34.4c-10.2,28.5-2.5,59.2,29.8,61.5c0.4,0,1,0.2,1.7,0.2c7.5,0,17.7-3.1,26.7-3.1c5.6,0,10.6,1.2,14.4,5
	c6.5,6.9,0,12.7,3.3,20.2c4.2,9,11.7,9.4,12.7,20.6c1.5,16.5-14.4,24-8.3,40.6c2.1,5.6,9,12.1,11.7,18.3c2.9,6,3.1,12.9,7.5,18.1
	c0.4,0.6,1,1,1.7,1.7C392.7,442.5,325.7,479.2,250,479.2z M443.8,372.1c-0.2-0.8-0.4-2.1-0.8-3.1c-0.6-2.5-1.7-5.8-3.3-9.4
	c-1.9-4.4-4.8-8.1-7.3-11.5c-1.2-1.9-3.3-4.6-3.7-5.6c-0.8-2.3-0.8-3.3,2.5-9.6c3.1-6.5,7.5-15.2,6.5-27.1
	c-1-12.3-7.3-18.5-10.8-22.3c-1.5-1.2-2.1-2.1-2.7-2.7c0.2-0.4,0.2-0.8,0.2-1.2c0.6-4.8,1.9-14.6-6.9-24c-6.3-6.5-14.8-9.8-25.6-9.8
	c-6,0-11.9,1-17.1,1.9c-3.5,0.6-7.3,1-10,1h-0.2c-7.5-0.4-12.7-3.1-15.8-7.9c-4.8-7.5-4.8-20-0.2-32.7c6.5-18.1,9-19.2,29.4-24.4
	c2.7-0.6,5.6-1.5,8.7-2.5c7.5-2.1,16.3-4.8,22.7-4.8c2.7,0,4.2,0.6,4.6,0.8c1.7,0.8,2.9,2.3,5.2,5.2c5,6,12.5,15.6,30.4,17.1
	c2.3,0.2,4.6,0.2,6.7,0.2h6.7c2.1-0.2,4-0.2,5.8-0.2c2.1,0,3.7,0,5,0.2c3.7,16.3,5.6,32.9,5.6,50.2
	C479.2,295,466.3,336.7,443.8,372.1z M184.5,253.3c3.3,0,7.3,0.6,11.8,1.7c10,2.5,18,8.7,27.4,15.8c8.6,6.6,17.5,13.4,28.9,18.1
	c14.2,5.9,17.1,10.7,17.7,12.6c1,3.1-0.8,8.7-5,15.3c-2.9,4.7-5.8,9.4-8.7,14.2c-9.5,15.6-19.4,31.8-30.3,45.5
	c-8.4,10.5-17,21.4-18.6,40c-2.5-6.3-4.5-12.1-5.1-15.3c-1.6-7.6-1.4-16.9-1.2-26.7c0.3-16.3,0.6-34.8-7.5-50.8
	c-5.5-10.9-13.7-15.6-19.1-18.7c-2.9-1.7-4.6-2.7-5.7-4c-3.5-4.3-3.5-6.9-1.8-18.7l0.2-1.1C171.4,253.3,178.4,253.3,184.5,253.3
	L184.5,253.3z M184.5,237.6c-21.3,0-28.8,15.6-32.5,41.2c-1.8,12.5-3.4,21.7,5.1,32c7,8.4,17.1,8.2,22.9,19.8
	c10.7,21.1,2.7,50.7,7.4,73.7c1.6,7.6,17,53.4,32.3,53.4c2,0,4-0.8,5.9-2.5c7.1-6.3-2.5-26.6-2.4-34.4c0.4-15.4,6.3-23.3,15.4-34.7
	c14.8-18.6,27.3-40.7,40-61.1c15.8-25.3,5.9-39.8-20-50.6c-21.5-8.9-35-28.7-58.4-34.6C194.2,238.4,189,237.6,184.5,237.6
	L184.5,237.6z"/>
</svg>
