<?xml version="1.0" encoding="utf-8"?>
<!-- Generator: Adobe Illustrator 20.1.0, SVG Export Plug-In . SVG Version: 6.00 Build 0)  -->
<svg version="1.1" id="Layer_1" xmlns="http://www.w3.org/2000/svg" xmlns:xlink="http://www.w3.org/1999/xlink" x="0px" y="0px"
	 width="500px" height="500px" viewBox="0 0 500 500" enable-background="new 0 0 500 500" xml:space="preserve">
<g>
	<g>
		<path d="M192.9,32.9v160h-160v-160H192.9 M215.7,10H10v205.7h205.7V10L215.7,10z"/>
	</g>
	<g>
		<path d="M467.1,32.9v160h-160v-160H467.1 M490,10H284.3v205.7H490V10L490,10z"/>
	</g>
	<g>
		<path d="M192.9,307.1v160h-160v-160H192.9 M215.7,284.3H10V490h205.7V284.3L215.7,284.3z"/>
	</g>
	<g>
		<path d="M467.1,307.1v160h-160v-160H467.1 M490,284.3H284.3V490H490V284.3L490,284.3z"/>
	</g>
</g>
</svg>
