<?xml version="1.0" encoding="utf-8"?>
<!-- Generator: Adobe Illustrator 20.1.0, SVG Export Plug-In . SVG Version: 6.00 Build 0)  -->
<svg version="1.1" id="Layer_1" xmlns="http://www.w3.org/2000/svg" xmlns:xlink="http://www.w3.org/1999/xlink" x="0px" y="0px"
	 width="500px" height="500px" viewBox="0 0 500 500" enable-background="new 0 0 500 500" xml:space="preserve">
<path fill="#231F20" d="M463.6,104.6H36.4c-9,0-16.4-7.3-16.4-16.4s7.3-16.4,16.4-16.4h427.2c9,0,16.4,7.3,16.4,16.4
	S472.7,104.6,463.6,104.6z M480,250c0-9-7.3-16.4-16.4-16.4H36.4c-9,0-16.4,7.3-16.4,16.4c0,9,7.3,16.4,16.4,16.4h427.2
	C472.7,266.4,480,259,480,250z M480,411.8c0-9-7.3-16.4-16.4-16.4H36.4c-9,0-16.4,7.3-16.4,16.4c0,9,7.3,16.4,16.4,16.4h427.2
	C472.7,428.2,480,420.8,480,411.8z"/>
</svg>
