<?xml version="1.0" encoding="utf-8"?>
<!-- Generator: Adobe Illustrator 20.1.0, SVG Export Plug-In . SVG Version: 6.00 Build 0)  -->
<svg version="1.1" id="Layer_1" xmlns="http://www.w3.org/2000/svg" xmlns:xlink="http://www.w3.org/1999/xlink" x="0px" y="0px"
	 width="500px" height="500px" viewBox="0 0 500 500" enable-background="new 0 0 500 500" xml:space="preserve">
<g>
	<path fill="#231F20" d="M464.4,68.1c-23.7-24.6-55-36.9-86.2-36.9s-62.7,12.3-86.5,36.9L250,111.2l-41.7-43.1
		c-23.8-24.6-55.2-36.9-86.5-36.9S59.4,43.5,35.6,68.1C11.9,92.7,0,125,0,157.5s11.9,64.8,35.6,89.4l64,66.2l64.2,66.2l86.3,89.4
		l86.3-89.4l64.2-66.2l64-66.2C511.9,197.7,511.9,117.3,464.4,68.1z M449.4,232.3l-63.5,65.8l-14.4,15l-2.1,2.1v0.2L321.2,365
		l-47.1,48.8l-24.2,25l-24.2-25L178.8,365l-48.1-49.6v-0.2l-2.1-2.1l-14.4-15l-63.5-65.8c-40-41.2-40-108.3,0-149.8
		c19-19.6,44.4-30.4,71.2-30.4c27.1,0,52.3,10.8,71.5,30.4l42.3,43.8l14.4,15l14.4-15l42.3-43.8c19.2-19.6,44.4-30.4,71.5-30.4
		c26.9,0,52.3,10.8,71.2,30.4C489.4,124,489.4,191,449.4,232.3z"/>
</g>
</svg>
