<?xml version="1.0" encoding="utf-8"?>
<!-- Generator: Adobe Illustrator 20.1.0, SVG Export Plug-In . SVG Version: 6.00 Build 0)  -->
<svg version="1.1" id="Layer_1" xmlns="http://www.w3.org/2000/svg" xmlns:xlink="http://www.w3.org/1999/xlink" x="0px" y="0px"
	 width="500px" height="500px" viewBox="0 0 500 500" enable-background="new 0 0 500 500" xml:space="preserve">
<g>
	<g>
		<path d="M250,407c-7.2,0-13-5.8-13-13V198.5c0-7.2,5.8-13,13-13c7.2,0,13,5.8,13,13V394C263,401.2,257.2,407,250,407z"/>
	</g>
	<g>
		<path d="M250,131.9c-8.6,0-15.6-7-15.6-15.6v-11.3c0-8.6,7-15.6,15.6-15.6c8.6,0,15.6,7,15.6,15.6v11.3
			C265.6,124.9,258.6,131.9,250,131.9z"/>
	</g>
	<g>
		<g>
			<path d="M250,20.8c126.4,0,229.2,102.8,229.2,229.2c0,61.2-23.8,118.8-67.1,162c-43.3,43.3-100.8,67.1-162,67.1
				C123.6,479.2,20.8,376.4,20.8,250C20.8,123.6,123.6,20.8,250,20.8 M250,0C111.9,0,0,111.9,0,250s111.9,250,250,250
				s250-111.9,250-250S388.1,0,250,0L250,0z"/>
		</g>
	</g>
</g>
</svg>
