<?xml version="1.0" encoding="utf-8"?>
<!-- Generator: Adobe Illustrator 20.1.0, SVG Export Plug-In . SVG Version: 6.00 Build 0)  -->
<svg version="1.1" id="Layer_1" xmlns="http://www.w3.org/2000/svg" xmlns:xlink="http://www.w3.org/1999/xlink" x="0px" y="0px"
	 width="500px" height="500px" viewBox="0 0 500 500" enable-background="new 0 0 500 500" xml:space="preserve">
<path d="M46.1,32.9c6.3,0,11.4,5.1,11.4,11.4s-5.1,11.4-11.4,11.4s-11.4-5.1-11.4-11.4S39.8,32.9,46.1,32.9 M46.1,10
	c-18.9,0-34.3,15.4-34.3,34.3s15.4,34.3,34.3,34.3s34.3-15.4,34.3-34.3S65,10,46.1,10L46.1,10z M46.1,307.1
	c6.3,0,11.4,5.1,11.4,11.4c0,6.3-5.1,11.4-11.4,11.4s-11.4-5.1-11.4-11.4C34.6,312.3,39.8,307.1,46.1,307.1 M46.1,284.3
	c-18.9,0-34.3,15.4-34.3,34.3s15.4,34.3,34.3,34.3s34.3-15.4,34.3-34.3S65,284.3,46.1,284.3L46.1,284.3z M46.1,444.3
	c6.3,0,11.4,5.1,11.4,11.4c0,6.3-5.1,11.4-11.4,11.4s-11.4-5.1-11.4-11.4C34.6,449.4,39.8,444.3,46.1,444.3 M46.1,421.4
	c-18.9,0-34.3,15.4-34.3,34.3S27.1,490,46.1,490s34.3-15.4,34.3-34.3S65,421.4,46.1,421.4L46.1,421.4z M488.2,44.3
	c0-6.3-5.1-11.4-11.4-11.4H160.7c-6.3,0-11.4,5.1-11.4,11.4s5.1,11.4,11.4,11.4h316.1C483.1,55.7,488.2,50.6,488.2,44.3z
	 M488.2,318.6c0-6.3-5.1-11.4-11.4-11.4H160.7c-6.3,0-11.4,5.1-11.4,11.4c0,6.3,5.1,11.4,11.4,11.4h316.1
	C483.1,330,488.2,324.9,488.2,318.6z M46.1,170c6.3,0,11.4,5.1,11.4,11.4s-5.1,11.4-11.4,11.4s-11.4-5.1-11.4-11.4
	S39.8,170,46.1,170 M46.1,147.1c-18.9,0-34.3,15.4-34.3,34.3s15.4,34.3,34.3,34.3s34.3-15.4,34.3-34.3S65,147.1,46.1,147.1
	L46.1,147.1z M488.2,181.4c0-6.3-5.1-11.4-11.4-11.4H160.7c-6.3,0-11.4,5.1-11.4,11.4c0,6.3,5.1,11.4,11.4,11.4h316.1
	C483.1,192.9,488.2,187.7,488.2,181.4z M488.2,455.7c0-6.3-5.1-11.4-11.4-11.4H160.7c-6.3,0-11.4,5.1-11.4,11.4
	c0,6.3,5.1,11.4,11.4,11.4h316.1C483.1,467.1,488.2,462,488.2,455.7z"/>
</svg>
