<?xml version="1.0" encoding="utf-8"?>
<!-- Generator: Adobe Illustrator 20.1.0, SVG Export Plug-In . SVG Version: 6.00 Build 0)  -->
<svg version="1.1" id="Layer_1" xmlns="http://www.w3.org/2000/svg" xmlns:xlink="http://www.w3.org/1999/xlink" x="0px" y="0px"
	 width="500px" height="500px" viewBox="0 0 500 500" enable-background="new 0 0 500 500" xml:space="preserve">
<path d="M35.7,214.3V500h428.6V214.3H35.7z M440.5,476.2h-381V238.1h381V476.2z M250,0c-74,0-142.9,60-142.9,133.8v56.7H131v-56.7
	c0-58.6,55.7-110,119-110s119,51.4,119,110v56.7h23.8v-56.7C392.9,60,324,0,250,0z M305,321.4c0-13.6-5-26-12.9-35.7
	c-10.2-11.7-25.2-19.3-42.1-19.3s-31.9,7.6-42.1,19.3c-7.9,9.8-12.9,22.1-12.9,35.7c0,18.1,8.8,34.3,22.1,44.3l-17.9,74.8h102.4
	l-21.4-72.9C295,357.6,305,340.7,305,321.4z M252.1,356l5.7,19.8l11.9,41h-40.5l10-41.4l5-20.7c0.2-1,0.2-1.9,0.2-2.6
	c-7.4-1.2-13.6-5-17.9-10.2c-5-5.5-7.9-12.6-7.9-20.2c0-17.1,14-31.2,31.2-31.2s31.2,14,31.2,31.2c0,9-3.8,17.1-10,22.4
	c-5.2,5.2-11.9,8.3-19.5,8.6C251.7,353.6,251.7,354.8,252.1,356z"/>
</svg>
