<?xml version="1.0" encoding="utf-8"?>
<!-- Generator: Adobe Illustrator 20.1.0, SVG Export Plug-In . SVG Version: 6.00 Build 0)  -->
<svg version="1.1" id="Layer_1" xmlns="http://www.w3.org/2000/svg" xmlns:xlink="http://www.w3.org/1999/xlink" x="0px" y="0px"
	 width="500px" height="500px" viewBox="0 0 500 500" enable-background="new 0 0 500 500" xml:space="preserve">
<g>
	<g>
		<path d="M430.8,327.5v5.6c-3.6-0.7-7.4-0.9-11.2-0.9c-3.8,0-7.6,0.2-11.2,0.9v-5.6c0-1.6-0.2-3.4-0.4-4.9
			c-2.9-30.2-38.9-41.6-76.8-53.4c-30.8-9.8-64.6-20.6-81.5-43.8c-17,23.2-50.7,34-81.5,43.8c-48,15.2-77.3,26.6-77.3,58.3v5.4
			c-3.4-0.4-6.9-0.7-10.5-0.7c-4,0-8,0.2-11.8,0.9v-5.6c0-50.5,49.4-65.9,92.9-79.8c48-15,77.1-26.6,77.1-58.3v-22.6
			c3.6,0.7,7.4,0.9,11.2,0.9s7.6-0.2,11.2-0.9v22.6c0,31.7,29,43.3,77.1,58.3c41.1,13.2,87.8,27.7,92.5,72.6
			C430.6,322.6,430.8,325.1,430.8,327.5z"/>
	</g>
	<g>
		<g>
			<path d="M249.7,15.7c-35.7,0-64.8,29-64.8,64.8c0,32.2,23.2,58.8,53.6,63.9c3.6,0.9,7.4,1.1,11.2,1.1s7.6-0.2,11.2-1.1
				c30.4-5.1,53.6-31.7,53.6-63.9C314.4,44.7,285.4,15.7,249.7,15.7z M249.7,123.1c-23.5,0-42.4-19.2-42.4-42.7
				c0-23.5,19-42.4,42.4-42.4s42.4,19,42.4,42.4C292.1,103.9,273.1,123.1,249.7,123.1z"/>
		</g>
	</g>
	<g>
		<g>
			<path d="M430.8,355.7c-3.6-0.9-7.4-1.1-11.2-1.1c-3.8,0-7.6,0.2-11.2,0.9c-30.6,5.4-53.8,31.9-53.8,64.1c0,35.7,29,64.8,65,64.8
				c35.7,0,64.8-29,64.8-64.8C484.4,387.4,461.2,360.8,430.8,355.7z M419.7,462c-23.5,0-42.7-19-42.7-42.4
				c0-23.5,19.2-42.7,42.7-42.7c23.5,0,42.4,19.2,42.4,42.7C462.1,443,443.1,462,419.7,462z"/>
		</g>
	</g>
	<g>
		<g>
			<path d="M90.8,355.4c-3.4-0.7-6.9-0.9-10.5-0.9c-4,0-8,0.4-11.8,1.1c-30.2,5.6-52.9,31.9-52.9,63.9c0,35.7,29,64.8,64.8,64.8
				c35.7,0,64.8-29,64.8-64.8C145.1,387.2,121.7,360.4,90.8,355.4z M80.3,462c-23.5,0-42.4-19-42.4-42.4c0-23.5,19-42.7,42.4-42.7
				s42.4,19.2,42.4,42.7C122.8,443,103.8,462,80.3,462z"/>
		</g>
	</g>
</g>
</svg>
