<?xml version="1.0" encoding="utf-8"?>
<!-- Generator: Adobe Illustrator 20.1.0, SVG Export Plug-In . SVG Version: 6.00 Build 0)  -->
<svg version="1.1" id="Layer_1" xmlns="http://www.w3.org/2000/svg" xmlns:xlink="http://www.w3.org/1999/xlink" x="0px" y="0px"
	 width="500px" height="500px" viewBox="0 0 500 500" enable-background="new 0 0 500 500" xml:space="preserve">
<path d="M413.9,258.4l86.1-86.1L327.7,0l-86.1,86.1l28.7,28.7L184,201l-28.7-28.7l-86.1,86.1l172.2,172.2l86.2-86.2l-28.5-28.5
	l86.1-86.1L413.9,258.4z M293.9,344.3L241.6,397L103,258.4l52.5-52.5l28.7,28.7L304,114.8l-28.7-28.7l52.3-52.3l138.6,138.6
	l-52.3,52.3L385.2,196L265.4,315.8L293.9,344.3z M121.7,361.6l16.7,16.7L20.3,496.4c-2.4,2.4-5.3,3.6-8.4,3.6s-6.2-1.2-8.4-3.6
	c-4.8-4.5-4.8-12.2,0-16.9L121.7,361.6z"/>
</svg>
