<?xml version="1.0" encoding="utf-8"?>
<!-- Generator: Adobe Illustrator 20.1.0, SVG Export Plug-In . SVG Version: 6.00 Build 0)  -->
<svg version="1.1" id="Layer_1" xmlns="http://www.w3.org/2000/svg" xmlns:xlink="http://www.w3.org/1999/xlink" x="0px" y="0px"
	 width="500px" height="500px" viewBox="0 0 500 500" enable-background="new 0 0 500 500" xml:space="preserve">
<g>
	<path d="M480,250c0,8.2-6.7,14.9-14.9,14.9H264.9v200.2c0,8.2-6.5,14.9-14.9,14.9c-8.4,0-14.9-6.7-14.9-14.9V264.9H34.9
		c-8.2,0-14.9-6.7-14.9-14.9c0-8.2,6.7-14.9,14.9-14.9h200.2V34.9c0-8.2,6.5-14.9,14.9-14.9c8.4,0,14.9,6.7,14.9,14.9v200.2h200.2
		C473.3,235.1,480,241.8,480,250z"/>
</g>
</svg>
