<?xml version="1.0" encoding="utf-8"?>
<!-- Generator: Adobe Illustrator 20.1.0, SVG Export Plug-In . SVG Version: 6.00 Build 0)  -->
<svg version="1.1" id="Layer_1" xmlns="http://www.w3.org/2000/svg" xmlns:xlink="http://www.w3.org/1999/xlink" x="0px" y="0px"
	 width="500px" height="500px" viewBox="0 0 500 500" enable-background="new 0 0 500 500" xml:space="preserve">
<g>
	<g>
		<g>
			<path d="M250,20.8c126.4,0,229.2,102.8,229.2,229.2S376.4,479.2,250,479.2S20.8,376.4,20.8,250S123.6,20.8,250,20.8 M250,0
				C111.9,0,0,111.9,0,250s111.9,250,250,250s250-111.9,250-250S388.1,0,250,0L250,0z"/>
		</g>
	</g>
	<g>
		<path d="M250,411.4c-8.6,0-15.6-7-15.6-15.6v-18.9c0-8.6,7-15.6,15.6-15.6c8.6,0,15.6,7,15.6,15.6v18.9
			C265.6,404.4,258.6,411.4,250,411.4z"/>
	</g>
	<g>
		<path d="M250,324.2c-7.2,0-13-5.8-13-13v-62.8h13c34.8,0,63.2-28.3,63.2-63.1s-28.3-63.1-63.2-63.1c-34.8,0-63.1,28.3-63.1,63.1
			c0,7.2-5.8,13-13,13c-7.2,0-13-5.8-13-13c0-49.2,40-89.2,89.2-89.2s89.2,40,89.2,89.2c0,44.8-33.1,81.9-76.2,88.2v37.7
			C263,318.4,257.2,324.2,250,324.2z"/>
	</g>
</g>
</svg>
