<?xml version="1.0" encoding="utf-8"?>
<!-- Generator: Adobe Illustrator 20.1.0, SVG Export Plug-In . SVG Version: 6.00 Build 0)  -->
<svg version="1.1" id="Layer_1" xmlns="http://www.w3.org/2000/svg" xmlns:xlink="http://www.w3.org/1999/xlink" x="0px" y="0px"
	 width="500px" height="500px" viewBox="0 0 500 500" enable-background="new 0 0 500 500" xml:space="preserve">
<g>
	<path d="M500,196.1C500,135.9,451.1,87,390.9,87s-109.1,48.9-109.1,109.1s48.9,109.1,109.1,109.1c28,0,53.3-10.9,72.7-28.2
		c-28.2,67-93,115.1-166.5,115.1V413c109.6,0,202.2-95.9,202.2-209.4h0C499.4,201.1,500,198.7,500,196.1z M390.9,284.3
		c-48.6,0-88.2-39.5-88.2-88.2s39.6-88.2,88.2-88.2s88.2,39.5,88.2,88.2S439.5,284.3,390.9,284.3z"/>
	<path d="M109.1,87C48.9,87,0,135.9,0,196.1s48.9,109.1,109.1,109.1c28,0,53.3-10.9,72.7-28.3c-28.2,67-93,115.2-166.5,115.2V413
		c109.6,0,202.2-95.9,202.2-209.4h0c0.2-2.5,0.8-4.9,0.8-7.5C218.3,135.9,169.4,87,109.1,87z M109.1,284.3
		c-48.6,0-88.2-39.5-88.2-88.2S60.5,108,109.1,108s88.2,39.5,88.2,88.2S157.7,284.3,109.1,284.3z"/>
</g>
</svg>
