<?xml version="1.0" encoding="utf-8"?>
<!-- Generator: Adobe Illustrator 20.1.0, SVG Export Plug-In . SVG Version: 6.00 Build 0)  -->
<svg version="1.1" id="Layer_1" xmlns="http://www.w3.org/2000/svg" xmlns:xlink="http://www.w3.org/1999/xlink" x="0px" y="0px"
	 width="500px" height="500px" viewBox="0 0 500 500" enable-background="new 0 0 500 500" xml:space="preserve">
<g>
	<path d="M109.1,194.7c-28,0-53.3,10.9-72.7,28.2c28.2-67,93-115.1,166.5-115.1V87C93.3,87,0.7,182.9,0.7,296.4h0
		c-0.2,2.5-0.8,4.9-0.8,7.5C0,364.1,48.9,413,109.1,413s109.1-48.9,109.1-109.1C218.3,243.6,169.4,194.7,109.1,194.7z M109.1,392
		C60.5,392,21,352.5,21,303.9s39.5-88.2,88.2-88.2s88.2,39.6,88.2,88.2S157.7,392,109.1,392z"/>
	<path d="M390.9,194.7c-28,0-53.3,10.9-72.7,28.3c28.2-67,93-115.1,166.5-115.1V87c-109.6,0-202.2,95.9-202.2,209.4h0
		c-0.2,2.5-0.8,4.9-0.8,7.5c0,60.3,48.9,109.1,109.1,109.1S500,364.1,500,303.9C500,243.6,451.1,194.7,390.9,194.7z M390.9,392
		c-48.6,0-88.2-39.5-88.2-88.2s39.6-88.2,88.2-88.2s88.2,39.6,88.2,88.2S439.5,392,390.9,392z"/>
</g>
</svg>
