<?xml version="1.0" encoding="utf-8"?>
<!-- Generator: Adobe Illustrator 20.1.0, SVG Export Plug-In . SVG Version: 6.00 Build 0)  -->
<svg version="1.1" id="Layer_1" xmlns="http://www.w3.org/2000/svg" xmlns:xlink="http://www.w3.org/1999/xlink" x="0px" y="0px"
	 width="500px" height="500px" viewBox="0 0 500 500" enable-background="new 0 0 500 500" xml:space="preserve">
<path d="M497,496.6c-2.1,1.9-4.8,2.9-7.5,2.9c-2.5,0-5.2-1-7.3-2.9L347.8,362.3c5-4.8,10-9.8,14.8-14.8L497,481.8
	C501,485.8,501,492.5,497,496.6z M381.2,191.2c0,48.6-18.2,92.9-48.2,126.7c-4.6,5.2-9.6,10.2-14.8,14.8
	c-33.8,30.5-78.5,49-127.5,49C85.3,381.7,0,296.3,0,191.2C0,85.8,85.3,0.4,190.7,0.4C295.9,0.4,381.2,85.8,381.2,191.2z
	 M360.4,191.2c0-93.7-76.2-169.8-169.6-169.8C97,21.3,20.9,97.5,20.9,191.2c0,93.5,76.2,169.6,169.8,169.6
	C284.2,360.8,360.4,284.6,360.4,191.2z"/>
</svg>
