<?xml version="1.0" encoding="iso-8859-1"?>
<!-- Generator: Adobe Illustrator 20.1.0, SVG Export Plug-In . SVG Version: 6.00 Build 0)  -->
<svg version="1.1" id="Layer_1" xmlns="http://www.w3.org/2000/svg" xmlns:xlink="http://www.w3.org/1999/xlink" x="0px" y="0px"
	 width="500px" height="500px" viewBox="0 0 500 500" enable-background="new 0 0 500 500" xml:space="preserve">
<g>
	<g>
		<path fill="#231F20" d="M446.8,20H53.2C35.3,20,20,35.3,20,53.2v393.6c0,17.9,15.3,33.2,33.2,33.2h212.1V301.1h-58.8v-69h58.8V181
			c0-58.8,35.8-92,89.4-92c25.6,0,48.6,2.6,53.7,2.6v61.3h-35.8c-28.1,0-35.8,12.8-35.8,33.2v43.4h69l-7.7,71.6h-58.8V480h107.3
			c17.9,0,33.2-15.3,33.2-33.2V53.2C480,35.3,464.7,20,446.8,20z"/>
	</g>
</g>
</svg>
