<?xml version="1.0" encoding="iso-8859-1"?>
<!-- Generator: Adobe Illustrator 20.1.0, SVG Export Plug-In . SVG Version: 6.00 Build 0)  -->
<svg version="1.1" id="Layer_1" xmlns="http://www.w3.org/2000/svg" xmlns:xlink="http://www.w3.org/1999/xlink" x="0px" y="0px"
	 width="500px" height="500px" viewBox="0 0 500 500" enable-background="new 0 0 500 500" xml:space="preserve">
<g>
	<g>
		<path fill="#231F20" d="M447.9,20H54.4c-17.9,0-33.2,15.3-33.2,33.2v393.6c0,17.9,15.3,33.2,33.2,33.2h391
			c17.9,0,33.2-15.3,33.2-33.2V53.2C481.1,35.3,465.8,20,447.9,20z M156.6,411H90.1V191.2h69V411H156.6z M123.4,163.1
			c-23,0-38.3-17.9-38.3-40.9s17.9-38.3,38.3-38.3c23,0,38.3,17.9,38.3,38.3C164.2,145.2,146.4,163.1,123.4,163.1z M412.1,411h-69
			V303.7c0-25.6,0-58.8-35.8-58.8s-40.9,28.1-40.9,56.2v107.3H200V191.2h66.4v30.7l0,0c10.2-17.9,30.7-35.8,63.9-35.8
			c69,0,81.8,46,81.8,104.8V411z"/>
	</g>
</g>
</svg>
