<?xml version="1.0" encoding="iso-8859-1"?>
<!-- Generator: Adobe Illustrator 20.1.0, SVG Export Plug-In . SVG Version: 6.00 Build 0)  -->
<svg version="1.1" id="Layer_1" xmlns="http://www.w3.org/2000/svg" xmlns:xlink="http://www.w3.org/1999/xlink" x="0px" y="0px"
	 width="500px" height="500px" viewBox="0 0 500 500" enable-background="new 0 0 500 500" xml:space="preserve">
<path fill="#231F20" d="M448.1,20H54.2C36.3,20,21,35.3,21,53.2v393.6c0,17.9,15.3,33.2,33.2,33.2h391.3c17.9,0,33.2-15.3,33.2-33.2
	V53.2C481.3,35.3,466,20,448.1,20z M391.8,175.9c0,2.6,0,7.7,0,10.2c0,94.6-74.2,207-207.1,207c-40.9,0-76.7-10.2-112.5-30.7
	c7.7,0,10.2,0,17.9,0c35.8,0,66.5-10.2,92.1-30.7c-30.7,0-58.8-20.4-66.5-48.6c2.6,0,10.2,0,12.8,0c7.7,0,12.8,0,17.9-2.6
	c-33.2-10.2-58.8-38.3-58.8-71.6c12.8,2.6,25.6,7.7,35.8,7.7C102.8,204,90,181,90,155.4c0-12.8,2.6-25.6,10.2-35.8
	c35.8,40.9,87,74.1,150.9,76.7c0-7.7-2.6-10.2-2.6-17.9c0-38.3,30.7-74.1,74.2-74.1c20.5,0,38.4,10.2,53.7,25.6
	c17.9-2.6,30.7-10.2,46-17.9c-7.7,17.9-17.9,30.7-30.7,38.3c12.8,0,28.1-7.7,40.9-10.2C419.9,155.4,404.6,168.2,391.8,175.9z"/>
</svg>
