<?xml version="1.0" encoding="utf-8"?>
<!-- Generator: Adobe Illustrator 20.1.0, SVG Export Plug-In . SVG Version: 6.00 Build 0)  -->
<svg version="1.1" id="Layer_1" xmlns="http://www.w3.org/2000/svg" xmlns:xlink="http://www.w3.org/1999/xlink" x="0px" y="0px"
	 width="500px" height="500px" viewBox="0 0 500 500" enable-background="new 0 0 500 500" xml:space="preserve">
<path d="M295.2,156.9l-80.4,48.3c-2.7-6.5-6-12.7-10-18.3l80.4-48.3C287.9,145,291.2,151.3,295.2,156.9z M204.8,313.1l80.4,48.3
	c2.7-6.5,6-12.7,10-18.3l-80.4-48.3C212.1,301.2,208.8,307.5,204.8,313.1z M484.4,93.8c0,51.9-41.9,93.8-93.8,93.8
	c-32.5,0-61-16.5-77.7-41.3c-4-5.8-7.1-11.9-9.6-18.5c-4.2-10.4-6.5-22.1-6.5-34c0-51.9,41.9-93.8,93.8-93.8S484.4,41.9,484.4,93.8z
	 M463.5,93.8c0-40.2-32.7-72.9-72.9-72.9s-72.9,32.7-72.9,72.9c0,7.9,1.2,15.6,3.7,22.9c2.3,6.7,5.4,13.1,9.6,18.8
	c13.1,19,35,31.2,59.6,31.2C430.8,166.7,463.5,134,463.5,93.8z M484.4,406.2c0,51.9-41.9,93.8-93.8,93.8s-93.8-41.9-93.8-93.8
	c0-11.9,2.3-23.5,6.5-34c2.5-6.7,5.6-12.7,9.6-18.5c16.7-24.8,45.2-41.2,77.7-41.2C442.5,312.5,484.4,354.4,484.4,406.2z
	 M463.5,406.2c0-40.2-32.7-72.9-72.9-72.9c-24.6,0-46.5,12.3-59.6,31.2c-4.2,5.6-7.3,12.1-9.6,18.7c-2.5,7.3-3.7,15-3.7,22.9
	c0,40.2,32.7,72.9,72.9,72.9S463.5,446.5,463.5,406.2z M203.1,250c0,11.9-2.3,23.5-6.5,34c-2.5,6.7-5.6,12.7-9.6,18.5
	c-16.7,24.8-45.2,41.3-77.7,41.3c-51.9,0-93.8-41.9-93.8-93.8s41.9-93.8,93.8-93.8c32.5,0,61,16.5,77.7,41.2
	c4,5.8,7.1,11.9,9.6,18.5C200.8,226.5,203.1,238.1,203.1,250z M182.3,250c0-7.9-1.2-15.6-3.7-22.9c-2.3-6.7-5.4-13.1-9.6-18.7
	c-13.1-19-35-31.2-59.6-31.2c-40.2,0-72.9,32.7-72.9,72.9s32.7,72.9,72.9,72.9c24.6,0,46.5-12.3,59.6-31.2
	c4.2-5.6,7.3-12.1,9.6-18.8C181,265.6,182.3,257.9,182.3,250z"/>
</svg>
