<?xml version="1.0" encoding="utf-8"?>
<!-- Generator: Adobe Illustrator 20.1.0, SVG Export Plug-In . SVG Version: 6.00 Build 0)  -->
<svg version="1.1" id="Layer_1" xmlns="http://www.w3.org/2000/svg" xmlns:xlink="http://www.w3.org/1999/xlink" x="0px" y="0px"
	 width="500px" height="500px" viewBox="0 0 500 500" enable-background="new 0 0 500 500" xml:space="preserve">
<g>
	<g>
		<path d="M250,45.4c-138.1,0-250,84-250,187.5c0,51.9,28.1,98.7,73.3,132.7c-1.9,22.3-8.1,45.4-18.5,69.6
			c-2.3,5.6-4.6,10.6-0.2,15.8c0,0,2,2.5,3.8,3.3c1.4,0.6,6.4,0.2,6.4,0.2c29.6-6.5,65.6-27.9,93.5-47.3
			c28.3,8.5,59.4,13.1,91.7,13.1c138.1,0,250-84,250-187.5C500,129.3,388.1,45.4,250,45.4z M250,399.5c-24.4,0-47.7-2.7-69.6-7.9
			c-8.7-1.9-17.3-4.4-25.4-7.1c-6.5,4.4-13.7,9.4-21.5,14.4c-16.9,11.3-35.8,22.1-53.3,29c6.3-16.7,10.4-33.1,12.9-49.2
			c1-7.7,1.7-15.4,1.9-23.1c-7.5-5-14.6-10.4-21.3-16.3c-33.1-29-52.9-66-52.9-106.5C20.8,141,123.5,66.2,250,66.2
			S479.2,141,479.2,232.9C479.2,324.7,376.5,399.5,250,399.5z"/>
	</g>
</g>
</svg>
