<?xml version="1.0" encoding="utf-8"?>
<!-- Generator: Adobe Illustrator 20.1.0, SVG Export Plug-In . SVG Version: 6.00 Build 0)  -->
<svg version="1.1" id="Layer_1" xmlns="http://www.w3.org/2000/svg" xmlns:xlink="http://www.w3.org/1999/xlink" x="0px" y="0px"
	 width="500px" height="500px" viewBox="0 0 500 500" enable-background="new 0 0 500 500" xml:space="preserve">
<path d="M308.5,176.7l4.8,9.9l10.9,1.6l131.5,19.4l-95.4,94.3l-7.7,7.6l1.8,10.7L376.9,453l-117.1-62.5l-9.8-5.2l-9.8,5.2L123.1,453
	l22.4-132.8l1.8-10.7l-7.7-7.6l-95.4-94.3l131.5-19.4l10.9-1.6l4.8-9.9L250,56.3 M250,8.7l-77.3,158.9L0,193l125,123.7L95.5,491.3
	L250,408.9l154.5,82.4L375,316.7L500,193l-172.7-25.5L250,8.7L250,8.7z"/>
</svg>
