<?xml version="1.0" encoding="utf-8"?>
<!-- Generator: Adobe Illustrator 20.1.0, SVG Export Plug-In . SVG Version: 6.00 Build 0)  -->
<svg version="1.1" id="Layer_1" xmlns="http://www.w3.org/2000/svg" xmlns:xlink="http://www.w3.org/1999/xlink" x="0px" y="0px"
	 width="500px" height="500px" viewBox="0 0 500 500" enable-background="new 0 0 500 500" xml:space="preserve">
<path d="M415,186.7h-9.6c-6.7-84.2-48.5-165.8-148.5-165.8c-97.5,0-152.7,79.8-161.9,165.8h-9.6c-4,0-7.7,0.2-11.5,0.4
	C83.1,90.4,145.6,0,256.9,0C372,0,419.2,95.9,426.3,187.1C422.7,186.9,419,186.7,415,186.7z M415,332.9h-8.4v71.4c0,16.5-9,33-29,33
	h-38c0.8,3.6,1,7.3,1,11.3c0,3.3-0.2,6.5-0.6,9.6h37.6c28.8,0,49.9-22.8,49.9-53.9v-72.1C423.6,332.7,419.4,332.9,415,332.9z
	 M319.8,448.6c0,3.3-0.2,6.5-0.8,9.6c-4.6,23.8-25.5,41.8-50.3,41.8c-28.4,0-51.4-23-51.4-51.4c0-28.2,23-51.2,51.4-51.2
	c24.4,0,44.9,17.1,49.9,39.9C319.3,441.1,319.8,444.9,319.8,448.6z M297.2,458.2c1-2.9,1.7-6.3,1.7-9.6c0-4-0.8-7.9-2.1-11.3
	c-4.6-11.3-15.5-19-28.2-19c-16.7,0-30.5,13.6-30.5,30.3c0,16.9,13.8,30.5,30.5,30.5C282,479.1,293.4,470.3,297.2,458.2z
	 M135.1,207.6V312H85.4c-4.4,0-8.8-0.2-12.9-0.6c-24-2.7-41.8-14.4-41.8-51.6c0-37.4,18-49.1,42-51.6c4.2-0.4,8.4-0.6,12.7-0.6
	H135.1z M114.2,228.5H85.4c-5,0-9.2,0.2-12.9,0.8c-16.3,2.1-20.9,10.2-20.9,30.5c0,20.3,4.6,28.4,20.9,30.5
	c3.8,0.6,7.9,0.8,12.9,0.8h28.8V228.5z M469.3,259.8c0,37-17.8,48.9-41.8,51.6c-4,0.4-8.1,0.6-12.5,0.6h-50.1V207.6H415
	c4.2,0,8.4,0.2,12.3,0.6C451.3,210.7,469.3,222.6,469.3,259.8z M448.4,259.8c0-20.5-4.6-28.4-20.9-30.5c-3.6-0.6-7.7-0.8-12.5-0.8
	h-29.2v62.7H415c4.8,0,9-0.2,12.5-0.8C443.8,288.2,448.4,280.3,448.4,259.8z"/>
</svg>
