<?xml version="1.0" encoding="utf-8"?>
<!-- Generator: Adobe Illustrator 20.1.0, SVG Export Plug-In . SVG Version: 6.00 Build 0)  -->
<svg version="1.1" id="Layer_1" xmlns="http://www.w3.org/2000/svg" xmlns:xlink="http://www.w3.org/1999/xlink" x="0px" y="0px"
	 width="500px" height="500px" viewBox="0 0 500 500" enable-background="new 0 0 500 500" xml:space="preserve">
<g>
	<path d="M250,213.7c-20,0-36.3,16.2-36.3,36.3c0,20,16.2,36.3,36.3,36.3s36.3-16.2,36.3-36.3C286.3,230,270,213.7,250,213.7z
		 M250,265.4c-8.5,0-15.4-6.9-15.4-15.4c0-8.5,6.9-15.4,15.4-15.4c8.5,0,15.4,6.9,15.4,15.4C265.4,258.5,258.5,265.4,250,265.4z"/>
	<path d="M489.5,239.5h-24.3c-5.3-110.8-94-199.5-204.8-204.8V10.5C260.5,4.7,255.8,0,250,0s-10.5,4.7-10.5,10.5v24.3
		c-110.8,5.3-199.5,94-204.8,204.8H10.5C4.7,239.5,0,244.2,0,250s4.7,10.5,10.5,10.5h24.3c5.3,110.8,94,199.5,204.8,204.8v24.3
		c0,5.8,4.7,10.5,10.5,10.5s10.5-4.7,10.5-10.5v-24.3c110.8-5.3,199.5-94,204.8-204.8h24.3c5.8,0,10.5-4.7,10.5-10.5
		S495.3,239.5,489.5,239.5z M444.4,239.5h-71.6c-5-59.7-52.6-107.3-112.3-112.3V55.6C359.6,60.9,439.1,140.4,444.4,239.5z
		 M340.2,260.5h11.2c-5,48-42.9,85.9-90.9,90.9v-10.5c0-5.8-4.7-10.5-10.5-10.5s-10.5,4.7-10.5,10.5v10.5c-48-5-85.9-42.9-90.9-90.9
		h11.1c5.8,0,10.5-4.7,10.5-10.5s-4.7-10.5-10.5-10.5h-11.1c5-48,42.9-85.9,90.9-90.9v13.1c0,5.8,4.7,10.5,10.5,10.5
		s10.5-4.7,10.5-10.5v-13.1c48,5,85.9,42.9,90.9,90.9h-11.2c-5.8,0-10.5,4.7-10.5,10.5S334.4,260.5,340.2,260.5z M239.6,55.6v71.6
		c-59.7,5-107.3,52.6-112.3,112.3H55.6C60.9,140.4,140.4,60.9,239.6,55.6z M55.6,260.5h71.6c5,59.7,52.6,107.3,112.3,112.3v71.6
		C140.4,439.1,60.9,359.6,55.6,260.5z M260.5,444.4v-71.6c59.7-5,107.3-52.6,112.3-112.3h71.6C439.1,359.6,359.6,439.1,260.5,444.4z
		"/>
</g>
</svg>
