<?xml version="1.0" encoding="utf-8"?>
<!-- Generator: Adobe Illustrator 20.1.0, SVG Export Plug-In . SVG Version: 6.00 Build 0)  -->
<svg version="1.1" id="Layer_1" xmlns="http://www.w3.org/2000/svg" xmlns:xlink="http://www.w3.org/1999/xlink" x="0px" y="0px"
	 width="500px" height="500px" viewBox="0 0 500 500" enable-background="new 0 0 500 500" xml:space="preserve">
<g>
	<path d="M250,0C111.9,0,0,111.9,0,250c0,138.1,111.9,250,250,250c138.1,0,250-111.9,250-250C500,111.9,388.1,0,250,0z M250,479.2
		C123.6,479.2,20.8,376.4,20.8,250S123.6,20.8,250,20.8S479.2,123.6,479.2,250S376.4,479.2,250,479.2z"/>
	<path d="M352,145.2c-5.1-5.1-13.3-5.1-18.4,0L250,228.8l-83.6-83.6c-5.1-5.1-13.3-5.1-18.4,0c-5.1,5.1-5.1,13.3,0,18.4l83.6,83.6
		L148,330.8c-5.1,5.1-5.1,13.3,0,18.4c2.5,2.5,5.9,3.8,9.2,3.8c3.3,0,6.7-1.3,9.2-3.8l83.6-83.6l83.6,83.6c2.5,2.5,5.9,3.8,9.2,3.8
		c3.3,0,6.7-1.3,9.2-3.8c5.1-5.1,5.1-13.3,0-18.4l-83.6-83.6l83.6-83.6C357.1,158.5,357.1,150.3,352,145.2z"/>
</g>
</svg>
