<?xml version="1.0" encoding="utf-8"?>
<!-- Generator: Adobe Illustrator 20.1.0, SVG Export Plug-In . SVG Version: 6.00 Build 0)  -->
<svg version="1.1" id="Layer_1" xmlns="http://www.w3.org/2000/svg" xmlns:xlink="http://www.w3.org/1999/xlink" x="0px" y="0px"
	 width="500px" height="500px" viewBox="0 0 500 500" enable-background="new 0 0 500 500" xml:space="preserve">
<path d="M272.7,250L475.3,47.3c6.3-6.3,6.3-16.4,0-22.7c-6.3-6.3-16.4-6.3-22.6,0L250,227.4L47.3,24.7c-6.3-6.3-16.4-6.3-22.6,0
	s-6.3,16.4,0,22.7L227.3,250L24.7,452.7c-6.3,6.3-6.3,16.4,0,22.7c3.1,3.1,7.2,4.7,11.3,4.7s8.2-1.6,11.3-4.7L250,272.7l202.7,202.7
	c3.1,3.1,7.2,4.7,11.3,4.7c4.1,0,8.2-1.6,11.3-4.7c6.3-6.3,6.3-16.4,0-22.7L272.7,250z"/>
</svg>
