<?xml version="1.0" encoding="utf-8"?>
<!-- Generator: Adobe Illustrator 20.1.0, SVG Export Plug-In . SVG Version: 6.00 Build 0)  -->
<svg version="1.1" id="Layer_1" xmlns="http://www.w3.org/2000/svg" xmlns:xlink="http://www.w3.org/1999/xlink" x="0px" y="0px"
	 width="500px" height="500px" viewBox="0 0 500 500" enable-background="new 0 0 500 500" xml:space="preserve">
<path d="M413.2,202.3v273.8H86.8V202.3H62.9V500h374.2V202.3H413.2z M35.7,71.5v107h428.5v-107H35.7z M440.4,154.7H59.6V95.3h380.8
	V154.7z M156.6,0v47.7h23.8V23.8h139.2v23.8h23.8V0H156.6z M250,425.9c-6.6,0-11.9-5.3-11.9-11.9V229.5c0-6.6,5.3-11.9,11.9-11.9
	s11.9,5.3,11.9,11.9V414C261.9,420.6,256.6,425.9,250,425.9z M160.7,425.3c-6.6,0-11.9-5.3-11.9-11.9V229c0-6.6,5.3-11.9,11.9-11.9
	c6.6,0,11.9,5.3,11.9,11.9v184.4C172.6,420,167.3,425.3,160.7,425.3z M339.3,425.9c-6.6,0-11.9-5.3-11.9-11.9V229.5
	c0-6.6,5.3-11.9,11.9-11.9c6.6,0,11.9,5.3,11.9,11.9V414C351.2,420.6,345.9,425.9,339.3,425.9z"/>
</svg>
