<?xml version="1.0" encoding="utf-8"?>
<!-- Generator: Adobe Illustrator 20.1.0, SVG Export Plug-In . SVG Version: 6.00 Build 0)  -->
<svg version="1.1" id="Layer_1" xmlns="http://www.w3.org/2000/svg" xmlns:xlink="http://www.w3.org/1999/xlink" x="0px" y="0px"
	 width="500px" height="500px" viewBox="0 0 500 500" enable-background="new 0 0 500 500" xml:space="preserve">
<path d="M368.6,76.3c-5.2,3.8-12.8,2.9-16.6-2.4c-24-31.4-60.4-50.1-97.7-50.1c-65.4,0-122.6,56.1-122.6,120v47.3h-23.8v-47.3
	C107.9,67.3,176.3,0,254.3,0c44.7,0,88.2,22.3,116.4,59.6C374.8,64.9,373.8,72.2,368.6,76.3z M463.9,214.8V500H36.1V214.8H463.9z
	 M440.1,238.6H59.9v237.6h380.2V238.6z M280.2,367.9l21.4,72.7H199.4l17.8-74.6c-13.3-10-22.1-26.1-22.1-44.2
	c0-30.4,24.5-54.9,54.9-54.9s54.9,24.5,54.9,54.9C304.9,341,294.9,357.9,280.2,367.9z M251.7,352.7c7.6-0.2,14.3-3.3,19.5-8.6
	c6.2-5.2,10-13.3,10-22.3c0-17.1-14-31.1-31.1-31.1s-31.1,14-31.1,31.1c0,7.6,2.9,14.7,7.8,20.2c4.3,5.2,10.5,9,17.8,10.2
	c0,0.7,0,1.7-0.2,2.6l-5,20.7l-10,41.3h40.4L257.8,376l-5.7-19.7C251.7,355,251.7,353.8,251.7,352.7z"/>
</svg>
