<?xml version="1.0" encoding="utf-8"?>
<!-- Generator: Adobe Illustrator 20.1.0, SVG Export Plug-In . SVG Version: 6.00 Build 0)  -->
<svg version="1.1" id="Layer_1" xmlns="http://www.w3.org/2000/svg" xmlns:xlink="http://www.w3.org/1999/xlink" x="0px" y="0px"
	 width="500px" height="500px" viewBox="0 0 500 500" enable-background="new 0 0 500 500" xml:space="preserve">
<path d="M364.4,277.7c-7.1,5.7-14.7,10.9-22.5,15.4c72.3,32.5,124.5,101.2,133,183H25.1c8.5-81.8,60.9-150.8,133-183
	c-7.8-4.5-15.4-9.7-22.5-15.4C55,319.2,0,403.2,0,499.9h500C500,403.2,445,319.2,364.4,277.7z M249.9,0.1
	c-74.7,0-135.1,60.5-135.1,135.4c0,53.6,31.1,99.8,76.3,121.4c17.8,9,37.7,13.8,58.8,13.8c21.1,0,41.3-4.7,59-13.8
	c45.3-21.6,76.3-67.8,76.3-121.4C385.3,60.6,324.8,0.1,249.9,0.1z M249.9,246.9c-61.4,0-111.4-50-111.4-111.4
	c0-61.6,50-111.7,111.4-111.7c61.6,0,111.7,50,111.7,111.7C361.5,196.9,311.5,246.9,249.9,246.9z"/>
</svg>
