<?xml version="1.0" encoding="utf-8"?>
<!-- Generator: Adobe Illustrator 20.1.0, SVG Export Plug-In . SVG Version: 6.00 Build 0)  -->
<svg version="1.1" id="Layer_1" xmlns="http://www.w3.org/2000/svg" xmlns:xlink="http://www.w3.org/1999/xlink" x="0px" y="0px"
	 width="500px" height="500px" viewBox="0 0 500 500" enable-background="new 0 0 500 500" xml:space="preserve">
<g>
	<polygon points="425.2,217.1 425.2,239 458.1,239 458.1,458.1 239,458.1 239,425.2 217.1,425.2 217.1,480 480,480 480,217.1 	"/>
	<polygon points="239,381.4 381.4,381.4 381.4,239 381.4,217.1 381.4,173.3 381.4,118.6 326.7,118.6 326.7,140.5 359.5,140.5 
		359.5,173.3 359.5,217.1 359.5,239 359.5,359.5 239,359.5 217.1,359.5 173.3,359.5 140.5,359.5 140.5,326.7 118.6,326.7 
		118.6,381.4 173.3,381.4 217.1,381.4 	"/>
	<path d="M140.5,282.9h32.9h43.8H239h43.8V20H20v262.9h54.8h43.8H140.5z M74.8,261H41.9v-219h219v219H239h-21.9h-43.8h-32.9h-21.9
		H74.8z"/>
</g>
</svg>
