<?xml version="1.0" encoding="utf-8"?>
<!-- Generator: Adobe Illustrator 20.1.0, SVG Export Plug-In . SVG Version: 6.00 Build 0)  -->
<svg version="1.1" id="Layer_1" xmlns="http://www.w3.org/2000/svg" xmlns:xlink="http://www.w3.org/1999/xlink" x="0px" y="0px"
	 width="500px" height="500px" viewBox="0 0 500 500" enable-background="new 0 0 500 500" xml:space="preserve">
<path fill="#010101" d="M499.6,244c-1.2-3.4-3.4-5.7-6.9-6.5c-1.7-1.1-6.6-6.4-10.8-11.1c-14-15.5-37.5-41.5-75.2-63.4l0-0.1
	l-4.9-2.7c-0.5-0.3-1.1-0.5-1.6-0.7c-9.5-5.2-19.8-10-30.9-14.4c-1-0.4-1.9-0.8-2.9-1.1c-10.4-4-21.7-7.5-33.7-10.5
	c-1.1-0.3-2.1-0.5-3.2-0.8c-11.4-2.7-23.4-4.8-36.3-6.3c-1.1-0.1-2.3-0.2-3.5-0.3c-12.5-1.3-25.5-2.2-39.4-2.2
	c-13.3,0-25.9,0.9-38,2.1c-2.3,0.2-4.6,0.6-6.9,0.9c-11.2,1.4-21.9,3.2-32.1,5.4c-1.2,0.3-2.5,0.5-3.7,0.8
	C54.4,159.8,4.1,237.7,1.6,241.7c-2,3.2-2.1,7.3-0.3,10.6c1,1.8,2.5,3.2,4.3,4.2c1.3,1.1,3.3,3.2,6,6
	c27.8,28.2,112.5,113.9,238.1,113.9c147.2,0,243.4-117.6,247.4-122.6C499.4,250.9,500.8,247.4,499.6,244z M386.9,181.8
	c0,75.3-61.3,136.6-136.6,136.6s-136.6-61.3-136.6-136.6c0-2.4,0.1-4.6,0.2-6.9c1.6-0.8,3.3-1.6,4.9-2.4c7.6-3.6,15.3-6.8,23.3-9.7
	c2.9-1.1,6.1-2,9.1-3c7.5-2.4,15-4.6,22.8-6.4c2-0.5,3.9-1.1,5.9-1.5c9.8-2.1,19.9-3.7,30.1-4.9c2.3-0.3,4.6-0.5,6.9-0.7
	c5.7-0.5,11.6-0.6,17.5-0.9c-29.1,6.9-50.9,32.9-50.9,64.1c0,36.4,29.6,66.1,66.1,66.1s66.1-29.6,66.1-66.1
	c0-31.2-21.9-57.4-51.1-64.2c6.8,0.3,13.7,0.4,20.3,1.1c1.5,0.2,3,0.3,4.5,0.5c10.7,1.2,21.1,3,31.3,5.2c1.7,0.4,3.4,0.8,5.1,1.2
	c9.7,2.3,19.1,5,28.2,8.3c1.9,0.7,3.6,1.4,5.5,2.1c8.5,3.3,16.8,6.9,24.8,10.9c0.8,0.4,1.6,0.9,2.4,1.3
	C386.8,177.9,386.9,179.9,386.9,181.8z M294.9,209.6c0,24.9-20.3,45.2-45.2,45.2s-45.2-20.3-45.2-45.2s20.3-45.2,45.2-45.2
	S294.9,184.7,294.9,209.6z M249.7,355.4c-116.9,0-197-81-223.3-107.7c-0.7-0.7-1.4-1.4-2-2.1c9.3-12,31.6-37.3,68.7-59.5
	C95.4,271,165,339.3,250.3,339.3c84.7,0,153.7-67.2,157.1-151.1c28.6,18.8,47.3,39.3,58.9,52.2c2.9,3.2,5.3,5.9,7.5,8.2
	C449.8,274.5,365.4,355.4,249.7,355.4z"/>
</svg>
