<?xml version="1.0" encoding="iso-8859-1"?>
<!-- Generator: Adobe Illustrator 20.1.0, SVG Export Plug-In . SVG Version: 6.00 Build 0)  -->
<svg version="1.1" id="Layer_1" xmlns="http://www.w3.org/2000/svg" xmlns:xlink="http://www.w3.org/1999/xlink" x="0px" y="0px"
	 width="500px" height="500px" viewBox="0 0 500 500" enable-background="new 0 0 500 500" xml:space="preserve">
<path d="M258.6,274.6c-21.5-9-35-28.8-58.3-34.8c-6-1.5-11.2-2.1-15.8-2.1c-21.2,0-28.8,15.6-32.5,41c-1.7,12.5-3.3,21.9,5.2,32.1
	c6.9,8.3,17.1,8.1,22.9,19.8c10.6,21,2.7,50.6,7.3,73.7c1.7,7.5,17.1,53.3,32.3,53.3c2.1,0,4-0.8,6-2.5c7.1-6.2-2.7-26.7-2.5-34.4
	c0.4-15.4,6.2-23.3,15.4-34.6c14.8-18.7,27.3-40.8,40-61.3C294.4,299.8,284.4,285.2,258.6,274.6z M265.4,316.9
	c-2.9,4.6-5.8,9.4-8.7,14.2c-9.6,15.6-19.4,31.7-30.4,45.4c-8.3,10.4-16.9,21.5-18.5,40c-2.5-6.2-4.4-12.1-5-15.2
	c-1.7-7.7-1.5-17.1-1.2-26.9c0.2-16.2,0.6-34.8-7.5-50.8c-5.6-10.8-13.7-15.6-19.2-18.7c-2.9-1.7-4.6-2.7-5.6-4
	c-3.5-4.2-3.5-6.9-1.9-18.8l0.2-1c4-27.7,10.8-27.7,16.9-27.7c3.3,0,7.3,0.6,11.9,1.7c10,2.5,18.1,8.7,27.5,15.8
	c8.5,6.7,17.5,13.3,28.8,18.1c14.4,5.8,17.1,10.8,17.7,12.5C271.3,304.6,269.4,310.2,265.4,316.9z M279.6,488.3v-11.3
	c-9.8,1.5-19.6,2.1-29.6,2.1C123.6,479.2,20.9,376.5,20.9,250c0-41.9,11.2-80.8,30.8-114.6c-0.2,4.6-0.8,9.2-2.5,13.7
	c-6,16.5-17.9,21.7-6.5,39.6c8.1,12.9,23.8,25.4,35.6,35c15.8,12.9,36.2,25.2,57.1,27.9c2.9,0.4,5.4,0.6,7.5,0.6
	c10,0,7.5-5-2.9-16.5c-7.9-8.8-32.9-18.8-35-30.8c-4.2-21.2,24.4-14,35.4-18.3c32.3-12.9,49.6-52.5,84.4-61.9
	c14.6-3.7,29.6-2.1,31.5-22.1c1.5-14-9.6-25.4-22.1-29.6c-3.7-1-7.3-1.7-10.4-1.7c-13.3,0-22.1,9.4-35.8,13.5
	c-2.5,0.8-7.3,2.5-11.5,2.5c-3.7,0-7.1-1.2-8.1-5.6c-1.9-7.5,5.2-8.5,8.7-13.8c12.1-18.3-33.5-17.3-40.2-17.3
	c33.3-19.2,71.9-30,113.1-30c50,0,96,16,133.7,43.1c-7.1,5.2-12.1,12.7-9.4,21.9c3.3,11,23.3,9.8,24.2,16.2
	c-11,2.3-71.9,8.5-55.2,32.1c6.3,10.4,16,13.7,26.5,13.7c11.7,0,24.2-4.2,33.7-7.3c7.7-2.5,11.9-4.6,18.5-4.6c2.1,0,4.4,0.2,7.1,0.6
	c6.5,1,16,6.9,23.8,7.1c6.9,12.7,12.3,26.3,16.7,40.2h-1c-4.2,0-8.3,0.2-12.5,0.2c-1.7,0-3.5,0-5.2-0.2
	c-18.8-1.5-17.7-14.6-30.2-20.6c-3.3-1.7-7.3-2.5-11.5-2.5c-11.7,0-25.4,5.2-35.2,7.7c-24.2,6.3-31.7,10.4-40.4,34.4
	c-8.3,23.1-4.8,47.5,14,57.1c11-6,23.5-9.4,36.9-9.4c12.9,0,25.2,3.1,36,8.8c-1-1.2-1.9-2.5-3.1-3.8c-6.3-6.5-14.8-9.8-25.6-9.8
	c-6,0-11.9,1-17.1,1.9c-3.5,0.6-7.3,1-10,1h-0.2c-7.5-0.4-12.7-3.1-15.8-7.9c-4.8-7.5-4.8-20-0.2-32.7c6.5-18.1,9-19.2,29.4-24.4
	c2.7-0.6,5.6-1.5,8.7-2.5c7.5-2.1,16.3-4.8,22.7-4.8c2.7,0,4.2,0.6,4.6,0.8c1.7,0.8,2.9,2.3,5.2,5.2c5,6,12.5,15.6,30.4,17.1
	c2.3,0.2,4.6,0.2,6.7,0.2h6.7c2.1-0.2,4-0.2,5.8-0.2c2.1,0,3.7,0,5,0.2c3.7,16.3,5.6,32.9,5.6,50.2c0,30-5.6,58.5-16.3,84.6h22.3
	c3.5-9.6,6.3-19.8,8.3-30.2c0.8-3.5,1.7-7.1,2.1-10.6c0.8-3.3,1.5-6.9,1.9-10.4c0.8-4.4,1.2-9,1.7-13.5c0.8-10.4,1-20.8,0.4-31.3
	C493.8,105.8,384.4,0,250,0C111.9,0,0,111.9,0,250s111.9,250,250,250c9.9,0,20-0.7,29.6-1.9L279.6,488.3z M138.4,66.5
	c7.9,0,13.7,0.4,17.9,0.8c-2.9,4.2-5,10.2-3.1,18.3c2.7,10.8,11.7,17.5,23.3,17.5c6,0,11.7-1.7,16-3.1c6.9-2.1,12.5-5,17.3-7.7
	c6.2-3.3,10-5.2,14-5.2c1.7,0,3.5,0.4,5.6,1c6,1.9,12.1,7.1,11.5,13.1c-0.4,2.9-1,3.7-1,3.7c-1,1-6.5,2.1-9.6,2.7
	c-3.1,0.6-6.2,1.2-9.6,2.1c-22.5,6-38.5,22.1-52.7,36.3c-10.8,10.8-21.3,21.2-33.1,26c-1.5,0.4-5.6,0.6-8.3,0.8
	c-10.2,0.6-24,1.5-32.1,12.1c-3.3,4.2-6.9,11.7-4.8,22.9c0.4,2.3,1,4.4,2.1,6.5c-1.2-1-2.5-1.9-3.8-2.9c-10.6-8.5-25.2-20.4-32.1-31
	c-3.1-4.8-3.1-4.8,0.8-11.5c2.1-3.7,4.8-8.3,7.1-14.4c3.7-10.2,3.7-19.8,3.7-28.3c-0.2-6.5-0.2-11.9,1.2-16.7
	c11.5-14.6,24.4-27.5,38.7-39c6.9-3.8,12.5-4.4,20.6-4.4h7.7L138.4,66.5z M371.5,129.6H370c-2.1,0-2.7-1-2.3-3.5
	c4.2-4.4,18.7-8.5,28.1-8.5c2.3,0,4.2,0.2,5.6,0.8c1.9,0.2,3.3,2.7,2.5,4.4C393.6,127.1,382.3,129.6,371.5,129.6z M431.7,121.3
	c-3.3-0.6-6.7-0.8-9.6-0.8h-2.3c-0.2-2.3-0.6-4.6-1.7-6.7c-0.8-1.7-1.7-3.1-2.9-4.4l-1-9.4c-1.7-12.5-13.5-16.5-19.8-18.5
	c-1.2-0.4-3.3-1-4.6-1.7c0.6-1.5,2.7-3.3,5.4-5c4.8,4.2,9.8,7.7,14.4,11l1.2,0.8c11.5,11.5,21.7,24,30.6,37.5
	C438.4,122.9,435,121.7,431.7,121.3z M300.4,355.4v112.1h167.9V355.4H300.4z M447.5,403.5c-0.2,0.2-0.4,0.4-0.6,0.6h0.6v42.5H321.3
	v-70.4h126.2V403.5z M437.7,308.1c0,0.2,0,0.2,0,0.2c1.9,5,2.7,10.2,2.7,15.6v10.6h-10.2h-10.6V324c0-1,0-2.1-0.4-2.9
	c-1.7-15.4-17.5-28.8-34.8-28.8c-18.3,0-35.2,15-35.2,31.7v10.6h-20.8V324c0-29,27.1-52.5,56-52.5c8.5,0,16.9,2.1,24.4,5.6
	C422.1,283.3,432.7,294.6,437.7,308.1z M384.4,429.4c-5.8,0-10.4-4.7-10.4-10.4v-15.5c0-5.8,4.7-10.4,10.4-10.4
	c5.8,0,10.4,4.7,10.4,10.4v15.5C394.8,424.7,390.2,429.4,384.4,429.4z"/>
</svg>
