<?xml version="1.0" encoding="utf-8"?>
<!-- Generator: Adobe Illustrator 20.1.0, SVG Export Plug-In . SVG Version: 6.00 Build 0)  -->
<svg version="1.1" id="Layer_1" xmlns="http://www.w3.org/2000/svg" xmlns:xlink="http://www.w3.org/1999/xlink" x="0px" y="0px"
	 width="500px" height="500px" viewBox="0 0 500 500" enable-background="new 0 0 500 500" xml:space="preserve">
<path fill="#010101" d="M349.2,289.6h-2.1c0.6-0.2,1.5-0.4,2.1-0.8V289.6z M497.2,207.3c-1.7,1.9-16.5,20.1-42.6,42
	c-2.9-6.5-7.1-12.3-11.9-17.8c14.2-11.9,24.9-22.6,31.1-29.4c-2.1-2.3-4.6-5-7.5-8.1c-11.7-12.9-30.1-33.6-58.9-52.2
	c-0.6,23-6.5,44.7-16.5,64.1c-2.1-0.4-4.4-0.4-6.5-0.4c-6.5,0-12.7,0.8-18.6,2.3c13.6-20.9,21.1-45.7,21.1-72.5
	c0-2.1-0.2-3.8-0.2-5.8c-1-0.4-2.1-1-3.1-1.7c-4.8-2.3-9.8-4.8-14.8-6.9c-5.2-2.3-10.7-4.4-16.3-6.3c-2.7-1-5.6-2.1-8.4-2.9
	c-3.1-1-6.1-1.9-9.2-2.7c-5.4-1.5-10.9-2.9-16.3-4c-2.3-0.6-4.8-1-7.1-1.5c-4.4-0.8-8.8-1.5-13.2-2.1c-1.5-0.2-2.7-0.4-4.2-0.6
	c-6.5-0.8-13.4-1.5-20.5-1.9c-3.3-0.2-6.9-0.4-10.4-0.4c29.9,6.3,52.4,32.8,52.4,64.5c0,36.6-29.7,66-66,66s-66-29.4-66-66
	c0-31.7,22.3-58.1,52.2-64.5c-0.4-0.2-0.4-0.2-0.6,0c-11.5,0.4-22.8,1.5-33.8,2.9c-3.6,0.6-7.1,1-10.4,1.9c-6.7,1-13.2,2.3-19.4,4
	c-1.3,0.2-2.5,0.6-3.6,1c-2.7,0.6-5.4,1.5-7.9,2.1c-6.5,1.7-12.7,3.8-19,6.3c-2.9,0.8-5.8,2.1-8.8,3.3c-2.9,1-5.8,2.3-8.6,3.8
	c-2.7,1-5.4,2.3-8.1,3.8c-0.6,0.2-1.3,0.6-1.7,0.8c-0.2,2.3-0.2,4.4-0.2,6.9c0,75.4,61.2,136.6,136.6,136.6c21.7,0,42.4-5,60.6-14.4
	c-2.3,6.9-3.6,14-3.6,21.5v2.9c-8.1,3.3-16.5,5.8-25.3,7.7c-0.8,0-1.9,0.2-2.7,0.4c-9.4,1.9-19.2,2.7-29,2.7
	c-85.4,0-155-68.3-157.3-153.1c-37,22.1-59.3,47.6-68.7,59.5c0.6,0.6,1.5,1.3,2.1,2.1c26.3,26.5,106.3,107.6,223.3,107.6
	c10,0,20.1-0.6,29.7-1.9V328c-9.6,1-19.4,1.7-29.7,1.7C124,329.7,39.4,244,11.6,215.8c-2.7-2.7-4.8-4.8-6.1-5.8
	c-1.7-1-3.3-2.5-4.2-4.4c-1.9-3.1-1.9-7.3,0.2-10.4c1.7-2.9,30.1-47.2,92.3-80.4l5.2-2.7c5-2.5,10-5,15-7.3
	c6.5-2.9,12.9-5.4,19.6-7.9c5.6-2.1,11.3-4,16.9-5.6c1.3-0.2,2.3-0.6,3.6-1c5.4-1.5,10.9-2.9,16.5-4.2c11.9-2.7,24.2-5,37-6.5
	c1.7,0,3.6-0.2,5.4-0.4c4.6-0.4,9.2-0.8,13.8-1c7.7-0.6,15.5-0.8,23.4-0.8c6.9,0,13.8,0.2,20.7,0.6h0.6c5.4,0.2,10.7,0.6,15.9,1.3
	c2.1,0.2,4.2,0.4,6.1,0.6c6.3,0.6,12.3,1.7,18.2,2.7c6.5,1,13,2.5,19.4,4c5,1.3,9.8,2.5,14.8,4c1.7,0.4,3.1,0.8,4.6,1.5
	c1,0.2,2.3,0.6,3.3,1c4.4,1.5,8.8,2.9,13.2,4.6c9,3.3,17.5,7.3,25.9,11.7c2.3,1,4.6,2.1,6.9,3.6c0.6,0.2,1.3,0.4,1.9,0.8l4.8,2.7
	v0.2c37.8,21.9,61.2,47.8,75.2,63.5c4.4,4.6,9.2,10,10.9,11.1c3.6,0.8,5.8,3.1,6.9,6.5C500.8,200.8,499.3,204.4,497.2,207.3z
	 M249.7,117.9c-24.9,0-45.1,20.3-45.1,45.1s20.3,45.1,45.1,45.1s45.1-20.3,45.1-45.1S274.6,117.9,249.7,117.9z M468.6,310.5v112.4
	H300.3V310.5h48.9 M447.7,331.4H321.2V402h126.6V331.4z M349.2,289.6v-0.8v-9.8c0-16.7,16.9-31.7,35.3-31.7c9.2,0,18.2,3.8,24.6,9.8
	c5.6,5,9.6,11.7,10.2,18.8c0.4,1,0.4,2.1,0.4,3.1v10.7h20.9v-10.7c0-5.6-1-11.1-2.9-16.3c-2.5-6.7-6.3-12.9-11.3-18
	c-10.7-11.3-26.1-18.4-42-18.4c-1.9,0-4,0.2-5.8,0.2c-24.2,2.7-46,21.5-49.7,45.1c-0.4,2.5-0.6,4.8-0.6,7.3v10.7h18.8H349.2z
	 M394.9,374.2v-15.6c0-5.8-4.7-10.4-10.4-10.4c-5.8,0-10.4,4.7-10.4,10.4v15.6c0,5.8,4.7,10.4,10.4,10.4
	C390.2,384.6,394.9,379.9,394.9,374.2z"/>
</svg>
