<?xml version="1.0" encoding="utf-8"?>
<!-- Generator: Adobe Illustrator 20.1.0, SVG Export Plug-In . SVG Version: 6.00 Build 0)  -->
<svg version="1.1" id="Layer_1" xmlns="http://www.w3.org/2000/svg" xmlns:xlink="http://www.w3.org/1999/xlink" x="0px" y="0px"
	 width="500px" height="500px" viewBox="0 0 500 500" enable-background="new 0 0 500 500" xml:space="preserve">
<g>
	<polygon fill="#010101" points="424.5,458.1 75.5,458.1 75.5,202 53.7,202 53.7,480 446.3,480 446.3,202 424.5,202 	"/>
	<path fill="#010101" d="M21.5,20v131.1h456.9V20H21.5z M456.6,129.3H43.4V41.9h413.2V129.3z"/>
	<path fill="#010101" d="M310,293.2c6.1,0,10.9-4.8,10.9-10.9c0-6.1-4.8-10.9-10.9-10.9H189.8c-5.9,0-10.9,4.8-10.9,10.9
		c0,6.1,5,10.9,10.9,10.9H310z"/>
</g>
</svg>
