<?xml version="1.0" encoding="utf-8"?>
<!-- Generator: Adobe Illustrator 20.1.0, SVG Export Plug-In . SVG Version: 6.00 Build 0)  -->
<svg version="1.1" id="Layer_1" xmlns="http://www.w3.org/2000/svg" xmlns:xlink="http://www.w3.org/1999/xlink" x="0px" y="0px"
	 width="500px" height="500px" viewBox="0 0 500 500" enable-background="new 0 0 500 500" xml:space="preserve">
<path d="M478.7,351.2C492.5,320.2,500,286,500,250C500,111.9,388.1,0,250,0S0,111.9,0,250s111.9,250,250,250
	c45.4,0,88.1-12.1,124.8-33.3v-0.2l-3.3-22.1c-35.2,22.1-76.7,34.8-121.5,34.8C123.5,479.2,20.8,376.5,20.8,250S123.5,20.8,250,20.8
	c113.8,0,208.3,83.1,226,191.9c1.5,7.7,2.3,15.4,2.7,23.1c0.2,4.8,0.4,9.4,0.4,14.2c0,4.8-0.2,9.4-0.4,14.2V351.2z M357.9,250
	c0,5.8-4.8,10.4-10.4,10.4H250c-5.8,0-10.4-4.6-10.4-10.4V93.8c0-5.8,4.6-10.4,10.4-10.4s10.4,4.6,10.4,10.4v145.8h87.1
	C353.1,239.6,357.9,244.2,357.9,250z M478.7,229.2v6.7c-0.4-7.7-1.2-15.4-2.7-23.1C477.7,217.9,478.7,223.3,478.7,229.2z
	 M439.6,229.2v171c0,7.1-5.8,12.9-12.9,12.9c-4.4,0-8.1-2.1-10.6-5.2c-1.5-2.3-2.5-4.8-2.5-7.7v-171c0-7.3,5.8-13.1,13.1-13.1
	C433.8,216,439.6,221.9,439.6,229.2z M439.6,472.1v10c0,7.1-5.8,12.9-12.9,12.9c-7.3,0-13.1-5.8-13.1-12.9v-10
	c0-7.1,5.8-12.9,13.1-12.9C433.8,459.2,439.6,465,439.6,472.1z M439.6,472.1v10c0,7.1-5.8,12.9-12.9,12.9c-7.3,0-13.1-5.8-13.1-12.9
	v-10c0-7.1,5.8-12.9,13.1-12.9C433.8,459.2,439.6,465,439.6,472.1z"/>
</svg>
