<?xml version="1.0" encoding="utf-8"?>
<!-- Generator: Adobe Illustrator 20.1.0, SVG Export Plug-In . SVG Version: 6.00 Build 0)  -->
<svg version="1.1" id="Layer_1" xmlns="http://www.w3.org/2000/svg" xmlns:xlink="http://www.w3.org/1999/xlink" x="0px" y="0px"
	 width="500px" height="500px" viewBox="0 0 500 500" enable-background="new 0 0 500 500" xml:space="preserve">
<path d="M250,0C111.9,0,0,111.9,0,250c0,21.9,2.7,43.1,8.1,63.3c0.8,3.7,1.9,7.5,3.1,11c5.6,18.5,13.5,36.2,23.1,52.7
	c1.9,2.9,3.5,5.6,5.4,8.3c9.6,15,20.6,28.8,33.1,41.2c5,4.8,10,9.4,15.2,14c13.3,11.5,28.1,21.5,43.8,29.8c3.1,1.9,6.5,3.3,9.6,5
	c17.5,8.3,36,14.8,55.4,19c4,0.8,8.1,1.7,12.3,2.3C222.5,499,236,500,250,500c10.2,0,20.4-0.6,30.4-1.9c5.8-0.6,11.7-1.5,17.3-2.7
	C412.9,473.1,500,371.9,500,250C500,111.9,388.1,0,250,0z M250,20.8c126.5,0,229.2,102.7,229.2,229.2H20.8
	C20.8,123.5,123.5,20.8,250,20.8z M25.6,295.8c-0.4-1.2-0.6-2.3-0.8-3.3c-1.2-7.1-2.3-14.4-2.9-21.7h28.8L25.6,295.8z M45,352.5
	c-1.5-2.9-2.9-6.2-4.4-9.4c-1.2-2.7-2.3-5.4-3.5-8.1c-1.5-3.7-2.9-7.7-4.2-11.7c-0.2-0.8-0.4-1.5-0.6-2.1c-0.2-0.4-0.2-0.8-0.4-1.2
	c-0.2-0.4-0.2-0.8-0.2-1l48.1-48.1h60.8L50,361.7h-0.2C48.3,358.7,46.7,355.6,45,352.5z M67.1,387.9c-2.1-2.7-4.2-5.4-6-8.3
	l108.8-108.7h58.7L87.7,411.7C80.4,404.4,73.5,396.5,67.1,387.9z M136.2,448.7c-2.7-1.5-5.4-3.1-8.1-4.8c-3.5-2.1-6.9-4.4-10.2-6.7
	c-5.2-3.7-10.2-7.7-15-11.7l154.8-154.8h59.2l-179,179C137.3,449.6,136.9,449.2,136.2,448.7z M185,469.8c-3.3-1-6.5-2.1-9.6-3.1
	c-3.3-1-6.7-2.3-10-3.7c-2.7-1-5.4-2.1-8.1-3.3L346,270.8h59.8L202.5,474.2C196.5,472.9,190.6,471.5,185,469.8z M285,476.5
	c-3.7,0.6-7.5,1-11.5,1.5c-7.7,0.8-15.6,1.2-23.5,1.2c-7.5,0-14.8-0.4-22.1-1L435,270.8h43.1c-0.4,4.8-1,9.6-1.7,14.2
	c-0.2,1-0.4,2.1-0.6,3.1L287.9,476C287.1,476.2,286,476.2,285,476.5z M462.9,335c-1.2,2.7-2.3,5.4-3.5,8.1c-1.5,3.1-2.9,6.5-4.4,9.4
	c-4.8,9.6-10.2,18.5-16,27.1c-1.9,2.9-4,5.6-6,8.3c-6.3,8.3-13.1,16.2-20.4,23.5c-2.5,2.5-5,5-7.5,7.3c-2.7,2.3-5.2,4.6-7.9,6.9
	c-4.8,4.2-9.8,8.1-15,11.7c-3.3,2.3-6.7,4.6-10.2,6.7c-2.7,1.7-5.4,3.3-8.1,4.8c-3.5,2.1-7.1,4.2-10.6,6c-2.9,1.3-5.8,2.7-9,4.2
	c-3.1,1.5-6.5,2.7-9.6,4c-2.3,1-4.8,1.9-7.1,2.7l138.1-138.1C464.8,330,463.8,332.5,462.9,335z"/>
</svg>
