<?xml version="1.0" encoding="iso-8859-1"?>
<!-- Generator: Adobe Illustrator 20.1.0, SVG Export Plug-In . SVG Version: 6.00 Build 0)  -->
<svg version="1.1" id="Layer_1" xmlns="http://www.w3.org/2000/svg" xmlns:xlink="http://www.w3.org/1999/xlink" x="0px" y="0px"
	 width="500px" height="500px" viewBox="0 0 500 500" enable-background="new 0 0 500 500" xml:space="preserve">
<path fill="#231F20" d="M254.9,169h-63.3v161h63.3c50.6,0,85.4-31.8,85.4-80.4C340.3,201.2,305.5,169,254.9,169z M257.1,290.3h-23.9
	v-81.7h23.9c26.7,0,41,17.7,41,41C298,271.7,282.7,290.3,257.1,290.3z M254.9,169h-63.3v161h63.3c50.6,0,85.4-31.8,85.4-80.4
	C340.3,201.2,305.5,169,254.9,169z M257.1,290.3h-23.9v-81.7h23.9c26.7,0,41,17.7,41,41C298,271.7,282.7,290.3,257.1,290.3z
	 M448.1,20H54.2c-17.7,0-33.3,15.3-33.3,33.3v393.4c0,18,15.6,33.3,33.3,33.3h391.2c18,0,33.3-15.3,33.3-33.3V53.3
	C481.4,35.3,466.1,20,448.1,20z M254.9,414.7c-41.2,0-79.3-15.6-108.4-41l-67,10.1l26.5-64.4c-9.9-21-15.3-44.7-15.3-69.4
	c0-90.9,73.6-164.7,164.3-164.7c90.9,0,164.7,73.8,164.7,164.7C419.6,340.9,345.8,414.7,254.9,414.7z M254.9,169h-63.3v161h63.3
	c50.6,0,85.4-31.8,85.4-80.4C340.3,201.2,305.5,169,254.9,169z M257.1,290.3h-23.9v-81.7h23.9c26.7,0,41,17.7,41,41
	C298,271.7,282.7,290.3,257.1,290.3z"/>
</svg>
