<?xml version="1.0" encoding="utf-8"?>
<!-- Generator: Adobe Illustrator 20.1.0, SVG Export Plug-In . SVG Version: 6.00 Build 0)  -->
<svg version="1.1" id="Layer_1" xmlns="http://www.w3.org/2000/svg" xmlns:xlink="http://www.w3.org/1999/xlink" x="0px" y="0px"
	 width="500px" height="500px" viewBox="0 0 500 500" enable-background="new 0 0 500 500" xml:space="preserve">
<path d="M489.5,382.2h-86.4V111.7l61.8-61.8c4.1-4.1,4.1-10.7,0-14.8s-10.7-4.1-14.8,0l-61.8,61.8H117.9V10.5
	c0-5.8-4.7-10.5-10.5-10.5c-5.8,0-10.5,4.7-10.5,10.5v86.4H10.5C4.7,96.9,0,101.6,0,107.4c0,5.8,4.7,10.5,10.5,10.5h86.4v274.8
	c0,1.4,0.3,2.7,0.8,4c1.1,2.6,3.1,4.6,5.7,5.7c1.3,0.5,2.6,0.8,4,0.8h274.8v86.4c0,5.8,4.7,10.5,10.5,10.5s10.5-4.7,10.5-10.5v-86.4
	h86.4c5.8,0,10.5-4.7,10.5-10.5S495.3,382.2,489.5,382.2z M367.3,117.8L117.9,367.3V117.8H367.3z M132.7,382.2l249.5-249.5v249.5
	H132.7z"/>
</svg>
