<?xml version="1.0" encoding="iso-8859-1"?>
<!-- Generator: Adobe Illustrator 20.1.0, SVG Export Plug-In . SVG Version: 6.00 Build 0)  -->
<svg version="1.1" id="Layer_1" xmlns="http://www.w3.org/2000/svg" xmlns:xlink="http://www.w3.org/1999/xlink" x="0px" y="0px"
	 width="500px" height="500px" viewBox="0 0 500 500" enable-background="new 0 0 500 500" xml:space="preserve">
<g>
	<polygon points="370.3,45.6 381.6,23.9 118.4,23.9 129.7,45.6 	"/>
	<polygon points="142.7,70.9 154,92.6 346,92.6 357.3,70.9 	"/>
	<path d="M93.1,92.6l90.6,176c6.3-3.7,12.8-6.7,19.7-9.3L117.3,92.6l-11.3-21.7l-13-25.4L81.8,23.9l-2-3.7V20l-7.2,3.9h-0.2L70.3,25
		l-9.5,5l21,41L93.1,92.6z"/>
	<path d="M161.8,284.7L43,54.2l-5.2,2.6L23.7,64l122.5,237.6c3.5-4.6,7.2-8.9,11.3-12.8C158.7,287.3,160.3,285.8,161.8,284.7z"/>
	<path d="M315.9,269.3l91-176.7l11.3-21.7l21-41l-9.5-5l-2.2-1.1h-0.2l-7.2-3.9v0.2l-2,3.7l-11.3,21.7l-13,25.4l-11.3,21.7
		l-86.3,167.1C303.3,262.4,309.8,265.4,315.9,269.3z"/>
	<path d="M462.2,56.9l-5.2-2.6L337.8,285.6c1.5,1.1,2.8,2.6,4.3,3.9c4.1,4.1,8,8.7,11.3,13.2L476.3,64L462.2,56.9z"/>
	<path d="M346,364c-1.7-10.2-5-19.5-9.8-28.2c-2.8-5.4-6.3-10.6-10.2-15.4c-1.1-1.5-2.4-3-3.9-4.6c-4.8-5.6-10.4-10.6-16.7-15
		c-1.5-1.1-3-2-4.6-2.8c-6.1-3.9-12.6-6.9-19.5-9.3c-9.1-3.3-18.9-5-29-5.2c-1.1-0.2-2-0.2-3-0.2h-1.7c-10.2,0.2-20.2,2-29.3,5
		c-6.9,2.4-13.7,5.4-19.7,9.3c-1.5,0.6-2.8,1.5-4.3,2.6c-6.3,4.1-11.9,8.9-16.9,14.5c-1.5,1.5-3,3-4.1,4.8c-3.9,4.6-7.4,9.5-10.2,15
		c-4.8,8.5-8,17.8-10.2,27.5c-1.3,6.3-2,13-2,19.7c0,54.2,44,98.2,98.4,98.2s98.4-44,98.4-98.2c0-6.1-0.6-11.9-1.7-17.6V364z
		 M249.3,458.3c-24.5,0-46.4-11.5-60.5-29.5c-2.6-3.3-4.8-6.7-6.9-10.4c-5.9-10.8-9.3-23.4-9.3-36.6c0-7.8,1.1-15.2,3.3-22.3
		c2-6.5,4.8-12.6,8.5-18.2c1.1-2,2.4-3.9,3.7-5.6c4.6-6.1,10-11.5,16.3-15.8c1.5-1.3,2.8-2.2,4.3-3c6.1-3.9,12.6-6.7,19.7-8.7
		c2.4-0.9,5-1.5,7.6-1.7c4.3-0.9,8.9-1.3,13.4-1.3c5,0,10,0.4,14.7,1.5c2.6,0.4,5,1.1,7.4,1.7c7.2,2,13.7,5.2,19.7,9.1
		c1.5,0.9,2.8,2,4.3,3c6.1,4.8,11.5,10.2,15.8,16.3c1.5,1.7,2.6,3.5,3.7,5.4c3.7,5.9,6.3,12.4,8.2,19.1c2,6.5,2.8,13.4,2.8,20.6
		c0,17.3-5.9,33.6-15.8,46.6C296.2,446.6,274.1,458.3,249.3,458.3z"/>
	<path d="M303.5,364.2c-0.7-2.4-1.5-4.8-2.8-6.9c-3.3-7.4-8.2-13.9-14.5-19.1c-1.3-1.3-2.6-2.4-4.1-3.3c-1.5-1.1-3-2.2-4.8-3
		c-4.6-2.6-9.8-4.6-15-5.9c-4.1-1.1-8.5-1.5-13-1.5c-3.9,0-7.8,0.4-11.7,1.1c-5,1.1-10,3-14.5,5.4c-2,0.9-3.9,2-5.6,3.3
		c-1.3,0.9-2.8,2-4.1,3c-6.3,5.2-11.3,11.5-14.7,18.6c-1.3,2.2-2.4,4.6-3,6.9c-2.2,5.9-3.3,12.4-3.3,18.9c0,3.9,0.4,7.8,1.1,11.5
		v0.2c2.2,10,6.7,18.9,13.2,26h0.2c10.2,11.9,25.6,19.3,42.5,19.3c17.1,0,32.5-7.6,42.9-19.7c1.1-1.1,2.2-2.2,2.8-3.5
		c0,0,0-0.2,0.2-0.2c3.5-4.8,6.5-10,8.2-16c0.2-0.2,0.2-0.4,0.2-0.7c1.7-5.2,2.6-11.1,2.6-16.9C306.4,375.7,305.5,369.9,303.5,364.2
		z M283.2,391.8c0,0.1,0,0.1-0.1,0.2c-2,6.6-5.8,12.3-10.9,16.6c0,0-0.1,0.1-0.1,0.1c0,0-0.1,0-0.1,0.1c-2.9,2.4-6.2,4.5-9.8,5.9
		c-0.5,0.2-1,0.3-1.6,0.5c-3.6,1.2-7.3,2-11.3,2c-3.8,0-7.4-0.8-10.8-1.9c-0.6-0.2-1.1-0.3-1.7-0.5c-6.1-2.3-11.3-6.2-15.3-11.3
		c-0.1-0.2-0.3-0.3-0.4-0.5c-4.5-5.9-7.3-13.3-7.3-21.3c0-2.9,0.4-5.6,1.1-8.3l0,0c1.9-7.9,6.5-14.7,12.7-19.5l0,0h0
		c2.7-2.1,5.7-3.9,9-5.2c0.5-0.2,1-0.3,1.5-0.5c2.8-0.9,5.8-1.5,8.9-1.7c0.4,0,0.7-0.2,1.1-0.2h1.1c0,0,0,0,0,0c0.1,0,0.1,0,0.1,0
		c0.8,0,1.4,0,2.2,0.2c0.1,0,0.1,0,0.2,0c18.4,1.3,32.9,16.5,32.9,35.2C284.8,385.2,284.1,388.5,283.2,391.8
		C283.2,391.8,283.2,391.8,283.2,391.8z"/>
</g>
</svg>
