<?xml version="1.0" encoding="iso-8859-1"?>
<!-- Generator: Adobe Illustrator 20.1.0, SVG Export Plug-In . SVG Version: 6.00 Build 0)  -->
<svg version="1.1" id="Layer_1" xmlns="http://www.w3.org/2000/svg" xmlns:xlink="http://www.w3.org/1999/xlink" x="0px" y="0px"
	 width="500px" height="500px" viewBox="0 0 500 500" enable-background="new 0 0 500 500" xml:space="preserve">
<g>
	<path d="M169.8,271.2c-3.7,3.7-7.5,7-10.7,9.6c-0.9,0.4-3.7,0.4-5.5,0.7c-3.9,0-9,0.2-14,2c-5.7,2-8.8,8.1-7,13.8
		c0.7,2.2,2.2,3.9,3.9,5.3c2.2,1.8,4.8,2.4,7.5,2.2c0.9,0,1.8,0,2.6-0.4c2.2-0.7,5-0.9,7.9-1.1c5.3-0.2,11.8-0.4,17.5-4.6
		c0.7-0.7,1.5-1.1,2.2-1.8c3.5-2.8,7-6.1,10.7-9.6c7.5-7.2,15.1-14.5,22.1-16c3.5-0.9,8.1-2.2,13.2-3.9v-11.6v-11.4
		c-0.7,0.2-1.5,0.4-2.2,0.7c-5.9,2-11.2,3.9-15.6,4.8C189.3,252.4,179,262.5,169.8,271.2z"/>
	<path d="M289.9,255.4c-3.1-3.1-6.1-6.1-9.6-9v14.9v15.3c7.2,6.8,15.3,13.2,25,15.1c6.6,1.1,22.8,10.1,36.6,20.2
		c4.4,3.3,8.8,6.6,12.3,9.9c2.2,1.8,4.8,2.8,7.5,2.8c2.8,0,5.9-1.3,8.1-3.7c3.9-4.4,3.7-11.4-0.9-15.3
		c-15.8-14.5-44.5-32.4-59.4-35.3C303.7,269,296.2,261.8,289.9,255.4z"/>
	<path d="M476.7,338.8c-6.6-12.1-20.8-17.1-39.2-13.2c0,0-37.5,12.3-73.9,24.3c1.1,3.5,1.8,7,2,10.5c0,0.2,0,0.2,0,0.4
		c0.2,3.9,0,7.9-0.9,11.8c37.9-12.7,78.5-26.1,78.5-26.1c7-1.5,12.7-0.4,14.5,2.6c0.9,1.8,0.7,3.9-0.4,5c-11,9.4-137,64-155,67.1
		c-17.8,3.1-144.9,5.7-158.1,2c-7-2-22.8-11.4-35.5-19.3c-7.9-4.8-14.2-8.5-19.3-11.4c-5.5-3.1-9.6-4.8-12.7-5.5
		c-11.4-2.8-40.8-0.7-46.5-0.4c-6.1,0.7-10.5,5.7-10.1,11.8c0.4,6.1,5.9,10.7,11.8,10.1c12.7-0.9,33.5-1.8,39.7-0.2
		c3.5,0.9,16.2,8.8,25.6,14.5c16,9.6,31.1,18.9,41,21.7c6.8,1.8,28.3,2.6,53.5,2.6c45.4,0,103.2-2.4,114.2-4.4
		c16.7-2.8,153.5-59.2,166.8-73C480.6,361.5,482.4,348.8,476.7,338.8z"/>
	<path d="M31,340.1c0,0,0,0,0.2,0c0.4,0,57.2-0.9,73.4-0.2c7,0.4,19.7,4.8,32.4,8.8c13.8,4.6,28.5,9.4,39,10.3
		c17.5,1.5,82.4,0.4,117.3,0l9.6-0.2c14,0.2,18.4,3.5,18.6,4.4c0,2.2-6.4,9.2-20.8,10.7c-32.4,3.3-93.2,4.2-137.9,1.8
		c-6.1-0.4-11.2,4.4-11.4,10.5v1.3c0.2,5.3,4.6,9.9,10.3,10.1c17.8,0.9,37.7,1.3,57.4,1.3c31.6,0,62.7-1.1,83.7-3.3
		c12.9-1.3,23.9-6.1,31.1-12.9h0.2c4.6-4.2,7.5-9.2,8.5-14.5c0.7-2,0.9-4.2,0.7-6.4c0-1.8-0.4-3.5-0.9-5.3
		c-3.3-10.3-15.1-19.7-40.1-19.7L293,337c-32,0.4-98.4,1.5-114.9,0c-8.1-0.7-21.5-5-34.2-9.2c-14.5-4.6-28.3-9.2-38.1-9.6
		c-16.9-0.9-72.6-0.2-75,0c-6.1,0-11,5-10.7,11C20,335.2,25.1,340.1,31,340.1z"/>
	<path d="M198.3,143.9c16,0,30.5-2.4,40.8-4.8v87.2v12.3v11v11.6v19.3v22.4v5c0,3.1,1.3,5.9,3.5,7.9c2,2,4.6,3.1,7.5,3.1
		c3.1,0,5.7-1.3,7.9-3.3c1.8-2,3.1-4.6,3.1-7.7v-3.1v-24.3v-20.8v-12.1v-11v-10.3v-79.1c12.7,5.7,25,8.1,36.8,8.1
		c39.9,0,73.4-26.5,89.2-46c2-2.4,2.8-5.7,2.2-8.8c-0.4-3.1-2.2-5.7-4.8-7.5c-25.6-16.4-51.5-21.9-76.3-16.2
		c-23.9,5.3-41.7,19.7-52.6,31.3c-16-25.9-36.8-43-62-50.6c-47.6-14.7-92.7,9.2-94.7,10.3c-5.3,2.8-7.2,9.4-4.4,14.7
		C120.2,132,163.2,143.9,198.3,143.9z M187.1,78.5c19.3,5.9,35.5,18.9,48.4,39c-25.2,6.4-82.6,14.5-115.7-35.1
		C133.8,77.2,160.3,70.2,187.1,78.5z M312.9,98.1c15.3-3.5,31.6-1.1,48,7c-16,14.9-51.5,40.6-92.5,21.5
		C276.7,117.1,292.1,102.9,312.9,98.1z"/>
</g>
</svg>
