<?xml version="1.0" encoding="iso-8859-1"?>
<!-- Generator: Adobe Illustrator 20.1.0, SVG Export Plug-In . SVG Version: 6.00 Build 0)  -->
<svg version="1.1" id="Layer_1" xmlns="http://www.w3.org/2000/svg" xmlns:xlink="http://www.w3.org/1999/xlink" x="0px" y="0px"
	 width="500px" height="500px" viewBox="0 0 500 500" enable-background="new 0 0 500 500" xml:space="preserve">
<g>
	<path d="M475.8,120.1c-2.4-2-5.9-2.8-9.2-2.2c0,0-41.8,9.4-68.7,15.1c-1.1,0.2-2,0.2-2.8,0.2c-3.3,0-5.5-1.3-5.5-1.3
		s-21-17.9-44.6-37.8c-20.6-17.3-35.4-19.9-55.1-9.4c-22.1,11.8-77.7,42.9-104.3,59.1c-14.7,8.1-21.9,19.2-21.9,33
		c0,11.4,7.2,23.4,18.2,30c11.4,6.8,24.9,7,37,0.7c11.6-5.7,39.2-20.1,57.7-30c1.3-0.7,2.2-1.3,2.8-2.4c3.3-3.3,3.9-8.1,1.8-12.2
		c-2.8-5.5-9.4-7.4-14.9-4.6c-18.4,9.6-45.5,23.8-57.3,29.5c-5.7,3.1-11.2,3.3-15.7,0.4c-4.8-2.8-7.7-8.1-7.7-11.4
		c0-3.7,1.1-8.5,10.9-14.2c26.7-16,81.8-47,103.7-58.6c8.7-4.6,14-7.4,30.8,6.8c23.4,19.9,44.4,37.8,44.6,38.1
		c1.1,0.9,11.2,9,26.9,5.7c17.3-3.7,40.9-9,55.6-12.2v110.2c-19.5,4.2-44.2,9.6-57.7,12.5c0.4,0.4,0.9,0.7,1.1,1.1
		c2.6,2.6,4.8,5.5,6.8,8.3c2,3.3,3.7,6.6,5,10.1c20.6-4.4,50.1-10.7,58.2-12.5c5-1.1,8.5-5.5,8.5-10.7V128.6
		C480,125.4,478.5,122.1,475.8,120.1z"/>
	<path d="M385.9,281.3c-0.2-0.2-0.7-0.7-1.1-0.9l-3.9-3.9l-16.6-16.6l-61.5-61.7c-4.4-4.4-11.4-4.4-15.5,0c-4.4,4.2-4.4,11.2,0,15.5
		l3.7,3.7l69.3,69.3l9.8,9.8c0.2,0.2,0.4,0.4,0.7,0.7c1.8,2,2.2,4.4,1.8,6.8c-0.2,1.8-0.9,3.3-2.2,4.6c-3.3,3.1-8.5,3.1-12-0.4
		c-16.2-16.6-25.2-24.7-30.8-28.9c-5.7-4.2-7.9-4.2-10.3-4.2c-2.8,0-6.1,1.3-8.1,3.5c-9.4,9.4-0.4,19.2,26.5,48.3l2.2,2.4h0.2
		c2.6,3.5,2.6,8.1-0.4,11.2c-3.1,3.1-8.1,3.1-11.4,0c-0.4-0.4-0.9-0.7-1.3-1.1c-43.5-40-49.4-43.7-58.4-35c-2,2.2-3.3,5.5-3.3,8.5
		c0.2,4.4,0.2,9.2,34.3,39.4c0.7,0.7,2.6,2.6,2.6,2.6c3.3,3.3,3.3,8.5,0,11.8c-3.1,3.1-8.5,3.3-11.6,0c-17.9-18.6-27.8-28-33.7-32.6
		c-1.3-0.9-2.4-1.8-3.3-2.2c-3.7-2.4-5.5-2.4-7.4-2.6c-2.8,0-5.9,1.3-8.1,3.5c-4.2,4.2-8.1,8.1,6.6,25.6
		c4.2,5.2,10.1,11.8,18.4,20.1c3.3,3.3,3.3,8.5,0,11.8c-3.3,3.3-8.5,3.3-11.8,0c-1.8-1.8-3.5-3.7-5.2-5.5c-0.4,4.4-1.3,8.7-2.6,12.9
		c-1.1,3.5-2.6,7.2-4.6,10.5c5.2,4.4,11.8,6.3,18.4,6.3c7.7,0,15.5-2.8,21.4-8.7c4.6-4.6,7.4-10.5,8.3-16.4
		c10.5,3.5,22.5,0.9,30.8-7.2c5.3-5.3,8.1-11.8,8.7-18.6c9.8,2.6,20.8,0,28.7-7.7c6.3-6.6,9.2-15.1,8.7-23.4
		c8.3,0.9,17.5-2.2,24.1-8.7c3.9-3.9,6.6-8.5,7.7-13.6c2-7.2,1.3-15.1-2.4-21.9C389.9,285.9,388.1,283.5,385.9,281.3z"/>
	<path d="M41.9,133.7l28.7,10.1c27.6,11.2,47.7-1.5,49.4-2.6c33-26.2,76.3-47.5,84.7-37.2l8.5-6.8l8.5-7
		c-26-32.8-94.9,17.7-114.4,33c-0.4,0.4-11.8,7-29.1,0l-43.7-15.1c-3.3-1.3-7-0.7-9.8,1.3c-2.8,2.2-4.6,5.5-4.6,9v151.8
		c0,5,3.5,9.6,8.5,10.7c0.2,0,3.7,0.7,9.8,2.8c0.9-3.5,2.2-6.8,3.7-10.1c1.3-3.5,3.3-6.8,5.5-9.8c-2.2-0.7-4.2-1.3-5.7-2V133.7z"/>
	<path d="M212.7,355.7c-5.5-5.5-12.5-9-20.3-9.8c-0.4-8.1-3.7-15.7-9.4-21.7c-5.2-5.2-12-8.5-19.5-9.6c-0.7-7.7-3.7-14.7-9-19.9
		c-5.2-5.2-12-8.5-19.5-9.6c-0.7-7.7-3.7-14.7-9-19.9c-13.8-14-37.2-13.8-52.3,0.7c-15.1,14.4-22.5,39.6-8.7,55.3
		c6.8,7.9,14.7,10.3,21.4,9.8c-0.4,5.7,1.1,12.2,6.6,19.2c6.8,8.5,14.9,10.5,22.1,10.3c-0.4,5.9,0.9,12.5,6.3,19.2
		c6.6,8.1,14.9,10.1,23,9.8c-0.9,6.8,0.4,14.4,7.2,22.1c5.3,6.1,12.9,9.4,22.1,9.8h2c11.4,0,23.4-4.4,32.2-11.6
		c0.9-0.7,1.5-1.3,2.2-2c5.7-5.2,9.6-12.2,11.4-19.7c0-0.9,0.2-1.7,0.2-2.6c0.4-1.5,0.7-3.3,0.7-5c0.2-7.4-1.8-14.7-6.3-20.6
		C215.3,358.5,214,357,212.7,355.7z M200,383.7c-0.7,3.1-2.4,6.1-5,8.3c-4.8,4.6-13.1,8.3-20.1,7.7c-2.2,0-5.2-0.7-6.8-2.4
		c-2.8-3.3-2.8-4.8,1.1-13.1c0.4-0.9,0.9-1.7,1.1-2.6v-0.2l14.4-13.3h0.2c4.8-1.1,9.2,0,12.2,3.1c2.2,2.4,3.5,5.5,3.3,9.2v0.7
		C200.5,381.7,200.2,382.8,200,383.7z M81.5,306.7c-4.8-5.5,0.2-18.2,7.4-25.2c6.3-6.1,16.2-6.6,21.4-1.1c3.3,3.3,3.3,7.4,2.8,10.3
		v0.2L97,306.5h-0.2c-0.9,0.2-1.8,0.7-2.6,0.9C85.8,310,84.1,309.8,81.5,306.7z M110.1,336.7c-2.6-3.3-2.4-4.2,0.2-10.5
		c0.4-1.3,0.9-2.4,1.3-3.5v-0.2l16.6-15.7h0.2c3.1-0.2,7.2,0,10.3,3.1c3.3,3.3,3.3,7.4,2.8,10.5v0.2L125.4,336h-0.2
		c-0.9,0.2-1.5,0.4-2.6,0.7C113.4,339.5,112.1,339.1,110.1,336.7z M138.3,366c-2.2-2.6-2-3.9,0.7-10.7c0.4-1.1,0.9-2.2,1.3-3.3v-0.2
		l16.4-15.5h0.2c3.1-0.2,7.2,0,10.3,3.1c3.1,3.3,4.2,7.4,2.8,12.2v0.2l-14.2,13.3h-0.2C146.2,368.2,141,369,138.3,366z"/>
</g>
</svg>
