<?xml version="1.0" encoding="iso-8859-1"?>
<!-- Generator: Adobe Illustrator 20.1.0, SVG Export Plug-In . SVG Version: 6.00 Build 0)  -->
<svg version="1.1" id="Layer_1" xmlns="http://www.w3.org/2000/svg" xmlns:xlink="http://www.w3.org/1999/xlink" x="0px" y="0px"
	 width="500px" height="500px" viewBox="0 0 500 500" enable-background="new 0 0 500 500" xml:space="preserve">
<g>
	<path d="M452.9,284.6c-1.9,0-4-0.2-5.6-0.8l-4.8,19.4c6.9,4.2,14,4.2,20.9,0l-4.8-19.4C456.8,284.4,454.7,284.6,452.9,284.6z"/>
	<path d="M337.5,272.1l5.8,55.7c-1,6.9-34,19.8-93.2,19.8c-60.3,0-93.2-13.4-93.2-19l4.8-45.9l-20.2-7.3l-5.4,51.9
		c0,15,13.6,26.1,40,33.2c19.8,5.2,45.9,7.9,74.1,7.9c26.7,0,114.1-2.9,114.1-41.1l-6.3-60.5L337.5,272.1z"/>
	<polygon points="500,209.5 473.7,200.1 473.7,200.4 473.7,216.2 473.7,216.4 500,209.7 499.6,209.5 	"/>
	<polygon points="351.5,225.6 342.3,227.9 259.3,248.7 218.6,259 190,248.7 145.8,232.9 71.5,206.2 281.4,153.2 367.5,184.3 
		401.1,185.1 434.3,186.2 434.7,186.2 296.2,136.3 288.5,133.6 282.4,131.5 276.4,133 66.5,186 0,202.6 64.5,225.8 143.7,254.4 
		164,261.5 211.5,278.6 217.6,280.9 223.8,279.2 335.2,251.3 355.7,246 427.8,227.7 389.7,226.6 	"/>
	<path d="M444.9,223.5V245v18.8c0,3.3,2.3,6.3,5.4,7.3c0.8,0.2,1.7,0.4,2.5,0.4s1.7-0.2,2.5-0.4c3.1-1,5.2-4,5.2-7.3V241v-21.3v-0.2
		v-10.6v-2.3v-6.7l-19.8-0.6l-33.6-0.8l-156.9-4.4c-0.2,0-0.2,0-0.2,0c-4.2,0-7.7,3.3-7.9,7.5c0,4.4,3.3,7.9,7.7,8.1l148.3,4.2
		l38.2,1l8.6,0.2V223.5z"/>
</g>
</svg>
