<?xml version="1.0" encoding="utf-8"?>
<!-- Generator: Adobe Illustrator 20.1.0, SVG Export Plug-In . SVG Version: 6.00 Build 0)  -->
<svg version="1.1" id="Layer_1" xmlns="http://www.w3.org/2000/svg" xmlns:xlink="http://www.w3.org/1999/xlink" x="0px" y="0px"
	 width="500px" height="500px" viewBox="0 0 500 500" enable-background="new 0 0 500 500" xml:space="preserve">
<g>
	<path d="M348.1,134.9c-5.2-5.2-13.3-5.2-18.5,0L250,214.5l-79.6-79.6c-5.2-5.2-13.3-5.2-18.5,0c-5,5-5,13.3,0,18.3l79.6,79.6
		l-79.6,79.6c-4.8,5-5,12.7-0.4,17.9c0,0.2,0.2,0.4,0.4,0.6c2.3,2.1,4.8,3.3,7.5,3.5c0.6,0.2,1.2,0.2,1.9,0.2c3.3,0,6.7-1.2,9.2-3.8
		l79.6-79.6l79.6,79.6c2.5,2.5,5.8,3.8,9.2,3.8c3.3,0,6.7-1.2,9.4-3.8c5-5.2,5-13.3,0-18.5l-79.6-79.6l79.6-79.6
		C353.1,148.2,353.1,139.9,348.1,134.9z"/>
	<path d="M250,45.3c-138.1,0-250,84-250,187.5c0,51.9,28.1,98.7,73.3,132.7c-1.9,22.3-8.1,45.4-18.5,69.6
		c-2.3,5.6-4.6,10.6-0.2,15.8c0,0,1.5,2.6,4,3.4s6.2,0.2,6.2,0.2c29.6-6.5,65.6-27.9,93.5-47.3c28.3,8.5,59.4,13.1,91.7,13.1
		c138.1,0,250-84,250-187.5C500,129.2,388.1,45.3,250,45.3z M250,399.5c-24.4,0-47.9-2.7-69.8-7.9c-8.8-2.1-17.1-4.4-25.2-7.1
		c-6.5,4.4-13.7,9.4-21.5,14.4c-16.9,11.3-35.8,22.1-53.3,29c6.3-16.7,10.4-33.1,12.9-49.2c1-7.7,1.7-15.4,1.9-23.1
		c-7.5-5-14.6-10.4-21.3-16.3c-33.1-29-52.9-66-52.9-106.5c0-91.9,102.7-166.7,229.2-166.7s229.2,74.8,229.2,166.7
		C479.2,324.7,376.5,399.5,250,399.5z"/>
</g>
</svg>
