<?xml version="1.0" encoding="utf-8"?>
<!-- Generator: Adobe Illustrator 20.1.0, SVG Export Plug-In . SVG Version: 6.00 Build 0)  -->
<svg version="1.1" id="Layer_1" xmlns="http://www.w3.org/2000/svg" xmlns:xlink="http://www.w3.org/1999/xlink" x="0px" y="0px"
	 width="500px" height="500px" viewBox="0 0 500 500" enable-background="new 0 0 500 500" xml:space="preserve">
<path d="M265.3,3.9c-5.1-5.1-13.5-5.1-18.6,0c-5.1,5.1-5.1,13.5,0,18.6l125.1,125H239c-89.2,0-161.8,72.6-161.8,161.8v177.4
	c0,7.3,5.9,13.2,13.2,13.2s13.2-5.9,13.2-13.2V309.4c0-74.7,60.8-135.5,135.5-135.5h134.1L245.2,301.8c-5.1,5.1-5.1,13.5,0,18.6
	c2.6,2.6,5.9,3.8,9.3,3.8s6.7-1.3,9.3-3.8l159.1-159.1L265.3,3.9z"/>
</svg>
