<?xml version="1.0" encoding="iso-8859-1"?>
<!-- Generator: Adobe Illustrator 20.1.0, SVG Export Plug-In . SVG Version: 6.00 Build 0)  -->
<svg version="1.1" id="Layer_1" xmlns="http://www.w3.org/2000/svg" xmlns:xlink="http://www.w3.org/1999/xlink" x="0px" y="0px"
	 width="500px" height="500px" viewBox="0 0 500 500" enable-background="new 0 0 500 500" xml:space="preserve">
<g>
	<path fill="#231F20" d="M448.1,20H54.2c-17.7,0-33.3,15.3-33.3,33.3v393.4c0,18,15.6,33.3,33.3,33.3h391.2
		c18,0,33.3-15.3,33.3-33.3V53.3C481.4,35.3,466.1,20,448.1,20z M262.6,337c-16.2,16-36.4,24.8-58.9,27.8
		c-39.4,5.5-73.8-5.3-102.3-33.7c-43.8-43.8-44-116.3-0.9-161c43.6-44.9,111.3-48.6,158.6-8.5c1.1,0.9,1.8,1.5,2,1.8L227.3,197
		c-34.4-20.4-62.6-20.4-86.5,1.1c-22.8,20.2-29.8,52.1-18,79.7c12.7,28.7,39.2,43.6,72.7,40.3c25-2.4,44.7-19.5,49.9-44h-61.1v-46.7
		h109.5C300,268.8,293.2,306.5,262.6,337z M431.9,259.6h-38.3v39.2h-31.1v-39.2h-39.9v-31.1h39.9V188h31.1v40.5h38.3V259.6z"/>
</g>
</svg>
