<?xml version="1.0" encoding="iso-8859-1"?>
<!-- Generator: Adobe Illustrator 20.1.0, SVG Export Plug-In . SVG Version: 6.00 Build 0)  -->
<svg version="1.1" id="Layer_1" xmlns="http://www.w3.org/2000/svg" xmlns:xlink="http://www.w3.org/1999/xlink" x="0px" y="0px"
	 width="500px" height="500px" viewBox="0 0 500 500" enable-background="new 0 0 500 500" xml:space="preserve">
<g>
	<g>
		<path d="M457.7,173.8v129.5c0,16-12.9,28.9-28.9,28.9c-8,0-15.2-3.2-20.4-8.5c-5.2-5.2-8.5-12.4-8.5-20.4V173.8
			c0-16,12.9-28.9,28.9-28.9c8,0,15.2,3.2,20.4,8.5C454.5,158.6,457.7,165.8,457.7,173.8z"/>
		<path d="M91.6,153.4c5.2,5.2,8.5,12.4,8.5,20.4v129.5c0,16-12.9,28.9-28.9,28.9c-8,0-15.2-3.2-20.4-8.5
			c-5.2-5.2-8.5-12.4-8.5-20.4V173.8c0-16,12.9-28.9,28.9-28.9C79.1,144.9,86.3,148.2,91.6,153.4z"/>
		<path d="M385.6,154.1v111.6h-0.2v117.1c0,8.9-7.2,16.2-16.2,16.2h-34.7v72.1c0,16-12.9,28.9-28.9,28.9c-8,0-15.2-3.2-20.4-8.5
			c-5.2-5.2-8.5-12.4-8.5-20.4v-72.1h-53.6v72.1c0,16-12.9,28.9-28.9,28.9c-8,0-15.2-3.2-20.4-8.5c-5.2-5.2-8.5-12.4-8.5-20.4v-72.1
			h-34.6c-8.9,0-16.2-7.2-16.2-16.2V265.7h-0.2V154.1H385.6z"/>
		<path d="M315.4,36.5l23.2-32.7c0.1-0.1,0.2-0.3,0.2-0.5c0-0.7-0.6-1.7-1.7-2.4c-1.3-0.9-2.8-1.1-3.3-0.5l-24,33.8
			C293.6,27.8,274,23.9,250,23.8c-24.1-0.1-43.9,3.7-60.1,10L166.2,0.4c-0.5-0.7-2-0.5-3.2,0.5c-1,0.7-1.7,1.7-1.7,2.4
			c0,0.2,0,0.4,0.2,0.5l22.9,32.3c-66.8,29.5-68.8,102-68.8,102h268.9C384.5,138.2,381.8,66.3,315.4,36.5z M191,95.8
			c-8.9,0-16.1-7.2-16.1-16.1s7.2-16.1,16.1-16.1c8.9,0,16.1,7.2,16.1,16.1C207.2,88.5,199.9,95.8,191,95.8z M309,95.8
			c-8.9,0-16.1-7.2-16.1-16.1s7.2-16.1,16.1-16.1s16.1,7.2,16.1,16.1C325.3,88.5,317.9,95.8,309,95.8z"/>
	</g>
</g>
</svg>
