<?xml version="1.0" encoding="iso-8859-1"?>
<!-- Generator: Adobe Illustrator 20.1.0, SVG Export Plug-In . SVG Version: 6.00 Build 0)  -->
<svg version="1.1" id="Layer_1" xmlns="http://www.w3.org/2000/svg" xmlns:xlink="http://www.w3.org/1999/xlink" x="0px" y="0px"
	 width="500px" height="500px" viewBox="0 0 500 500" enable-background="new 0 0 500 500" xml:space="preserve">
<g>
	<g>
		<path fill="#010101" d="M386.4,265.9c-0.6-63.2,51.7-93.9,54.1-95.3c-29.6-43.2-75.5-49.1-91.6-49.5c-38.6-4-75.9,23.1-95.6,23.1
			c-20,0-50.3-22.7-82.9-22c-41.9,0.7-81.2,24.9-102.7,62.6c-44.4,76.9-11.3,189.9,31.3,252c21.3,30.4,46.2,64.4,78.7,63.2
			c31.8-1.3,43.7-20.3,82.2-20.3c38.1,0,49.2,20.3,82.5,19.5c34.2-0.6,55.7-30.6,76.2-61.3c24.6-34.9,34.5-69.2,34.9-71
			C452.6,366.6,387,341.6,386.4,265.9z"/>
		<path fill="#010101" d="M323.6,80.1c17.1-21.4,28.8-50.6,25.6-80.1c-24.8,1.1-55.8,17.1-73.6,38.1c-15.8,18.5-29.9,48.7-26.3,77.2
			C277.2,117.4,305.8,101.2,323.6,80.1z"/>
	</g>
</g>
</svg>
