<?xml version="1.0" encoding="utf-8"?>
<!-- Generator: Adobe Illustrator 20.1.0, SVG Export Plug-In . SVG Version: 6.00 Build 0)  -->
<svg version="1.1" id="Layer_1" xmlns="http://www.w3.org/2000/svg" xmlns:xlink="http://www.w3.org/1999/xlink" x="0px" y="0px"
	 width="500px" height="500px" viewBox="0 0 500 500" enable-background="new 0 0 500 500" xml:space="preserve">
<g>
	<path d="M217.8,337.3h-21.3c-0.2,1.3-0.2,2.8,0.2,4.1l24.9,104.4c0.4,2.4,0.2,4.3-0.9,5.6c-1.1,1.3-3,2.1-5.4,2.1h-45.5
		c-6.9,0-14.4-6-16.1-12.7l-24.7-103.5h-21c-0.4,1.3-0.2,2.6,0,3.9L133,445.8c3.9,16.3,20.2,29.2,36.9,29.2h45.5
		c9,0,17.2-3.7,22.1-10.3c5.2-6.4,7.1-15.2,4.9-23.8L217.8,337.3z"/>
	<path d="M224.4,275.7V104.1c0-17.6-14.4-32.2-32.2-32.2H98.2C80.3,71.9,66,86.5,66,104.1v20.2c-3-1.3-6-1.7-9.2-1.7
		c-16.8,0-30.5,14.6-30.5,32.2V225c0,17.8,13.7,32.2,30.5,32.2c3.2,0,6.2-0.4,9.2-1.7v20.2c0,17.8,14.4,32.2,32.2,32.2h94.1
		C210.1,307.9,224.4,293.5,224.4,275.7z M66,225c0,5.8-4.3,10.7-9.2,10.7c-4.9,0-9-4.9-9-10.7v-70.2c0-5.8,4.1-10.7,9-10.7
		c4.9,0,9.2,4.9,9.2,10.7V225z M87.4,275.7V104.1c0-5.8,4.7-10.7,10.7-10.7h94.1c6,0,10.7,4.9,10.7,10.7v171.6
		c0,6-4.7,10.7-10.7,10.7H98.2C92.2,286.4,87.4,281.7,87.4,275.7z"/>
	<path d="M462.6,26.2c-4.3-1.7-12.5-3-22.1,7.3c-0.6,0.6-55.4,58.6-103.7,65.3c-22.1,3.2-51.8,5.6-85.5,7.5c-0.2,0-0.2,0-0.4,0v21.3
		c0.4,0.2,0.9,0.2,1.5,0.2c35-1.9,64.4-4.5,87.4-7.7c48.3-6.7,98.1-53.5,112.5-67.9v276c-13.7-13.7-62.3-58.4-111.9-68.1
		c-24.1-4.7-53.9-7.7-88.5-8.8c-0.4,0-0.6,0-1.1,0.2v21.3c0.2,0,0.2,0,0.4,0c32.9,1.1,62.3,4.1,85,8.4
		c50.7,9.9,103.5,65.1,103.9,65.5c6.4,6.7,12,8.4,16.5,8.4c2.4,0,4.3-0.4,5.8-1.1c4.1-1.5,11.2-6.4,11.2-20.4V46.6
		C473.8,32.6,466.7,27.7,462.6,26.2z"/>
</g>
</svg>
