<?xml version="1.0" encoding="utf-8"?>
<!-- Generator: Adobe Illustrator 20.1.0, SVG Export Plug-In . SVG Version: 6.00 Build 0)  -->
<svg version="1.1" id="Layer_1" xmlns="http://www.w3.org/2000/svg" xmlns:xlink="http://www.w3.org/1999/xlink" x="0px" y="0px"
	 width="500px" height="500px" viewBox="0 0 500 500" enable-background="new 0 0 500 500" xml:space="preserve">
<g>
	<polygon points="405.7,468.7 33.1,468.7 33.1,95.9 330.8,95.9 352.1,74.7 11.8,74.7 11.8,490 426.9,490 426.9,150.2 405.7,171.4 	
		"/>
	<path d="M416.7,10H308.9c-5.7,0-10.6,4.7-10.6,10.6c0,6,4.9,10.6,10.6,10.6h86.6h60.2l-43.4,43.4L211.9,275
		c-4.3,4.3-4.3,10.8,0,15.1c1.9,2.1,4.7,3,7.4,3c2.8,0,5.5-0.9,7.4-3l178.9-178.9L426.9,90l40-40v139.3c0,5.7,4.7,10.6,10.6,10.6
		c6,0,10.6-4.9,10.6-10.6V10H416.7z"/>
</g>
</svg>
