<?xml version="1.0" encoding="utf-8"?>
<!-- Generator: Adobe Illustrator 20.1.0, SVG Export Plug-In . SVG Version: 6.00 Build 0)  -->
<svg version="1.1" id="Layer_1" xmlns="http://www.w3.org/2000/svg" xmlns:xlink="http://www.w3.org/1999/xlink" x="0px" y="0px"
	 width="500px" height="500px" viewBox="0 0 500 500" enable-background="new 0 0 500 500" xml:space="preserve">
<g>
	<path d="M220.1,450.8c-98.5-14.7-172.8-101-172.8-200.9c0-81.9,48.1-154,121.7-185.9l-18.5,57.4c-2.2,7,1.6,14.5,8.5,16.7
		c1.4,0.4,2.7,0.6,4.1,0.6c5.6,0,10.8-3.6,12.6-9.2l27.4-84.9c2.2-7-1.6-14.5-8.5-16.7L109.7,0.6c-7-2.2-14.4,1.6-16.7,8.5
		s1.6,14.5,8.5,16.7l51,16.5C72.7,79.6,20.8,159.4,20.8,249.9c0,112.9,84,210.6,195.4,227.1c0.7,0.1,1.3,0.1,2,0.1
		c6.5,0,12.1-4.7,13.1-11.3C232.4,458.6,227.4,451.9,220.1,450.8z"/>
	<path d="M479.2,250.1c0-113.3-81-208.6-192.5-226.7c-7.2-1-14,3.7-15.2,11c-1.2,7.2,3.7,14,11,15.2
		c98.6,16,170.2,100.3,170.2,200.5c0,81.9-48.1,154-121.7,185.9l18.5-57.4c2.2-7-1.6-14.5-8.5-16.7c-7-2.3-14.5,1.6-16.7,8.5
		l-27.4,84.9c-2.2,7,1.6,14.5,8.5,16.7l84.9,27.4c1.4,0.4,2.7,0.6,4.1,0.6c5.6,0,10.8-3.6,12.6-9.2c2.2-7-1.6-14.5-8.5-16.7
		l-51-16.5C427.3,420.4,479.2,340.6,479.2,250.1z"/>
</g>
</svg>
