<?xml version="1.0" encoding="iso-8859-1"?>
<!-- Generator: Adobe Illustrator 20.1.0, SVG Export Plug-In . SVG Version: 6.00 Build 0)  -->
<svg version="1.1" id="Layer_1" xmlns="http://www.w3.org/2000/svg" xmlns:xlink="http://www.w3.org/1999/xlink" x="0px" y="0px"
	 width="500px" height="500px" viewBox="0 0 500 500" enable-background="new 0 0 500 500" xml:space="preserve">
<g>
	<g>
		<path fill="#231F20" d="M456.9,71.7H186c-7.2,0-13.1-5.9-13.1-13.1s5.9-13.1,13.1-13.1h270.9c7.2,0,13.1,5.9,13.1,13.1
			S464.1,71.7,456.9,71.7z"/>
	</g>
	<g>
		<path fill="#231F20" d="M456.9,323.3H186c-7.2,0-13.1-5.9-13.1-13.1c0-7.2,5.9-13.1,13.1-13.1h270.9c7.2,0,13.1,5.9,13.1,13.1
			C470,317.4,464.1,323.3,456.9,323.3z"/>
	</g>
	<g>
		<path fill="#231F20" d="M456.9,197.5H186c-7.2,0-13.1-5.9-13.1-13.1c0-7.2,5.9-13.1,13.1-13.1h270.9c7.2,0,13.1,5.9,13.1,13.1
			C470,191.6,464.1,197.5,456.9,197.5z"/>
	</g>
	<g>
		<path fill="#231F20" d="M456.9,449.1H186c-7.2,0-13.1-5.9-13.1-13.1s5.9-13.1,13.1-13.1h270.9c7.2,0,13.1,5.9,13.1,13.1
			S464.1,449.1,456.9,449.1z"/>
	</g>
	<g>
		<path d="M67.1,102.5L33.8,69.2c-5.1-5.1-5.1-13.4,0-18.5c5.1-5.1,13.4-5.1,18.5,0l14.7,14.7l41.6-41.6c5.1-5.1,13.4-5.1,18.5,0
			c5.1,5.1,5.1,13.4,0,18.6L67.1,102.5z"/>
	</g>
	<g>
		<path d="M67.1,228.4l-33.3-33.3c-5.1-5.1-5.1-13.4,0-18.5c5.1-5.1,13.4-5.1,18.5,0l14.7,14.7l41.6-41.6c5.1-5.1,13.4-5.1,18.5,0
			c5.1,5.1,5.1,13.4,0,18.6L67.1,228.4z"/>
	</g>
	<g>
		<path d="M67.1,354.2l-33.3-33.3c-5.1-5.1-5.1-13.4,0-18.5c5.1-5.1,13.4-5.1,18.5,0l14.7,14.7l41.6-41.6c5.1-5.1,13.4-5.1,18.5,0
			c5.1,5.1,5.1,13.4,0,18.6L67.1,354.2z"/>
	</g>
	<g>
		<path d="M67.1,480l-33.3-33.3c-5.1-5.1-5.1-13.4,0-18.5c5.1-5.1,13.4-5.1,18.5,0l14.7,14.7l41.6-41.6c5.1-5.1,13.4-5.1,18.5,0
			c5.1,5.1,5.1,13.4,0,18.6L67.1,480z"/>
	</g>
</g>
</svg>
