<?xml version="1.0" encoding="utf-8"?>
<!-- Generator: Adobe Illustrator 20.1.0, SVG Export Plug-In . SVG Version: 6.00 Build 0)  -->
<svg version="1.1" id="Layer_1" xmlns="http://www.w3.org/2000/svg" xmlns:xlink="http://www.w3.org/1999/xlink" x="0px" y="0px"
	 width="500px" height="500px" viewBox="0 0 500 500" enable-background="new 0 0 500 500" xml:space="preserve">
<g>
	<path d="M442.6,213.5c20.2,0,36.5,16.4,36.5,36.5s-16.4,36.5-36.5,36.5s-36.5-16.4-36.5-36.5S422.5,213.5,442.6,213.5L442.6,213.5z
		 M442.6,192.6c-31.7,0-57.4,25.7-57.4,57.4s25.7,57.4,57.4,57.4S500,281.7,500,250S474.3,192.6,442.6,192.6L442.6,192.6z"/>
	<path d="M250,213.5c20.2,0,36.5,16.4,36.5,36.5s-16.4,36.5-36.5,36.5s-36.5-16.4-36.5-36.5S229.8,213.5,250,213.5L250,213.5z
		 M250,192.6c-31.7,0-57.4,25.7-57.4,57.4s25.7,57.4,57.4,57.4s57.4-25.7,57.4-57.4S281.7,192.6,250,192.6L250,192.6z"/>
	<path d="M57.4,213.5c20.2,0,36.5,16.4,36.5,36.5s-16.4,36.5-36.5,36.5S20.8,270.2,20.8,250S37.2,213.5,57.4,213.5L57.4,213.5z
		 M57.4,192.6C25.7,192.6,0,218.3,0,250s25.7,57.4,57.4,57.4c31.7,0,57.4-25.7,57.4-57.4S89.1,192.6,57.4,192.6L57.4,192.6z"/>
</g>
</svg>
