<?xml version="1.0" encoding="iso-8859-1"?>
<!-- Generator: Adobe Illustrator 20.1.0, SVG Export Plug-In . SVG Version: 6.00 Build 0)  -->
<svg version="1.1" id="Layer_1" xmlns="http://www.w3.org/2000/svg" xmlns:xlink="http://www.w3.org/1999/xlink" x="0px" y="0px"
	 width="500px" height="500px" viewBox="0 0 500 500" enable-background="new 0 0 500 500" xml:space="preserve">
<g>
	<path d="M250,406.1c20.2,0,36.5,16.4,36.5,36.5s-16.4,36.5-36.5,36.5s-36.5-16.4-36.5-36.5S229.8,406.1,250,406.1 M250,385.2
		c-31.7,0-57.4,25.7-57.4,57.4S218.3,500,250,500s57.4-25.7,57.4-57.4S281.7,385.2,250,385.2L250,385.2z"/>
	<path d="M250,213.5c20.2,0,36.5,16.4,36.5,36.5s-16.4,36.5-36.5,36.5s-36.5-16.4-36.5-36.5S229.8,213.5,250,213.5 M250,192.6
		c-31.7,0-57.4,25.7-57.4,57.4s25.7,57.4,57.4,57.4s57.4-25.7,57.4-57.4S281.7,192.6,250,192.6L250,192.6z"/>
	<path d="M250,20.8c20.2,0,36.5,16.4,36.5,36.5S270.2,93.9,250,93.9s-36.5-16.4-36.5-36.5S229.8,20.8,250,20.8 M250,0
		c-31.7,0-57.4,25.7-57.4,57.4s25.7,57.4,57.4,57.4s57.4-25.7,57.4-57.4S281.7,0,250,0L250,0z"/>
</g>
</svg>
