<?xml version="1.0" encoding="utf-8"?>
<!-- Generator: Adobe Illustrator 19.2.1, SVG Export Plug-In . SVG Version: 6.00 Build 0)  -->
<svg version="1.1" id="Layer_1" xmlns="http://www.w3.org/2000/svg" xmlns:xlink="http://www.w3.org/1999/xlink" x="0px" y="0px"
	 viewBox="0 0 32 32" style="enable-background:new 0 0 32 32;" xml:space="preserve">
<g>
	<path d="M18.8,27.7C18.7,27.7,18.7,27.7,18.8,27.7c-0.4,0-0.6-0.3-0.7-0.6L15.5,8.9l-2.1,10.5c-0.1,0.3-0.3,0.5-0.5,0.5
		c-0.3,0.1-0.5,0-0.7-0.3l-3-3.9l-1.8,3.4c-0.1,0.2-0.3,0.3-0.6,0.3H2.4c-0.4,0-0.7-0.3-0.7-0.7s0.3-0.7,0.7-0.7h4l2.2-3.9
		c0.1-0.2,0.3-0.3,0.5-0.3c0.2,0,0.4,0.1,0.6,0.3l2.7,3.6L15,4.9c0.1-0.3,0.3-0.5,0.7-0.5c0.3,0,0.6,0.3,0.6,0.6L19,23.9l2.7-9.3
		c0.1-0.2,0.3-0.4,0.5-0.5c0.2,0,0.5,0.1,0.7,0.3l2.9,3.8h3.8c0.4,0,0.7,0.3,0.7,0.7s-0.3,0.7-0.7,0.7h-4.2c-0.2,0-0.4-0.1-0.5-0.3
		l-2.3-3l-3.2,11C19.3,27.5,19.1,27.7,18.8,27.7z"/>
</g>
</svg>
