<?xml version="1.0" encoding="iso-8859-1"?>
<!-- Generator: Adobe Illustrator 20.1.0, SVG Export Plug-In . SVG Version: 6.00 Build 0)  -->
<svg version="1.1" id="Layer_1" xmlns="http://www.w3.org/2000/svg" xmlns:xlink="http://www.w3.org/1999/xlink" x="0px" y="0px"
	 width="500px" height="500px" viewBox="0 0 500 500" enable-background="new 0 0 500 500" xml:space="preserve">
<g>
	<path d="M297.2,438.8c-0.3,0-0.6,0-0.9,0c-4.8-0.4-8.8-4.1-9.5-8.9l-45.1-302.3l-39.9,172.1c-0.9,3.8-3.9,6.8-7.7,7.8
		c-3.8,0.9-7.8-0.3-10.4-3.3l-52.4-60.3L99,299.8c-1.9,3.2-5.3,5.2-9,5.2H10.5C4.7,305,0,300.3,0,294.5s4.7-10.5,10.5-10.5h73.5
		l36.7-63.4c1.7-2.9,4.7-4.8,8.1-5.2c3.3-0.2,6.7,1,8.9,3.6l48.6,55.9l47.7-205.7c1.1-4.9,5.2-8,10.6-8.1c5,0.2,9.2,3.9,9.9,8.9
		L301,382.8l50.1-154.1c1.2-3.6,4.2-6.3,7.9-7c3.7-0.8,7.6,0.6,10,3.5l51.9,61.1h68.7c5.8,0,10.5,4.7,10.5,10.5s-4.7,10.5-10.5,10.5
		H416c-3.1,0-6-1.3-8-3.7L365.2,253l-58,178.5C305.8,435.9,301.7,438.8,297.2,438.8z"/>
</g>
</svg>
