<?xml version="1.0" encoding="utf-8"?>
<!-- Generator: Adobe Illustrator 19.2.1, SVG Export Plug-In . SVG Version: 6.00 Build 0)  -->
<svg version="1.1" id="Layer_1" xmlns="http://www.w3.org/2000/svg" xmlns:xlink="http://www.w3.org/1999/xlink" x="0px" y="0px"
	 viewBox="0 0 32 32" style="enable-background:new 0 0 32 32;" xml:space="preserve">
<path d="M16,6.2c1,0,1.8-0.8,1.8-1.8V3.5c0-1-0.8-1.8-1.8-1.8s-1.8,0.8-1.8,1.8v0.9C14.2,5.4,15,6.2,16,6.2z M9,6.5L8.4,5.9
	c-0.7-0.7-1.8-0.7-2.5,0c-0.7,0.7-0.7,1.8,0,2.5L6.5,9C7.2,9.7,8.4,9.7,9,9C9.7,8.4,9.7,7.2,9,6.5z M4.4,14.2H3.5
	c-1,0-1.8,0.8-1.8,1.8c0,1,0.8,1.8,1.8,1.8h0.9c1,0,1.8-0.8,1.8-1.8C6.2,15,5.4,14.2,4.4,14.2z M28.5,14.2h-0.9
	c-1,0-1.8,0.8-1.8,1.8c0,1,0.8,1.8,1.8,1.8h0.9c1,0,1.8-0.8,1.8-1.8S29.5,14.2,28.5,14.2z M26.1,5.9c-0.7-0.7-1.8-0.7-2.5,0L23,6.5
	c-0.7,0.7-0.7,1.8,0,2.5c0.7,0.7,1.8,0.7,2.5,0l0.6-0.6C26.8,7.7,26.8,6.6,26.1,5.9z M11.5,26.7c0,1,0.8,1.8,1.8,1.8h0.2
	c0.4,1,1.4,1.8,2.5,1.8s2.1-0.7,2.5-1.8h0.2c1,0,1.8-0.8,1.8-1.8v-0.9h-8.9V26.7z M16,8c-4.4,0-8,3.6-8,8c0,3.8,3.1,7.1,3.6,8h8.9
	c0.5-1,3.6-4.2,3.6-8C24,11.6,20.4,8,16,8z M16.9,21.3v1h-1.8v-1c-1-0.2-1.8-0.7-2.3-1.4l1.5-1c0.2,0.3,0.8,0.7,1.7,0.7
	c1.8,0,1.8-0.6,1.8-0.9c0-0.7-1.3-0.9-1.8-0.9c-3.2-0.2-3.5-1.9-3.5-2.7c0-0.9,0.4-2.3,2.7-2.6v-1h1.8v1c1,0.2,1.8,0.7,2.3,1.4
	l-1.5,1c-0.2-0.3-0.8-0.7-1.7-0.7c-1.8,0-1.8,0.6-1.8,0.9c0,0.7,1.3,0.9,1.8,0.9c3.2,0.2,3.5,1.9,3.5,2.7
	C19.6,19.6,19.2,21,16.9,21.3z"/>
</svg>
