<?xml version="1.0" encoding="iso-8859-1"?>
<!-- Generator: Adobe Illustrator 20.1.0, SVG Export Plug-In . SVG Version: 6.00 Build 0)  -->
<svg version="1.1" id="Layer_1" xmlns="http://www.w3.org/2000/svg" xmlns:xlink="http://www.w3.org/1999/xlink" x="0px" y="0px"
	 width="500px" height="500px" viewBox="0 0 500 500" enable-background="new 0 0 500 500" xml:space="preserve">
<g>
	<path d="M250,0C111.9,0,0,111.9,0,250c0,138.1,111.9,250,250,250c138.1,0,250-111.9,250-250C500,111.9,388.1,0,250,0z M412,412
		c-43.3,43.3-100.8,67.1-162,67.1C123.6,479.2,20.8,376.4,20.8,250S123.6,20.8,250,20.8S479.2,123.6,479.2,250
		C479.2,311.2,455.3,368.8,412,412z"/>
	<path d="M262.3,241.2v-94.5c33.6,4.6,50.6,26.6,51.5,27.7c3.4,4.6,9.9,5.7,14.5,2.3c4.6-3.4,5.7-9.9,2.3-14.5
		c-1-1.4-23.8-31.2-68.3-36.3V94.4c0-5.8-4.7-10.4-10.4-10.4c-5.8,0-10.4,4.7-10.4,10.4v31.1c-48.3,3.4-70.7,34.8-70.7,64.3
		c0,38.9,38.4,56.7,70.7,66.8v98.6c-25.9-2.7-54-17.1-64-30.2c-3.5-4.5-10-5.4-14.6-1.9c-4.6,3.5-5.4,10-1.9,14.6
		c15.1,19.6,49.8,35.7,80.6,38.3v31c0,5.8,4.7,10.4,10.4,10.4c5.8,0,10.4-4.7,10.4-10.4V376c35.9-3.3,70.3-21.5,70.3-64.9
		C332.6,265,294.2,250.6,262.3,241.2z M191.6,189.9c0-19.7,15.8-40.5,49.9-43.6v88.4C207.2,223.1,191.6,209,191.6,189.9z M262.3,355
		v-92c34,10.9,49.5,22.1,49.5,48.1C311.8,344.2,281.9,352.8,262.3,355z"/>
</g>
</svg>
