<?xml version="1.0" encoding="iso-8859-1"?>
<!-- Generator: Adobe Illustrator 20.1.0, SVG Export Plug-In . SVG Version: 6.00 Build 0)  -->
<svg version="1.1" id="Layer_1" xmlns="http://www.w3.org/2000/svg" xmlns:xlink="http://www.w3.org/1999/xlink" x="0px" y="0px"
	 width="500px" height="500px" viewBox="0 0 500 500" enable-background="new 0 0 500 500" xml:space="preserve">
<g>
	<path d="M125.6,262H44.1c6.1-30,24.5-55.6,49.7-70.9c-6.8-3.7-13.1-8.3-19-13.8C41.7,201.2,20,239.9,20,283.9h107.8
		C126.3,276.9,125.6,269.5,125.6,262z"/>
	<path d="M120.8,156.2c9.2,4.6,19.7,7.2,30.8,7.2c11.2,0,21.7-2.6,30.8-7.2c15.3-7.2,27.3-19.7,34.1-35c4.2-9,6.3-18.8,6.3-29.1
		c0-39.4-31.9-71.3-71.3-71.3S80.4,52.7,80.4,92.1c0,10.3,2.2,20.1,6.3,29.1C93.5,136.5,105.5,148.9,120.8,156.2z M151.7,42.6
		c27.1,0,49.4,22.1,49.4,49.4c0,7.9-2,15.5-5.5,22.1c-8.1,16.2-24.7,27.3-44,27.3s-36.1-11.2-44.2-27.3c-3.3-6.6-5.2-14.2-5.2-22.1
		C102.2,64.7,124.3,42.6,151.7,42.6z"/>
	<path d="M455.9,262h-81.4c0,7.4-0.7,14.9-2.2,21.9H480c0-44-21.4-82.7-54.7-106.5c-5.7,5.5-12,10.1-18.8,13.8
		C431.7,206.5,449.8,232.1,455.9,262z"/>
	<path d="M317.7,156.2c9.2,4.6,19.7,7.2,30.8,7.2c11.2,0,21.7-2.6,30.8-7.2c15.3-7.2,27.3-19.7,34.1-35c4.2-9,6.3-18.8,6.3-29.1
		c0-39.4-31.9-71.3-71.3-71.3s-71.3,31.9-71.3,71.3c0,10.3,2.2,20.1,6.3,29.1C290.4,136.5,302.4,148.9,317.7,156.2z M348.5,42.6
		c27.1,0,49.4,22.1,49.4,49.4c0,7.9-2,15.5-5.5,22.1c-8.1,16.2-24.7,27.3-44,27.3c-19.2,0-36.1-11.2-44.2-27.3
		c-3.3-6.6-5.2-14.2-5.2-22.1C299.1,64.7,321.2,42.6,348.5,42.6z"/>
	<path d="M332.6,355c-5.9,5.5-12.5,10.1-19.2,14c31.9,18.6,55.3,50.5,61.9,88.4H125c6.6-37.8,30-69.8,61.9-88.4
		c-6.8-3.9-13.3-8.5-19.2-14c-40,26.9-66.5,72.4-66.5,124.2h297.9C399.1,427.4,372.6,381.9,332.6,355z"/>
	<path d="M190.4,208c-13.1,14.2-21,33-21,54c0,7.7,1.1,14.9,3.1,21.9c0.2,0.7,0.4,1.5,0.7,2.2c1.5,4.8,3.5,9.6,5.7,14.2
		c6.1,10.9,14.4,20.3,24.5,27.3c3.5,2.8,7.4,5,11.6,7c10.7,5.2,22.5,8.1,35.2,8.1s24.5-2.8,35.2-8.1c4.2-2,8.1-4.2,11.6-7
		c10.1-7,18.4-16.4,24.5-27.3c2.2-4.4,4.2-9,5.5-13.6c0.4-0.9,0.7-2,0.9-2.8c2-7,3.1-14.2,3.1-21.9c0-21.2-8.1-40.5-21.4-54.7
		c-5.9-6.3-12.5-11.6-19.9-15.5c-7.7-4.4-16.2-7.4-25.2-9c-4.6-0.9-9.4-1.3-14.2-1.3c-5,0-9.8,0.4-14.4,1.3c-9,1.5-17.3,4.6-24.9,9
		C203.1,196,196.3,201.4,190.4,208z M244.4,203.6c1.8-0.2,3.7-0.2,5.7-0.2c2,0,3.7,0,5.5,0.2c5.2,0.4,10.3,1.7,14.9,3.5
		c22.5,8.1,38.5,29.7,38.5,54.9c0,7.7-1.5,15.1-4.2,21.9c-1.3,3.3-3.1,6.3-4.8,9.2c-10.5,16.6-28.9,27.8-49.9,27.8
		c-21,0-39.4-11.2-49.9-27.8c-1.7-2.8-3.5-5.9-4.6-9.2c-2.8-6.8-4.4-14.2-4.4-21.9c0-25.2,16-46.8,38.5-54.9
		C234.4,205.4,239.2,204.3,244.4,203.6z"/>
</g>
</svg>
