<?xml version="1.0" encoding="utf-8"?>
<!-- Generator: Adobe Illustrator 19.2.1, SVG Export Plug-In . SVG Version: 6.00 Build 0)  -->
<svg version="1.1" id="Layer_1" xmlns="http://www.w3.org/2000/svg" xmlns:xlink="http://www.w3.org/1999/xlink" x="0px" y="0px"
	 viewBox="0 0 32 32" style="enable-background:new 0 0 32 32;" xml:space="preserve">
<g>
	<g>
		<path d="M11.9,13.4c-0.6,0.1-1.2,0.2-1.7,0.3c-0.2,0-0.4,0.1-0.5,0.2c1.4-1.8,0.8-3.7,0.8-3.7C9.1,9.8,8.6,8.5,8.6,8.5
			c-1,2.3-2.8,2.2-2.8,2.2c-0.4,1.4,0.4,2.6,0.8,3.1c-0.1-0.1-0.2-0.1-0.3-0.1c-0.7-0.1-1.3-0.2-2-0.3c-0.1,0,0-0.1,0-0.1
			c0.7-0.7,0.9-1.5,0.8-2.4c0-0.5,0-1,0.1-1.5c0.4-1.5,1.7-2.4,3.2-2.3c1.4,0.1,2.6,1.2,2.8,2.7c0,0.3,0,0.7,0,1.1
			c0,1.2,0.1,1.5,0.7,2.3C12.1,13.1,12.1,13.3,11.9,13.4z"/>
		<path d="M13.2,22c-1.7,0-3.4,0-5.1,0c-1.7,0-3.4,0-5.1-0.1c-0.5,0-0.7-0.2-0.7-0.6c0.1-1,0.2-2.1,0.4-3.1c0.1-0.5,0.1-0.9,0.3-1.4
			c0.1-0.4,0.2-0.9,0.6-1.2c0.2-0.1,0.4-0.2,0.6-0.3c0.6-0.2,1.3-0.3,2-0.5c-0.5,0.4-1,0.9-1.5,1.3c0.6,0,1.1,0,1.5,0
			c0.1,0,0.2,0,0.3,0.1c0.5,0.7,1.1,1.4,1.6,2.1c0,0,0,0,0,0v0c0,0,0,0,0,0c0,0,0,0,0,0c0,0,0,0,0,0h0c0,0,0,0,0,0v0c0,0,0,0,0,0
			c0,0,0,0,0,0v0l0,0h0c0,0,0,0,0,0c0,0,0,0,0,0c0,0,0,0,0,0v0c0,0,0,0,0,0c0.6-0.7,1.1-1.4,1.7-2.1c0.1-0.1,0.2-0.1,0.3-0.1
			c0.5,0,1,0,1.5,0c-0.5-0.5-1-0.9-1.5-1.4c0.7,0.2,1.3,0.3,2,0.5c0.3,0.1,0.5,0.2,0.6,0.3c0.3,0.2,0.4,0.8,0.5,1.2
			c0.1,0.5,0.2,0.9,0.2,1.4c0.2,1,0.3,2.1,0.3,3.1C13.9,21.8,13.7,22,13.2,22z"/>
		<path d="M8.1,16c0,0-0.1,0-0.1,0c-0.3,0-0.6-0.1-0.8-0.2c-0.4-0.1-0.7-0.4-0.8-0.9c0-0.1,0-0.2,0.1-0.2c0.1,0,0.2,0,0.2,0.1
			c0.1,0.3,0.4,0.6,0.7,0.7c0.2,0.1,0.4,0.1,0.7,0.1c0.4,0,0.8,0,1.1-0.2c0.3-0.1,0.5-0.4,0.6-0.6c0-0.1,0.1-0.1,0.2-0.1
			c0.1,0,0.1,0.1,0.1,0.2c-0.1,0.4-0.4,0.7-0.8,0.8C8.8,15.9,8.5,16,8.1,16z"/>
	</g>
	<g>
		<path d="M28.7,21.4c-1.5,0.4-3,0.8-4.5,1.1c-0.2,0-0.4,0-0.5,0c-1.5-0.4-3.1-0.8-4.6-1.1c-0.7-0.2-0.9-0.5-0.8-1.1l0-0.1
			c0-0.1,0-0.1,0-0.2c0.1-1.2,0.3-2.3,0.4-3.5c0.1-0.6,0.2-0.8,0.9-1c0.7-0.2,1.5-0.4,2.2-0.6c0.1,0,0.3-0.1,0.4-0.1c0,0,0,0,0.1,0
			h0.3c0,0,0,0,0,0l0.7,2.5c0-0.1,0-0.1,0-0.2c0-0.2,0.1-0.5,0.1-0.7c0-0.2,0-0.5-0.1-0.7c0-0.1-0.1-0.1-0.2-0.2c0-0.1,0-0.2,0-0.3
			c0-0.1,0.1-0.3,0.2-0.3c0.1,0,0.4,0,0.6,0c0.1,0,0.5,0,0.5,0c0.2,0.1,0.2,0.5,0.1,0.7c0,0.1-0.1,0.1-0.1,0.2
			c0,0.1-0.1,0.3-0.1,0.4c0,0.1,0,0.1,0,0.2c0,0.2,0,0.5,0.1,0.7c0,0.1,0,0.1,0,0.2l0.9-2.5h0.3l0.3,0.1l0.1,0
			c0.8,0.2,1.5,0.4,2.3,0.7c0.5,0.1,0.7,0.4,0.8,0.8c0.1,1.2,0.3,2.4,0.4,3.6c0,0,0,0,0,0.1c0,0.1,0,0.1,0,0.2
			C29.7,20.9,29.4,21.3,28.7,21.4z"/>
		<path d="M21.2,10.5c-0.5-1.4,0-2.4,1.3-3.1c1-0.5,2-0.5,3,0c1.3,0.7,1.8,1.7,1.3,3.1c0.6,0.3,0.5,0.9-0.1,1.3
			c-0.2,0.1-0.3,0.3-0.4,0.4c-0.3,0.4-0.6,0.9-1,1.3c-0.7,0.7-1.7,0.7-2.5,0c-0.4-0.4-0.7-0.9-1-1.4c-0.1-0.1-0.2-0.2-0.3-0.3
			c-0.1-0.1-0.3-0.2-0.4-0.4C20.6,11,20.7,10.7,21.2,10.5z M26.4,10.6c-1.1-0.2-1.3-1.2-1.3-1.2c-1.4,1.5-3.7,1.2-3.7,1.2
			c0,0,0.3,1,0.3,1.1c0.1,0.3,0.3,0.6,0.5,0.8c0.3,0.5,0.8,1,1.4,1.1c1.1,0.2,1.8-1,2.2-1.7C26,11.9,26.5,10.7,26.4,10.6z"/>
	</g>
	<g>
		<path d="M20.9,23.9c-1.5,0.4-3,0.8-4.5,1.1c-0.2,0-0.4,0-0.5,0c-1.5-0.4-3.1-0.8-4.6-1.1c-0.7-0.2-0.9-0.5-0.8-1.1l0-0.1
			c0-0.1,0-0.1,0-0.2c0.1-1.2,0.3-2.3,0.4-3.5c0.1-0.6,0.2-0.8,0.9-1c0.7-0.2,1.5-0.4,2.2-0.6c0.1,0,0.3-0.1,0.4-0.1c0,0,0,0,0.1,0
			h0.3c0,0,0,0,0,0l0.7,2.5c0-0.1,0-0.1,0-0.2c0-0.2,0.1-0.5,0.1-0.7c0-0.2,0-0.5-0.1-0.7c0-0.1-0.1-0.1-0.2-0.2c0-0.1,0-0.2,0-0.3
			c0-0.1,0.1-0.3,0.2-0.3c0.1,0,0.4,0,0.6,0c0.1,0,0.5,0,0.5,0c0.2,0.1,0.2,0.5,0.1,0.7c0,0.1-0.1,0.1-0.1,0.2
			c0,0.1-0.1,0.3-0.1,0.4c0,0.1,0,0.1,0,0.2c0,0.2,0,0.5,0.1,0.7c0,0.1,0,0.1,0,0.2l0.9-2.5h0.3l0.3,0.1l0.1,0
			c0.8,0.2,1.5,0.4,2.3,0.7c0.5,0.1,0.7,0.4,0.8,0.8c0.1,1.2,0.3,2.4,0.4,3.6c0,0,0,0,0,0.1c0,0.1,0,0.1,0,0.2
			C21.9,23.4,21.6,23.7,20.9,23.9z"/>
		<path d="M13.4,12.9c-0.5-1.4,0-2.4,1.3-3.1c1-0.5,2-0.5,3,0c1.3,0.7,1.8,1.7,1.3,3.1c0.6,0.3,0.5,0.9-0.1,1.3
			c-0.2,0.1-0.3,0.3-0.4,0.4c-0.3,0.4-0.6,0.9-1,1.3c-0.7,0.7-1.7,0.7-2.5,0c-0.4-0.4-0.7-0.9-1-1.4c-0.1-0.1-0.2-0.2-0.3-0.3
			c-0.1-0.1-0.3-0.2-0.4-0.4C12.8,13.5,12.9,13.1,13.4,12.9z M18.6,13.1c-1.1-0.2-1.3-1.2-1.3-1.2c-1.4,1.5-3.7,1.2-3.7,1.2
			c0,0,0.3,1,0.3,1.1c0.1,0.3,0.3,0.6,0.5,0.8c0.3,0.5,0.8,1,1.4,1.1c1.1,0.2,1.8-1,2.2-1.7C18.2,14.4,18.7,13.1,18.6,13.1z"/>
	</g>
</g>
</svg>
