<?xml version="1.0" encoding="iso-8859-1"?>
<!-- Generator: Adobe Illustrator 20.1.0, SVG Export Plug-In . SVG Version: 6.00 Build 0)  -->
<svg version="1.1" id="Layer_1" xmlns="http://www.w3.org/2000/svg" xmlns:xlink="http://www.w3.org/1999/xlink" x="0px" y="0px"
	 width="500px" height="500px" viewBox="0 0 500 500" enable-background="new 0 0 500 500" xml:space="preserve">
<g>
	<path d="M480,348.5c0-59-30.9-110.5-77.6-139.2c-5.9,5.3-12.5,10.1-19.5,14c38.6,20.4,66.4,58.3,73.4,103.2h-32.2
		c2.2,7.2,1.5,14.9-1.5,21.9H480z"/>
	<path d="M250.8,124.8c-1.3-5-2-10.3-2-15.8c0-37,30-67.1,67.1-67.1c36.8,0,66.8,30,66.8,67.1s-30,67.1-66.8,67.1
		c-5.5,0-10.7-0.7-15.8-2c2,3.5,3.7,7,5.5,10.7c2,4.2,3.7,8.5,5,12.9c1.8,0.2,3.5,0.2,5.3,0.2c13.8,0,27-3.1,38.6-9
		c29.8-14.2,50.2-44.7,50.2-80c0-49.1-39.7-89-88.8-89s-89,39.9-89,89c0,1.8,0,3.5,0.2,5C235.4,116.9,243.3,120.4,250.8,124.8z"/>
	<path d="M322.9,445.6c1.1,4.2,2,8.3,2.6,12.5H43.7c7-44.9,34.8-83.1,73.4-103.7c-7-3.9-13.4-8.8-19.3-14C51.1,369.1,20,421,20,480
		h329.2c0-15.3-2.2-30.2-6.1-44.3C336.9,439.9,330.1,443.2,322.9,445.6z"/>
	<path d="M145.8,320.2c2.4,1.3,5,2.4,7.7,3.3c9.6,3.7,20.2,5.7,31.1,5.7c7.5,0,14.7-0.9,21.5-2.6c6.1-1.5,12.1-3.7,17.5-6.4
		c15.6-7.5,28.5-19.5,37.3-34.2c8.1-13.4,12.9-29.1,12.9-46c0-1.8,0-3.5-0.2-5.3c-0.4-7.2-1.5-14.2-3.5-20.8
		c-2.4-7.2-5.3-13.8-9.2-19.9c-14.5-24.5-40.5-41.2-70.8-43c-1.8-0.2-3.7-0.2-5.5-0.2c-49.1,0-89,39.9-89,89.2
		c0,16.9,4.6,32.7,12.7,46C117.3,300.7,130.2,312.8,145.8,320.2z M184.6,172.7c5.5,0,11,0.7,16,2c16.4,3.9,30.7,14.2,39.9,28.1
		c4.2,5.9,7.2,12.7,9.2,20.2c-0.2-0.2-0.7,0-0.9,0.4c0.4,0.4,0.7,0.7,1.1,0.7c1.3,5,2,10.5,2,16c0,14.7-4.6,28.1-12.5,39
		c-12.3,17.1-32.2,28.3-54.8,28.3c-1.8,0-3.3,0-4.8-0.2c-7.7-0.4-14.9-2.2-21.5-5c-11.4-5-21-12.9-28.3-23
		c-7.9-11-12.5-24.3-12.5-39C117.5,203,147.5,172.7,184.6,172.7z"/>
	<path d="M392.7,317.1l-21-21l-33.1-33.1l-32.7,32.4l-6.1,6.4l-15.6,15.3l-1.1,1.1c-4.2,4.4-4.2,11.2,0,15.6c2.2,2.2,5,3.3,7.9,3.3
		c2.6,0,5.5-1.1,7.7-3.3l29.1-29.1v55.2c0,9.6-3.7,18.2-9.9,24.8c-1.1,1.3-2.4,2.4-3.7,3.3c-1.1,0.9-2.2,1.8-3.3,2.4
		c-3.7,2.4-7.7,4.2-12.1,5c-0.2,0-0.2,0-0.2,0c-2.4,0.4-4.8,0.7-7.2,0.7h-56.3c-6.1,0-11,5-11,11c0,6.1,4.8,11,11,11h56.3
		c6.1,0,12.3-0.9,17.8-2.8c7.2-2.2,13.8-5.9,19.3-10.5c12.9-10.5,21.3-26.7,21.3-44.7V305l12.1,12.1l9.9,9.9l6.4,6.4
		c4.2,4.2,11.2,4.2,15.3,0c4.4-4.4,4.4-11.2,0-15.6L392.7,317.1z"/>
</g>
</svg>
