<?xml version="1.0" encoding="utf-8"?>
<!-- Generator: Adobe Illustrator 20.0.0, SVG Export Plug-In . SVG Version: 6.00 Build 0)  -->
<svg version="1.1" id="Layer_1" xmlns="http://www.w3.org/2000/svg" xmlns:xlink="http://www.w3.org/1999/xlink" x="0px" y="0px"
	 viewBox="0 0 32 32" style="enable-background:new 0 0 32 32;" xml:space="preserve">
<g>
	<g>
		<path d="M22.76,15.558c-1.149-0.381-2.403-0.459-3.603-0.341c0.094-0.787,0.06-1.589-0.101-2.365
			c3.719,0.963,6.715-3.445,4.45-6.548c-2.265-3.104-7.376-1.596-7.594,2.24c-0.461-0.219-0.922-0.437-1.384-0.656
			c0.598-4.254,5.802-6.244,9.13-3.574c3.239,2.598,2.591,7.861-1.119,9.67c4.326,0.889,7.559,4.781,7.637,9.198
			c-1.697,0.003-1.286,0.007-2.983,0.01c0-0.5,0-1,0-1.5c1.152,0.003,0.195,0.006,1.347,0.009c0.013,0-0.384-1.283-0.383-1.281
			c-0.271-0.682-0.633-1.323-1.077-1.907c-0.911-1.199-2.214-2.194-3.636-2.709c-0.158-0.07-0.316-0.123-0.474-0.176"/>
	</g>
	<g>
		<g>
			<path d="M18.937,22.169c-0.141-0.107-0.27-0.236-0.404-0.351c-0.14-0.14-0.316-0.263-0.474-0.369
				c-0.035-0.018-0.07-0.053-0.105-0.07c-0.053-0.035-0.088-0.053-0.123-0.088c-0.105-0.087-0.228-0.158-0.351-0.228
				c-0.842-0.562-1.79-0.965-2.773-1.246c-0.035-0.018-0.07-0.018-0.105-0.035c-0.035,0-0.052-0.018-0.088-0.018l-0.228-0.053
				l0.211-0.105c1.439-0.772,2.51-2.124,2.896-3.703c0-0.035,0.018-0.053,0.018-0.088c0.018-0.053,0.035-0.123,0.035-0.175
				c0.132-0.555,0.139-1.12,0.088-1.685v-0.088c-0.159-1.435-0.913-2.847-2.036-3.756c-0.509-0.439-1.106-0.79-1.72-1.001
				c-0.018,0-0.035-0.018-0.053-0.018h-0.035c-0.798-0.335-1.659-0.364-2.51-0.298C10.757,8.847,10.336,8.952,9.95,9.11
				c-2.054,0.72-3.528,2.598-3.774,4.775v0.07c-0.21,2.313,0.985,4.551,3.037,5.652l0.211,0.105l-0.228,0.053
				c-0.035,0-0.052,0.018-0.088,0.018c-0.035,0.018-0.07,0.018-0.105,0.035c-4.032,1.089-7.179,4.737-7.179,8.987v0.123h19.94
				l0.123-0.018v-0.14c0-0.439-0.035-0.878-0.105-1.299l-0.018-0.193l-0.035-0.193c-0.018-0.035-0.018-0.053-0.018-0.088
				c-0.421,0.211-0.895,0.334-1.369,0.404l-0.298,0.035H3.438l0.018-0.105c0.246-1.247,0.825-2.405,1.685-3.387
				c0.351-0.439,0.79-0.86,1.299-1.229c0.968-0.769,2.301-1.442,3.546-1.597c0.492-0.105,0.965-0.158,1.422-0.176
				c1.221-0.153,2.651,0.134,3.774,0.615l0.263,0.105c0.667,0.281,1.282,0.632,1.826,1.053c0.035,0.035,0.104,0.06,0.123,0.075
				L18.937,22.169z M7.896,16.043c-0.294-0.794-0.368-1.743-0.14-2.563c0.281-1.176,1.106-2.212,2.176-2.738
				c0.386-0.211,0.825-0.369,1.299-0.439c0.399-0.08,0.847-0.08,1.246,0c0.474,0.07,0.913,0.228,1.299,0.439
				c0.141,0.07,0.263,0.14,0.386,0.21c0.842,0.544,1.475,1.422,1.755,2.422c0.015,0.028,0.021,0.057,0.018,0.087
				c0.088,0.281,0.123,0.562,0.123,0.842c0.13,0.521-0.066,1.254-0.246,1.738c-0.052,0.123-0.105,0.228-0.175,0.316
				c-0.534,1.138-1.623,2.079-2.879,2.299c-0.123,0.035-0.211,0.053-0.351,0.07c-0.328,0.082-0.795,0.073-1.123,0
				c-0.193-0.017-0.386-0.07-0.562-0.123c-0.228-0.053-0.456-0.141-0.684-0.264C9.072,17.886,8.317,17.061,7.896,16.043
				C7.721,15.569,8.317,17.061,7.896,16.043z"/>
		</g>
	</g>
	<g>
		<g>
			<g>
				<g>
					<g>
						<path d="M25.829,20.924c-0.218,0.218-0.595,0.247-0.807,0l-1.26-1.242v2.814c0,0.052,0,0.123-0.018,0.175
							c-0.035,0.685-0.281,1.334-0.737,1.843c-0.491,0.736-1.561,1.141-2.405,1.141h-1.878c-0.193,0-0.351-0.087-0.456-0.228
							c-0.359-0.359,0.004-0.93,0.456-0.93h1.878c0.509,0,0.983-0.21,1.334-0.527c0.088-0.105,0.193-0.193,0.281-0.316
							c0.088-0.14,0.158-0.281,0.228-0.439c0.07-0.175,0.105-0.369,0.123-0.544c0.018-0.053,0.018-0.123,0.018-0.175v-2.849
							l-1.275,1.275c-0.245,0.21-0.57,0.239-0.808,0c-0.242-0.182-0.244-0.643,0-0.825l2.662-2.662l2.664,2.665
							C26.057,20.345,26.057,20.713,25.829,20.924C25.706,21.047,26.057,20.713,25.829,20.924z"/>
					</g>
				</g>
			</g>
		</g>
	</g>
</g>
</svg>
