<?xml version="1.0" encoding="utf-8"?>
<!-- Generator: Adobe Illustrator 19.2.1, SVG Export Plug-In . SVG Version: 6.00 Build 0)  -->
<svg version="1.1" id="Layer_1" xmlns="http://www.w3.org/2000/svg" xmlns:xlink="http://www.w3.org/1999/xlink" x="0px" y="0px"
	 viewBox="0 0 32 32" style="enable-background:new 0 0 32 32;" xml:space="preserve">
<g>
	<path d="M18.6,26.3c-1.7,0.4-3.3,0.9-5,1.2c-0.2,0-0.4,0-0.6,0c-1.7-0.4-3.4-0.9-5.1-1.2c-0.8-0.2-1-0.6-0.9-1.2V25
		c0-0.1,0-0.1,0-0.2c0.1-1.3,0.3-2.6,0.4-3.9c0.1-0.7,0.2-0.9,1-1.1s1.7-0.4,2.4-0.7c0.1,0,0.3-0.1,0.4-0.1c0,0,0,0,0.1,0h0.3l0,0
		l0.8,2.8c0-0.1,0-0.1,0-0.2c0-0.2,0.1-0.6,0.1-0.8s0-0.6-0.1-0.8c0-0.1-0.1-0.1-0.2-0.2c0-0.1,0-0.2,0-0.3s0.1-0.3,0.2-0.3
		c0.1,0,0.4,0,0.7,0c0.1,0,0.6,0,0.6,0c0.2,0.1,0.2,0.6,0.1,0.8c0,0.1-0.1,0.1-0.1,0.2c0,0.1-0.1,0.3-0.1,0.4c0,0.1,0,0.1,0,0.2
		c0,0.2,0,0.6,0.1,0.8c0,0.1,0,0.1,0,0.2l1-2.8h0.3l0.3,0.1h0.1c0.9,0.2,1.7,0.4,2.6,0.8c0.6,0.1,0.8,0.4,0.9,0.9
		c0.1,1.3,0.3,2.7,0.4,4c0,0,0,0,0,0.1s0,0.1,0,0.2C19.7,25.8,19.4,26.1,18.6,26.3z"/>
	<path d="M10.3,14.1c-0.6-1.6,0-2.7,1.4-3.4c1.1-0.6,2.2-0.6,3.3,0c1.4,0.8,2,1.9,1.4,3.4c0.7,0.3,0.6,1-0.1,1.4
		c-0.2,0.1-0.3,0.3-0.4,0.4c-0.3,0.4-0.7,1-1.1,1.4c-0.8,0.8-1.9,0.8-2.8,0c-0.4-0.4-0.8-1-1.1-1.6c-0.1-0.1-0.2-0.2-0.3-0.3
		c-0.1-0.1-0.3-0.2-0.4-0.4C9.6,14.8,9.7,14.4,10.3,14.1z M16,14.4c-1.2-0.2-1.4-1.3-1.4-1.3c-1.6,1.7-4.1,1.3-4.1,1.3
		s0.3,1.1,0.3,1.2c0.1,0.3,0.3,0.7,0.6,0.9c0.3,0.6,0.9,1.1,1.6,1.2c1.2,0.2,2-1.1,2.4-1.9C15.6,15.8,16.1,14.4,16,14.4z"/>
</g>
<path d="M27,4.4h-8.1c-0.7,0-1.3,0.6-1.3,1.3v6.4c0,0.7,0.6,1.3,1.3,1.3h1.2c0.2,0,0.4,0.3,0.3,0.5L19.3,16l3.3-2.2
	c0.4-0.3,0.8-0.4,1.3-0.4H27c0.7,0,1.3-0.6,1.3-1.3V5.8C28.3,5,27.7,4.4,27,4.4z M24.9,11.5H19v-1.3h5.9V11.5z M27,9.4H19V8.2H27
	V9.4z M27,7.3H19V6H27V7.3z"/>
</svg>
