<?xml version="1.0" encoding="utf-8"?>
<!-- Generator: Adobe Illustrator 19.2.1, SVG Export Plug-In . SVG Version: 6.00 Build 0)  -->
<svg version="1.1" id="Layer_1" xmlns="http://www.w3.org/2000/svg" xmlns:xlink="http://www.w3.org/1999/xlink" x="0px" y="0px"
	 viewBox="0 0 32 32" style="enable-background:new 0 0 32 32;" xml:space="preserve">
<path d="M16,2.3C8.5,2.3,2.3,8.5,2.3,16S8.5,29.7,16,29.7S29.7,23.5,29.7,16S23.5,2.3,16,2.3z M21.6,13.9l-0.8,3.2
	c1.3,0.6,2.2,1.9,2.2,3.5c0,2.1-1.7,3.8-3.8,3.8s-3.8-1.7-3.8-3.8c0-1,0.4-1.8,1-2.5L13,13c-0.2,0.1-0.4,0.1-0.7,0.1
	c0,0-0.1,0-0.1,0l-1.5,5.1c0.8,0.5,1.3,1.4,1.3,2.4c0,1.5-1.2,2.8-2.8,2.8s-2.8-1.2-2.8-2.8s1.2-2.8,2.8-2.8c0,0,0,0,0,0l1.6-5.3
	c-0.5-0.4-0.9-1.1-0.9-1.8c0-1.3,1.1-2.4,2.4-2.4c1.3,0,2.4,1.1,2.4,2.4c0,0.5-0.2,1-0.5,1.4l3.4,5.1c0.5-0.2,1-0.4,1.6-0.4
	c0,0,0.1,0,0.1,0l0.8-3.3c-1-0.5-1.7-1.6-1.7-2.8c0-1.7,1.4-3.2,3.2-3.2c1.7,0,3.2,1.4,3.2,3.2C24.7,12.5,23.3,13.9,21.6,13.9z"/>
</svg>
