<?xml version="1.0" encoding="iso-8859-1"?>
<!-- Generator: Adobe Illustrator 20.1.0, SVG Export Plug-In . SVG Version: 6.00 Build 0)  -->
<svg version="1.1" id="Layer_1" xmlns="http://www.w3.org/2000/svg" xmlns:xlink="http://www.w3.org/1999/xlink" x="0px" y="0px"
	 width="500px" height="500px" viewBox="0 0 500 500" enable-background="new 0 0 500 500" xml:space="preserve">
<path fill="#010101" d="M319.2,225.3l-35.7,99.5c-6.1-3.3-12.5-5.6-19.7-6.9l35.5-99.7c2.1-5.4,7.9-8.2,13.4-6.3
	C318.2,214,321.1,219.9,319.2,225.3z M402.3,216.4l16.4-20.2c3.6-4.5,3-11.1-1.5-14.7c-4.5-3.7-11.1-2.9-14.7,1.5l-16.4,20.2
	c-3.6,4.5-3,11.1,1.5,14.7c1.9,1.6,4.3,2.3,6.6,2.3C397.3,220.3,400.3,218.9,402.3,216.4z M113.3,217.9c4.5-3.7,5.2-10.2,1.5-14.7
	L98.4,183c-3.6-4.5-10.2-5.2-14.7-1.5c-4.5,3.7-5.2,10.2-1.5,14.7l16.4,20.2c2.1,2.5,5.1,3.9,8.1,3.9
	C109,220.3,111.3,219.5,113.3,217.9z M260.5,147.7V121c0-5.8-4.7-10.5-10.5-10.5s-10.5,4.7-10.5,10.5v26.7c0,5.8,4.7,10.5,10.5,10.5
	S260.5,153.5,260.5,147.7z M494.6,222.8c5-2.8,6.9-9.2,4.1-14.2C448.5,118.5,353.2,62.5,250,62.5S51.5,118.5,1.3,208.6
	c-2.8,5-1,11.4,4.1,14.2c5,2.8,11.4,1,14.2-4C66.1,135.3,154.4,83.4,250,83.4s183.9,51.9,230.4,135.4c1.9,3.4,5.5,5.4,9.1,5.4
	C491.3,224.2,493,223.7,494.6,222.8z M300,387.3c0,27.6-22.4,50.2-50,50.2s-50-22.6-50-50.2c0-27.6,22.4-50,50-50
	c2.3,0,4.6,0.2,6.7,0.4c7.1,1,13.8,3.6,19.7,7.1C290.6,353.7,300,369.3,300,387.3z M279.1,387.3c0-10.5-5.6-19.9-14.2-24.9
	c-3.1-1.9-6.7-3.3-10.7-3.8c-1.3-0.2-2.7-0.4-4.2-0.4c-16.1,0-29.1,13.2-29.1,29.1c0,16.1,13,29.3,29.1,29.3
	S279.1,403.4,279.1,387.3z"/>
</svg>
