<?xml version="1.0" encoding="utf-8"?>
<!-- Generator: Adobe Illustrator 19.2.1, SVG Export Plug-In . SVG Version: 6.00 Build 0)  -->
<svg version="1.1" id="Layer_1" xmlns="http://www.w3.org/2000/svg" xmlns:xlink="http://www.w3.org/1999/xlink" x="0px" y="0px"
	 viewBox="0 0 32 32" style="enable-background:new 0 0 32 32;" xml:space="preserve">
<g>
	<path d="M18.1,19.6c0,0,0.1-0.1,0.1-0.1l1.3-4c0.1-0.3-0.2-0.5-0.5-0.3l-3.5,2.5c0,0-0.1,0.1-0.1,0.1c-1.4-0.2-2.9,0.6-3.5,1.9
		c-0.8,1.7-0.1,3.8,1.6,4.7c1.7,0.8,3.8,0.1,4.7-1.6C18.7,21.8,18.6,20.6,18.1,19.6z"/>
	<path d="M28.8,15c-2.4-4.6-7.2-7.7-12.8-7.7c-5.6,0-10.4,3.1-12.8,7.7c-0.4,0.8,0,1.8,0.8,2.1l0.5,0.2c0.7,0.3,1.5,0,1.9-0.7
		c0.1-0.2,0.2-0.4,0.3-0.5l1.1,0.6c0.4,0.2,0.8,0.1,1.1-0.3c0.2-0.4,0.1-0.8-0.3-1.1l-1-0.6c1.9-2.3,4.7-3.8,7.9-4v1.6
		c0,0.4,0.3,0.8,0.8,0.8c0.4,0,0.8-0.3,0.8-0.8v-1.6c2.9,0.3,5.5,1.7,7.3,3.9l-1,0.6c-0.4,0.2-0.5,0.7-0.3,1.1h0
		c0.2,0.4,0.7,0.5,1.1,0.3l1.1-0.7c0.1,0.2,0.2,0.4,0.3,0.6c0.4,0.7,1.2,1,1.9,0.7l0.5-0.2C28.8,16.8,29.2,15.8,28.8,15z"/>
</g>
</svg>
