<?xml version="1.0" encoding="utf-8"?>
<!-- Generator: Adobe Illustrator 19.2.1, SVG Export Plug-In . SVG Version: 6.00 Build 0)  -->
<svg version="1.1" id="Layer_1" xmlns="http://www.w3.org/2000/svg" xmlns:xlink="http://www.w3.org/1999/xlink" x="0px" y="0px"
	 viewBox="0 0 32 32" style="enable-background:new 0 0 32 32;" xml:space="preserve">
<style type="text/css">
	.st0{fill:#FFFFFF;}
</style>
<path d="M16,4.1C8.1,4.1,1.8,8.9,1.8,14.8c0,2.9,1.5,5.4,3.9,7.3c-0.1,1.3-0.4,2.7-1,4.1c-0.1,0.3-0.3,0.7,0,1.1s0.7,0.4,0.7,0.4
	l0.2-0.1c1.8-0.4,4-1.7,5.6-2.8c1.2,0.3,2.5,0.5,3.8,0.6c-0.7-0.6-1.2-1.2-1.6-1.9c-0.1,0-0.2,0-0.3,0c-0.8-0.1-1.5-0.3-2.2-0.6
	c-0.5,0.4-1.1,0.8-1.8,1.2c-0.7,0.5-1.5,0.9-2.2,1.2c0.2-0.7,0.4-1.4,0.5-2.1c0.1-0.7,0.2-1.3,0.1-2c-0.7-0.5-1.4-1.1-2-1.7
	c-1.2-1.4-2-3-2-4.8c0-4.9,5.6-8.9,12.4-8.9c6.5,0,11.9,3.6,12.4,8.2c0.7,0.4,1.3,1,1.8,1.5c0-0.3,0.1-0.6,0.1-0.9
	C30.2,8.9,23.9,4.1,16,4.1L16,4.1z"/>
<path class="st0" d="M26.7,25.1c-0.1,0-0.1,0.1-0.2,0.1c0.1,0.1,0.2,0.1,0.2,0.1C26.8,25.3,26.7,25.2,26.7,25.1L26.7,25.1z"/>
<path d="M28.8,25.9c-0.1-0.2-0.2-0.6-0.2-0.9c-0.1-0.3-0.1-0.7-0.1-1c1.2-1,1.8-2.4,1.8-3.8c0-0.8-0.2-1.6-0.6-2.3
	c-0.3-0.6-0.8-1.2-1.4-1.7c-1.5-1.3-3.6-2.1-6.1-2.1c-4.4,0-8,2.7-8,6c0,1.3,0.6,2.5,1.5,3.5c0.7,0.7,1.5,1.3,2.4,1.7
	c1.2,0.6,2.6,0.9,4.1,0.9c0.8,0,1.5-0.1,2.2-0.2c0.3,0.2,0.6,0.4,1,0.7c0.3,0.2,0.7,0.4,1,0.6c0.6,0.3,1.1,0.5,1.6,0.6
	c0.1,0,0.1,0,0.2,0c0.3,0,0.6-0.2,0.7-0.4c0.2-0.2,0.1-0.7,0-1C28.9,26.3,28.8,26.2,28.8,25.9L28.8,25.9z"/>
</svg>
