<?xml version="1.0" encoding="utf-8"?>
<!-- Generator: Adobe Illustrator 20.1.0, SVG Export Plug-In . SVG Version: 6.00 Build 0)  -->
<svg version="1.1" id="Layer_1" xmlns="http://www.w3.org/2000/svg" xmlns:xlink="http://www.w3.org/1999/xlink" x="0px" y="0px"
	 width="500px" height="500px" viewBox="0 0 500 500" enable-background="new 0 0 500 500" xml:space="preserve">
<g>
	<path d="M40.3,462.3c8-76.8,57.2-141.6,125.1-171.8c-7.6-4.2-14.5-9.1-21.1-14.5C68.5,315,16.9,393.8,16.9,484.6h258.2
		c-6.7-6.7-12.9-14.2-18-22.3H40.3z"/>
	<path d="M398.1,347.5c-18.9-8-41,1.1-49,20c-3.8,9.3-3.8,19.6,0,28.7c3.8,9.3,11.1,16.5,20.3,20.3c4.7,2,9.6,2.9,14.5,2.9
		c4.7,0,9.6-0.9,14.2-2.7c9.1-4,16.5-11.1,20.3-20.3c2-4.7,2.9-9.6,2.9-14.5C421.3,367.3,412.6,353.3,398.1,347.5z M391.9,362.4
		c10.9,4.5,16,16.9,11.6,27.8c-4.7,10.7-17.1,15.8-27.8,11.4c-5.3-2.2-9.3-6.2-11.6-11.6c-2-5.1-2-10.9,0.2-16.2
		c2-5.1,6.2-9.1,11.4-11.4c2.7-1.1,5.3-1.6,8.2-1.6C386.6,360.8,389.5,361.3,391.9,362.4z"/>
	<path d="M468.7,396.5l-7.1-4c0.4-3.6,0.7-7.3,0.7-10.9c0-3.3-0.2-6.7-0.7-9.8l20.5-11.1c0.9-0.4,1.3-1.6,0.9-2.4l-1.3-4.5
		c-2-7.1-4.9-14-8.2-20.5l-2.2-4.2c-0.7-0.9-1.8-1.3-2.7-1.1l-22.3,6.5c-4.2-5.6-9.1-10.5-14.5-14.5l6.5-22.3
		c0.2-1.1-0.2-2.2-1.1-2.7l-4-2.2c-6.5-3.6-13.6-6.5-20.5-8.5l-4.7-1.3c-0.9-0.4-2,0-2.4,0.9l-9.1,16.7l-2,3.8
		c-6.9-0.9-13.8-1.1-20.7-0.2l-11.1-20.3c-0.4-0.9-1.6-1.3-2.7-1.1l-4.5,1.3c-5.8,1.8-11.6,4-16.9,6.9c-1.3,0.2-2.4,0.9-3.6,1.6
		l-4,2.2c-0.9,0.7-1.6,1.6-1.1,2.7l6.5,22.3c-5.6,4-10.5,8.9-14.7,14.5l-22.3-6.5c-1.1-0.4-2,0-2.7,1.1l-2.2,4
		c-1.8,3.3-3.3,6.7-4.7,10c-1.3,3.3-2.7,6.7-3.8,10.5l-1.3,4.5c-0.2,1.1,0.2,2,1.1,2.7l20.3,11.1c-0.9,6.9-0.9,13.8,0,20.7
		l-20.3,11.1c-0.9,0.4-1.3,1.6-1.1,2.4l1.3,4.5c2,7.1,4.9,14,8.5,20.5l2.2,4.2c0.4,0.9,1.6,1.3,2.4,1.1l22.3-6.5
		c4.2,5.6,9.1,10.5,14.7,14.5l-5.6,18.3l-1.1,4c-0.2,1.1,0.2,2.2,1.1,2.7l4.2,2.2c3.3,2,6.5,3.6,9.8,4.9h0.2
		c3.1,1.3,6.7,2.7,10.5,3.8l4.5,1.1c0.9,0.4,2,0,2.4-0.9l9.8-17.8h23.4l9.8,17.8c0.4,0.7,1.1,1.1,2,1.1h0.7l4.5-1.3
		c7.1-2,14-4.9,20.5-8.5l4.2-2.2c0.9-0.4,1.3-1.6,0.9-2.7l-1.3-4.2l-5.1-18c5.6-4,10.5-8.9,14.7-14.5l11.6,3.3l10.7,3.1
		c1.1,0.4,2.2,0,2.7-0.9l2.2-4.2c1.6-3.3,3.3-6,4.5-9.1c0.2-0.2,0.2-0.7,0.4-0.9c1.1-3.1,2.4-6.5,3.6-10.5l1.3-4.5
		c0.4-1.1,0-2-1.1-2.7L468.7,396.5z M417.7,434.3l-3.8,2.4c-0.9,0.4-1.1,1.6-0.9,2.4l6,20.9c-1.8,0.9-3.6,1.6-5.3,2.2l-10.5-19.1
		c-0.2-0.7-1.1-1.1-1.8-1.1h-0.7l-4.2,0.9c-8.5,1.8-17.1,1.8-25.8,0l-4.2-1.1c-0.9-0.2-2,0.2-2.4,1.1l-10.5,19.4
		c-2-0.7-3.8-1.6-5.3-2.2l6-21.1c0.4-0.9,0-1.8-0.9-2.4l-3.6-2.4c-7.6-4.7-13.6-10.9-18.3-18.2l-2.4-3.6c-0.4-0.9-1.6-1.3-2.4-0.9
		l-20.9,6c-0.9-1.8-1.6-3.6-2.2-5.3l19.1-10.5c0.9-0.4,1.3-1.6,1.1-2.4l-0.9-4.2c-1.8-8.7-1.8-17.4,0-26l0.9-4.2
		c0.2-0.9-0.2-1.8-1.1-2.4l-19.1-10.5c0.4-0.9,0.7-1.8,1.1-2.7c0.4-0.9,0.7-1.8,1.1-2.7l20.9,6.2c1.1,0.2,2-0.2,2.7-0.9l2.2-3.8
		c4.9-7.3,11.1-13.6,18.5-18.3l3.6-2.4c0.9-0.4,1.1-1.3,0.9-2.4l-6-20.9c1.8-0.9,3.6-1.6,5.3-2.2l10.5,19.1c0.4,0.9,1.3,1.6,2.4,1.1
		l4.2-0.9c4.7-0.9,9.3-1.3,14.2-1.3c3.8,0,7.8,0.4,11.6,1.3l4.2,1.1c0.9,0.2,2-0.4,2.4-1.1l5.6-10l5.1-9.1c1.8,0.4,3.6,1.3,5.3,2
		l-4,13.4l-2.2,7.8c-0.2,0.9,0,2,0.9,2.4l3.6,2.4c7.6,4.7,13.6,10.9,18.5,18.3l2.2,3.6c0.7,0.9,1.6,1.3,2.4,1.1l3.8-1.1l17.4-5.1
		c0.7,1.8,1.6,3.6,2.2,5.3l-14.5,7.8l-4.9,2.7c-0.7,0.7-1.3,1.6-1.1,2.4l1.1,4.2c1.8,8.7,1.8,17.4-0.2,26l-0.2,0.7l-0.7,3.6
		c-0.2,0.9,0.2,1.8,1.1,2.4l2.9,1.6l16.2,8.9c-0.2,0.9-0.7,1.8-1.1,2.7c-0.2,0.9-0.7,1.8-1.1,2.7l-9.8-2.9l-11.1-3.3
		c-0.9-0.2-2,0.2-2.4,0.9L436,416C431.1,423.4,425.1,429.6,417.7,434.3z"/>
	<path d="M196.3,256.5c16.7,8.5,35.4,12.9,55.2,12.9c13.1,0,25.6-2,37.4-5.6c6.2-2,12-4.2,17.8-7.3c9.3-4.2,18.3-9.8,26-16.5
		c28-23.1,45.8-58.3,45.8-97.5c0-70.3-57-127.1-127.1-127.1S124.4,72.2,124.4,142.5C124.4,192.8,153.8,236.2,196.3,256.5z
		 M251.5,37.7c57.9,0,104.8,47,104.8,104.8c0,57.6-47,104.6-104.8,104.6s-104.8-47-104.8-104.6C146.6,84.6,193.6,37.7,251.5,37.7z"
		/>
</g>
</svg>
