<?xml version="1.0" encoding="utf-8"?>
<!-- Generator: Adobe Illustrator 19.2.1, SVG Export Plug-In . SVG Version: 6.00 Build 0)  -->
<svg version="1.1" id="Layer_1" xmlns="http://www.w3.org/2000/svg" xmlns:xlink="http://www.w3.org/1999/xlink" x="0px" y="0px"
	 viewBox="0 0 32 32" style="enable-background:new 0 0 32 32;" xml:space="preserve">
<style type="text/css">
	.st0{fill:#666666;}
</style>
<path class="st0" d="M18.003,14.776c2.587-1.011,4.407-3.513,4.407-6.461c0-3.832-3.087-6.94-6.897-6.94
	c-3.8,0-6.887,3.108-6.887,6.94c0,2.948,1.82,5.45,4.396,6.461c-5.556,1.064-9.729,5.631-9.729,11.123v0.043h11.432
	c-0.096-0.49-0.149-1.011-0.149-1.533H4.943c0.788-4.715,5.226-8.356,10.57-8.356c1.597,0,3.108,0.319,4.471,0.915
	c0.766-0.245,1.575-0.383,2.427-0.383c0.032,0,0.075,0,0.106,0.011C21.186,15.713,19.664,15.095,18.003,14.776z M10.158,8.315
	c0-2.98,2.406-5.407,5.354-5.407s5.365,2.427,5.365,5.407c0,2.98-2.416,5.407-5.365,5.407S10.158,11.295,10.158,8.315z
	 M23.506,22.376c-1.181-0.49-2.544,0.075-3.034,1.245c-0.117,0.266-0.17,0.522-0.17,0.777v0.138c0,0.543,0.192,1.075,0.564,1.511
	c0.245,0.277,0.532,0.479,0.852,0.607c0.287,0.117,0.596,0.181,0.894,0.181c0.649,0,1.277-0.277,1.724-0.777
	c0.16-0.17,0.298-0.373,0.415-0.649c0.117-0.287,0.17-0.575,0.17-0.862v-0.149C24.89,23.515,24.326,22.716,23.506,22.376z
	 M23.889,24.483c0,0.192-0.032,0.362-0.106,0.522c-0.16,0.404-0.522,0.702-0.937,0.777c-0.138,0.021-0.266,0.021-0.404,0
	c-0.106-0.011-0.224-0.032-0.319-0.085c-0.479-0.192-0.788-0.681-0.788-1.192v-0.085c0.011-0.138,0.043-0.266,0.096-0.394
	c0.075-0.17,0.181-0.319,0.309-0.436c0,0,0,0,0-0.011c0.351-0.319,0.873-0.436,1.341-0.245c0.011,0,0.021,0.011,0.021,0.011
	c0.447,0.181,0.745,0.596,0.788,1.075V24.483z M27.391,25.143c0.053-0.404,0.064-0.82,0.011-1.235l0.17-0.096l1.054-0.575
	c0.064-0.032,0.096-0.106,0.075-0.181l-0.075-0.277c-0.128-0.447-0.309-0.873-0.522-1.267l-0.138-0.255
	c-0.032-0.064-0.106-0.096-0.181-0.075l-1.341,0.394c-0.245-0.319-0.543-0.617-0.883-0.883l0.394-1.341
	c0.021-0.064,0-0.149-0.075-0.181l-0.245-0.138c-0.085-0.053-0.192-0.106-0.287-0.149c-0.011,0-0.021-0.011-0.032-0.011v-0.011
	c-0.362-0.17-0.66-0.277-0.947-0.351l-0.277-0.085c-0.064-0.021-0.149,0.011-0.181,0.075l-0.468,0.862l-0.202,0.373
	c-0.404-0.053-0.82-0.064-1.245-0.011l-0.671-1.224c-0.032-0.064-0.106-0.096-0.181-0.075l-0.277,0.075
	c-0.458,0.128-0.873,0.309-1.256,0.522l-0.255,0.138c-0.064,0.032-0.096,0.106-0.075,0.181l0.394,1.341
	c-0.33,0.256-0.628,0.554-0.883,0.883l-1.352-0.394c-0.064-0.032-0.149,0.011-0.181,0.075l-0.138,0.255
	c-0.128,0.213-0.224,0.415-0.298,0.607c-0.075,0.181-0.149,0.394-0.223,0.639l-0.085,0.277c-0.021,0.064,0.011,0.149,0.075,0.181
	l1.235,0.681c-0.021,0.17-0.032,0.33-0.043,0.511c-0.011,0.245,0,0.479,0.043,0.734l-1.235,0.671
	c-0.064,0.032-0.096,0.117-0.075,0.181l0.085,0.277c0.106,0.426,0.277,0.83,0.511,1.256l0.138,0.255
	c0.032,0.064,0.117,0.106,0.181,0.075l1.352-0.394c0.255,0.341,0.554,0.639,0.873,0.883l-0.394,1.352
	c-0.021,0.075,0.011,0.149,0.075,0.181l0.255,0.138c0.181,0.106,0.383,0.202,0.607,0.298c0.245,0.096,0.447,0.17,0.649,0.223
	l0.277,0.075c0.075,0.032,0.149-0.011,0.181-0.075l0.681-1.224c0.415,0.064,0.83,0.053,1.235,0l0.671,1.235
	c0.021,0.053,0.085,0.085,0.138,0.085c0.011,0,0.032,0,0.043-0.011l0.287-0.085c0.415-0.106,0.83-0.277,1.256-0.511l0.245-0.138
	c0.064-0.032,0.096-0.106,0.074-0.181l-0.383-1.352c0.33-0.255,0.617-0.532,0.883-0.873l1.352,0.394
	c0.074,0.032,0.149-0.011,0.181-0.074l0.202-0.383c0.085-0.149,0.16-0.319,0.234-0.479c0.085-0.224,0.149-0.436,0.213-0.649
	l0.085-0.277c0.021-0.064-0.011-0.149-0.075-0.181L27.391,25.143z M27.434,26.538c-0.021,0.053-0.032,0.096-0.053,0.138
	l-1.277-0.373c-0.075-0.032-0.138,0-0.181,0.064l-0.138,0.224c-0.298,0.458-0.671,0.83-1.118,1.118l-0.223,0.149
	c-0.064,0.032-0.085,0.106-0.064,0.17l0.362,1.267c-0.096,0.043-0.192,0.075-0.287,0.117l-0.628-1.16
	c-0.032-0.064-0.106-0.096-0.17-0.085l-0.266,0.064c-0.532,0.106-1.054,0.106-1.575-0.011l-0.255-0.053
	c-0.064-0.011-0.138,0.021-0.17,0.085l-0.649,1.15c-0.096-0.032-0.192-0.074-0.287-0.117l0.373-1.267
	c0.021-0.064,0-0.138-0.064-0.17l-0.223-0.16c-0.458-0.298-0.841-0.671-1.107-1.107l-0.16-0.224
	c-0.032-0.064-0.106-0.085-0.17-0.064l-1.267,0.362c-0.032-0.085-0.075-0.181-0.117-0.287l1.16-0.639
	c0.064-0.032,0.096-0.106,0.085-0.181l-0.064-0.245c-0.064-0.298-0.085-0.596-0.064-0.894c0-0.245,0.021-0.468,0.075-0.692
	l0.053-0.255c0.011-0.064-0.021-0.138-0.085-0.17l-1.15-0.639c0-0.021,0.011-0.032,0.011-0.053l0.043-0.085
	c0.021-0.053,0.043-0.096,0.064-0.149l1.267,0.373c0.064,0.021,0.138,0,0.181-0.064l0.149-0.234c0.298-0.447,0.66-0.809,1.107-1.107
	l0.224-0.138c0.064-0.043,0.085-0.117,0.064-0.181l-0.362-1.267c0.096-0.043,0.192-0.085,0.287-0.128l0.639,1.16
	c0.032,0.064,0.106,0.096,0.17,0.085l0.255-0.053c0.522-0.117,1.054-0.117,1.565,0l0.266,0.064c0.075,0.011,0.149-0.021,0.181-0.085
	l0.383-0.692l0.255-0.468c0.096,0.043,0.192,0.075,0.287,0.117l-0.277,0.969c-0.011,0.021-0.011,0.032-0.011,0.053l-0.085,0.255
	c-0.021,0.064,0,0.138,0.064,0.181l0.234,0.138c0.064,0.043,0.128,0.085,0.181,0.117c0,0,0,0,0.011,0.011
	c0,0.011,0,0.011,0.021,0.021c0,0,0,0.011,0.011,0.011c0.341,0.255,0.639,0.585,0.883,0.958l0.138,0.223
	c0.043,0.064,0.106,0.085,0.181,0.064l1.267-0.362c0.043,0.096,0.085,0.192,0.128,0.287l-0.266,0.149l-0.894,0.479
	c-0.064,0.032-0.096,0.096-0.085,0.17l0.053,0.266c0.117,0.522,0.117,1.054,0,1.565l-0.064,0.255
	c-0.011,0.075,0.021,0.149,0.085,0.181l1.16,0.649C27.476,26.431,27.455,26.484,27.434,26.538z M23.506,22.376
	c-1.181-0.49-2.544,0.075-3.034,1.245c-0.117,0.266-0.17,0.522-0.17,0.777v0.138c0,0.543,0.192,1.075,0.564,1.511
	c0.245,0.277,0.532,0.479,0.852,0.607c0.287,0.117,0.596,0.181,0.894,0.181c0.649,0,1.277-0.277,1.724-0.777
	c0.16-0.17,0.298-0.373,0.415-0.649c0.117-0.287,0.17-0.575,0.17-0.862v-0.149C24.89,23.515,24.326,22.716,23.506,22.376z
	 M23.889,24.483c0,0.192-0.032,0.362-0.106,0.522c-0.16,0.404-0.522,0.702-0.937,0.777c-0.138,0.021-0.266,0.021-0.404,0
	c-0.106-0.011-0.224-0.032-0.319-0.085c-0.479-0.192-0.788-0.681-0.788-1.192v-0.085c0.011-0.138,0.043-0.266,0.096-0.394
	c0.075-0.17,0.181-0.319,0.309-0.436c0,0,0,0,0-0.011c0.351-0.319,0.873-0.436,1.341-0.245c0.011,0,0.021,0.011,0.021,0.011
	c0.447,0.181,0.745,0.596,0.788,1.075V24.483z"/>
</svg>
