<?xml version="1.0" encoding="utf-8"?>
<!-- Generator: Adobe Illustrator 19.2.1, SVG Export Plug-In . SVG Version: 6.00 Build 0)  -->
<svg version="1.1" id="Layer_1" xmlns="http://www.w3.org/2000/svg" xmlns:xlink="http://www.w3.org/1999/xlink" x="0px" y="0px"
	 viewBox="0 0 32 32" style="enable-background:new 0 0 32 32;" xml:space="preserve">
<path d="M14.821,17.332c1.212,0,2.388,0.163,3.492,0.507l1.339-1.321c-0.688-0.253-1.393-0.452-2.117-0.579
	c2.786-1.086,4.759-3.818,4.759-7.02c0-4.144-3.347-7.527-7.473-7.527c-4.126,0-7.473,3.384-7.473,7.527
	c0,3.184,1.972,5.917,4.741,7.02C6.082,17.097,1.558,22.073,1.558,28.008v0.054h19.958v-1.665H3.349
	C4.2,21.277,9.013,17.332,14.821,17.332z M9.013,8.918c0-3.239,2.606-5.863,5.808-5.863c3.203,0,5.808,2.624,5.808,5.863
	c0,3.239-2.606,5.881-5.808,5.881C11.618,14.799,9.013,12.157,9.013,8.918z M23.081,19.322 M23.047,19.355 M23.05,19.358
	c-0.33,0.333-0.661,0.665-0.997,0.993c-0.332,0.315-0.862,0.315-1.177,0c-0.332-0.332-0.332-0.862,0-1.177
	c0.296-0.281,4.658-4.66,4.659-4.659c0,0,4.659,4.659,4.659,4.659c0.332,0.315,0.332,0.846,0,1.177
	c-0.149,0.149-0.365,0.232-0.58,0.232c-0.215,0-0.431-0.083-0.58-0.232c-0.891-0.889-1.78-1.78-2.67-2.67c0,0,0,11.904,0,11.904
	c0,0.448-0.365,0.829-0.829,0.829c-0.448,0-0.829-0.381-0.829-0.829c0,0,0-11.904,0-11.904C24.15,18.236,23.602,18.799,23.05,19.358
	z"/>
</svg>
