<?xml version="1.0" encoding="utf-8"?>
<!-- Generator: Adobe Illustrator 20.1.0, SVG Export Plug-In . SVG Version: 6.00 Build 0)  -->
<svg version="1.1" id="Layer_1" xmlns="http://www.w3.org/2000/svg" xmlns:xlink="http://www.w3.org/1999/xlink" x="0px" y="0px"
	 width="500px" height="500px" viewBox="0 0 500 500" enable-background="new 0 0 500 500" xml:space="preserve">
<g>
	<path d="M45.3,458.2c7.9-75.3,56.1-138.8,122.6-168.5c-7.4-4.1-14.2-8.9-20.7-14.2C73,313.7,22.4,391,22.4,480h253.1
		c-6.5-6.5-12.7-14-17.7-21.8H45.3z"/>
	<path d="M332,240.2c27.5-22.7,45-57.2,45-95.6C377,75.6,321.1,20,252.4,20S127.8,75.6,127.8,144.6c0,49.3,28.8,91.9,70.5,111.7
		c16.4,8.3,34.7,12.7,54.1,12.7c12.9,0,25.1-2,36.7-5.5c6.1-2,11.8-4.1,17.5-7.2C315.7,252.2,324.4,246.7,332,240.2z M149.6,144.6
		c0-56.7,46-102.8,102.8-102.8s102.8,46,102.8,102.8c0,56.5-46,102.6-102.8,102.6S149.6,201.1,149.6,144.6z"/>
	<path d="M474.5,353l-84-84l-16.1,16.1l-15.9,15.9L306.5,353c-4.1,4.1-4.1,11.1,0,15.3c2.2,2.2,5,3.3,7.9,3.3c2.6,0,5.5-1.1,7.6-3.3
		l55-55l2.6-2.6v4.6v142.9v7.6c0,6.1,4.8,10.9,10.9,10.9c6.1,0,10.9-4.8,10.9-10.9v-7.6V334.9v-24.2l43.2,43.2l14.4,14.4
		c4.4,4.4,11.1,4.4,15.5,0C478.7,364.1,478.7,357.1,474.5,353z"/>
</g>
</svg>
