<?xml version="1.0" encoding="utf-8"?>
<!-- Generator: Adobe Illustrator 20.0.0, SVG Export Plug-In . SVG Version: 6.00 Build 0)  -->
<svg version="1.1" id="Layer_1" xmlns="http://www.w3.org/2000/svg" xmlns:xlink="http://www.w3.org/1999/xlink" x="0px" y="0px"
	 width="500px" height="500px" viewBox="0 0 500 500" enable-background="new 0 0 500 500" xml:space="preserve">
<title>001-stage-blog</title>
<path d="M75.7,317.2c0-9.9,8-17.9,17.9-17.9h312.8c9.9,0,17.9,8,17.9,17.9s-8,17.9-17.9,17.9H93.6C83.7,335.1,75.7,327.1,75.7,317.2
	z"/>
<path d="M75.7,210.1c0-9.9,8-17.9,17.9-17.9h312.8c9.9,0,17.9,8,17.9,17.9c0,9.9-8,17.9-17.9,17.9H93.6
	C83.7,228,75.7,220,75.7,210.1z"/>
<path d="M75.7,103c0-9.9,8-17.9,17.9-17.9h312.8c9.9,0,17.9,8,17.9,17.9s-8,17.9-17.9,17.9H93.6C83.7,120.8,75.7,112.8,75.7,103z"/>
<path d="M462.5,0h-425C17.9,0,2.1,15.9,2.1,35.4v354.2c0,19.6,15.9,35.4,35.4,35.4h70.8c-3.6,15.6-8.7,30.7-15.2,45.3
	c-4.9,7.3-4.9,16.8,0,24.1c0,0,3.9,5,6.7,5.3c3.6,0.4,7.2,0.4,10.7,0c50.8-15.9,98.1-41.3,139.5-74.7h212.5
	c19.6,0,35.4-15.9,35.4-35.4V35.4C497.9,15.9,482.1,0,462.5,0z M462.5,389.6H237.3l-9.2,7.1c-10.7,8.1-24.4,18.1-39.7,28.3
	c-16,10.5-32.7,20-50,28.3c3.2-9.2,5.7-18.7,7.4-28.3c2.6-11.6,4.1-23.5,4.6-35.4H37.5V35.4h425V389.6z"/>
</svg>
