<svg xmlns="http://www.w3.org/2000/svg" viewBox="0 0 14 14.13"><title>Asset 1</title><g id="Layer_2" data-name="Layer 2"><g id="Icons"><path d="M13,0H1A1,1,0,0,0,0,1V11a1,1,0,0,0,1,1H3a7.14,7.14,0,0,1-.43,1.28.6.6,0,0,0,0,.68s.11.14.19.15a2,2,0,0,0,.3,0A11.88,11.88,0,0,0,7,12h6a1,1,0,0,0,1-1V1A1,1,0,0,0,13,0Zm0,11H6.64l-.26.2c-.3.23-.69.51-1.12.8a12.4,12.4,0,0,1-1.41.8,6.31,6.31,0,0,0,.21-.8,5.83,5.83,0,0,0,.13-1H1V1H13ZM11.88,3a.5.5,0,0,1-.5.5H2.62a.5.5,0,0,1,0-1h8.76A.5.5,0,0,1,11.88,3Zm0,3a.5.5,0,0,1-.5.5H2.62a.5.5,0,0,1,0-1h8.76A.5.5,0,0,1,11.88,6Zm0,3a.5.5,0,0,1-.5.5H2.62a.5.5,0,0,1,0-1h8.76A.5.5,0,0,1,11.88,9Z"/></g></g></svg>