<?xml version="1.0" encoding="iso-8859-1"?>
<!-- Generator: Adobe Illustrator 20.1.0, SVG Export Plug-In . SVG Version: 6.00 Build 0)  -->
<svg version="1.1" id="Layer_1" xmlns="http://www.w3.org/2000/svg" xmlns:xlink="http://www.w3.org/1999/xlink" x="0px" y="0px"
	 width="500px" height="500px" viewBox="0 0 500 500" enable-background="new 0 0 500 500" xml:space="preserve">
<g>
	<path d="M458,20.3H42c-12.1,0-22,9.9-22,22v350.3c0,12.1,9.9,22,22,22h83.3c-3.3,14.5-8.1,29.2-14.7,44.2
		c-2.6,5.9-4.8,11.2-0.4,16.5c0,0,2.1,3.1,4.5,4c2.4,0.9,6.5-0.1,6.5-0.1c38.9-8.6,88.8-42,119-64.6H458c12.1,0,22-9.9,22-22V42.3
		C480,30.2,470.1,20.3,458,20.3z M458,392.6H268.3h-35.2c-8.4,6.2-18.7,14.1-30.3,22c-20.2,13.4-43.8,27.7-65.3,36.3
		c4.4-12.3,7.9-24.4,10.6-36.3c1.5-7.5,2.6-14.7,3.5-22h-22.2H42V42.3h416V392.6z"/>
	<path d="M106.2,130h287.6c5.9,0,11-5.1,11-11c0-6.2-5.1-11-11-11H106.2c-5.9,0-11,4.8-11,11C95.2,125,100.3,130,106.2,130z"/>
	<path d="M106.2,228.6h287.6c5.9,0,11-5.1,11-11c0-6.2-5.1-11-11-11H106.2c-5.9,0-11,4.8-11,11C95.2,223.5,100.3,228.6,106.2,228.6z
		"/>
	<path d="M106.2,327.1h287.6c5.9,0,11-4.8,11-11c0-6.2-5.1-11-11-11H106.2c-5.9,0-11,4.8-11,11C95.2,322.2,100.3,327.1,106.2,327.1z
		"/>
</g>
</svg>
