<?xml version="1.0" encoding="utf-8"?>
<!-- Generator: Adobe Illustrator 20.0.0, SVG Export Plug-In . SVG Version: 6.00 Build 0)  -->
<svg version="1.1" id="Layer_1" xmlns="http://www.w3.org/2000/svg" xmlns:xlink="http://www.w3.org/1999/xlink" x="0px" y="0px"
	 width="500px" height="500px" viewBox="0 0 500 500" enable-background="new 0 0 500 500" xml:space="preserve">
<title>018-stage-corpconf</title>
<path d="M492.2,234.2c-13-35-47.4-57.4-84.6-55h-50c11.6-25,17.6-52.1,17.9-79.6c0-9.3-0.8-18.7-2.5-27.9
	C370.6,38.6,342,13.7,309,16c-1.9,0.1-3.8,0.4-5.7,0.7c-15,1.8-20,16.1-32.1,50c-11.3,34-26.3,66.7-44.6,97.5
	c-16.2,22.5-38,40.4-63.2,51.8v-2.5H0v242.5h163.2v-13.2c14.5-1.5,29.1-1.2,43.6,0.7l29.3,16.8l22.1,13.2
	c50.5,11.5,102.6,13.8,153.9,6.8c29.4-3.3,54.2-23.2,63.9-51.1C480,415.2,515.4,290.6,492.2,234.2z M134.6,425.6H26.8V244.5h107.9
	V425.6z M445,420.6c-6.1,15.8-20.7,26.7-37.5,28.2c-44.7,5.6-89.9,4.5-134.3-3.2l-19.3-12.1l-36.8-20.7c-17.8-3.2-35.9-3.9-53.9-2.1
	V250.9c35.9-14.1,67.2-38,90.4-68.9c19.7-32.9,35.7-67.9,47.9-104.3c0,0,9.3-23.6,11.4-29.3c16.1,0.4,25,9.3,28.6,28.6
	c1.3,7.3,1.9,14.7,1.8,22.1c-0.5,30.8-9.3,60.9-25.4,87.1l-15.7,25h105.4c24.3-2.3,47,12.3,55,35.4
	C478.6,285.2,455.4,385.2,445,420.6z"/>
</svg>
