<?xml version="1.0" encoding="iso-8859-1"?>
<!-- Generator: Adobe Illustrator 20.1.0, SVG Export Plug-In . SVG Version: 6.00 Build 0)  -->
<svg version="1.1" id="Layer_1" xmlns="http://www.w3.org/2000/svg" xmlns:xlink="http://www.w3.org/1999/xlink" x="0px" y="0px"
	 width="500px" height="500px" viewBox="0 0 500 500" enable-background="new 0 0 500 500" xml:space="preserve">
<g>
	<path d="M485.9,238.7c-13.8-32.5-38-48.3-74.5-48.3h-69.2c9.5-16.7,25-52.2,25-92.6c0-6.1-0.2-15.6-2.2-26.2
		c-6.7-36.8-30.1-45.1-48.5-45.5h-0.4c-21.5,0-28.2,25-31.3,44.9c-9.7,26.8-24.4,66.4-45.5,99.3c-11.2,16.7-26.8,30.3-42,40.4v24
		c21.3-12.6,43.9-30.5,59.1-53.4c22.3-34.5,37.4-75.5,48.1-105.4c0,0,4.3-29.4,11.6-29.4c16.4,0.4,25.4,9.3,29,28.8
		c1.4,7.9,1.8,15.4,1.8,22.5c0,48.5-24.8,87.1-25.6,87.7l-16,25.2h106.2c28,0,45.3,11.2,55.8,35.9c16,38.8-7.3,139.7-17.7,175.3
		c-0.4,0.8-7.9,24.2-38.2,28.4c-15.8,2.2-36.6,3.2-57.3,3.2c-35.5,0-70.7-2.8-78.2-6.5l-19.3-12.2l-37-20.9
		c-4.7-1.4-12.4-2.2-22.5-2.4v20.3c8.5,0.2,12.8,0.6,14.6,1l34.9,19.7l18.5,11.8l1,0.6l1,0.4c17.3,8.3,79.8,8.5,86.9,8.5
		c16.7,0,40.6-0.6,60.3-3.5c36.4-5.3,50-31.3,53.6-40.2l0.4-0.8l0.6-1.8C470.7,422.1,508.2,292.3,485.9,238.7z"/>
	<path d="M7,447.3h149.5v-14.8v-200v-25.8H7V447.3z M27.3,226.9h108.8v200H27.3V226.9z"/>
</g>
</svg>
