<?xml version="1.0" encoding="UTF-8" standalone="no"?>
<svg width="15px" height="14px" viewBox="0 0 15 14" version="1.1" xmlns="http://www.w3.org/2000/svg" xmlns:xlink="http://www.w3.org/1999/xlink">
    <!-- Generator: Sketch 3.8.2 (29753) - http://www.bohemiancoding.com/sketch -->
    <title>111-stage-corpconf</title>
    <desc>Created with Sketch.</desc>
    <defs></defs>
    <g id="Page-1" stroke="none" stroke-width="1" fill="none" fill-rule="evenodd">
        <g id="111-stage-corpconf" transform="translate(0.000000, -1.000000)" fill="#000000">
            <g id="Layer_2">
                <g id="Icons">
                    <path d="M13.82,7.12 C13.4583968,6.13253797 12.4893508,5.50143658 11.44,5.57 L10,5.57 C10.323561,4.87075186 10.4940307,4.11045702 10.5,3.34 C10.5011102,3.07507013 10.4776768,2.81060697 10.43,2.55 C10.3987023,2.08251302 10.1736046,1.64933427 9.80904175,1.3550257 C9.44447888,1.06071713 8.97357562,0.932020145 8.51,1 C8.09,1.05 7.95,1.45 7.61,2.4 C7.29628184,3.36006005 6.87705248,4.28236465 6.36,5.15 C5.90163234,5.78120702 5.28867871,6.28396674 4.58,6.61 L4.58,6.53 L0,6.53 L0,13.34 L4.58,13.34 L4.58,13 C4.98863137,12.9526233 5.40136863,12.9526233 5.81,13 L6.63,13.47 L7.25,13.85 C8.66708411,14.1709177 10.1302133,14.2352683 11.57,14.04 C12.3973854,13.9470298 13.0976762,13.3867972 13.37,12.6 C13.48,12.2 14.47,8.7 13.82,7.12 L13.82,7.12 Z M3.82,12.49 L0.82,12.49 L0.82,7.41 L3.82,7.41 L3.82,12.49 Z M12.54,12.35 C12.3623778,12.7909736 11.9533449,13.0958189 11.48,13.14 C10.2257748,13.2961492 8.95534533,13.2658206 7.71,13.05 L7.17,12.71 L6.17,12.13 C5.66838083,12.0413281 5.1570479,12.0211439 4.65,12.07 L4.65,7.59 C5.63608571,7.18280617 6.49075768,6.51152536 7.12,5.65 C7.67339258,4.72575955 8.12279491,3.74311118 8.46,2.72 L8.78,1.9 C9.24,1.9 9.49,2.16 9.59,2.7 C9.62574003,2.90804885 9.64247569,3.11891816 9.64,3.33 C9.6253704,4.1921277 9.38021851,5.03462154 8.93,5.77 L8.48,6.47 L11.48,6.47 C12.1647852,6.4087235 12.8035623,6.82083777 13.03,7.47 C13.44,8.55 12.79,11.36 12.5,12.35 L12.54,12.35 Z" id="Shape"></path>
                </g>
            </g>
        </g>
    </g>
</svg>