<svg xmlns="http://www.w3.org/2000/svg" viewBox="0 0 14.04 13.13"><title>Asset 18</title><g id="Layer_2" data-name="Layer 2"><g id="Icons"><path d="M13.82,6.12a2.37,2.37,0,0,0-2.38-1.55H10a5.41,5.41,0,0,0,.5-2.23,4.29,4.29,0,0,0-.07-.79A1.68,1.68,0,0,0,8.51,0c-.42.05-.56.45-.9,1.4A13.66,13.66,0,0,1,6.36,4.15,4.55,4.55,0,0,1,4.58,5.61V5.53H0v6.81H4.58V12a5.34,5.34,0,0,1,1.23,0l.82.47.62.38a12.16,12.16,0,0,0,4.32.19,2.16,2.16,0,0,0,1.8-1.44C13.48,11.2,14.47,7.7,13.82,6.12Zm-10,5.37h-3V6.41h3Zm8.72-.14a1.27,1.27,0,0,1-1.06.79,12.81,12.81,0,0,1-3.77-.09l-.54-.34-1-.58a5.63,5.63,0,0,0-1.52-.06V6.59A5.8,5.8,0,0,0,7.12,4.65,14.6,14.6,0,0,0,8.46,1.72L8.78.9c.46,0,.71.26.81.8a3.48,3.48,0,0,1,.05.63,4.83,4.83,0,0,1-.71,2.44l-.45.7h3a1.5,1.5,0,0,1,1.55,1C13.44,7.55,12.79,10.36,12.5,11.35Z"/></g></g></svg>