<svg xmlns="http://www.w3.org/2000/svg" viewBox="0 0 13.86 13.86"><title>Asset 17</title><g id="Layer_2" data-name="Layer 2"><g id="Icons"><path d="M1,12.9A5.88,5.88,0,0,1,6.9,8.38,6.21,6.21,0,0,1,11,9.85l.64-.64a6.86,6.86,0,0,0-3.3-1.6l-.17,0,.17-.07a3.86,3.86,0,1,0-2.78,0l.16.07-.17,0A6.57,6.57,0,0,0,0,13.86H8.2l.14-.9H1Zm2.94-9a3,3,0,1,1,3,3A3,3,0,0,1,3.94,3.89Z"/><path d="M12.66,12.38c0,.17.09.34.13.52V13h-.72l-.9.9h2.61a6,6,0,0,0-.43-2.18Z"/><polygon points="12.32 9.8 9.61 12.46 9.41 13.42 10.38 13.23 13.08 10.56 12.32 9.8"/><rect x="12.91" y="9.05" width="0.66" height="1.11" transform="translate(-2.91 12.17) rotate(-45)"/></g></g></svg>