<?xml version="1.0" encoding="iso-8859-1"?>
<!-- Generator: Adobe Illustrator 20.1.0, SVG Export Plug-In . SVG Version: 6.00 Build 0)  -->
<svg version="1.1" id="Layer_1" xmlns="http://www.w3.org/2000/svg" xmlns:xlink="http://www.w3.org/1999/xlink" x="0px" y="0px"
	 width="500px" height="500px" viewBox="0 0 500 500" enable-background="new 0 0 500 500" xml:space="preserve">
<g>
	<path d="M165.5,289.8c-7.2-4.1-14.2-8.9-20.7-14.2C70.6,313.8,20,391,20,480h236l14-21.8H42.9C51,382.9,99.2,319.5,165.5,289.8z"/>
	<path d="M334.3,289.8c19,8.5,36.4,19.4,51.7,32.7l15.5-15.5c-14-12.2-29.4-22.9-46.2-31.4C348.7,280.9,341.7,285.7,334.3,289.8z"/>
	<path d="M464.7,397.8l-17,17.2c4.4,13.7,7.6,28.4,9.2,43.2h-52.3L382.7,480H480C480,451,474.5,423.3,464.7,397.8z"/>
	<path d="M374.4,144.5C374.4,75.8,318.8,20,249.9,20c-68.7,0-124.3,55.8-124.3,124.5c0,49.5,28.6,92,70.2,111.9
		c16.4,8.3,34.7,12.6,54.1,12.6c19.4,0,38-4.4,54.3-12.6C345.9,236.6,374.4,194.1,374.4,144.5z M249.9,247.3
		c-56.5,0-102.5-46-102.5-102.7c0-56.5,46-102.7,102.5-102.7c56.7,0,102.7,46.2,102.7,102.7C352.6,201.3,306.6,247.3,249.9,247.3z"
		/>
	<polygon points="438.6,362.4 423.1,347 415.9,354.4 326.2,444 326,444 326.2,444.2 318.2,458.2 305.7,480 341.3,459.3 341.5,459.5 
		342.8,458.2 428.1,372.9 	"/>
	<polygon points="466,335 450.8,319.5 437,333.2 452.5,348.5 	"/>
</g>
</svg>
