<?xml version="1.0" encoding="utf-8"?>
<!-- Generator: Adobe Illustrator 20.0.0, SVG Export Plug-In . SVG Version: 6.00 Build 0)  -->
<svg version="1.1" id="Layer_1" xmlns="http://www.w3.org/2000/svg" xmlns:xlink="http://www.w3.org/1999/xlink" x="0px" y="0px"
	 width="500px" height="500px" viewBox="0 0 500 500" enable-background="new 0 0 500 500" xml:space="preserve">
<title>017-stage-profile</title>
<path d="M248.6,300.1c54.1-0.8,106.7,18.1,147.9,53.2l23.2-23.2c-33.7-29.7-74.8-49.6-118.9-57.5h-6.1l6.1-2.5
	c71.8-27.6,107.6-108.2,80-180c-27.6-71.8-108.2-107.6-180-80s-107.6,108.2-80,180c0,0,0,0,0,0c14.2,36.6,43.1,65.6,79.6,80l5.7,2.5
	H200C88,290.2,4.2,384.7,0,498h295.7l5-32.5H36.1v-2.1C59.2,365.4,148,297.2,248.6,300.1z M142.2,138.7
	c0.1-59.7,48.6-108,108.2-107.9s108,48.6,107.9,108.2c-0.1,59.5-48.3,107.8-107.9,107.9c-59.7,0-108.2-48.3-108.2-108.1
	C142.2,138.8,142.2,138.7,142.2,138.7z"/>
<path d="M456.4,443.2c0.9,6.4,2.5,12.7,4.7,18.8v3.6h-26L402.7,498h94.1c-0.2-26.9-5.5-53.6-15.5-78.6L456.4,443.2z"/>
<polygon points="444.2,353.8 346.5,449.7 339.2,484.3 374.2,477.5 471.6,381.2 "/>
<rect x="465.6" y="326.6" transform="matrix(0.7071 -0.7071 0.7071 0.7071 -105.2207 439.1137)" width="23.8" height="40"/>
</svg>
