<?xml version="1.0" encoding="iso-8859-1"?>
<!-- Generator: Adobe Illustrator 20.1.0, SVG Export Plug-In . SVG Version: 6.00 Build 0)  -->
<svg version="1.1" id="Layer_1" xmlns="http://www.w3.org/2000/svg" xmlns:xlink="http://www.w3.org/1999/xlink" x="0px" y="0px"
	 width="500px" height="500px" viewBox="0 0 500 500" enable-background="new 0 0 500 500" xml:space="preserve">
<g>
	<path d="M208.3,271.1c2.8,0,5.6-1.1,7.7-3.2c4.1-4.3,4.1-11,0-15.3l-62.2-62h138.3c37.9,0,68.6,30.8,68.6,68.6v76.1
		c0,5.8,4.9,10.8,10.8,10.8c6,0,10.8-4.9,10.8-10.8v-76.1c0-49.7-40.2-90.1-90.1-90.1H154.7l60.4-60.4c4.1-4.1,4.1-11,0-15.3
		c-4.3-4.1-11-4.1-15.3,0l-86.7,86.9l87.5,87.5C202.9,270,205.7,271.1,208.3,271.1z"/>
	<path d="M453.5,25.5h-407C34.7,25.5,25,35.1,25,47v342.7c0,11.8,9.7,21.5,21.5,21.5H128c-3.2,14-8,28.4-14.4,43
		c-2.6,6-4.7,11-0.4,16.3c0,0,1.9,2.8,4.7,3.7c2.8,0.8,6.1,0,6.1,0c38.1-8.4,86.9-41.1,116.4-63h213.2c11.8,0,21.5-9.7,21.5-21.5V47
		C475,35.1,465.3,25.5,453.5,25.5z M453.5,389.6H267.9h-34.6c-8.2,6-18.5,13.8-29.9,21.5c-19.8,13.1-42.6,27.1-63.5,35.5
		c4.3-12,7.7-23.9,10.3-35.5c1.5-7.3,2.8-14.4,3.7-21.5h-21.9H46.5V47h407V389.6z"/>
</g>
</svg>
