<svg xmlns="http://www.w3.org/2000/svg" viewBox="0 0 14 14.13"><defs><style>.cls-1{fill:#231f20;}</style></defs><title>Asset 16</title><g id="Layer_2" data-name="Layer 2"><g id="Icons"><path d="M13,0H1A1,1,0,0,0,0,1V11a1,1,0,0,0,1,1H3a7.14,7.14,0,0,1-.43,1.28.6.6,0,0,0,0,.68s.11.14.19.15a2,2,0,0,0,.3,0A11.88,11.88,0,0,0,7,12h6a1,1,0,0,0,1-1V1A1,1,0,0,0,13,0Zm0,11H6.64l-.26.2c-.3.23-.69.51-1.12.8a12.4,12.4,0,0,1-1.41.8,6.31,6.31,0,0,0,.21-.8,5.83,5.83,0,0,0,.13-1H1V1H13Z"/><path class="cls-1" d="M10.65,7.14v2a.47.47,0,0,1-.47.47.47.47,0,0,1-.47-.47v-2A1.61,1.61,0,0,0,8.1,5.53H4.94l1.3,1.31a.45.45,0,0,1,0,.66.45.45,0,0,1-.66,0L3.15,5.07l2.4-2.4a.46.46,0,0,1,.67,0,.45.45,0,0,1,0,.66L5,4.6H8.1A2.55,2.55,0,0,1,10.65,7.14Z"/></g></g></svg>