<?xml version="1.0" encoding="utf-8"?>
<!-- Generator: Adobe Illustrator 20.0.0, SVG Export Plug-In . SVG Version: 6.00 Build 0)  -->
<svg version="1.1" id="Layer_1" xmlns="http://www.w3.org/2000/svg" xmlns:xlink="http://www.w3.org/1999/xlink" x="0px" y="0px"
	 width="500px" height="500px" viewBox="0 0 500 500" enable-background="new 0 0 500 500" xml:space="preserve">
<title>016-stage-reply</title>
<path d="M199.6,265.8l-86.1-86.1l85-85c6.2-6.6,16.6-6.9,23.2-0.8c0,0,0,0,0,0l0.7,0.7c6.4,6,6.8,16,0.8,22.4c0,0-0.1,0.1-0.1,0.1
	l-0.7,0.7l-43.2,45h109.7c49.7,0.1,90,40.3,90.4,90V324c0,9.2-7.4,16.6-16.6,16.6c-9.2,0-16.6-7.4-16.6-16.6v-71.1
	c0-31.6-25.6-57.2-57.2-57.2l0,0H177.1l46.1,46.4c6.4,6,6.8,16,0.8,22.4c0,0-0.1,0.1-0.1,0.1c-0.4,0.4-0.7,0.7-0.7,1.1
	c-6,6.4-16,6.8-22.4,0.8c0,0-0.1-0.1-0.1-0.1C200.3,266.1,200,266.1,199.6,265.8z"/>
<path d="M462.5,0H37.5C18-0.1,2.2,15.6,2.1,35.1c0,0.1,0,0.2,0,0.3v354.3C2,409.2,17.7,425,37.2,425.1c0.1,0,0.2,0,0.3,0h70.7
	c-3.5,15.6-8.6,30.8-15,45.4c-5,7.3-5,17,0,24.3c0,0,3.9,4.6,6.4,5c3.6,0.4,7.2,0.4,10.7,0c50.9-15.7,98.3-41.1,139.7-74.7h212.5
	c19.5,0.1,35.3-15.6,35.4-35.1c0-0.1,0-0.2,0-0.3V35.4C498,15.9,482.3,0.1,462.8,0C462.7,0,462.6,0,462.5,0z M462.5,389.7H237.1
	l-8.9,7.1c-10.7,8.2-24.6,17.9-40,28.2c-15.9,10.6-32.5,20.2-49.7,28.6c2.9-9.4,5.3-18.9,7.1-28.6c2.8-11.6,4.4-23.4,4.6-35.4H37.5
	V35.4h425.1V389.7z"/>
</svg>
