<?xml version="1.0" encoding="UTF-8" standalone="no"?>
<svg width="14px" height="14px" viewBox="0 0 14 14" version="1.1" xmlns="http://www.w3.org/2000/svg" xmlns:xlink="http://www.w3.org/1999/xlink">
    <!-- Generator: Sketch 3.8.2 (29753) - http://www.bohemiancoding.com/sketch -->
    <title>114-stage-share</title>
    <desc>Created with Sketch.</desc>
    <defs></defs>
    <g id="Page-1" stroke="none" stroke-width="1" fill="none" fill-rule="evenodd">
        <g id="114-stage-share" transform="translate(-1.000000, 0.000000)" fill="#000000">
            <g id="Layer_2">
                <g id="Icons">
                    <path d="M12.33,8.71 C11.5227939,8.70665522 10.7591095,9.07558486 10.26,9.71 L6.13,7.67 C6.19890494,7.44314698 6.23262989,7.20707228 6.23,6.97 C6.23181117,6.72970027 6.1981141,6.4904511 6.13,6.26 L10.26,4.2 C11.0379542,5.2129886 12.4347297,5.51415808 13.5609915,4.91175209 C14.6872533,4.30934611 15.212101,2.9803541 14.8013609,1.77095289 C14.3906209,0.561551686 13.1649704,-0.172931508 11.904788,0.0351529707 C10.6446057,0.243237449 9.7201385,1.3327535 9.72,2.61 C9.71737011,2.84707228 9.75109506,3.08314698 9.82,3.31 L5.68,5.37 C5.18383804,4.73192891 4.41823795,4.36207379 3.61,4.37 C2.16577541,4.37000004 0.995000067,5.54077541 0.995000067,6.985 C0.995000067,8.42922459 2.16577541,9.59999996 3.61,9.6 C4.41823795,9.60792621 5.18383804,9.23807109 5.68,8.6 L9.81,10.67 C9.51410436,11.749439 9.93939869,12.8973749 10.8671685,13.5234628 C11.7949382,14.1495508 13.0186196,14.1143951 13.9089145,13.4360752 C14.7992093,12.7577553 15.1578975,11.5872961 14.8005177,10.5266253 C14.443138,9.46595448 13.4492593,8.75122575 12.33,8.75 L12.33,8.71 Z M12.33,1 C12.9811842,1 13.5682486,1.39226391 13.817446,1.99387967 C14.0666435,2.59549544 13.9288987,3.28798514 13.4684419,3.74844192 C13.0079851,4.20889869 12.3154954,4.34664346 11.7138797,4.09744605 C11.1122639,3.84824864 10.72,3.26118421 10.72,2.61 C10.72,1.72082155 11.4408216,1 12.33,1 L12.33,1 Z M3.61,8.58 C2.71806014,8.57999998 1.99500003,7.85693986 1.99500003,6.965 C1.99500003,6.07306014 2.71806014,5.35000002 3.61,5.35 C4.18698394,5.34999999 4.72013908,5.65781725 5.00863106,6.15749999 C5.29712303,6.65718273 5.29712303,7.27281727 5.00863106,7.77250001 C4.72013908,8.27218275 4.18698394,8.58000001 3.61,8.58 L3.61,8.58 Z M12.33,12.94 C11.6738763,12.9440502 11.0801034,12.5519282 10.8262043,11.9469076 C10.5723052,11.341887 10.7084263,10.6434623 11.170946,10.1780698 C11.6334657,9.71267733 12.3310342,9.57223428 12.9376153,9.82238226 C13.5441964,10.0725302 13.9399875,10.6638638 13.94,11.32 C13.942663,11.7487286 13.7742148,12.1608121 13.4719921,12.4649119 C13.1697694,12.7690117 12.7587368,12.9400083 12.33,12.94 L12.33,12.94 Z" id="Shape"></path>
                </g>
            </g>
        </g>
    </g>
</svg>