<?xml version="1.0" encoding="utf-8"?>
<!-- Generator: Adobe Illustrator 20.0.0, SVG Export Plug-In . SVG Version: 6.00 Build 0)  -->
<svg version="1.1" id="Layer_1" xmlns="http://www.w3.org/2000/svg" xmlns:xlink="http://www.w3.org/1999/xlink" x="0px" y="0px"
	 width="500px" height="500px" viewBox="0 0 500 500" enable-background="new 0 0 500 500" xml:space="preserve">
<title>002-stage-share</title>
<path d="M463.4,332.2c-41-31.4-99.7-23.7-131.2,17.2l-148.1-73.9v-0.4c2.4-8.1,3.7-16.6,3.6-25.1c0.1-8.6-1.1-17.2-3.6-25.5
	l148.1-73.9c31.5,41,90.2,48.7,131.2,17.2s48.7-90.2,17.2-131.2S390.4-12,349.4,19.5c-23.1,17.7-36.6,45.2-36.6,74.2
	c-0.1,8.5,1.1,17,3.6,25.1L168,192.7c-17.8-22.9-45.2-36.2-74.2-35.8C42,156.8,0,198.8,0,250.6s42,93.7,93.7,93.7
	c29,0.3,56.5-12.9,74.2-35.8l0.4-0.7l148.1,73.5c-2.4,8.1-3.7,16.6-3.6,25.1c0,51.7,41.9,93.6,93.6,93.6c51.7,0,93.6-41.9,93.6-93.6
	C499.9,377.2,486.4,349.8,463.4,332.2L463.4,332.2z M406.4,36c31.9,0,57.7,25.8,57.7,57.7s-25.8,57.7-57.7,57.7
	c-31.9,0-57.7-25.8-57.7-57.7c0,0,0,0,0,0l0,0C348.6,61.9,374.4,36.1,406.4,36C406.3,36,406.3,36,406.4,36L406.4,36z M93.7,307.8
	c-32,0.1-58-25.7-58.1-57.7s25.7-58,57.7-58.1c32-0.1,58,25.7,58.1,57.7v0.3C151.3,281.9,125.6,307.6,93.7,307.8z M406.4,464.1
	c-31.9,0-57.7-25.8-57.7-57.7s25.8-57.7,57.7-57.7s57.7,25.8,57.7,57.7v0l0,0C464.1,438.2,438.3,464.1,406.4,464.1L406.4,464.1
	L406.4,464.1z"/>
</svg>
