<svg xmlns="http://www.w3.org/2000/svg" viewBox="0 0 13.94 13.94"><title>Asset 2</title><g id="Layer_2" data-name="Layer 2"><g id="Icons"><path d="M11.33,8.71a2.62,2.62,0,0,0-2.07,1L5.13,7.67a2.32,2.32,0,0,0,.1-.7,2.44,2.44,0,0,0-.1-.71L9.26,4.2a2.61,2.61,0,1,0-.54-1.59,2.32,2.32,0,0,0,.1.7L4.68,5.37a2.59,2.59,0,0,0-2.07-1,2.61,2.61,0,0,0,0,5.23,2.59,2.59,0,0,0,2.07-1l4.13,2.07a2.61,2.61,0,1,0,2.52-1.92Zm0-7.71A1.61,1.61,0,1,1,9.72,2.61,1.61,1.61,0,0,1,11.33,1ZM2.61,8.58a1.61,1.61,0,0,1,0-3.23,1.61,1.61,0,1,1,0,3.23Zm8.72,4.36a1.62,1.62,0,1,1,1.61-1.62A1.61,1.61,0,0,1,11.33,12.94Z"/></g></g></svg>