<?xml version="1.0" encoding="iso-8859-1"?>
<!-- Generator: Adobe Illustrator 20.1.0, SVG Export Plug-In . SVG Version: 6.00 Build 0)  -->
<svg version="1.1" id="Layer_1" xmlns="http://www.w3.org/2000/svg" xmlns:xlink="http://www.w3.org/1999/xlink" x="0px" y="0px"
	 width="500px" height="500px" viewBox="0 0 500 500" enable-background="new 0 0 500 500" xml:space="preserve">
<g>
	<path d="M15.3,127.6c0,27.7,11.9,52.8,31,70.2c-3.1,3.8-4.2,9-2.7,13.8c7.8,23.9,24.3,43,45.7,53.8c0.8-1.9,1.9-3.6,3.1-5
		c-1.5-4-2.5-8-3.4-12.2c-14.7-9.6-26-24.3-31.4-41.3c4.8,1,9.8,1.5,14.9,1.5c5.2,0,10.3-0.6,15.1-1.7c0.2-0.8,0.4-1.7,0.4-2.3
		c-33.3-9.2-58-39.8-58-76.1v-0.8c10.7,5.9,22.8,9.4,35.8,9.8c-21.2-14.2-35.2-38.3-35.2-65.6c0-14.5,4-28.1,10.7-39.6
		c39,47.6,97,79,162.4,82.3c-1.5-5.9-2.1-11.9-2.1-18c0-43.4,35.2-78.8,78.8-78.8c22.6,0,43,9.6,57.4,24.9
		c17.8-3.6,34.8-10.1,50.1-19.1c-6.1,18.4-18.4,33.7-34.8,43.6c15.9-1.9,31.2-6.3,45.3-12.4c-10.5,15.7-23.9,29.5-39.2,40.6
		c0,3.4,0.2,6.7,0.2,10.3c0,10.9-0.8,22.2-2.7,33.3c3.6-0.2,7.1-0.4,10.7-0.4c1.5,0,2.9,0,4.4,0.2c1.5-10.9,2.3-22,2.3-33.1v-3.1
		c14-11.3,26.4-24.5,36.5-39.8c3.8-5.2,3.4-12.6-0.8-17.4c-2.9-3.6-7.1-5.2-11.3-5.2h-1.5c1.9-4,3.6-8,4.8-12.2
		c1.9-5.9,0-12.2-4.8-15.9c-2.7-2.1-5.9-3.1-9-3.1c-2.7,0-5.2,0.6-7.5,2.1c-11.9,6.9-24.7,12.2-38.1,15.5
		c-17-14.9-39-23.5-61.8-23.5c-51.5,0-93.4,41.9-93.4,93.4v1.7C134.5,91.2,86.3,64.4,52.8,23.1c-2.9-3.6-7.1-5.4-11.5-5.4h-1
		c-4.8,0.4-9.2,3.1-11.5,7.3c-8.4,14.2-12.8,30.4-12.8,46.9c0,14.7,3.6,28.9,9.8,41.7c-1,0.2-2.1,0.8-3.1,1.3
		C18,117.6,15.3,122.4,15.3,127.6z"/>
	<path d="M95.6,326.1c-29.3-5-56.8-16.1-80.9-31.6c6.1,0.6,12.4,1,18.6,1c18.4,0,36-3.1,52.6-9c-0.2-2.1-0.2-4.4-0.2-6.5
		c0-3.4,0.4-6.5,1.5-9.6c-16.8,6.9-35,10.5-53.8,10.5c-5.4,0-11.3-0.4-17-1h-1.7c-6.3,0-11.7,3.8-13.8,9.6
		c-2.3,6.5,0.2,13.6,5.9,17.4c29.8,18.9,63.1,31.2,97.8,35.6C101.2,337.4,98.1,331.7,95.6,326.1z"/>
	<path d="M496.6,197.8c-2.9-3.6-7.1-5.2-11.3-5.2h-1.5c1.9-4,3.6-8,4.8-12.2c1.9-5.9,0-12.2-4.8-15.9c-2.5-2.1-5.9-3.1-9-3.1
		c-2.7,0-5.2,0.6-7.5,2.1c-11.9,6.9-24.7,12.2-37.9,15.5c-16.8-14.7-38.3-23-60.8-23.5h-1.3c-4.8,0-9.4,0.4-14,1
		c-44.8,6.7-79.4,45.7-79.4,92.4v1.7c-52.4-7.1-100.6-33.9-134.1-75.2c-2.9-3.4-7.1-5.4-11.3-5.4h-1.3c-4.8,0.4-9,3.1-11.5,7.3
		c-8.2,14.2-12.6,30.4-12.6,46.9c0,11.7,2.1,23,6.3,33.7c0.8,2.7,2.1,5.4,3.4,8c-1,0.2-2.1,0.8-3.1,1.3c-4.2,2.7-6.9,7.3-7.1,12.4
		c0,0.2,0,0.2,0,0.4c0,17.8,4.8,34.6,13.4,49c3.4,5.4,7.3,10.7,11.5,15.3c1.9,2.1,3.8,4,5.9,5.9c-3.1,3.8-4.2,9-2.5,13.8
		c8,25.4,26.4,45.5,49.7,56.2c-18.6,8.6-39,13-59.9,13c-5.7,0-11.5-0.4-17.2-1h-1.7c-6.1,0-11.7,3.8-13.8,9.6
		c-2.3,6.5,0.2,13.6,5.9,17.4c38.6,24.5,83,37.7,128.6,37.7c149.4,0,238.6-121.5,238.6-238.6V255c14.2-11.3,26.4-24.5,36.5-39.8
		C501.2,210,500.8,202.6,496.6,197.8z M446.1,247.9c0.2,3.4,0.2,6.7,0.2,10.3c0,103.9-79.2,224-224,224
		c-44.4,0-85.9-13.2-120.7-35.4c6.1,0.6,12.4,1,18.9,1c36.9,0,70.8-12.6,97.6-33.7c-34.4-0.6-63.5-23.5-73.5-54.7
		c4.8,1,9.8,1.5,14.9,1.5c7.1,0,14-1,20.7-2.7c-11.5-2.5-22.2-7.3-31.4-14c-5.4-4.2-10.5-9-14.7-14.2c-10.7-13.4-17-30.6-17-49V280
		c10.5,5.9,22.6,9.4,35.6,9.8c-10.1-6.7-18.4-15.7-24.3-26.2c-0.6-0.6-1-1.5-1.3-2.1c-6.1-11.1-9.4-23.9-9.4-37.3
		c0-14.5,3.8-27.9,10.5-39.6c39,47.6,97,79,162.4,82.3c-1.5-5.9-2.1-11.7-2.1-18c0-37.1,25.8-68.5,60.6-76.5
		c5-1.5,10.5-2.1,15.9-2.1c0.6-0.2,1.5-0.2,2.3-0.2c22.6,0,43.2,9.6,57.4,24.9c18-3.6,34.8-10.1,50.1-19.1
		c-5.9,18.4-18.4,33.7-34.8,43.6c15.9-1.9,31.2-6.3,45.3-12.4C474.8,223,461.4,236.8,446.1,247.9z"/>
</g>
</svg>
