<?xml version="1.0" encoding="UTF-8" standalone="no"?>
<svg width="15px" height="14px" viewBox="0 0 15 14" version="1.1" xmlns="http://www.w3.org/2000/svg" xmlns:xlink="http://www.w3.org/1999/xlink">
    <!-- Generator: Sketch 3.8.2 (29753) - http://www.bohemiancoding.com/sketch -->
    <title>115-stage-follow</title>
    <desc>Created with Sketch.</desc>
    <defs></defs>
    <g id="Page-1" stroke="none" stroke-width="1" fill="none" fill-rule="evenodd">
        <g id="115-stage-follow" transform="translate(-1.000000, 0.000000)" fill="#000000">
            <g id="Layer_2">
                <g id="Icons">
                    <path d="M12.66,1.26 C12.6107415,1.2021833 12.5535001,1.15167624 12.49,1.11 L12.49,1.11 C12.5813833,0.833513765 12.4893551,0.529420651 12.26,0.35 C12.1381679,0.2520627 11.9863136,0.199090261 11.83,0.2 C11.7027993,0.197382724 11.5776272,0.232152761 11.47,0.3 C11.2162463,0.451154242 10.9439808,0.568799847 10.66,0.65 C10.1700455,0.243055613 9.55676087,0.0139550376 8.92,0 C7.46714764,0.00157538684 6.24802879,1.09576687 6.09,2.54 C4.87464508,2.2807148 3.78439841,1.61386489 3,0.65 C2.85942625,0.475494757 2.64380447,0.378836716 2.42,0.39 L2.37,0.39 C2.13782069,0.4016615 1.92889871,0.53461185 1.82,0.74 C1.5670306,1.1742952 1.43254547,1.66740736 1.43,2.17 C1.43450435,2.51186567 1.49880782,2.85030502 1.62,3.17 C1.48901004,3.29985544 1.41369535,3.47558973 1.41,3.66 C1.40661947,4.40152296 1.68548281,5.11655715 2.19,5.66 C2.14989743,5.79031793 2.14989743,5.92968207 2.19,6.06 C2.35097038,6.56140574 2.65302155,7.00580287 3.06,7.34 C3.04980117,7.29726676 3.04980117,7.25273324 3.06,7.21 C3.00452713,6.91342229 2.98438676,6.61131678 3,6.31 C2.99508354,6.27015107 2.99508354,6.22984893 3,6.19 C2.94299219,6.08120598 2.89612752,5.96739178 2.86,5.85 L3,5.85 C3.01928692,5.72976967 3.05285778,5.61227167 3.1,5.5 C2.47678041,5.11906744 2.09764522,4.44041545 2.1,3.71 L2.1,3.71 C2.4060387,3.88091285 2.74952799,3.97365496 3.1,3.98 C2.48687414,3.59416962 2.11056857,2.92434571 2.1,2.2 C2.10248233,1.82109186 2.20234591,1.4491861 2.39,1.12 C3.4878014,2.45527417 5.10283306,3.25915254 6.83,3.33 C6.81475138,3.16702257 6.81475138,3.00297743 6.83,2.84 C6.83201491,1.96309597 7.36880433,1.1761586 8.18450296,0.854288326 C9.00020159,0.532418054 9.92972188,0.740757548 10.53,1.38 C10.9922417,1.27972277 11.4348248,1.10404094 11.84,0.86 C11.6727274,1.33998721 11.3393199,1.74433252 10.9,2 C11.3240788,1.95151351 11.7386028,1.84029977 12.13,1.67 C11.8421751,2.09785835 11.4797381,2.47045721 11.06,2.77 L11.06,3.05 C11.0649674,3.13659549 11.0649674,3.22340451 11.06,3.31 L11.29,3.31 C11.4464994,3.29976223 11.6035006,3.29976223 11.76,3.31 C11.7649852,3.23675139 11.7649852,3.16324861 11.76,3.09 C12.1390283,2.80572875 12.4757288,2.46902833 12.76,2.09 C12.9103477,1.820954 12.869948,1.48563688 12.66,1.26 L12.66,1.26 Z M3.14,8.9 C2.63005749,8.7430884 2.14515577,8.51410704 1.7,8.22 C1.86983767,8.23050639 2.04016233,8.23050639 2.21,8.22 C2.47400746,8.23234865 2.73859005,8.21895206 3,8.18 C3,8.06 3,8 3,7.83 C2.97981715,7.70413731 2.97981715,7.57586269 3,7.45 C2.73207337,7.51829262 2.45648679,7.55190074 2.18,7.55 C2.03350174,7.5599396 1.88649826,7.5599396 1.74,7.55 L1.7,7.55 C1.3922902,7.52658675 1.10644942,7.71034154 1,8 C0.887309932,8.30809727 1.00370533,8.65312649 1.28,8.83 C1.94732989,9.25949254 2.68536381,9.56757092 3.46,9.74 C3.32030236,9.47372454 3.21287632,9.1917312 3.14,8.9 L3.14,8.9 Z M3.07,7.34 C3.06022624,7.37601535 3.06022624,7.41398465 3.07,7.45 L3.19,7.45 C3.13621219,7.43200726 3.09259322,7.3920232 3.07,7.34 L3.07,7.34 Z M15,5.4 C14.9507415,5.3421833 14.8935001,5.29167624 14.83,5.25 C14.9213833,4.97351376 14.8293551,4.66942065 14.6,4.49 C14.474321,4.39204198 14.3193435,4.33920872 14.16,4.34 C14.0331561,4.34010066 13.9087233,4.37466532 13.8,4.44 C13.5497458,4.59107057 13.2807949,4.70873659 13,4.79 C12.6017731,4.48042375 12.1294565,4.28046492 11.63,4.21 C11.5001891,4.20008325 11.3698109,4.20008325 11.24,4.21 L10.92,4.21 C9.60142142,4.3651461 8.56463474,5.41022708 8.42,6.73 C7.19770483,6.45754634 6.106525,5.77246903 5.33,4.79 C5.19702937,4.62934349 4.99853101,4.5374461 4.79,4.54 L4.73,4.54 C4.50216994,4.55679592 4.29686944,4.68370896 4.18,4.88 C3.93138961,5.31561574 3.8004308,5.80843444 3.8,6.31 C3.79741081,6.57006531 3.83106768,6.8292232 3.9,7.08 L3.9,7.08 C3.92831271,7.1652549 3.96170582,7.24873768 4,7.33 C3.86932655,7.46332891 3.79732537,7.64333186 3.8,7.83 L3.8,8 C3.82276883,8.40701124 3.92824861,8.80511235 4.11,9.17 C4.23027492,9.41977334 4.38885596,9.64920973 4.58,9.85 C4.57532148,9.86972639 4.57532148,9.89027361 4.58,9.91 C4.54983398,10.021326 4.54983398,10.138674 4.58,10.25 C4.77461073,10.7933513 5.12182339,11.2690326 5.58,11.62 C5.27316921,11.7004547 4.95720256,11.7407909 4.64,11.74 C4.49683833,11.7499208 4.35316167,11.7499208 4.21,11.74 L4.06,11.74 C3.76506017,11.7389773 3.50112106,11.9229349 3.4,12.2 C3.291209,12.5081356 3.40678439,12.8507341 3.68,13.03 C4.7833453,13.6938324 6.0527046,14.0302473 7.34,14 C9.1352801,14.0160061 10.8625364,13.3140269 12.1376629,12.0501681 C13.4127895,10.7863093 14.1300714,9.06535145 14.13,7.27 C14.4913345,6.96613454 14.8078106,6.61262392 15.07,6.22 C15.2236145,5.95963719 15.1955225,5.63055844 15,5.4 L15,5.4 Z M13.42,7 C13.4250039,7.08993045 13.4250039,7.18006955 13.42,7.27 C13.4195443,9.49472881 12.2059999,11.5421758 10.2545941,12.6105548 C8.30318824,13.6789339 5.92448834,13.598212 4.05,12.4 L4.56,12.4 C5.52516044,12.4027716 6.46279067,12.0784784 7.22,11.48 C6.30557521,11.4647096 5.50193045,10.8700125 5.22,10 C5.35313397,10.0103114 5.48686603,10.0103114 5.62,10 C5.81242035,10.0265714 6.00757965,10.0265714 6.2,10 C6.06734367,9.96920678 5.93702116,9.92910754 5.81,9.88 C5.00270995,9.54399832 4.47763978,8.75441911 4.48,7.88 L4.48,7.88 C4.78694193,8.04742726 5.13037951,8.13672103 5.48,8.14 C5.20510584,7.96103688 4.97844842,7.71720845 4.82,7.43 C4.81313708,7.41058875 4.81313708,7.38941125 4.82,7.37 C4.45452287,6.7248302 4.45452287,5.9351698 4.82,5.29 C5.90953169,6.59893659 7.49882768,7.38995605 9.2,7.47 C9.16144737,7.31626422 9.14130606,7.15849066 9.14,7 C9.13362152,6.00772431 9.80715894,5.13997672 10.77,4.9 C10.9369053,4.85921182 11.1081856,4.8390612 11.28,4.84 L11.53,4.84 C12.0323909,4.90063069 12.4967848,5.13814513 12.84,5.51 C13.3194021,5.4198804 13.7795499,5.247325 14.2,5 C14.0411204,5.49484128 13.7068005,5.91451946 13.26,6.18 C13.6843327,6.13285381 14.0990539,6.02158715 14.49,5.85 C14.2033491,6.29297232 13.8411906,6.68220814 13.42,7 L13.42,7 Z" id="Shape"></path>
                </g>
            </g>
        </g>
    </g>
</svg>