<?xml version="1.0" encoding="utf-8"?>
<!-- Generator: Adobe Illustrator 20.0.0, SVG Export Plug-In . SVG Version: 6.00 Build 0)  -->
<svg version="1.1" id="Layer_1" xmlns="http://www.w3.org/2000/svg" xmlns:xlink="http://www.w3.org/1999/xlink" x="0px" y="0px"
	 width="500px" height="500px" viewBox="0 0 500 500" enable-background="new 0 0 500 500" xml:space="preserve">
<title>003-stage-follow</title>
<path d="M494.1,193.7c-1.7-2-3.7-3.8-6-5.3c0.7-2.5,1.1-5.1,1.1-7.8c0.1-7.4-3.3-14.5-9.2-19c-4.4-3.4-9.9-5.3-15.5-5.3
	c-4.5-0.1-8.9,1.2-12.7,3.6c-8.8,5.3-18.3,9.5-28.2,12.3c-14-10.9-30.6-17.9-48.2-20.4c-4.7-0.6-9.4-0.8-14.1-0.7l-10.9,0.7
	c-46.4,5.4-83,42.2-88.1,88.7c-43-9.6-81.4-33.8-108.8-68.3c-4.7-5.6-11.7-8.9-19-8.8h-2.1c-8,0.6-15.3,5.1-19.4,12
	c-8.8,15.3-13.4,32.7-13.4,50.4c0,9.2,1.2,18.3,3.6,27.1c1,3,2.2,6,3.6,8.8c-4.6,4.7-7.2,11-7.1,17.6v6c0.7,14.3,4.5,28.4,10.9,41.2
	c4.2,8.8,9.8,16.9,16.5,23.9v2.1c-1.1,3.9-1.1,8.1,0,12c6.8,19.2,19,35.9,35.2,48.2c-10.8,2.8-21.9,4.2-33.1,4.2
	c-5,0.4-10.1,0.4-15.2,0H109c-10.4,0-19.7,6.4-23.2,16.2c-3.8,10.9,0.2,22.9,9.9,29.2c38.8,23.3,83.4,35.1,128.7,34.1
	c130.8,1.2,237.8-103.7,239-234.5v-2.4c12.8-10.7,23.9-23.1,33.2-37C501.9,213.4,501,201.8,494.1,193.7z M438.5,250
	c0.4,3.2,0.4,6.3,0,9.5c-0.1,118.4-96.2,214.4-214.6,214.3c-40.8,0-80.8-11.7-115.3-33.7h17.9c34,0.1,67-11.3,93.6-32.4
	c-32.1-0.7-60.4-21.6-70.4-52.1c4.7,0.4,9.4,0.4,14.1,0c6.8,1.1,13.6,1.1,20.4,0c-4.7-1.1-9.3-2.5-13.7-4.2
	c-28.4-11.9-46.8-39.6-46.8-70.4c10.8,5.9,22.9,9,35.2,9.2c-9.3-7.6-17.2-16.7-23.2-27.1c-13-22.7-13-50.6,0-73.2
	c38.4,46.1,94.3,73.9,154.2,76.7c-1.4-5.4-2.1-11-2.1-16.5c-0.2-34.9,23.5-65.4,57.4-73.9c5.9-1.4,11.9-2.1,17.9-2.1h8.8
	c17.7,2.1,34,10.5,46.1,23.6c16.9-3.1,33.1-9.1,47.9-17.9c-5.7,17.4-17.4,32.1-33.1,41.5c14.9-1.8,29.5-5.7,43.3-11.6
	C465.9,225.1,453.2,238.7,438.5,250z"/>
<path d="M76.6,316.9c-17.9-5.7-34.9-13.8-50.7-24c6,0.3,11.9,0.3,17.9,0c9.3,0.4,18.6-0.1,27.8-1.4v-12.3c-0.7-4.4-0.7-8.9,0-13.4
	c-9.4,2.4-19.1,3.6-28.9,3.6c-5.2,0.3-10.3,0.3-15.5,0h-1.3c-13.5-0.8-25.1,9.5-25.9,22.9c-0.5,8.8,3.7,17.2,11.1,21.9
	c23.5,15.2,49.5,26.1,76.7,32.2C82.9,337.1,79.1,327.2,76.6,316.9z"/>
<path d="M411.7,48c-1.7-2-3.7-3.8-6-5.3c0.7-2.5,1.1-5.1,1.1-7.8c0.1-7.4-3.3-14.5-9.2-19c-4.2-3.5-9.6-5.4-15.1-5.4
	c-4.5-0.1-8.9,1.2-12.7,3.6c-9,5.3-18.6,9.5-28.6,12.3C324.1,12,302.5,3.9,280.1,3.6c-51.1,0.2-93.9,38.6-99.6,89.4
	c-42.8-9.1-81.2-32.5-108.8-66.4c-5-6-12.6-9.4-20.4-9.2h-1.8c-8.2,0.3-15.6,5-19.4,12.3C21.2,44.9,16.5,62.3,16.4,80
	c0.1,12,2.4,24,6.7,35.2c-4.6,4.6-7.3,10.8-7.4,17.3c0,26.1,9.8,51.2,27.5,70.4c-1.4,4.6-1.4,9.5,0,14.1
	c5.6,17.7,16.2,33.4,30.6,45.1c-0.4-1.5-0.4-3.1,0-4.6c-2.1-10.4-2.8-21.1-2.1-31.7v-4.4c-2-3.8-3.7-7.8-4.9-12h4.9
	c0.7-4.2,1.9-8.4,3.6-12.3C53.4,183.7,40,159.9,40,134.2c10.8,5.9,22.9,9.2,35.2,9.5C53.7,130,40.5,106.5,40,81.1
	c0-13.4,3.5-26.5,10.2-38c38.6,47.1,95.5,75.4,156.3,77.8c-0.7-5.7-0.7-11.5,0-17.3c0.1-41.6,33.8-75.3,75.3-75.3
	c20.8,0.2,40.6,8.9,54.9,23.9c16.2-3.6,31.8-9.8,46.1-18.3c-5.9,16.8-17.6,31-33,40.1c14.9-1.8,29.5-5.7,43.3-11.6
	c-10.2,15.1-23,28.2-37.8,38.7v19h8.1c5.5-0.4,11-0.4,16.5,0v-7.8c13.4-9.9,25.3-21.8,35.2-35.2C420.6,67.7,419.1,55.9,411.7,48z"/>
</svg>
