<svg xmlns="http://www.w3.org/2000/svg" viewBox="0 0 14.19 14.02"><title>Asset 3</title><g id="Layer_2" data-name="Layer 2"><g id="Icons"><path d="M11.66,1.26a.8.8,0,0,0-.17-.15s0,0,0,0a.69.69,0,0,0-.23-.76.68.68,0,0,0-.43-.15.65.65,0,0,0-.36.1,3.42,3.42,0,0,1-.81.35A2.82,2.82,0,0,0,7.92,0,2.85,2.85,0,0,0,5.09,2.54,5.45,5.45,0,0,1,2,.65.7.7,0,0,0,1.42.39H1.37A.66.66,0,0,0,.82.74,2.87,2.87,0,0,0,.43,2.17a2.93,2.93,0,0,0,.19,1,.71.71,0,0,0-.21.49,2.92,2.92,0,0,0,.78,2,.68.68,0,0,0,0,.4,2.74,2.74,0,0,0,.87,1.28.28.28,0,0,1,0-.13A3.82,3.82,0,0,1,2,6.31a.49.49,0,0,1,0-.12,2,2,0,0,1-.14-.34H2A1.53,1.53,0,0,1,2.1,5.5a2.09,2.09,0,0,1-1-1.79v0a2.13,2.13,0,0,0,1,.27,2.14,2.14,0,0,1-1-1.78,2.21,2.21,0,0,1,.29-1.08A6.07,6.07,0,0,0,5.83,3.33a2.63,2.63,0,0,1,0-.49,2.14,2.14,0,0,1,3.7-1.46A4.31,4.31,0,0,0,10.84.86,2.13,2.13,0,0,1,9.9,2a4.31,4.31,0,0,0,1.23-.33,4.3,4.3,0,0,1-1.07,1.1v.28a2.27,2.27,0,0,1,0,.26h.23a3.6,3.6,0,0,1,.47,0,1.62,1.62,0,0,0,0-.22,5,5,0,0,0,1-1A.71.71,0,0,0,11.66,1.26ZM2.14,8.9A5.6,5.6,0,0,1,.7,8.22a4.13,4.13,0,0,0,.51,0A4.07,4.07,0,0,0,2,8.18C2,8.06,2,8,2,7.83a1.2,1.2,0,0,1,0-.38,3.23,3.23,0,0,1-.82.1,3.25,3.25,0,0,1-.44,0H.7A.69.69,0,0,0,0,8a.7.7,0,0,0,.28.83,6.73,6.73,0,0,0,2.18.91A3.78,3.78,0,0,1,2.14,8.9ZM2.07,7.34a.21.21,0,0,0,0,.11l.12,0A.2.2,0,0,1,2.07,7.34ZM14,5.4a.8.8,0,0,0-.17-.15.08.08,0,0,1,0,0,.69.69,0,0,0-.23-.76.71.71,0,0,0-.44-.15.7.7,0,0,0-.36.1,3.35,3.35,0,0,1-.8.35,2.89,2.89,0,0,0-1.37-.58,2.56,2.56,0,0,0-.39,0l-.32,0a2.85,2.85,0,0,0-2.5,2.52A5.45,5.45,0,0,1,4.33,4.79a.69.69,0,0,0-.54-.25H3.73a.7.7,0,0,0-.55.34A2.89,2.89,0,0,0,2.8,6.31a2.8,2.8,0,0,0,.1.77h0A2.25,2.25,0,0,0,3,7.33a.7.7,0,0,0-.2.5V8a3,3,0,0,0,.31,1.17,2.66,2.66,0,0,0,.47.68.13.13,0,0,0,0,.06.65.65,0,0,0,0,.34,3,3,0,0,0,1,1.37,3.67,3.67,0,0,1-.94.12,3.11,3.11,0,0,1-.43,0H3.06a.7.7,0,0,0-.66.46.71.71,0,0,0,.28.83A6.79,6.79,0,0,0,6.34,14a6.73,6.73,0,0,0,6.79-6.73,5,5,0,0,0,.94-1.05A.71.71,0,0,0,14,5.4ZM12.42,7a2.43,2.43,0,0,1,0,.27,6.09,6.09,0,0,1-9.37,5.13l.51,0a4.27,4.27,0,0,0,2.66-.92,2.14,2.14,0,0,1-2-1.48,2.59,2.59,0,0,0,.4,0A2.12,2.12,0,0,0,5.2,10a2.9,2.9,0,0,1-.39-.12,2.16,2.16,0,0,1-1.33-2v0a2.13,2.13,0,0,0,1,.26,2,2,0,0,1-.66-.71.09.09,0,0,1,0-.06,2.11,2.11,0,0,1,0-2.08A6.07,6.07,0,0,0,8.2,7.47,2,2,0,0,1,8.14,7,2.15,2.15,0,0,1,9.77,4.9a2.1,2.1,0,0,1,.51-.06h.25a2.13,2.13,0,0,1,1.31.67A4.22,4.22,0,0,0,13.2,5a2.13,2.13,0,0,1-.94,1.18,4.22,4.22,0,0,0,1.23-.33A4.51,4.51,0,0,1,12.42,7Z"/></g></g></svg>