<?xml version="1.0" encoding="iso-8859-1"?>
<!-- Generator: Adobe Illustrator 20.1.0, SVG Export Plug-In . SVG Version: 6.00 Build 0)  -->
<svg version="1.1" id="Layer_1" xmlns="http://www.w3.org/2000/svg" xmlns:xlink="http://www.w3.org/1999/xlink" x="0px" y="0px"
	 width="500px" height="500px" viewBox="0 0 500 500" enable-background="new 0 0 500 500" xml:space="preserve">
<g>
	<path d="M392.1,0.2c-59.6,0-107.9,36.2-107.9,80.8c0,21.5,11,40.8,29.2,55.2c-0.6,9.8-3.3,20.2-7.9,31c-1.2,2.5-2.7,6.3,0.2,9.6
		l2.9,3.5l4.4-1c14-3.1,30.8-13.3,43.3-21.9c11.3,2.9,23.3,4.6,35.8,4.6c59.6,0,107.9-36.2,107.9-81C500,36.5,451.7,0.2,392.1,0.2z
		 M392.1,147.5c-7.1,0-14-0.6-20.6-1.7c-6.2-1-12.3-2.5-18.1-4.4c-4.4,3.1-9.4,6.7-14.6,10c-5,3.1-10.2,6-15.2,8.5
		c1.5-4.8,2.7-9.6,3.5-14.4c0,0,0,0,0-0.2c0.8-5.4,1-10.8,0.8-16c-6.5-4.4-12.1-9.6-16.7-15c-7.9-9.8-12.5-21.2-12.5-33.3
		c0-36.5,41.9-66.2,93.3-66.2c51.5,0,93.3,29.8,93.3,66.2C485.4,117.7,443.5,147.5,392.1,147.5z"/>
	<path d="M350.8,230.8c1.2-2.7,2.3-5.4,3.1-8.3c1.9-5.6,0-12.1-4.8-15.8c-2.7-2.1-5.8-3.1-9-3.1c-2.7,0-5.2,0.6-7.5,2.1
		c-10,5.8-20.6,10.2-31.9,13.1c-15-12.9-34.4-20.2-54.4-20.2c-45.8,0-83.1,37.1-83.3,82.7c-44.4-6.7-85.2-29.6-114-64.8
		c-2.7-3.3-6.9-5.4-11.2-5.4h-1.2c-4.8,0.4-9,3.1-11.5,7.3C17.9,231,14,245.4,14,260.2c0,12.5,2.7,24.4,7.9,35.4
		c-0.4,0.2-0.8,0.4-1.2,0.6c-4.4,2.5-7.3,7.3-7.3,12.5c0,24.2,10.2,46,26.5,61.7c-2.3,3.5-2.9,8.1-1.7,12.3C45,404,60,421,79,431
		c-15,6.2-31.2,9.6-47.9,9.6c-5,0-10-0.2-14.8-0.8h-1.7c-6,0-11.7,3.7-13.8,9.6c-2.3,6.5,0.2,13.5,5.8,17.3
		c34,21.7,72.9,33.1,113.1,33.1c131.5,0,210-106.9,210-210v-1.9c12.3-9.8,22.9-21.5,31.7-34.6c3.5-5.4,3.1-12.5-1-17.5
		C357.9,232.9,354.6,231.2,350.8,230.8z M315,280.8c0.2,2.9,0.2,5.8,0.2,9c0,90.6-69,195.4-195.4,195.4
		c-38.7,0-74.8-11.5-105.2-30.8c5.4,0.6,10.8,0.8,16.5,0.8c32.1,0,61.7-10.8,85.2-29.4c-30-0.6-55.4-20.4-64.2-47.7
		c4.2,0.8,8.5,1.2,12.9,1.2c6.2,0,12.3-0.8,18.1-2.3c-31.5-6.5-55.2-34.2-55.2-67.5v-0.8c9.4,5.2,20,8.3,31.2,8.5
		C40.6,305,28.6,284,28.6,260.2c0-12.7,3.3-24.4,9.4-34.6c33.7,41.7,84.4,69,141.5,71.9c-1-5.2-1.7-10.4-1.7-15.8
		c0-37.9,30.6-68.5,68.7-68.5c19.6,0,37.5,8.3,50,21.7c15.6-3.1,30.4-8.8,43.7-16.7c-5.2,16-16,29.4-30.2,37.9
		c13.7-1.7,27.1-5.2,39.4-10.6C340.2,259.2,328.5,271.2,315,280.8z"/>
</g>
</svg>
