<?xml version="1.0" encoding="utf-8"?>
<!-- Generator: Adobe Illustrator 20.0.0, SVG Export Plug-In . SVG Version: 6.00 Build 0)  -->
<svg version="1.1" id="Layer_1" xmlns="http://www.w3.org/2000/svg" xmlns:xlink="http://www.w3.org/1999/xlink" x="0px" y="0px"
	 width="500px" height="500px" viewBox="0 0 500 500" enable-background="new 0 0 500 500" xml:space="preserve">
<title>004-stage-tweet</title>
<path d="M392.3,0c-59.4,0-106.9,36-106.9,79.5c0.5,19,9,36.9,23.4,49.3c-0.2,11.2-2.8,22.3-7.6,32.4l-3.6,9c-2.5,5.8,0,14,9.4,11.5
	l7.6-1.8c17.4-4.8,33.8-12.9,48.2-23.8c9.2,2.1,18.6,3.2,28.1,3.2c58.3,0,107.3-35.6,107.3-78.8S449.2,0,392.3,0z M392.3,133.2
	c-3.3,0.4-6.7,0.4-10.1,0c-8.7-0.4-17.3-2.1-25.6-5c-7.7,6.2-15.7,11.8-24.1,16.9v-2.2c1.4-9.5,1.4-19.3,0-28.8
	c-7.2-4.6-13.1-10.9-17.3-18.4c-3.3-5.4-5-11.7-5-18c0.4-27.7,37.1-52.6,82.1-52.6S473,50,473,79.5S434.4,133.2,392.3,133.2z"/>
<path d="M371.1,222.8l-4-3.6c3.2-13.5-4.9-27.1-18.4-30.6c-5.8-1.5-12-0.7-17.3,2.2c-7.4,4.4-15.2,7.9-23.4,10.4
	c-41-30.9-99.3-22.8-130.2,18.2c-9.3,12.4-15.4,26.9-17.7,42.2c-36.7-8.2-69.5-28.5-93.2-57.6c-4.7-5.9-11.9-9.3-19.4-9.4h-2.2
	c-8.2,0.7-15.5,5.4-19.4,12.6c-14,23.8-16.6,52.6-6.8,78.5c-4,4.4-6.2,10.2-6.1,16.2c-0.4,22.7,7.6,44.7,22.3,61.9
	c-1.1,4.3-1.1,8.7,0,13c5,15.5,14.1,29.5,26.3,40.3c-7.6,1.6-15.3,2.4-23,2.5H24.8C11,420.9,0.7,433.2,2,447
	c0.6,6.8,3.9,13,9.2,17.3c97.9,65.1,230,38.6,295.1-59.3c23.5-35.3,35.9-76.7,35.6-119l0,0c11.1-9.6,20.9-20.6,29.2-32.8
	C377.6,244.1,377.6,231.9,371.1,222.8z M316.4,272.8v8.6c0.8,104.8-83.5,190.3-188.3,191.1h-2.9c-35.6-0.3-70.4-10.5-100.4-29.5
	h15.8c30.2,0.3,59.5-9.7,83.1-28.4c-28.8-0.5-54-19.3-62.6-46.8c4.2,0.4,8.4,0.4,12.6,0c5.9,0,11.7-0.8,17.3-2.5
	C60.9,358.9,39,332.8,37.8,302c9.4,5.1,19.9,7.9,30.6,7.9c-29.5-19.7-38.6-58.9-20.9-89.6c33.8,42.4,84.1,68.4,138.2,71.6
	c-9.5-35.8,11.8-72.5,47.6-82h0.3c5.3-1.5,10.8-2.3,16.3-2.2c18.5,0.1,36.1,7.6,49,20.9c15-2.9,29.4-8.4,42.5-16.2
	c-5.4,15-16,27.7-29.9,35.6c13.3-1.8,26.2-5.4,38.5-10.8C341.2,251.2,329.8,263.3,316.4,272.8z"/>
</svg>
