<svg xmlns="http://www.w3.org/2000/svg" viewBox="0 0 13.91 13.96"><title>Asset 4</title><g id="Layer_2" data-name="Layer 2"><g id="Icons"><path d="M11,0C9.33,0,8,1,8,2.22A1.86,1.86,0,0,0,8.66,3.6h0a2.32,2.32,0,0,1-.21.91l-.11.25c-.07.17,0,.4.27.33l.21,0a4.09,4.09,0,0,0,1.35-.72,3.42,3.42,0,0,0,.79.09c1.63,0,3-1,3-2.21S12.59,0,11,0Zm0,3.73a1.37,1.37,0,0,1-.29,0A2.27,2.27,0,0,1,10,3.58a5.88,5.88,0,0,1-.68.48l0,0V4a2.46,2.46,0,0,0,0-.81,1.46,1.46,0,0,1-.48-.51,1,1,0,0,1-.14-.51C8.71,1.4,9.74.7,11,.7s2.25.7,2.25,1.52S12.18,3.73,11,3.73ZM7,5.81a1.88,1.88,0,0,1,1.37.59,3.75,3.75,0,0,0,1.19-.46,1.89,1.89,0,0,1-.83,1,3.75,3.75,0,0,0,1.08-.3,3.81,3.81,0,0,1-.94,1c0,.08,0,.16,0,.24a5.31,5.31,0,0,1-5.35,5.35A5.32,5.32,0,0,1,.7,12.41l.45,0a3.77,3.77,0,0,0,2.33-.8,1.88,1.88,0,0,1-1.76-1.31,1.93,1.93,0,0,0,.35,0,1.9,1.9,0,0,0,.49-.07A1.88,1.88,0,0,1,1.07,8.45v0a1.88,1.88,0,0,0,.85.23,1.88,1.88,0,0,1-.58-2.51,5.34,5.34,0,0,0,3.87,2A1.88,1.88,0,0,1,7,5.81m0-.7A2.58,2.58,0,0,0,4.49,7.32,4.66,4.66,0,0,1,1.88,5.71a.7.7,0,0,0-.54-.26H1.28a.7.7,0,0,0-.55.35A2.59,2.59,0,0,0,.54,8a.7.7,0,0,0-.17.45A2.61,2.61,0,0,0,1,10.19a.7.7,0,0,0,0,.36,2.57,2.57,0,0,0,.73,1.13,3.13,3.13,0,0,1-.64.07l-.37,0H.7A.7.7,0,0,0,.32,13a6,6,0,0,0,3.26,1,6,6,0,0,0,6-6,4.49,4.49,0,0,0,.82-.92.7.7,0,0,0,0-.84l-.11-.11a.7.7,0,0,0-1-.79,3.05,3.05,0,0,1-.65.29A2.59,2.59,0,0,0,7,5.11Z"/></g></g></svg>