<?xml version="1.0" encoding="UTF-8" standalone="no"?>
<svg width="16px" height="13px" viewBox="0 0 16 13" version="1.1" xmlns="http://www.w3.org/2000/svg" xmlns:xlink="http://www.w3.org/1999/xlink">
    <!-- Generator: Sketch 3.8.2 (29753) - http://www.bohemiancoding.com/sketch -->
    <title>117-stage-appexchange</title>
    <desc>Created with Sketch.</desc>
    <defs></defs>
    <g id="Page-1" stroke="none" stroke-width="1" fill="none" fill-rule="evenodd">
        <g id="117-stage-appexchange" fill="#231F20">
            <g id="Layer_2">
                <g id="Icons">
                    <path d="M5.17,4.62 L5.39,4.62 L5.39,5 L5.17,5 C5.09235498,5.02745166 5.00764502,5.02745166 4.93,5 L4.93,5 C4.91915378,4.96413543 4.91915378,4.92586457 4.93,4.89 C4.92416451,4.82816135 4.9506236,4.76768345 5,4.73 C5.04497552,4.67782399 5.10397631,4.63964701 5.17,4.62 L5.17,4.62 Z M10.24,4.15 C10.1439449,4.14243976 10.0515849,4.18861977 10,4.27 C9.94345246,4.36689156 9.91570114,4.47789684 9.92,4.59 C9.91433484,4.70540842 9.9421141,4.8199979 10,4.92 C10.0596084,4.98816295 10.1514155,5.01876531 10.24,5 C10.3306163,5.00601825 10.4178058,4.96431889 10.47,4.89 C10.5284282,4.79021608 10.5562472,4.67546279 10.55,4.56 C10.5548655,4.44783881 10.5270748,4.33667613 10.47,4.24 C10.4113323,4.17685942 10.3251875,4.14689602 10.24,4.16 L10.24,4.15 Z M7,4.15 C6.90742858,4.14616262 6.81980945,4.19187695 6.77,4.27 C6.73313919,4.32749518 6.70925158,4.392333 6.7,4.46 L7.28,4.46 C7.27938817,4.39349479 7.26220314,4.3281917 7.23,4.27 C7.18170966,4.19023925 7.09304564,4.14397977 7,4.15 L7,4.15 Z M13.49,4.15 C13.3974286,4.14616262 13.3098095,4.19187695 13.26,4.27 C13.2231392,4.32749518 13.1992516,4.392333 13.19,4.46 L13.77,4.46 C13.7693882,4.39349479 13.7522031,4.3281917 13.72,4.27 C13.668521,4.18321209 13.5699143,4.13588089 13.47,4.15 L13.49,4.15 Z M15.49,4.36 C15.5091308,5.27357486 15.1108444,6.14606239 14.4080657,6.73008902 C13.705287,7.31411564 12.7746444,7.54600123 11.88,7.36 C11.3123156,8.38405824 10.0420031,8.78405282 8.99,8.27 C8.58978192,9.22065665 7.64871893,9.82969069 6.61753872,9.80540165 C5.58635851,9.7811126 4.67501438,9.12844585 4.32,8.16 C4.16043037,8.17659624 3.99956963,8.17659624 3.84,8.16 C2.77633498,8.15256648 1.84909493,7.43449724 1.57574862,6.40652821 C1.30240231,5.37855917 1.75051231,4.29477186 2.67,3.76 C2.22784288,2.53137133 2.72470066,1.16213789 3.85188426,0.502980524 C4.97906787,-0.156176844 6.41602531,0.0821950886 7.27,1.07 C7.72184578,0.595533174 8.34490938,0.321817373 9,0.31 C9.91150925,0.294904504 10.7572258,0.78311358 11.2,1.58 C11.5839578,1.40881094 11.9996082,1.32022971 12.42,1.32 C13.2260904,1.31455404 14.0004567,1.63374065 14.5685774,2.20562377 C15.1366981,2.77750688 15.4507665,3.55396306 15.44,4.36 L15.49,4.36 Z M4.49,4.84 C4.49,4.61 4.29,4.53 4.1,4.47 L4,4.47 C3.86,4.47 3.74,4.38 3.74,4.29 L3.74,4.29 C3.74,4.21 3.81,4.15 3.92,4.15 C4.0452544,4.15244676 4.16832999,4.18321566 4.28,4.24 L4.28,4.24 L4.34,4.08 C4.23982287,4.00432637 4.12342651,3.95297504 4,3.93 L4,3.93 C3.88727767,3.91578137 3.77382707,3.95016936 3.68796904,4.02457966 C3.602111,4.09898995 3.55194717,4.20640113 3.55,4.32 L3.55,4.32 C3.55,4.56 3.75,4.64 3.94,4.69 L3.94,4.69 C4.08,4.69 4.2,4.77 4.2,4.87 L4.2,4.87 C4.19,5 4.12,5 4,5 C3.86863044,4.99984339 3.74011859,4.96163716 3.63,4.89 L3.63,4.89 L3.57,5.05 L3.57,5.05 L3.65,5.05 C3.77906009,5.11892548 3.92372672,5.15336991 4.07,5.15 C4.36,5.15 4.53,5 4.53,4.75 L4.49,4.84 Z M5.68,5.14 L5.68,4.4 C5.69574698,4.24632573 5.63156765,4.09531555 5.51,4 C5.40400636,3.9198368 5.27257242,3.88076185 5.14,3.89 L4.92,4 C4.83720869,3.98655844 4.75279131,3.98655844 4.67,4 L4.73,4.15 L4.73,4.15 C4.83932481,4.09780666 4.95885619,4.0704852 5.08,4.07 C5.15029556,4.06488092 5.22038349,4.0824029 5.28,4.12 C5.28,4.12 5.35,4.21 5.35,4.31 L5.35,4.31 L5.22,4.31 L5.12,4.31 L4.92,4.31 C4.85894592,4.32612333 4.80133914,4.35323241 4.75,4.39 C4.64664836,4.46331764 4.58664312,4.5833281 4.59,4.71 C4.57548653,4.77250186 4.57548653,4.83749814 4.59,4.9 C4.61466173,4.95221075 4.65259134,4.99703665 4.7,5.03 C4.7481204,5.06378966 4.80252522,5.08759177 4.86,5.1 L5.07,5.1 L5.32,5.1 L5.52,5.1 L5.58,5.1 L5.68,5.14 Z M6.21,3.46 L5.93,3.46 L5.93,5.2 L6.14,5.2 L6.21,3.46 Z M7.53,4.28 C7.51081864,4.2101725 7.47669873,4.14534468 7.43,4.09 C7.3713636,4.04464773 7.30283125,4.01380817 7.23,4 C7.15407568,3.9849118 7.07592432,3.9849118 7,4 C6.91102404,3.98079962 6.81897596,3.98079962 6.73,4 C6.65694928,4.03179316 6.59200598,4.07964611 6.54,4.14 C6.48950293,4.20183673 6.45208098,4.27327865 6.43,4.35 C6.41755523,4.43621992 6.41755523,4.52378008 6.43,4.61 C6.4169767,4.69617742 6.4169767,4.78382258 6.43,4.87 C6.47692991,5.02754213 6.59558856,5.15361695 6.75,5.21 C6.84587957,5.22744543 6.94412043,5.22744543 7.04,5.21 C7.18122276,5.21828308 7.32225014,5.19076554 7.45,5.13 L7.45,5.13 L7.41,5 C7.27577859,5.03656147 7.13422141,5.03656147 7,5 C6.90031118,5.01267335 6.80027984,4.97923237 6.72825522,4.90915436 C6.65623059,4.83907635 6.62006209,4.73999856 6.63,4.64 L7.44,4.64 C7.48044655,4.52798527 7.49746456,4.40885917 7.49,4.29 L7.53,4.28 Z M8.69,4.84 L8.69,4.84 C8.69,4.61 8.49,4.53 8.3,4.47 L8.3,4.47 C8.16,4.47 8.04,4.38 8.04,4.29 L8,4.29 C8,4.21 8.07,4.15 8.18,4.15 C8.3052544,4.15244676 8.42832999,4.18321566 8.54,4.24 L8.54,4.24 L8.6,4.08 C8.47554237,4.00753683 8.33401536,3.96956617 8.19,3.97 L8.19,3.97 C8.07727767,3.95578137 7.96382707,3.99016936 7.87796904,4.06457966 C7.792111,4.13898995 7.74194717,4.24640113 7.74,4.36 L7.74,4.36 C7.74,4.6 7.94,4.68 8.13,4.73 L8.13,4.73 C8.27,4.73 8.39,4.81 8.39,4.91 L8.39,4.91 C8.39,5 8.31,5.06 8.19,5.06 C8.05863044,5.05984339 7.93011859,5.02163716 7.82,4.95 L7.82,4.95 L7.76,5.11 L7.76,5.11 L7.84,5.11 C7.96906009,5.17892548 8.11372672,5.21336991 8.26,5.21 C8.47,5.25 8.65,5.1 8.65,4.85 L8.69,4.84 Z M9.69,3.97 L9.69,3.97 L9.34,3.97 C9.33499129,3.91010453 9.33499129,3.84989547 9.34,3.79 C9.35256097,3.75565681 9.37312974,3.72480366 9.4,3.7 L9.47,3.7 L9.66,3.7 L9.66,3.7 L9.72,3.53 L9.64,3.53 L9.6,3.53 C9.47505916,3.52206665 9.35228194,3.56539979 9.26,3.65 C9.16994908,3.75398435 9.11408664,3.88316623 9.1,4.02 L9.1,4 L8.9,4 L8.9,4.17 L8.9,4.17 L9,4.17 L8.82,5.17 C8.82529936,5.23656135 8.82529936,5.30343865 8.82,5.37 C8.80672466,5.41302315 8.78645331,5.45356583 8.76,5.49 C8.74354403,5.51685264 8.71905352,5.5378445 8.69,5.55 L8.49,5.55 L8.43,5.71 L8.5,5.71 L8.6,5.71 C8.66618087,5.72138177 8.73381913,5.72138177 8.8,5.71 C8.85729753,5.68918131 8.90874523,5.65488283 8.95,5.61 C8.99814353,5.55781499 9.03552331,5.49664808 9.06,5.43 C9.09140024,5.34228661 9.11482841,5.25192082 9.13,5.16 L9.31,4.16 L9.58,4.16 L9.69,3.97 Z M10.88,4.58 C10.8924448,4.49378008 10.8924448,4.40621992 10.88,4.32 C10.8581826,4.24317321 10.8207338,4.17168006 10.77,4.11 C10.6895432,4.04654676 10.5921327,4.00827836 10.49,4 C10.3327181,3.93712232 10.1572819,3.93712232 10,4 C9.93038065,4.03277395 9.86890259,4.08059022 9.82,4.14 C9.76902103,4.20151723 9.73154394,4.27306441 9.71,4.35 C9.6659214,4.51714276 9.6659214,4.69285724 9.71,4.86 C9.73181736,4.93682679 9.76926615,5.00831994 9.82,5.07 C9.86972448,5.1260269 9.93118076,5.17041199 10,5.2 C10.1635622,5.26616417 10.3464378,5.26616417 10.51,5.2 C10.5796193,5.16722605 10.6410974,5.11940978 10.69,5.06 C10.7407338,4.99831994 10.7781826,4.92682679 10.8,4.85 C10.8192534,4.76476383 10.8259908,4.67717803 10.82,4.59 L10.88,4.58 Z M11.88,3.99 L11.74,3.99 C11.6712493,3.97129706 11.5987507,3.97129706 11.53,3.99 C11.475937,4.01152837 11.4278986,4.04584152 11.39,4.09 L11.39,4 L11.18,4 L11.18,5.2 L11.39,5.2 L11.39,4.6 C11.3795907,4.53038698 11.3795907,4.45961302 11.39,4.39 C11.4036227,4.34507395 11.4275989,4.30397198 11.46,4.27 C11.4881372,4.24239635 11.5224028,4.22183703 11.56,4.21 L11.67,4.21 L11.76,4.21 L11.76,4.21 L11.88,3.99 Z M12.88,5.14 L12.75,5 L12.64,5 L12.51,5 C12.4101899,5.00448784 12.3128071,4.96842015 12.24,4.9 C12.1651397,4.80712693 12.1292846,4.68880511 12.14,4.57 C12.1334201,4.45627547 12.165104,4.34362193 12.23,4.25 C12.2939234,4.16692393 12.3955,4.12177874 12.5,4.13 C12.5828184,4.11689871 12.6671816,4.11689871 12.75,4.13 L12.75,4.13 L12.8,4 L12.64,4 L12.46,4 C12.3674663,3.99724948 12.2754126,4.01429648 12.19,4.05 C12.1172824,4.08236843 12.0524568,4.13013466 12,4.19 C11.9459272,4.25096201 11.9050688,4.32246422 11.88,4.4 C11.8661727,4.48611515 11.8661727,4.57388485 11.88,4.66 C11.8706306,4.83448762 11.9278119,5.00603156 12.04,5.14 C12.1627145,5.26598302 12.3345242,5.3317825 12.51,5.32 C12.6259548,5.3198636 12.7410025,5.29956107 12.85,5.26 L12.88,5.14 Z M14,4.29 C13.9808186,4.2201725 13.9466987,4.15534468 13.9,4.1 C13.8481292,4.05377151 13.786654,4.01961863 13.72,4 C13.6440757,3.9849118 13.5659243,3.9849118 13.49,4 C13.3974184,3.99661174 13.3052289,4.01368387 13.22,4.05 C13.1469493,4.08179316 13.082006,4.12964611 13.03,4.19 C12.9795029,4.25183673 12.942081,4.32327865 12.92,4.4 C12.9075552,4.48621992 12.9075552,4.57378008 12.92,4.66 C12.9069767,4.74617742 12.9069767,4.83382258 12.92,4.92 C12.9669299,5.07754213 13.0855886,5.20361695 13.24,5.26 C13.3358796,5.27744543 13.4341204,5.27744543 13.53,5.26 C13.6712228,5.26828308 13.8122501,5.24076554 13.94,5.18 L13.94,5.18 L13.9,5 C13.7956525,5.04369391 13.6830495,5.0641672 13.57,5.06 C13.4703112,5.07267335 13.3702798,5.03923237 13.2982552,4.96915436 C13.2262306,4.89907635 13.1900621,4.79999856 13.2,4.7 L14,4.7 C14.0326629,4.56528492 14.0326629,4.42471508 14,4.29 L14,4.29 Z M1.75,11.41 L1.51,11.41 C1.42475,11.4149832 1.34060894,11.4318115 1.26,11.46 C1.18667158,11.4865284 1.12129072,11.5312627 1.07,11.59 C1.01585106,11.65416 0.987355171,11.7360857 0.99,11.82 C0.976014174,11.8797185 0.979485273,11.9421982 1,12 C1.02191573,12.0425975 1.05258572,12.0800831 1.09,12.11 C1.12848092,12.141398 1.17260484,12.165157 1.22,12.18 L1.38,12.18 C1.46616033,12.1839235 1.55197642,12.1667603 1.63,12.13 C1.71413937,12.1083142 1.79041623,12.0632415 1.85,12 L1.85,12 L1.85,12.1 L1.85,12.2 L2,12.2 L2,12.07 L2,11.92 L2,11.38 C2.01322223,11.3173568 2.01322223,11.2526432 2,11.19 C1.97897783,11.1165009 1.93733419,11.0505652 1.88,11 C1.8394157,10.963872 1.79172999,10.936623 1.74,10.92 L1.57,10.92 C1.38258874,10.9081 1.19842291,10.9730997 1.06,11.1 L1.16,11.22 C1.26118379,11.1282103 1.39339765,11.0781835 1.53,11.08 C1.61482152,11.0702999 1.69943426,11.0998282 1.75980305,11.160197 C1.82017184,11.2205657 1.8497001,11.3051785 1.84,11.39 L1.84,11.39 L1.75,11.41 Z M1.84,11.55 L1.84,11.64 C1.84739313,11.6897267 1.84739313,11.7402733 1.84,11.79 C1.82544606,11.8345139 1.80158404,11.8754203 1.77,11.91 C1.7312488,11.9508205 1.68322443,11.9816934 1.63,12 C1.57721094,12.0107755 1.52278906,12.0107755 1.47,12 L1.37,12 L1.28,12 C1.25142177,11.9825784 1.22742163,11.9585782 1.21,11.93 C1.20153222,11.8972044 1.20153222,11.8627956 1.21,11.83 C1.20680552,11.7764831 1.22904327,11.724595 1.27,11.69 C1.31386171,11.6531465 1.36495995,11.6258941 1.42,11.61 L1.61,11.61 L1.84,11.61 L1.84,11.55 Z M2.36,12.9 L2.53,12.9 L2.53,12 L2.53,12 C2.55700438,12.0419571 2.59079876,12.0791309 2.63,12.11 L2.75,12.18 L2.88,12.18 L3,12.18 C3.08590622,12.1962365 3.17409378,12.1962365 3.26,12.18 C3.33445278,12.1500206 3.40237634,12.1058703 3.46,12.05 C3.51628222,11.9927059 3.56048904,11.9246954 3.59,11.85 C3.65413191,11.6860484 3.65413191,11.5039516 3.59,11.34 C3.56025076,11.2654278 3.51607291,11.1974618 3.46,11.14 C3.4027059,11.0837178 3.33469542,11.039511 3.26,11.01 C3.17414003,10.9932772 3.08585997,10.9932772 3,11.01 L2.88,11.01 L2.75,11.01 L2.63,11 C2.59053315,11.0305828 2.55669422,11.0678057 2.53,11.11 L2.53,11.11 L2.53,10.91 L2.36,10.91 L2.36,12.9 Z M3.44,11.74 C3.42010063,11.7954057 3.389523,11.8463684 3.35,11.89 C3.3105464,11.9324242 3.26292672,11.9664382 3.21,11.99 C3.14171049,12.0094995 3.0698334,12.0129222 3,12 C2.93729933,12.0126599 2.87270067,12.0126599 2.81,12 C2.75424565,11.9762305 2.70338502,11.9423235 2.66,11.9 C2.61688996,11.8572572 2.58287414,11.8062334 2.56,11.75 C2.50999099,11.6282693 2.50999099,11.4917307 2.56,11.37 C2.58311346,11.3138937 2.61709935,11.2629149 2.66,11.22 C2.70338502,11.1776765 2.75424565,11.1437695 2.81,11.12 C2.87275119,11.1078561 2.93724881,11.1078561 3,11.12 C3.06267289,11.1070651 3.12732711,11.1070651 3.19,11.12 C3.24292672,11.1435618 3.2905464,11.1775758 3.33,11.22 C3.36931834,11.263783 3.39987067,11.3147036 3.42,11.37 C3.46346513,11.4929379 3.46346513,11.6270621 3.42,11.75 L3.44,11.74 Z M3.9,12.9 L4.07,12.9 L4.07,12 L4.07,12 C4.09700438,12.0419571 4.13079876,12.0791309 4.17,12.11 L4.29,12.18 L4.42,12.18 L4.55,12.18 C4.63590622,12.1962365 4.72409378,12.1962365 4.81,12.18 C4.88542019,12.1342035 4.9501966,12.0728364 5,12 C5.05628222,11.9427059 5.10048904,11.8746954 5.13,11.8 C5.19413191,11.6360484 5.19413191,11.4539516 5.13,11.29 C5.10025076,11.2154278 5.05607291,11.1474618 5,11.09 C4.93942904,11.047967 4.87162995,11.0174574 4.8,11 C4.71414003,10.9832772 4.62585997,10.9832772 4.54,11 L4.41,11 L4.28,11 L4.16,11 C4.12053315,11.0305828 4.08669422,11.0678057 4.06,11.11 L4.06,11.11 L4.06,10.91 L3.89,10.91 L3.9,12.9 Z M5,11.74 C4.98010063,11.7954057 4.949523,11.8463684 4.91,11.89 C4.8705464,11.9324242 4.82292672,11.9664382 4.77,11.99 C4.70735677,12.0032222 4.64264323,12.0032222 4.58,11.99 C4.51729933,12.0026599 4.45270067,12.0026599 4.39,11.99 C4.33424565,11.9662305 4.28338502,11.9323235 4.24,11.89 C4.19688996,11.8472572 4.16287414,11.7962334 4.14,11.74 C4.08999099,11.6182693 4.08999099,11.4817307 4.14,11.36 C4.16311346,11.3038937 4.19709935,11.2529149 4.24,11.21 C4.28338502,11.1676765 4.33424565,11.1337695 4.39,11.11 C4.45275119,11.0978561 4.51724881,11.0978561 4.58,11.11 C4.64267289,11.0970651 4.70732711,11.0970651 4.77,11.11 C4.82292672,11.1335618 4.8705464,11.1675758 4.91,11.21 C4.94931834,11.253783 4.97987067,11.3047036 5,11.36 C5.04346513,11.4829379 5.04346513,11.6170621 5,11.74 L5,11.74 Z M6.59,11.6 L6.59,11.52 C6.60250037,11.4438429 6.60250037,11.3661571 6.59,11.29 C6.56622885,11.2200291 6.52884386,11.1554551 6.48,11.1 C6.40357058,11.0445014 6.31392089,11.0100208 6.22,11 C6.13765747,10.9818267 6.05234253,10.9818267 5.97,11 C5.89081641,10.9838367 5.80918359,10.9838367 5.73,11 C5.65874477,11.0304368 5.59418258,11.0746109 5.54,11.13 C5.48412968,11.1876237 5.43997937,11.2555472 5.41,11.33 C5.39431504,11.4125953 5.39431504,11.4974047 5.41,11.58 C5.39407304,11.6625723 5.39407304,11.7474277 5.41,11.83 C5.43974924,11.9045722 5.48392709,11.9725382 5.54,12.03 C5.5971201,12.0864986 5.66517748,12.1307359 5.74,12.16 C5.82257233,12.175927 5.90742767,12.175927 5.99,12.16 C6.08653415,12.1601014 6.18198357,12.139648 6.27,12.1 C6.36464225,12.0531767 6.44687763,11.9846472 6.51,11.9 L6.38,11.79 C6.34181253,11.8505611 6.29056109,11.9018125 6.23,11.94 C6.16049393,11.9812137 6.08078138,12.0020083 6,12 C5.94392577,12.0115882 5.88607423,12.0115882 5.83,12 C5.77803276,11.9791796 5.7305162,11.9486332 5.69,11.91 C5.64797293,11.870199 5.61401916,11.8226638 5.59,11.77 C5.58134869,11.7136635 5.58134869,11.6563365 5.59,11.6 L6.59,11.6 Z M5.59,11.46 C5.57848571,11.4106629 5.57848571,11.3593371 5.59,11.31 C5.61291043,11.2651435 5.6433527,11.2245538 5.68,11.19 C5.72066469,11.151556 5.76814324,11.1210341 5.82,11.1 C5.8728406,11.0897474 5.9271594,11.0897474 5.98,11.1 C6.08791194,11.0937519 6.19337804,11.1337563 6.27,11.21 C6.33899827,11.2864673 6.37494699,11.3871237 6.37,11.49 L5.59,11.46 Z M6.67,12.16 L6.89,12.16 L7.28,11.63 L7.69,12.16 L7.92,12.16 L7.41,11.51 L7.83,10.94 L7.58,10.94 L7.26,11.39 L6.92,10.94 L6.68,10.94 L7.12,11.51 L6.67,12.16 Z M9.08,11.16 C9.01195498,11.0858855 8.92580048,11.0307466 8.83,11 C8.75438321,10.9667133 8.6726184,10.949679 8.59,10.95 C8.50093251,10.9316778 8.40906749,10.9316778 8.32,10.95 C8.24517748,10.9792641 8.1771201,11.0235014 8.12,11.08 C8.06280613,11.1365568 8.01846704,11.2047708 7.99,11.28 C7.97399618,11.3659279 7.97399618,11.4540721 7.99,11.54 C7.97499849,11.6226582 7.97499849,11.7073418 7.99,11.79 C8.01874268,11.8650892 8.06304599,11.9332482 8.12,11.99 C8.1771201,12.0464986 8.24517748,12.0907359 8.32,12.12 C8.40906749,12.1383222 8.50093251,12.1383222 8.59,12.12 C8.67255929,12.1197463 8.7542079,12.1027362 8.83,12.07 C8.89002788,12.0558533 8.94741533,12.0322231 9,12 L8.86,11.89 C8.82841566,11.9349046 8.7874764,11.9724322 8.74,12 C8.68108956,12.0161708 8.61891044,12.0161708 8.56,12 C8.4973885,12.0135228 8.4326115,12.0135228 8.37,12 C8.31678607,11.9769433 8.26906899,11.9428596 8.23,11.9 C8.190477,11.8563684 8.15989937,11.8054057 8.14,11.75 C8.09874902,11.6232724 8.09874902,11.4867276 8.14,11.36 C8.16012933,11.3047036 8.19068166,11.253783 8.23,11.21 C8.2694536,11.1675758 8.31707328,11.1335618 8.37,11.11 C8.4326115,11.0964772 8.4973885,11.0964772 8.56,11.11 C8.61891044,11.0938292 8.68108956,11.0938292 8.74,11.11 C8.7874764,11.1375678 8.82841566,11.1750954 8.86,11.22 L9.08,11.16 Z M9.25,12.16 L9.42,12.16 L9.42,11.54 C9.4144023,11.450499 9.43160575,11.361041 9.47,11.28 C9.49885124,11.2248273 9.53988895,11.17695 9.59,11.14 C9.62842012,11.1107271 9.67279784,11.0902451 9.72,11.08 L9.79,11.08 C9.88986898,11.06916 9.98823485,11.1107764 10.05,11.19 C10.1022509,11.2846073 10.126528,11.39212 10.12,11.5 L10.12,12.17 L10.29,12.17 L10.29,11.4 C10.2983641,11.2495793 10.2397952,11.103157 10.13,11 C10.0390111,10.9132694 9.91527149,10.8695966 9.79,10.88 L9.67,10.88 L9.55,10.88 L9.45,10.95 L9.38,11.04 L9.38,11.04 L9.38,10.2 L9.21,10.2 L9.25,12.16 Z M11.33,11.42 L11,11.42 C10.91475,11.4249832 10.8306089,11.4418115 10.75,11.47 C10.6766716,11.4965284 10.6112907,11.5412627 10.56,11.6 C10.5058511,11.66416 10.4773552,11.7460857 10.48,11.83 C10.4681157,11.8792938 10.4681157,11.9307062 10.48,11.98 C10.5019157,12.0225975 10.5325857,12.0600831 10.57,12.09 C10.6084809,12.121398 10.6526048,12.145157 10.7,12.16 L10.86,12.16 C10.9461603,12.1639235 11.0319764,12.1467603 11.11,12.11 C11.184409,12.0708488 11.2466642,12.0120522 11.29,11.94 L11.29,11.94 L11.29,12.04 L11.29,12.14 L11.46,12.14 L11.46,12.01 L11.46,11.86 L11.46,11.32 C11.4732222,11.2573568 11.4732222,11.1926432 11.46,11.13 C11.4360038,11.0802246 11.4019549,11.035961 11.36,11 C11.3194157,10.963872 11.27173,10.936623 11.22,10.92 L11.05,10.92 C10.8625887,10.9081 10.6784229,10.9730997 10.54,11.1 L10.64,11.22 C10.7411838,11.1282103 10.8733977,11.0781835 11.01,11.08 C11.0948215,11.0702999 11.1794343,11.0998282 11.239803,11.160197 C11.3001718,11.2205657 11.3297001,11.3051785 11.32,11.39 L11.32,11.39 L11.33,11.42 Z M11.42,11.56 L11.42,11.65 C11.4273931,11.6997267 11.4273931,11.7502733 11.42,11.8 C11.4054461,11.8445139 11.381584,11.8854203 11.35,11.92 C11.3159875,11.9547081 11.27512,11.9819531 11.23,12 C11.1549866,12.022517 11.0750134,12.022517 11,12 L10.9,12 L10.81,12 C10.7814218,11.9825784 10.7574216,11.9585782 10.74,11.93 C10.7315322,11.8972044 10.7315322,11.8627956 10.74,11.83 C10.7368055,11.7764831 10.7590433,11.724595 10.8,11.69 C10.8438617,11.6531465 10.8949599,11.6258941 10.95,11.61 L11.14,11.61 L11.39,11.61 L11.42,11.56 Z M11.92,10.95 L11.92,11.09 L11.92,11.22 L11.92,12.17 L12.09,12.17 L12.09,11.55 C12.0844023,11.460499 12.1016058,11.371041 12.14,11.29 C12.1688512,11.2348273 12.2098889,11.18695 12.26,11.15 C12.2984201,11.1207271 12.3427978,11.1002451 12.39,11.09 L12.46,11.09 C12.559869,11.07916 12.6582349,11.1207764 12.72,11.2 C12.7722509,11.2946073 12.796528,11.40212 12.79,11.51 L12.79,12.18 L12.96,12.18 L12.96,11.41 C12.9680189,11.2837275 12.9288133,11.1589824 12.85,11.06 C12.7590111,10.9732694 12.6352715,10.9295966 12.51,10.94 L12.39,10.94 L12.27,10.94 L12.17,11.01 L12.1,11.1 L12.1,11.1 L12.1,11 L12.1,10.9 L11.92,10.95 Z M13.29,12.54 C13.3628888,12.6177967 13.4515254,12.6791605 13.55,12.72 C13.6516596,12.7609296 13.7604183,12.7813219 13.87,12.78 C13.983119,12.7851686 14.09594,12.7646557 14.2,12.72 C14.2785332,12.6834774 14.3471292,12.6286005 14.4,12.56 C14.4490638,12.498637 14.4832871,12.4267681 14.5,12.35 C14.5073704,12.280194 14.5073704,12.209806 14.5,12.14 L14.5,10.94 L14.33,10.94 L14.33,11.14 L14.33,11.14 C14.2988593,11.0952651 14.2618633,11.0549058 14.22,11.02 L14.07,11 L13.95,11 L13.83,11 C13.7475312,10.9830246 13.6624688,10.9830246 13.58,11 C13.5083468,11.0297069 13.4436465,11.0739756 13.39,11.13 C13.2733272,11.2506026 13.208687,11.4122031 13.21,11.58 C13.1927404,11.6624396 13.1927404,11.7475604 13.21,11.83 C13.2392641,11.9048225 13.2835014,11.9728799 13.34,12.03 C13.3976237,12.0858703 13.4655472,12.1300206 13.54,12.16 C13.6225483,12.1761766 13.7074517,12.1761766 13.79,12.16 C13.8758701,12.1605456 13.9609452,12.1435305 14.04,12.11 C14.1227839,12.0707731 14.1922998,12.0082088 14.24,11.93 L14.24,11.93 L14.24,12.15 C14.2490257,12.2130118 14.2490257,12.2769882 14.24,12.34 C14.2241059,12.3950401 14.1968535,12.4461383 14.16,12.49 C14.1187452,12.5348828 14.0672975,12.5691813 14.01,12.59 C13.9373625,12.6042863 13.8626375,12.6042863 13.79,12.59 C13.6965555,12.5913 13.6040992,12.5707541 13.52,12.53 C13.4416711,12.4931488 13.3731465,12.4383292 13.32,12.37 L13.29,12.54 Z M13.48,11.36 C13.5260761,11.2496872 13.6116589,11.1605384 13.72,11.11 C13.7793281,11.0973012 13.8406719,11.0973012 13.9,11.11 C13.9627007,11.0973401 14.0272993,11.0973401 14.09,11.11 C14.2015259,11.1559794 14.2886091,11.2466911 14.33,11.36 C14.3404636,11.4195438 14.3404636,11.4804562 14.33,11.54 C14.3426599,11.6027007 14.3426599,11.6672993 14.33,11.73 C14.3082082,11.7867999 14.2740492,11.8380384 14.23,11.88 C14.1664339,11.9412379 14.0865917,11.9828947 14,12 C13.9405603,12.0115967 13.8794397,12.0115967 13.82,12 C13.7607407,12.0133333 13.6992593,12.0133333 13.64,12 C13.5873362,11.9759808 13.539801,11.9420271 13.5,11.9 C13.4152314,11.8111996 13.368572,11.6927566 13.37,11.57 C13.3750875,11.4920638 13.3991158,11.4165463 13.44,11.35 L13.48,11.36 Z M15.98,11.6 L15.98,11.52 C15.9925004,11.4438429 15.9925004,11.3661571 15.98,11.29 C15.9562288,11.2200291 15.9188439,11.1554551 15.87,11.1 C15.8196528,11.044666 15.7583573,11.000397 15.69,10.97 C15.6076575,10.9518267 15.5223425,10.9518267 15.44,10.97 C15.3608164,10.9538367 15.2791836,10.9538367 15.2,10.97 C15.1287448,11.0004368 15.0641826,11.0446109 15.01,11.1 C14.9541297,11.1576237 14.9099794,11.2255472 14.88,11.3 C14.864315,11.3825953 14.864315,11.4674047 14.88,11.55 C14.864073,11.6325723 14.864073,11.7174277 14.88,11.8 C14.9097492,11.8745722 14.9539271,11.9425382 15.01,12 C15.0671201,12.0564986 15.1351775,12.1007359 15.21,12.13 C15.2925723,12.145927 15.3774277,12.145927 15.46,12.13 C15.5565342,12.1301014 15.6519836,12.109648 15.74,12.07 C15.8346422,12.0231767 15.9168776,11.9546472 15.98,11.87 L15.85,11.76 C15.8118125,11.8205611 15.7605611,11.8718125 15.7,11.91 C15.6276046,11.9530777 15.5441502,11.9739413 15.46,11.97 C15.4039258,11.9815882 15.3460742,11.9815882 15.29,11.97 C15.2380328,11.9491796 15.1905162,11.9186332 15.15,11.88 C15.1079729,11.840199 15.0740192,11.7926638 15.05,11.74 C15.0413487,11.6836635 15.0413487,11.6263365 15.05,11.57 L15.98,11.6 Z M14.98,11.46 C14.9684857,11.4106629 14.9684857,11.3593371 14.98,11.31 C15.0029104,11.2651435 15.0333527,11.2245538 15.07,11.19 C15.1106647,11.151556 15.1581432,11.1210341 15.21,11.1 C15.2628406,11.0897474 15.3171594,11.0897474 15.37,11.1 C15.4779119,11.0937519 15.583378,11.1337563 15.66,11.21 C15.7289983,11.2864673 15.764947,11.3871237 15.76,11.49 L14.98,11.46 Z" id="Shape"></path>
                </g>
            </g>
        </g>
    </g>
</svg>