<svg xmlns="http://www.w3.org/2000/svg" viewBox="0 0 14.94 12.9"><defs><style>.cls-1{fill:#231f20;}</style></defs><title>Asset 5</title><g id="Layer_2" data-name="Layer 2"><g id="Icons"><path class="cls-1" d="M4.17,4.62l.22,0V5L4.17,5a.36.36,0,0,1-.24,0l0,0a.19.19,0,0,1,0-.11.18.18,0,0,1,.07-.16A.36.36,0,0,1,4.17,4.62Zm5.07-.47A.26.26,0,0,0,9,4.27a.59.59,0,0,0-.08.32A.6.6,0,0,0,9,4.92.25.25,0,0,0,9.24,5a.26.26,0,0,0,.23-.11.59.59,0,0,0,.08-.33.58.58,0,0,0-.08-.32A.26.26,0,0,0,9.24,4.16ZM6,4.15a.26.26,0,0,0-.23.12.47.47,0,0,0-.07.19h.58a.4.4,0,0,0-.05-.19A.25.25,0,0,0,6,4.15Zm6.49,0a.26.26,0,0,0-.23.12.47.47,0,0,0-.07.19h.58a.4.4,0,0,0-.05-.19A.25.25,0,0,0,12.47,4.15Zm2,.21a3,3,0,0,1-3.61,3,2.2,2.2,0,0,1-2.89.91,2.51,2.51,0,0,1-4.67-.11,2.32,2.32,0,0,1-.48,0,2.36,2.36,0,0,1-1.17-4.4A2.71,2.71,0,0,1,6.27,1.07,2.45,2.45,0,0,1,8,.31,2.47,2.47,0,0,1,10.2,1.58a3,3,0,0,1,1.22-.26A3,3,0,0,1,14.44,4.36Zm-11,.48c0-.23-.2-.31-.39-.37H3c-.14,0-.26-.09-.26-.18h0c0-.08.07-.14.18-.14a.83.83,0,0,1,.36.09s0,0,0,0l.06-.16a0,0,0,0,0,0,0A.81.81,0,0,0,3,3.93H3a.4.4,0,0,0-.45.39h0c0,.24.2.32.39.37h0c.14,0,.26.08.26.18h0C3.19,5,3.12,5,3,5a.68.68,0,0,1-.37-.11l0,0a0,0,0,0,0,0,0l-.06.16s0,0,0,0l.08,0a.85.85,0,0,0,.42.1c.29,0,.46-.15.46-.4Zm1.19.3V4.4A.45.45,0,0,0,4.51,4a.55.55,0,0,0-.37-.11L3.92,4A.78.78,0,0,0,3.67,4a0,0,0,0,0,0,0l.06.15a0,0,0,0,0,0,0h0a.82.82,0,0,1,.35-.08.33.33,0,0,1,.2.05s.07.09.07.19v0l-.13,0H4.12l-.2,0a.52.52,0,0,0-.17.08.38.38,0,0,0-.16.32.42.42,0,0,0,0,.19.33.33,0,0,0,.11.13.44.44,0,0,0,.16.07l.21,0,.25,0,.2,0h.06A0,0,0,0,0,4.64,5.15Zm.53-1.68a0,0,0,0,0,0,0H4.93a0,0,0,0,0,0,0V5.2a0,0,0,0,0,0,0h.21a0,0,0,0,0,0,0Zm1.32.82a.5.5,0,0,0-.1-.19A.47.47,0,0,0,6.23,4a.59.59,0,0,0-.23,0A.64.64,0,0,0,5.73,4a.53.53,0,0,0-.19.14.59.59,0,0,0-.11.21.91.91,0,0,0,0,.26.87.87,0,0,0,0,.26.52.52,0,0,0,.32.34.81.81,0,0,0,.29,0,.84.84,0,0,0,.41-.08s0,0,0,0L6.41,5a0,0,0,0,0,0,0A.78.78,0,0,1,6,5a.33.33,0,0,1-.37-.36h.81a0,0,0,0,0,0,0A.87.87,0,0,0,6.49,4.29Zm1.16.56h0c0-.23-.2-.31-.39-.37h0c-.14,0-.26-.09-.26-.18H7c0-.08.07-.14.18-.14a.83.83,0,0,1,.36.09s0,0,0,0l.06-.16a0,0,0,0,0,0,0,.81.81,0,0,0-.41-.11h0a.4.4,0,0,0-.45.39h0c0,.24.2.32.39.37h0c.14,0,.26.08.26.18h0c0,.09-.08.15-.2.15a.68.68,0,0,1-.37-.11l0,0a0,0,0,0,0,0,0l-.06.16s0,0,0,0l.08,0a.85.85,0,0,0,.42.1C7.47,5.25,7.65,5.1,7.65,4.85Zm1-.87s0,0,0,0H8.34a1.08,1.08,0,0,1,0-.18.23.23,0,0,1,.06-.09l.07,0h.19s0,0,0,0l.06-.17a0,0,0,0,0,0,0l-.08,0H8.6a.46.46,0,0,0-.34.12.67.67,0,0,0-.16.37V4H7.9a0,0,0,0,0,0,0l0,.17s0,0,0,0H8l-.18,1a1.26,1.26,0,0,1,0,.2.41.41,0,0,1-.06.12.15.15,0,0,1-.07.06h-.2a0,0,0,0,0,0,0l-.06.16a0,0,0,0,0,0,0l.07,0H7.6a.59.59,0,0,0,.2,0,.38.38,0,0,0,.15-.1.54.54,0,0,0,.11-.18,1.55,1.55,0,0,0,.07-.27l.18-1h.27a0,0,0,0,0,0,0Zm1.19.61a.91.91,0,0,0,0-.26.58.58,0,0,0-.11-.21A.52.52,0,0,0,9.49,4,.66.66,0,0,0,9,4a.52.52,0,0,0-.18.14.57.57,0,0,0-.11.21,1,1,0,0,0,0,.51.58.58,0,0,0,.11.21A.51.51,0,0,0,9,5.2a.68.68,0,0,0,.51,0,.52.52,0,0,0,.18-.14.58.58,0,0,0,.11-.21A.9.9,0,0,0,9.82,4.59Zm1-.59a0,0,0,0,0,0,0l-.14,0a.4.4,0,0,0-.21,0,.36.36,0,0,0-.14.1V4a0,0,0,0,0,0,0h-.21a0,0,0,0,0,0,0V5.2a0,0,0,0,0,0,0h.21a0,0,0,0,0,0,0v-.6a.71.71,0,0,1,0-.21.3.3,0,0,1,.07-.12.25.25,0,0,1,.1-.06l.11,0h.09s0,0,0,0Zm1,1.15L11.75,5a0,0,0,0,0,0,0l-.11,0h-.13a.37.37,0,0,1-.27-.1.46.46,0,0,1-.1-.33.51.51,0,0,1,.09-.32.31.31,0,0,1,.27-.12.8.8,0,0,1,.25,0s0,0,0,0L11.8,4a0,0,0,0,0,0,0l-.16,0h-.18a.65.65,0,0,0-.27.05.55.55,0,0,0-.19.14.59.59,0,0,0-.12.21.82.82,0,0,0,0,.26.69.69,0,0,0,.16.48.6.6,0,0,0,.47.18,1,1,0,0,0,.34-.06A0,0,0,0,0,11.81,5.16ZM13,4.29a.5.5,0,0,0-.1-.19A.47.47,0,0,0,12.72,4a.59.59,0,0,0-.23,0,.63.63,0,0,0-.27.05.53.53,0,0,0-.19.14.59.59,0,0,0-.11.21.91.91,0,0,0,0,.26.87.87,0,0,0,0,.26.52.52,0,0,0,.32.34.81.81,0,0,0,.29,0,.84.84,0,0,0,.41-.08s0,0,0,0L12.9,5a0,0,0,0,0,0,0,.78.78,0,0,1-.33.06.33.33,0,0,1-.37-.36H13a0,0,0,0,0,0,0A.87.87,0,0,0,13,4.29ZM.75,11.41H.51a.92.92,0,0,0-.25.05.46.46,0,0,0-.19.13.34.34,0,0,0-.08.23A.32.32,0,0,0,0,12a.34.34,0,0,0,.09.11.39.39,0,0,0,.13.07l.16,0a.53.53,0,0,0,.25-.05A.46.46,0,0,0,.85,12h0s0,.07,0,.1,0,.07,0,.1H1s0-.08,0-.13,0-.1,0-.15v-.54a.46.46,0,0,0,0-.19A.4.4,0,0,0,.88,11a.39.39,0,0,0-.14-.08l-.17,0a.69.69,0,0,0-.51.18l.1.12a.54.54,0,0,1,.37-.14.28.28,0,0,1,.31.31v0Zm.09.14v.09a.51.51,0,0,1,0,.15.33.33,0,0,1-.07.12A.35.35,0,0,1,.63,12a.4.4,0,0,1-.16,0H.37L.28,12a.21.21,0,0,1-.07-.07.2.2,0,0,1,0-.1.17.17,0,0,1,.06-.14.41.41,0,0,1,.15-.08l.19,0H.84Zm.52,1.35h.17V12h0a.45.45,0,0,0,.1.11l.12.07.13,0H2a.7.7,0,0,0,.26,0,.62.62,0,0,0,.2-.13.6.6,0,0,0,.13-.2.7.7,0,0,0,0-.51.61.61,0,0,0-.13-.2.6.6,0,0,0-.2-.13.68.68,0,0,0-.26,0H1.88l-.13,0L1.63,11a.43.43,0,0,0-.1.11h0v-.2H1.36Zm1.08-1.16a.45.45,0,0,1-.09.15.43.43,0,0,1-.14.1A.46.46,0,0,1,2,12a.48.48,0,0,1-.19,0,.49.49,0,0,1-.15-.1.45.45,0,0,1-.1-.15.5.5,0,0,1,0-.38.46.46,0,0,1,.1-.15.49.49,0,0,1,.15-.1.5.5,0,0,1,.19,0,.47.47,0,0,1,.19,0,.43.43,0,0,1,.14.1.46.46,0,0,1,.09.15.57.57,0,0,1,0,.38Zm.46,1.16h.17V12h0a.45.45,0,0,0,.1.11l.12.07.13,0h.13a.7.7,0,0,0,.26,0A.62.62,0,0,0,4,12a.6.6,0,0,0,.13-.2.7.7,0,0,0,0-.51.61.61,0,0,0-.13-.2A.6.6,0,0,0,3.8,11a.68.68,0,0,0-.26,0H3.41l-.13,0L3.16,11a.43.43,0,0,0-.1.11h0v-.2H2.89ZM4,11.74a.45.45,0,0,1-.09.15.43.43,0,0,1-.14.1.46.46,0,0,1-.19,0,.48.48,0,0,1-.19,0,.49.49,0,0,1-.15-.1.45.45,0,0,1-.1-.15.5.5,0,0,1,0-.38.46.46,0,0,1,.1-.15.49.49,0,0,1,.15-.1.5.5,0,0,1,.19,0,.47.47,0,0,1,.19,0,.43.43,0,0,1,.14.1.46.46,0,0,1,.09.15.57.57,0,0,1,0,.38Zm1.59-.14v-.08a.71.71,0,0,0,0-.23.56.56,0,0,0-.11-.19A.54.54,0,0,0,5.22,11a.58.58,0,0,0-.25,0,.6.6,0,0,0-.24,0,.59.59,0,0,0-.19.13.62.62,0,0,0-.13.2.67.67,0,0,0,0,.25.66.66,0,0,0,0,.25.61.61,0,0,0,.13.2.59.59,0,0,0,.2.13.66.66,0,0,0,.25,0,.68.68,0,0,0,.28-.06.67.67,0,0,0,.24-.2l-.13-.11a.48.48,0,0,1-.15.15A.43.43,0,0,1,5,12a.42.42,0,0,1-.17,0,.44.44,0,0,1-.14-.09.45.45,0,0,1-.1-.14.56.56,0,0,1,0-.17Zm-1-.14a.33.33,0,0,1,0-.15.44.44,0,0,1,.09-.12.45.45,0,0,1,.14-.09.42.42,0,0,1,.16,0,.38.38,0,0,1,.29.11.39.39,0,0,1,.1.28Zm1.08.7h.22l.39-.53.41.53h.23l-.51-.65.42-.57H6.58l-.32.45-.34-.45H5.68l.44.57Zm2.41-1A.58.58,0,0,0,7.83,11a.59.59,0,0,0-.24-.05.67.67,0,0,0-.27,0,.59.59,0,0,0-.2.13.56.56,0,0,0-.13.2.71.71,0,0,0,0,.26.7.7,0,0,0,0,.25.57.57,0,0,0,.13.2.59.59,0,0,0,.2.13.67.67,0,0,0,.27,0,.61.61,0,0,0,.24-.05A.58.58,0,0,0,8,12l-.14-.11a.38.38,0,0,1-.12.11.34.34,0,0,1-.18,0,.45.45,0,0,1-.19,0,.41.41,0,0,1-.14-.1.45.45,0,0,1-.09-.15.63.63,0,0,1,0-.39.46.46,0,0,1,.09-.15.43.43,0,0,1,.14-.1.45.45,0,0,1,.19,0,.34.34,0,0,1,.18,0,.38.38,0,0,1,.12.11Zm.17,1h.17v-.62a.53.53,0,0,1,.05-.26.41.41,0,0,1,.12-.14.33.33,0,0,1,.13-.06h.07a.29.29,0,0,1,.26.11.57.57,0,0,1,.07.31v.67h.17v-.77A.51.51,0,0,0,9.13,11a.44.44,0,0,0-.34-.12l-.12,0-.12,0-.1.07-.07.09h0V10.2H8.21Zm2.08-.74H10a.92.92,0,0,0-.25.05.46.46,0,0,0-.19.13.34.34,0,0,0-.08.23.32.32,0,0,0,0,.15.34.34,0,0,0,.09.11.39.39,0,0,0,.13.07l.16,0a.53.53,0,0,0,.25-.05.46.46,0,0,0,.18-.17h0s0,.07,0,.1,0,.07,0,.1h.17s0-.08,0-.13,0-.1,0-.15v-.54a.46.46,0,0,0,0-.19.4.4,0,0,0-.1-.13.39.39,0,0,0-.14-.08l-.17,0a.69.69,0,0,0-.51.18l.1.12a.54.54,0,0,1,.37-.14.28.28,0,0,1,.31.31v0Zm.09.14v.09a.51.51,0,0,1,0,.15.33.33,0,0,1-.07.12.35.35,0,0,1-.12.08A.4.4,0,0,1,10,12H9.9l-.09,0a.21.21,0,0,1-.07-.07.2.2,0,0,1,0-.1.17.17,0,0,1,.06-.14.41.41,0,0,1,.15-.08l.19,0h.25Zm.5-.61s0,.09,0,.14,0,.09,0,.13v.95h.17v-.62a.53.53,0,0,1,.05-.26.41.41,0,0,1,.12-.14.33.33,0,0,1,.13-.06h.07a.29.29,0,0,1,.26.11.57.57,0,0,1,.07.31v.67h.17v-.77a.51.51,0,0,0-.11-.35.44.44,0,0,0-.34-.12l-.12,0-.12,0-.1.07-.07.09h0s0-.07,0-.1,0-.06,0-.1Zm1.37,1.59a.75.75,0,0,0,.26.18.83.83,0,0,0,.32.06.75.75,0,0,0,.33-.06.54.54,0,0,0,.2-.16.51.51,0,0,0,.1-.21,1,1,0,0,0,0-.21v-1.2h-.17v.2h0a.61.61,0,0,0-.11-.12L13.07,11l-.12,0h-.12a.62.62,0,0,0-.25,0,.56.56,0,0,0-.19.13.64.64,0,0,0-.18.45.61.61,0,0,0,0,.25.59.59,0,0,0,.13.2.62.62,0,0,0,.2.13.65.65,0,0,0,.25,0,.63.63,0,0,0,.25-.05.47.47,0,0,0,.2-.18h0v.22a.67.67,0,0,1,0,.19.41.41,0,0,1-.08.15.38.38,0,0,1-.15.1.57.57,0,0,1-.22,0,.6.6,0,0,1-.27-.06.55.55,0,0,1-.2-.16Zm.19-1.18a.48.48,0,0,1,.24-.25.43.43,0,0,1,.18,0,.48.48,0,0,1,.19,0,.43.43,0,0,1,.24.25.52.52,0,0,1,0,.18.48.48,0,0,1,0,.19.41.41,0,0,1-.1.15A.46.46,0,0,1,13,12a.47.47,0,0,1-.18,0,.41.41,0,0,1-.18,0,.45.45,0,0,1-.14-.1.47.47,0,0,1-.13-.33A.48.48,0,0,1,12.44,11.35Zm2.5.24v-.08a.71.71,0,0,0,0-.23.56.56,0,0,0-.11-.19.54.54,0,0,0-.18-.13.58.58,0,0,0-.25,0,.6.6,0,0,0-.24,0,.59.59,0,0,0-.19.13.62.62,0,0,0-.13.2.67.67,0,0,0,0,.25.66.66,0,0,0,0,.25.61.61,0,0,0,.13.2.59.59,0,0,0,.2.13.66.66,0,0,0,.25,0,.68.68,0,0,0,.28-.06.67.67,0,0,0,.24-.2l-.13-.11a.48.48,0,0,1-.15.15.43.43,0,0,1-.24.06.42.42,0,0,1-.17,0,.44.44,0,0,1-.14-.09.45.45,0,0,1-.1-.14.56.56,0,0,1,0-.17Zm-1-.14a.33.33,0,0,1,0-.15.44.44,0,0,1,.09-.12.45.45,0,0,1,.14-.09.42.42,0,0,1,.16,0,.38.38,0,0,1,.29.11.39.39,0,0,1,.1.28Z"/></g></g></svg>