<?xml version="1.0" encoding="utf-8"?>
<!-- Generator: Adobe Illustrator 20.0.0, SVG Export Plug-In . SVG Version: 6.00 Build 0)  -->
<svg version="1.1" id="Layer_1" xmlns="http://www.w3.org/2000/svg" xmlns:xlink="http://www.w3.org/1999/xlink" x="0px" y="0px"
	 width="500px" height="500px" viewBox="0 0 500 500" enable-background="new 0 0 500 500" xml:space="preserve">
<title>005-stage-appexchange</title>
<path fill="#231F20" d="M139.4,188.9c2.5,0,4.9,0.2,7.4,0.6v12.3c-2.4,0.5-4.8,0.8-7.2,1c-2.8,0.4-5.7-0.2-8.1-1.7
	c-0.6-0.4-1.1-0.9-1.5-1.4c-0.6-1.1-0.9-2.3-0.8-3.6c-0.2-2,0.7-4,2.3-5.3C133.8,189.3,136.6,188.7,139.4,188.9z M309.1,173.4
	c-3.1-0.3-6,1.1-7.8,3.6c-1.8,3.3-2.7,7-2.5,10.8c-0.2,3.8,0.7,7.5,2.6,10.8c3.3,4.3,9.5,5.1,13.8,1.8c0.7-0.5,1.3-1.1,1.8-1.8
	c1.9-3.3,2.8-7,2.6-10.8c0.2-3.8-0.7-7.5-2.6-10.8c-1.7-2.5-4.7-3.9-7.8-3.7V173.4z M200,173.4c-3.1-0.2-6.1,1.3-7.8,3.9
	c-1.2,2-1.9,4.1-2.2,6.4h19.3c-0.1-2.3-0.7-4.5-1.8-6.4c-1.6-2.6-4.5-4.2-7.6-4.1L200,173.4z M417.1,173.4c-3.1-0.2-6.1,1.3-7.8,3.9
	c-1.2,2-1.9,4.1-2.2,6.4h19.6c-0.1-2.3-0.7-4.5-1.8-6.4c-1.6-2.7-4.6-4.3-7.7-4.1L417.1,173.4z M483,180.6
	c0.7,55.6-43.8,101.2-99.4,101.9c-7.1,0.1-14.2-0.6-21.2-2c-19.1,34.1-61.4,47.4-96.5,30.3c-18.2,42.7-67.7,62.6-110.4,44.4
	c-21.3-9.1-37.9-26.6-45.9-48.3c-5.3,1.1-10.7,1.7-16.1,1.7c-43.7-0.4-78.8-36.1-78.4-79.8c0.2-27.9,15.1-53.6,39.2-67.6
	c-20.1-46,0.9-99.6,46.9-119.7c38.5-16.8,83.4-5.1,108.8,28.4c31.4-32.9,83.5-34.1,116.3-2.7c6.1,5.8,11.3,12.6,15.4,20
	c12.8-5.7,26.7-8.7,40.8-8.7c55.9,0.4,100.9,45.9,100.7,101.7L483,180.6z M115.3,196.7c0-7.6-6.9-10.3-13-12.4l-0.8-0.3
	c-4.7-1.5-8.8-2.9-8.8-6l0,0c0-2.7,2.4-4.6,6.1-4.6c4.3,0.1,8.4,1.2,12.2,3.1c0,0,0.9,0.6,1.3-0.3l2-5.3c0.1-0.4-0.1-0.9-0.5-1.1
	c-4.1-2.6-8.8-4-13.6-4.2h-1c-7.4-0.8-14,4.4-14.9,11.8v1.1l0,0c0,8,6.9,10.8,13.1,12.4l1,0.3c4.6,1.4,8.6,2.7,8.6,5.9l0,0
	c0,2.9-2.6,5.2-6.9,5.2c-4.4,0-8.7-1.2-12.4-3.6l-1.6-1c-0.3-0.3-0.8-0.3-1.1,0c0,0,0,0,0,0l-0.4,0.5l-1.9,5.3
	c-0.3,0.8,0,0.9,0.2,1.1c0.9,0.6,1.7,1.1,2.7,1.6c4.3,2.3,9.1,3.4,14,3.3c9.6,0,15.6-5.1,15.6-13.3L115.3,196.7z M155.2,206.7v-25
	c0.5-4.5-1-8.9-4.1-12.2c-3.6-2.7-8-3.9-12.5-3.6c-2.4,0-4.8,0.2-7.2,0.6c-2.9,0.5-5.8,1.6-8.3,3.1c-0.3,0.3-0.4,0.7-0.3,1.1
	l1.9,5.2c0.1,0.4,0.5,0.6,0.8,0.5c0,0,0,0,0,0l0,0l0.4-0.3c3.7-1.8,7.7-2.7,11.8-2.8c2.4-0.2,4.7,0.5,6.7,1.8
	c1.5,1.2,2.2,2.9,2.2,6.5v1.2c-2.4-0.5-4.6-0.7-4.6-0.7h-4.2c-2.3,0-4.5,0.3-6.7,0.9c-2,0.5-3.9,1.4-5.6,2.6
	c-3.5,2.5-5.5,6.5-5.4,10.8c-0.1,2.1,0.4,4.2,1.2,6.2c0.8,1.7,2.1,3.2,3.6,4.2c1.6,1.1,3.5,1.9,5.4,2.3c2.4,0.5,4.8,0.7,7.2,0.7
	c2.7,0,5.4-0.3,8-0.8c2.7-0.4,5.9-1.1,6.9-1.3l1.9-0.5c0.4-0.1,0.7-0.4,0.7-0.9L155.2,206.7z M172.8,150.5c0.2-0.4,0-0.9-0.4-1
	c-0.1-0.1-0.2-0.1-0.4-0.1h-7.2c-0.4,0-0.8,0.4-0.8,0.8l0,0v57.9c0.1,0.4,0.4,0.6,0.8,0.6h7.2c0.4,0,0.8-0.4,0.8-0.8l0,0
	L172.8,150.5z M216.9,178.1c-0.7-2.3-2-4.5-3.6-6.3c-1.4-1.6-3.2-3-5.1-3.9c-2.5-1-5.1-1.6-7.8-1.6c-3.1-0.1-6.1,0.5-9,1.7
	c-2.3,1.1-4.4,2.7-6,4.7c-1.6,2-2.9,4.4-3.6,6.9c-0.8,2.8-1.2,5.7-1.2,8.6c0,2.9,0.4,5.8,1.2,8.6c1.6,5.3,5.6,9.6,10.8,11.4
	c3.2,1.1,6.5,1.7,9.9,1.6c4.8,0.2,9.6-0.8,13.9-2.9c0.3,0,0.6-0.4,0.3-1.3l-2-4.9c-0.1-0.4-0.6-0.6-1-0.5c0,0,0,0,0,0l0,0
	c-3.5,1.5-7.3,2.2-11.1,2c-6.1,0.8-11.6-3.5-12.4-9.6c-0.1-0.8-0.1-1.7,0-2.6h27.1c0.4,0,0.8-0.3,0.8-0.7c0.5-3.9,0.3-7.8-0.8-11.6
	L216.9,178.1z M256,196.8L256,196.8c0-7.6-6.9-10.3-13-12.4l-0.8-0.3c-4.7-1.5-8.8-2.9-8.8-6l0,0c0-2.7,2.4-4.6,6.1-4.6
	c4.3,0.1,8.4,1.2,12.2,3.1c0,0,0.9,0.6,1.3-0.3l1.9-5.3c0.1-0.4-0.1-0.9-0.5-1.1c-4.1-2.6-8.8-4-13.6-4.2h-1.2
	c-7.3-0.7-13.8,4.5-14.7,11.8v1.1l0,0c0,8,6.9,10.8,13.1,12.4l1,0.3c4.6,1.4,8.6,2.7,8.6,5.9l0,0c0,2.9-2.6,5.2-6.9,5.2
	c-4.4,0-8.7-1.2-12.4-3.6l-1.6-1c-0.4-0.3-0.9-0.2-1.2,0.2v0.3l-1.8,5.6c-0.3,0.8,0,0.9,0.2,1.1c0.9,0.6,1.7,1.1,2.7,1.6
	c4.3,2.3,9.1,3.4,14,3.3c9.4,0.1,15.3-5,15.3-13.2L256,196.8z M289,167.7c0-0.5,0-0.9-0.9-0.9h-8.8c0.3-2.1,0.8-4.1,1.4-6.1
	c0.4-1.1,1.1-2.1,1.9-2.9c0.6-0.6,1.4-1.1,2.3-1.4c0.9-0.3,1.9-0.4,2.9-0.4c0.7,0,1.5,0.1,2.2,0.2l1.4,0.4c0.9,0.3,1,0,1.2-0.4
	l2-5.7c0.3-0.3,0.3-0.7,0-1c-0.1-0.1-0.2-0.1-0.3-0.2l0,0c-0.9-0.3-1.8-0.5-2.7-0.6c-1.2-0.2-2.4-0.4-3.6-0.4
	c-4.2-0.2-8.4,1.3-11.5,4.1c-3,3.4-4.9,7.7-5.4,12.3l-0.4,1.8h-6.1c-0.5,0-0.8,0.3-0.9,0.8l-1,5.6c0,0.5,0,0.9,0.9,0.9h6l-6.1,33.9
	c-0.4,2.3-0.9,4.5-1.6,6.7c-0.4,1.4-1.1,2.7-1.9,3.8c-0.6,0.9-1.5,1.6-2.5,1.9c-1,0.3-2.1,0.5-3.2,0.4c-0.7,0.1-1.4,0.1-2.2,0
	c-0.5-0.1-1-0.3-1.5-0.5c-0.4-0.1-0.8,0-1,0.4l0,0l-2,5.5c-0.2,0.4,0,0.9,0.4,1l0,0c0.7,0.3,1.4,0.5,2.2,0.7c1.3,0.3,2.6,0.4,4,0.4
	c2.3,0.1,4.6-0.3,6.8-1c2-0.8,3.7-2,5-3.6c1.6-1.8,2.8-3.8,3.6-6.1c1-3,1.7-6,2.2-9.1l6.1-34.4h9.1c0.5,0,0.8-0.3,0.9-0.8L289,167.7
	z M328.9,188c0-2.9-0.4-5.8-1.2-8.6c-0.7-2.5-1.9-4.9-3.6-6.9c-1.7-2-3.8-3.6-6.2-4.7c-5.5-2.3-11.7-2.3-17.2,0
	c-2.4,1.1-4.5,2.7-6.1,4.7c-1.7,2-2.9,4.4-3.6,6.9c-1.6,5.6-1.6,11.6,0,17.2c0.7,2.5,1.9,4.9,3.6,6.9c1.7,2,3.8,3.6,6.2,4.6
	c5.5,2.3,11.7,2.3,17.2,0c2.3-1,4.4-2.6,6-4.5c1.7-2,2.9-4.4,3.6-6.9c0.8-2.9,1.2-5.8,1.2-8.8L328.9,188z M361.2,168.3
	c0.1-0.4,0-0.8-0.4-0.9l0,0c-1.5-0.4-3-0.7-4.5-0.8c-2.4-0.2-4.7,0.2-6.9,1.2c-1.8,0.8-3.4,2-4.6,3.6v-3.9c0-0.4-0.3-0.8-0.8-0.8
	c0,0,0,0,0,0h-7c-0.4,0.1-0.7,0.4-0.6,0.8l0,0V208c0,0.5,0.4,0.8,0.8,0.8h7c0.5,0,0.8-0.4,0.8-0.8l0,0v-20.2
	c-0.1-2.4,0.2-4.9,0.9-7.2c0.5-1.5,1.3-2.9,2.4-4c1-1,2.2-1.7,3.6-2c1.2-0.3,2.4-0.5,3.6-0.5c1,0,2,0.2,2.9,0.4c0.5,0,0.9-0.3,1-0.7
	c0.5-1.9,1.1-3.8,1.8-5.7L361.2,168.3z M395.4,206.9l-2-5.4c-0.1-0.4-0.5-0.6-0.9-0.5l0,0c-1.2,0.5-2.4,0.8-3.6,1.1
	c-1.5,0.2-2.9,0.3-4.4,0.3c-3.4,0.1-6.8-1.2-9.2-3.6c-2.5-3-3.8-6.9-3.6-10.8c-0.2-3.8,0.9-7.5,3.1-10.5c2.1-2.7,5.5-4.2,8.9-3.9
	c2.9,0,5.7,0.4,8.5,1.2c0,0,0.6,0.3,0.9-0.5c0.7-2,1.2-3.6,2-5.5c0.1-0.4-0.1-0.8-0.5-0.9l0,0c-1.7-0.6-3.5-1-5.4-1.3
	c-2-0.3-4-0.4-6-0.4c-3.1-0.1-6.1,0.5-8.9,1.7c-2.5,1.1-4.7,2.7-6.4,4.7c-1.7,2-3.1,4.4-3.9,6.9c-0.9,2.8-1.3,5.7-1.3,8.6
	c-0.3,5.8,1.6,11.5,5.4,16c4.2,4.2,9.9,6.4,15.8,6c3.9,0,7.7-0.7,11.3-2c0.2-0.3,0.2-0.6,0-0.9L395.4,206.9z M434.5,177.9
	c-0.7-2.3-2-4.5-3.6-6.3c-1.4-1.6-3.2-3-5.1-3.9c-2.5-1.1-5.1-1.6-7.8-1.6c-3.1-0.1-6.1,0.5-9,1.7c-2.5,1.1-4.7,2.8-6.5,4.9
	c-1.6,2-2.9,4.4-3.6,6.9c-0.8,2.8-1.2,5.7-1.2,8.6c0,2.9,0.5,5.8,1.4,8.6c1.6,5.3,5.6,9.6,10.8,11.4c3.2,1.1,6.5,1.7,9.9,1.6
	c4.7,0.2,9.5-0.8,13.7-2.9c0.3,0,0.6-0.4,0.3-1.3l-1.8-5c-0.1-0.4-0.6-0.6-1-0.5c0,0,0,0,0,0l0,0c-3.5,1.5-7.3,2.2-11.1,2
	c-6.1,0.8-11.6-3.5-12.4-9.6c-0.1-0.8-0.1-1.7,0-2.6h27.1c0.4,0,0.8-0.3,0.8-0.7c0.4-3.9,0-7.8-1.1-11.5L434.5,177.9z M25.3,416.2
	c-2.7,0-5.4,0.1-8,0.4c-2.8,0.2-5.6,0.8-8.2,1.7c-2.4,0.8-4.6,2.3-6.4,4.2c-1.8,2.2-2.7,5-2.6,7.8c0,1.8,0.4,3.6,1.2,5.2
	c0.8,1.4,1.8,2.6,3.1,3.6c1.3,1,2.8,1.7,4.5,2.2c1.7,0.5,3.4,0.8,5.2,0.8c2.9,0.1,5.8-0.5,8.4-1.8c2.5-1.4,4.6-3.4,6-5.9l0,0v3.6
	c0,1.1,0.2,2.1,0.4,3.2h5.6c0-1.1-0.3-2.5-0.4-4.2c-0.1-1.7-0.3-3.6-0.3-4.9v-18.2c0.1-2.2-0.4-4.4-1.2-6.4
	c-0.7-1.7-1.8-3.2-3.2-4.5c-1.4-1.2-3-2.1-4.7-2.7c-1.8-0.6-3.8-0.9-5.7-0.9c-6.3-0.5-12.5,1.6-17.2,5.9l3.6,4.1
	c3.4-3.1,7.8-4.8,12.4-4.8c5.1-0.6,9.7,3,10.3,8.1c0.1,0.7,0.1,1.5,0,2.2v1L25.3,416.2z M28.1,420.9v2.9c0,1.7-0.3,3.4-0.8,5.1
	c-0.4,1.5-1.2,3-2.3,4.2c-1.1,1.2-2.4,2.2-3.8,2.9c-1.7,0.7-3.6,1.1-5.4,1c-1.2,0-2.4-0.1-3.6-0.4c-1.1-0.3-2.1-0.7-3.1-1.3
	c-0.9-0.6-1.7-1.4-2.2-2.3c-0.6-1.1-0.9-2.3-0.8-3.6c-0.1-1.8,0.7-3.6,2.1-4.8c1.5-1.2,3.2-2.1,5-2.6c2-0.6,4.1-0.9,6.2-1
	c2.2,0,4-0.3,5.4-0.3L28.1,420.9z M45.4,466.1h5.9v-31.7l0,0c1,1.4,2.2,2.6,3.6,3.6c1.2,1,2.6,1.8,4,2.4c1.4,0.6,2.8,1.1,4.3,1.4
	c1.4,0.3,2.8,0.4,4.2,0.4c3,0,5.9-0.5,8.7-1.6c2.6-1,4.9-2.5,6.9-4.5c2-2,3.5-4.3,4.5-6.9c2.1-5.5,2.1-11.5,0-17
	c-1-2.6-2.5-4.9-4.5-6.9c-2-1.9-4.3-3.5-6.9-4.5c-2.8-1.1-5.7-1.6-8.7-1.6c-1.4,0-2.8,0.1-4.2,0.4c-1.5,0.3-2.9,0.8-4.3,1.4
	c-1.4,0.7-2.8,1.5-4,2.4c-1.4,1-2.6,2.2-3.6,3.6l0,0v-6.9h-5.9V466.1z M81.3,427.1c-0.7,1.9-1.7,3.6-3.1,5.1c-1.3,1.5-3,2.7-4.8,3.6
	c-2,0.9-4.2,1.3-6.4,1.3c-2.2,0-4.4-0.4-6.5-1.3c-1.9-0.9-3.7-2.1-5.1-3.6c-1.5-1.4-2.8-3.2-3.6-5.1c-1.7-4.1-1.7-8.6,0-12.7
	c0.8-1.9,2.1-3.7,3.6-5.1c1.5-1.5,3.2-2.7,5.1-3.6c2.1-0.8,4.3-1.3,6.5-1.2c2.2,0,4.4,0.4,6.4,1.2c1.8,0.9,3.5,2.1,4.8,3.6
	c1.4,1.5,2.4,3.2,3.1,5.1C82.8,418.5,82.8,423,81.3,427.1L81.3,427.1z M96.6,466.1h5.7v-31.7h0.4c1,1.4,2.2,2.6,3.6,3.6
	c1.2,1,2.6,1.8,4,2.4c1.4,0.6,2.8,1.1,4.3,1.4c1.4,0.3,2.8,0.4,4.2,0.4c3,0,5.9-0.5,8.7-1.6c2.6-1,4.9-2.5,6.9-4.5
	c2-2,3.5-4.3,4.5-6.9c2.1-5.5,2.1-11.5,0-17c-1-2.6-2.5-4.9-4.5-6.9c-2-1.9-4.3-3.5-6.9-4.5c-2.8-1.1-5.7-1.6-8.7-1.6
	c-1.4,0-2.8,0.1-4.2,0.4c-1.6,0.3-3.2,0.7-4.7,1.4c-1.4,0.7-2.8,1.5-4,2.4c-1.4,1-2.6,2.2-3.6,3.6h0.1v-6.9h-5.7L96.6,466.1z
	 M132.6,427.1c-0.7,1.9-1.7,3.6-3.1,5.1c-1.3,1.5-3,2.7-4.8,3.6c-2,0.9-4.2,1.3-6.4,1.3c-2.2,0-4.4-0.4-6.5-1.3
	c-1.9-0.9-3.7-2.1-5.1-3.6c-1.5-1.4-2.8-3.2-3.6-5.1c-1.7-4.1-1.7-8.6,0-12.7c0.8-1.9,2.1-3.7,3.6-5.1c1.5-1.5,3.2-2.7,5.1-3.6
	c2.1-0.8,4.3-1.3,6.5-1.2c2.2,0,4.4,0.4,6.4,1.2c1.8,0.9,3.5,2.1,4.8,3.6c1.4,1.5,2.4,3.2,3.1,5.1c1.5,4.1,1.5,8.6,0.1,12.7
	L132.6,427.1z M185.7,422.4v-2.6c0-2.7-0.4-5.3-1.3-7.8c-0.8-2.4-2.1-4.6-3.8-6.4c-1.7-1.9-3.7-3.3-6-4.4c-2.6-1.1-5.4-1.7-8.2-1.6
	c-2.8,0-5.5,0.5-8.1,1.6c-2.4,1-4.7,2.6-6.5,4.5c-1.9,2-3.4,4.3-4.4,6.9c-1.1,2.7-1.6,5.6-1.6,8.5c0,2.9,0.5,5.8,1.6,8.5
	c1,2.6,2.5,4.9,4.4,6.9c1.9,1.9,4.1,3.5,6.7,4.5c2.7,1.1,5.5,1.6,8.4,1.6c3.2,0,6.5-0.7,9.4-2c3.2-1.5,5.9-3.8,8-6.6l-4.5-3.6
	c-1.3,2-3,3.7-5.1,4.9c-2.4,1.5-5.1,2.2-7.9,2.1c-1.9,0-3.9-0.4-5.6-1.2c-1.7-0.7-3.3-1.8-4.6-3.1c-1.4-1.3-2.5-2.9-3.2-4.6
	c-0.8-1.8-1.3-3.8-1.5-5.8L185.7,422.4z M152.1,417.6c0-1.7,0.4-3.3,1.2-4.9c0.8-1.6,1.8-3,3.1-4.2c1.3-1.2,2.9-2.2,4.5-2.9
	c1.7-0.7,3.5-1.1,5.4-1.1c3.6-0.2,7.1,1.1,9.7,3.6c2.4,2.5,3.7,5.9,3.6,9.4L152.1,417.6z M188,441.1h7.2l13.1-17.8l13.8,17.8h7.8
	l-17-21.6l14.2-18.9h-7.2l-10.8,15.2l-11.3-15.2h-7.6l14.7,18.9L188,441.1z M268.7,406.6c-1.9-2.3-4.2-4.1-6.9-5.3
	c-2.5-1.1-5.2-1.7-8-1.8c-3.1-0.1-6.1,0.4-9,1.5c-2.6,1-4.9,2.5-6.9,4.5c-1.9,2-3.4,4.3-4.3,6.9c-1,2.7-1.5,5.7-1.5,8.6
	c0,2.8,0.5,5.6,1.4,8.3c0.9,2.6,2.4,4.9,4.3,6.9c2,2,4.3,3.5,6.9,4.5c2.8,1.1,5.9,1.6,9,1.5c2.8-0.1,5.5-0.7,8-1.8
	c2.7-1.2,5-3,6.9-5.3l-4.7-3.6c-1.1,1.6-2.5,2.9-4.2,3.8c-1.8,1.1-3.9,1.6-6,1.6c-2.2,0.1-4.4-0.3-6.4-1.2c-1.9-0.8-3.5-2.1-4.8-3.6
	c-1.3-1.5-2.4-3.2-3-5.1c-1.4-4.2-1.4-8.7,0-12.9c0.7-1.9,1.7-3.7,3-5.2c1.3-1.5,3-2.8,4.8-3.6c2-0.8,4.2-1.2,6.4-1.1
	c2.1,0,4.2,0.5,6,1.6c1.7,0.9,3.1,2.2,4.2,3.8L268.7,406.6z M274.5,441.1h5.7v-20.7c-0.1-3,0.5-6,1.8-8.7c1-1.9,2.4-3.6,4.1-4.9
	c1.2-0.9,2.7-1.6,4.2-1.9c0.8-0.2,1.6-0.3,2.4-0.3c3.3-0.4,6.6,1,8.7,3.6c1.7,3.1,2.6,6.7,2.3,10.3V441h5.9v-25.8
	c0.3-4.2-1-8.4-3.6-11.8c-3.1-3-7.3-4.5-11.5-4.1c-1.4,0-2.7,0.2-4.1,0.5c-1.3,0.4-2.6,0.9-3.8,1.6c-1.3,0.6-2.5,1.4-3.6,2.4
	c-1,0.9-1.8,1.9-2.4,3h-0.2v-31.5h-5.7L274.5,441.1z M344.2,416.2c-2.7,0-5.4,0.1-8,0.4c-2.8,0.2-5.6,0.8-8.2,1.7
	c-2.4,0.8-4.6,2.3-6.4,4.2c-1.8,2.2-2.7,5-2.6,7.8c0,1.8,0.4,3.6,1.2,5.2c0.8,1.4,1.8,2.6,3.1,3.6c1.3,1,2.9,1.8,4.5,2.2
	c1.7,0.5,3.4,0.8,5.2,0.8c2.9,0.1,5.8-0.5,8.4-1.8c2.5-1.4,4.6-3.4,6-5.9l0,0v3.6c0,1.1,0.2,2.1,0.4,3.2h5.5c0-1.1-0.3-2.5-0.4-4.2
	c-0.1-1.7-0.3-3.6-0.3-4.9v-18.3c0.1-2.2-0.4-4.4-1.2-6.4c-0.7-1.7-1.8-3.2-3.2-4.5c-1.4-1.2-3-2.1-4.7-2.7
	c-1.8-0.6-3.8-0.9-5.7-0.9c-6.3-0.5-12.5,1.6-17.2,5.9l3.6,4.1c3.4-3.1,7.8-4.8,12.4-4.8c5.1-0.6,9.7,3,10.3,8.1
	c0.1,0.7,0.1,1.5,0,2.2v1L344.2,416.2z M347.1,420.8v2.9c0,1.7-0.3,3.4-0.8,5.1c-0.4,1.5-1.2,3-2.3,4.2c-1.1,1.2-2.4,2.2-3.8,2.9
	c-1.7,0.7-3.6,1.1-5.4,1c-1.2,0-2.4-0.1-3.6-0.4c-1.1-0.3-2.1-0.7-3.1-1.3c-0.9-0.6-1.7-1.4-2.2-2.3c-0.6-1.1-0.9-2.3-0.8-3.6
	c-0.1-1.8,0.7-3.6,2.1-4.8c1.5-1.2,3.2-2.1,5.1-2.6c2-0.6,4.1-0.9,6.2-1c2.2,0,4-0.3,5.4-0.3L347.1,420.8z M363.9,400.5
	c0,1.5,0.3,3.1,0.3,4.8c0.1,1.7,0,3.1,0,4.2v31.7h5.7v-20.7c-0.1-3,0.5-6,1.8-8.7c0.9-1.9,2.3-3.6,4-4.9c1.2-0.9,2.7-1.6,4.2-1.9
	c0.8-0.2,1.6-0.3,2.4-0.3c3.3-0.4,6.6,1,8.7,3.6c1.7,3.1,2.6,6.7,2.3,10.3V441h5.6v-25.8c0.3-4.2-1-8.4-3.6-11.8
	c-3.1-3-7.3-4.5-11.5-4.1c-1.4,0-2.7,0.2-4.1,0.5c-1.3,0.4-2.6,0.9-3.8,1.6c-1.3,0.6-2.5,1.4-3.6,2.4c-1,0.9-1.8,1.9-2.4,3h-0.2
	v-3.3c0-1.1,0-2.2-0.3-3.3L363.9,400.5z M409.7,453.8c2.4,2.6,5.3,4.7,8.6,6.1c3.4,1.4,7.1,2.1,10.8,2c3.8,0.2,7.6-0.5,11.1-2
	c2.6-1.2,4.9-3,6.7-5.2c1.6-2,2.7-4.4,3.2-6.9c0.5-2.3,0.8-4.6,0.8-6.9v-40.4h-5.7v6.9l0,0c-1-1.4-2.2-2.8-3.6-3.9
	c-1.3-1-2.6-1.8-4.1-2.4c-1.3-0.5-2.7-0.9-4.1-1.2c-1.2-0.2-2.4-0.3-3.6-0.3c-2.8,0-5.7,0.5-8.3,1.6c-2.5,1-4.7,2.5-6.5,4.5
	c-3.8,4-5.9,9.4-5.9,15c0,2.8,0.5,5.6,1.7,8.2c1,2.5,2.6,4.7,4.5,6.6c2,1.9,4.3,3.3,6.9,4.3c2.6,1.1,5.4,1.6,8.3,1.6
	c2.9,0,5.8-0.6,8.5-1.7c2.8-1.3,5.2-3.3,6.9-5.9l0,0v7.2c0,2.1-0.3,4.2-0.8,6.2c-0.5,1.9-1.4,3.6-2.7,5.1c-1.3,1.6-3,2.8-4.9,3.6
	c-2.4,0.9-4.9,1.3-7.4,1.3c-3.1,0-6.2-0.7-9-2c-2.6-1.3-4.8-3.1-6.5-5.4L409.7,453.8z M416.2,414.2c1.5-3.7,4.4-6.7,8-8.3
	c1.9-0.8,3.9-1.2,6-1.2c2.2,0,4.4,0.4,6.4,1.2c3.7,1.6,6.5,4.6,7.9,8.3c0.7,1.9,1.1,4,1,6.1c0.1,2.2-0.3,4.4-1.1,6.4
	c-0.8,1.9-2,3.5-3.6,4.9c-1.4,1.4-3.1,2.4-5,3.2c-1.9,0.8-3.9,1.2-5.9,1.2c-2.1,0-4.1-0.4-6-1.3c-1.8-0.9-3.4-2.1-4.8-3.6
	c-2.9-2.9-4.4-6.9-4.4-11c0-2.1,0.5-4.1,1.3-6L416.2,414.2z M500,422.4v-2.6c0-2.7-0.4-5.3-1.3-7.8c-0.8-2.4-2.1-4.6-3.8-6.4
	c-1.7-1.9-3.8-3.4-6.1-4.4c-2.6-1.1-5.4-1.7-8.2-1.6c-2.8,0-5.5,0.5-8.1,1.6c-2.4,1-4.7,2.6-6.5,4.5c-1.9,2-3.4,4.3-4.4,6.9
	c-1.1,2.7-1.6,5.6-1.6,8.5c0,2.9,0.5,5.8,1.6,8.5c1,2.6,2.5,4.9,4.4,6.9c1.9,1.9,4.1,3.5,6.7,4.5c2.7,1.1,5.5,1.6,8.4,1.6
	c3.2,0,6.5-0.7,9.4-2c3.2-1.5,5.9-3.8,8-6.6l-4.5-3.6c-1.3,2-3,3.7-5.1,4.9c-2.4,1.5-5.1,2.2-7.9,2.1c-1.9,0-3.9-0.4-5.6-1.2
	c-1.7-0.7-3.3-1.8-4.6-3.1c-1.4-1.3-2.5-2.9-3.2-4.6c-0.8-1.8-1.3-3.7-1.5-5.7L500,422.4z M466.3,417.6c0-1.7,0.4-3.3,1.2-4.9
	c0.8-1.6,1.8-3,3.1-4.2c1.3-1.2,2.9-2.2,4.5-2.9c1.7-0.7,3.5-1.1,5.4-1.1c3.6-0.2,7.1,1.1,9.7,3.6c2.4,2.5,3.7,5.9,3.6,9.4
	L466.3,417.6z"/>
</svg>
