<svg xmlns="http://www.w3.org/2000/svg" viewBox="0 0 13.96 13.94"><title>Asset 6</title><g id="Layer_2" data-name="Layer 2"><g id="Icons"><path d="M3.45,12.32H3.18A.23.23,0,0,1,2.95,12a.23.23,0,0,1,.25-.18h.53a.25.25,0,0,1,.26.26,1.07,1.07,0,0,1-.51,1.07A1,1,0,0,1,2,12.61a1.46,1.46,0,0,1,.05-1.2,1,1,0,0,1,.82-.55,1.09,1.09,0,0,1,.75.17.35.35,0,0,1,.18.32.2.2,0,0,1-.29.17l-.18-.1a.66.66,0,0,0-.42-.09.52.52,0,0,0-.45.42,1,1,0,0,0,.07.76.5.5,0,0,0,.58.26A.42.42,0,0,0,3.45,12.32Zm5.61-.75a.23.23,0,0,0-.24-.08.19.19,0,0,0-.15.17,1.15,1.15,0,0,0,0,.2q0,.85,0,1.69a.91.91,0,0,0,0,.21.21.21,0,0,0,.26.17.22.22,0,0,0,.18-.22c0-.12,0-.25,0-.37s0-.13,0-.2l.06,0A.61.61,0,0,0,10,13.1a1.06,1.06,0,0,0,.14-1.29.65.65,0,0,0-.64-.33,1.76,1.76,0,0,0-.37.13Zm.09.58a.3.3,0,0,1,.57,0,.57.57,0,0,1,0,.51.29.29,0,0,1-.27.18.28.28,0,0,1-.27-.18,1.71,1.71,0,0,1-.07-.25A1.81,1.81,0,0,1,9.15,12.15Zm1.7-.57a.23.23,0,0,0-.24-.09.2.2,0,0,0-.16.17.64.64,0,0,0,0,.16q0,.88,0,1.76a.79.79,0,0,0,0,.22.19.19,0,0,0,.19.14c.15,0,.24-.09.24-.26s0-.29,0-.43,0-.06,0-.1l0,0a.62.62,0,0,0,.82-.1,1.05,1.05,0,0,0,0-1.36.62.62,0,0,0-.88-.08h0Zm.64,1.07a.27.27,0,0,1-.26.16.29.29,0,0,1-.26-.16.6.6,0,0,1,0-.43.33.33,0,0,1,.33-.28.36.36,0,0,1,.31.33s0,.07,0,.11h0A2,2,0,0,1,11.49,12.65Zm-4.7.61c.11,0,.2,0,.26-.16a1.71,1.71,0,0,0,.08-.23.09.09,0,0,1,.1-.08h.67a.09.09,0,0,1,.1.08,1.77,1.77,0,0,0,.08.25.23.23,0,0,0,.3.14A.23.23,0,0,0,8.54,13a1.08,1.08,0,0,0,0-.17l-.25-.75c-.11-.31-.21-.61-.32-.92a.35.35,0,0,0-.45-.22.44.44,0,0,0-.25.3L6.7,12.69c0,.1-.06.2-.08.26S6.68,13.23,6.79,13.26Zm.5-.94.27-.84h0l.25.84Zm-2.62.19h.77c.18,0,.22,0,.22-.23a.9.9,0,0,0,0-.18.78.78,0,0,0-1.17-.52.93.93,0,0,0-.37,1.08.86.86,0,0,0,1.3.49.69.69,0,0,0,.2-.19.2.2,0,0,0,0-.24.18.18,0,0,0-.22,0,1.46,1.46,0,0,1-.19.08,1.1,1.1,0,0,1-.29.05.31.31,0,0,1-.32-.32Zm-.12-.32a.33.33,0,0,1,.34-.32.31.31,0,0,1,.3.32Zm1.81-1a.2.2,0,0,0-.21-.2.2.2,0,0,0-.22.19,1.69,1.69,0,0,0,0,.28c0,.08,0,.12-.11.13a.19.19,0,0,0-.19.22.2.2,0,0,0,.2.19c.07,0,.09,0,.09.1q0,.41,0,.82a.93.93,0,0,0,0,.2.22.22,0,0,0,.43,0,.87.87,0,0,0,0-.2c0-.24,0-.48,0-.72a.37.37,0,0,1,0-.17s.1,0,.15,0,.19-.09.19-.2a.21.21,0,0,0-.18-.21l-.16,0C6.4,11.39,6.39,11.26,6.38,11.14Zm7.58-5a2.92,2.92,0,0,1-1.64,2.51h0c-.12.61-1,.94-1.09,1a3.12,3.12,0,0,1-.9.1,2.19,2.19,0,0,1-.75-.08l-.1,0A1.9,1.9,0,0,1,9,9.43a2.69,2.69,0,0,1-.87.45A4.37,4.37,0,0,1,6.88,10a3.32,3.32,0,0,1-1-.1l-.14,0a2.36,2.36,0,0,1-.85-.42,1.4,1.4,0,0,1-.38.17,3.27,3.27,0,0,1-.91.1,2.19,2.19,0,0,1-.75-.08l-.1,0c-.2,0-1-.37-1.09-1A2.92,2.92,0,0,1,0,6.15a3.31,3.31,0,0,1,3.28-3,.34.34,0,0,1,0-.1C3.27,1.36,4.93,0,7,0s3.71,1.36,3.71,3a.34.34,0,0,1,0,.1A3.31,3.31,0,0,1,14,6.15ZM4.94,9l0,0a0,0,0,0,1,0,0Zm7-.78-.14-1.38a.69.69,0,0,0-.65-.7h-.4a1.13,1.13,0,0,0,.64-.84h0a1,1,0,0,0,0-.17,1.12,1.12,0,0,0-1-1.11h-.17A1.12,1.12,0,0,0,9.19,5.12a1,1,0,0,0,0,.17h0a.74.74,0,0,0,0,.14,1.13,1.13,0,0,0,.6.7h-.4l-.08,0a.75.75,0,0,0-.29.16V6.19a.91.91,0,0,0-.18-.56.05.05,0,0,0,0,0,1,1,0,0,0-.78-.39h-.5a1.62,1.62,0,0,0,.91-1.27.91.91,0,0,0,0-.17,1.24,1.24,0,0,0,0-.27A1.59,1.59,0,0,0,6.89,2.15,1.61,1.61,0,0,0,5.32,3.41a1.34,1.34,0,0,0,0,.35.92.92,0,0,0,0,.17A1.62,1.62,0,0,0,6.2,5.2H5.75A1,1,0,0,0,5,5.6a.94.94,0,0,0-.2.59v.07a.61.61,0,0,0-.29-.11H4a1.12,1.12,0,0,0,.62-.75s0-.06,0-.09h0a1,1,0,0,0,0-.17A1.12,1.12,0,0,0,3.55,4H3.47a1.11,1.11,0,0,0-1,1.11,1,1,0,0,0,0,.17h0a1.13,1.13,0,0,0,.64.84H2.68a.71.71,0,0,0-.56.69L2,8.22a.36.36,0,0,0,0,.11c.1.34.61.58.82.63a1.81,1.81,0,0,0,.76.1A2.5,2.5,0,0,0,4.41,9a1.73,1.73,0,0,0,.32-.13l.17-.12.19.16.09.06.2.12a2.28,2.28,0,0,0,.42.17,3,3,0,0,0,1.09.13,4,4,0,0,0,1.18-.13A1.68,1.68,0,0,0,8.53,9l.18-.12.11-.08L9,8.67l.17.12a2,2,0,0,0,.3.14h0a.32.32,0,0,0,.09,0,1.78,1.78,0,0,0,.76.1,2.5,2.5,0,0,0,.83-.1c.14,0,.7-.29.81-.63A.36.36,0,0,0,12,8.22Z"/></g></g></svg>