<?xml version="1.0" encoding="UTF-8" standalone="no"?>
<svg width="14px" height="14px" viewBox="0 0 14 14" version="1.1" xmlns="http://www.w3.org/2000/svg" xmlns:xlink="http://www.w3.org/1999/xlink">
    <!-- Generator: Sketch 3.8.2 (29753) - http://www.bohemiancoding.com/sketch -->
    <title>118-stage-getapp</title>
    <desc>Created with Sketch.</desc>
    <defs></defs>
    <g id="Page-1" stroke="none" stroke-width="1" fill="none" fill-rule="evenodd">
        <g id="118-stage-getapp" fill="#000000">
            <g id="Layer_2">
                <g id="Icons">
                    <path d="M3.45,12.32 L3.18,12.32 C3.09960202,12.3265457 3.02165085,12.2904952 2.97457243,12.2249948 C2.92749401,12.1594944 2.9181698,12.0741183 2.95,12 C2.97491053,11.8848115 3.082858,11.8070893 3.2,11.82 L3.73,11.82 C3.79979165,11.8171477 3.86759387,11.8436234 3.91698521,11.8930148 C3.96637655,11.9424061 3.99285226,12.0102084 3.99,12.08 C4.05113137,12.5068478 3.85007165,12.9286789 3.48,13.15 C3.21888567,13.3127035 2.89741185,13.3461579 2.60839157,13.2407046 C2.31937129,13.1352512 2.09497929,12.9026296 2,12.61 C1.84375079,12.2213483 1.86196087,11.7843063 2.05,11.41 C2.20745577,11.0951002 2.51890502,10.8862013 2.87,10.86 C3.13235101,10.8236648 3.39895669,10.8840954 3.62,11.03 C3.73562155,11.09411 3.80525252,11.2178984 3.8,11.35 C3.79710734,11.4178873 3.75994461,11.4796623 3.70132521,11.5140254 C3.64270581,11.5483885 3.57064925,11.5506386 3.51,11.52 L3.33,11.42 C3.20395158,11.3440081 3.05611889,11.3123297 2.91,11.33 C2.68434834,11.3566477 2.50212809,11.5267199 2.46,11.75 C2.38193978,12.0026251 2.40710833,12.2758836 2.53,12.51 C2.63628509,12.7242111 2.87936757,12.8331791 3.11,12.77 C3.32217162,12.7297211 3.46921525,12.5351045 3.45,12.32 L3.45,12.32 Z M9.06,11.57 C9.00316712,11.4977801 8.90879826,11.4663238 8.82,11.49 C8.73796539,11.5073594 8.67700985,11.5764423 8.67,11.66 C8.6641919,11.7265402 8.6641919,11.7934598 8.67,11.86 L8.67,13.55 C8.66189601,13.6197654 8.66189601,13.6902346 8.67,13.76 C8.67937433,13.8183849 8.71292971,13.8701119 8.762422,13.9024722 C8.81191428,13.9348326 8.87275633,13.944827 8.93,13.93 C9.035681,13.910475 9.11178853,13.8174546 9.11,13.71 L9.11,13.34 L9.11,13.14 L9.17,13.14 C9.41437468,13.3463074 9.77659681,13.3288509 10,13.1 C10.3351466,12.7521295 10.3927159,12.2216695 10.14,11.81 C10.012651,11.5810888 9.76033931,11.4509906 9.5,11.48 C9.37220882,11.5094142 9.24810524,11.5530181 9.13,11.61 L9.06,11.57 Z M9.15,12.15 C9.19046508,12.0268876 9.30540804,11.943675 9.435,11.943675 C9.56459196,11.943675 9.67953492,12.0268876 9.72,12.15 C9.80029418,12.3105189 9.80029418,12.4994811 9.72,12.66 C9.67513348,12.7694506 9.56828766,12.8406811 9.45,12.84 C9.33086197,12.8435833 9.22251466,12.7713518 9.18,12.66 C9.15036533,12.5785609 9.12696458,12.4949867 9.11,12.41 C9.11700944,12.3224779 9.13037807,12.2355818 9.15,12.15 L9.15,12.15 Z M10.85,11.58 C10.79568,11.5040716 10.7008516,11.468511 10.61,11.49 C10.5256961,11.5064319 10.4612971,11.5748559 10.45,11.66 C10.4433071,11.7131234 10.4433071,11.7668766 10.45,11.82 L10.45,13.58 C10.4397391,13.6529744 10.4397391,13.7270256 10.45,13.8 C10.473158,13.8851125 10.5518475,13.9430943 10.64,13.94 C10.79,13.94 10.88,13.85 10.88,13.68 L10.88,13.25 L10.88,13.15 L10.88,13.15 C11.138971,13.3301283 11.4919089,13.2870871 11.7,13.05 C12.03325,12.6579105 12.03325,12.0820895 11.7,11.69 C11.5946571,11.5615634 11.4421812,11.4807702 11.2767517,11.4657311 C11.1113222,11.4506921 10.9467767,11.5026652 10.82,11.61 L10.82,11.61 L10.85,11.58 Z M11.49,12.65 C11.4446971,12.7519137 11.3413943,12.8154847 11.23,12.81 C11.1200028,12.810292 11.0193089,12.7483265 10.97,12.65 C10.916875,12.5115892 10.916875,12.3584108 10.97,12.22 C10.9948981,12.0574964 11.135611,11.9381037 11.3,11.94 C11.468231,11.9631192 11.5974301,12.1006537 11.61,12.27 L11.61,12.38 L11.61,12.38 C11.5767118,12.4728356 11.5366024,12.5630818 11.49,12.65 L11.49,12.65 Z M6.79,13.26 C6.9,13.26 6.99,13.26 7.05,13.1 C7.08209865,13.0253319 7.10883309,12.9484704 7.13,12.87 C7.13250953,12.8460692 7.14449732,12.8241397 7.16328663,12.8091083 C7.18207594,12.7940768 7.20610197,12.7871952 7.23,12.79 L7.9,12.79 C7.92389803,12.7871952 7.94792406,12.7940768 7.96671337,12.8091083 C7.98550268,12.8241397 7.99749047,12.8460692 8,12.87 C8.0204423,12.9551985 8.04718247,13.0387616 8.08,13.12 C8.10027863,13.1790476 8.1436903,13.2273144 8.20026574,13.2537163 C8.25684118,13.2801182 8.32171887,13.2823864 8.38,13.26 C8.4914543,13.2263237 8.56016323,13.1146717 8.54,13 C8.5444668,12.9434214 8.5444668,12.8865786 8.54,12.83 L8.29,12.08 C8.18,11.77 8.08,11.47 7.97,11.16 C7.94046245,11.070459 7.87604747,10.9966227 7.79134138,10.9552108 C7.7066353,10.9137989 7.60880375,10.9083147 7.52,10.94 C7.39442401,10.9955169 7.30196194,11.1064714 7.27,11.24 L6.7,12.69 C6.7,12.79 6.64,12.89 6.62,12.95 C6.6,13.01 6.68,13.23 6.79,13.26 L6.79,13.26 Z M7.29,12.32 L7.56,11.48 L7.56,11.48 L7.81,12.32 L7.29,12.32 Z M4.67,12.51 L5.44,12.51 C5.62,12.51 5.66,12.51 5.66,12.28 C5.66601508,12.2201508 5.66601508,12.1598492 5.66,12.1 C5.61182631,11.8493371 5.44405602,11.6381043 5.21080558,11.5344375 C4.97755513,11.4307706 4.70834039,11.4477878 4.49,11.58 C4.1342227,11.8130443 3.98187088,12.257747 4.12,12.66 C4.19326758,12.9246689 4.38853105,13.1384312 4.64550574,13.2352909 C4.90248042,13.3321506 5.19026118,13.3004588 5.42,13.15 C5.49877643,13.1007749 5.5668024,13.0361502 5.62,12.96 C5.67333333,12.8888889 5.67333333,12.7911111 5.62,12.72 C5.55519937,12.6699708 5.46480063,12.6699708 5.4,12.72 C5.33863083,12.7511103 5.27513926,12.7778436 5.21,12.8 C5.1160091,12.8295802 5.0184698,12.8463974 4.92,12.85 C4.83429954,12.8528121 4.75126213,12.8200019 4.69063014,12.7593699 C4.62999815,12.6987379 4.59718786,12.6157005 4.6,12.53 L4.67,12.51 Z M4.55,12.19 C4.55261235,12.102465 4.58991145,12.0195581 4.65368279,11.959538 C4.71745414,11.8995179 4.80246746,11.8673073 4.89,11.87 C4.9722316,11.8726098 5.05005305,11.907801 5.10632294,11.9678222 C5.16259283,12.0278435 5.19269537,12.1077712 5.19,12.19 L4.55,12.19 Z M6.36,11.19 C6.36006857,11.1351777 6.33763009,11.0827307 6.29793119,11.0449222 C6.25823229,11.0071138 6.20475372,10.9872588 6.15,10.99 C6.09528499,10.9844449 6.0406969,11.0016659 5.99907445,11.0376125 C5.957452,11.0735592 5.93246854,11.1250592 5.93,11.18 C5.92225493,11.2731727 5.92225493,11.3668273 5.93,11.46 C5.93,11.54 5.93,11.58 5.82,11.59 C5.76395265,11.5892962 5.71045441,11.613376 5.67381786,11.6557972 C5.63718132,11.6982185 5.6211453,11.7546521 5.63,11.81 C5.63533326,11.9165334 5.7233333,12.0001334 5.83,12 C5.9,12 5.92,12 5.92,12.1 L5.92,12.92 C5.9128107,12.9864728 5.9128107,13.0535272 5.92,13.12 C5.94194711,13.221178 6.031469,13.2933631 6.135,13.2933631 C6.238531,13.2933631 6.32805289,13.221178 6.35,13.12 C6.35768831,13.053555 6.35768831,12.986445 6.35,12.92 L6.35,12.2 C6.33680554,12.1441014 6.33680554,12.0858986 6.35,12.03 L6.5,12.03 C6.55,12.03 6.69,11.94 6.69,11.83 C6.69107834,11.7247924 6.61413477,11.6350249 6.51,11.62 L6.35,11.62 C6.4,11.39 6.39,11.26 6.38,11.14 L6.36,11.19 Z M13.94,6.19 C13.8974074,7.26488167 13.2672742,8.22929277 12.3,8.7 L12.3,8.7 C12.18,9.31 11.3,9.64 11.21,9.7 C10.9164593,9.77692312 10.6132667,9.81061119 10.31,9.8 C10.0572547,9.81690906 9.80349193,9.78984103 9.56,9.72 L9.46,9.72 C9.29355516,9.64588897 9.13863558,9.54822227 9,9.43 C8.7399831,9.63197866 8.44509554,9.78450671 8.13,9.88 C7.72128327,9.97996948 7.30027092,10.0203867 6.88,10 C6.54352349,10.0176033 6.20632781,9.98388369 5.88,9.9 L5.74,9.9 C5.43117259,9.81894038 5.14200491,9.67605753 4.89,9.48 C4.77251322,9.55528756 4.6444309,9.61258754 4.51,9.65 C4.21285647,9.7258395 3.90652179,9.75950265 3.6,9.75 C3.34725472,9.76690906 3.09349193,9.73984103 2.85,9.67 L2.75,9.67 C2.55,9.67 1.75,9.3 1.66,8.67 C0.681870728,8.20316812 0.0427765367,7.23297694 0,6.15 C0.159388889,4.45541929 1.57795845,3.15794713 3.28,3.15 C3.27507125,3.11684886 3.27507125,3.08315114 3.28,3.05 C3.27,1.36 4.93,0 7,0 C9.07,0 10.71,1.36 10.71,3 C10.7149288,3.03315114 10.7149288,3.06684886 10.71,3.1 C12.4334717,3.10508914 13.8646285,4.43184542 14,6.15 L13.94,6.19 Z M11.94,8.22 L11.8,6.84 C11.8059799,6.47016185 11.5192672,6.16139435 11.15,6.14 L10.75,6.14 C11.0890948,5.98303734 11.3286709,5.66859368 11.39,5.3 L11.39,5.3 C11.3948254,5.24343606 11.3948254,5.18656394 11.39,5.13 C11.3881891,4.55924759 10.9574701,4.08114948 10.39,4.02 L10.22,4.02 C9.64444471,4.06633782 9.19844872,4.54264421 9.19,5.12 C9.1851746,5.17656394 9.1851746,5.23343606 9.19,5.29 L9.19,5.29 C9.18557567,5.3365618 9.18557567,5.3834382 9.19,5.43 C9.28138945,5.7380217 9.49957929,5.99257652 9.79,6.13 L9.39,6.13 L9.31,6.13 C9.20261772,6.16105556 9.10353528,6.21572174 9.02,6.29 L9.02,6.19 C9.02364799,5.98855398 8.96033911,5.79159302 8.84,5.63 C8.6533641,5.38750733 8.36597568,5.24381311 8.06,5.24 L7.56,5.24 C8.0609165,5.00057021 8.40433071,4.52129983 8.47,3.97 C8.47530464,3.91345748 8.47530464,3.85654252 8.47,3.8 C8.4798276,3.71026828 8.4798276,3.61973172 8.47,3.53 C8.3645451,2.73853177 7.68846027,2.1480273 6.89,2.15 C6.13624019,2.15070051 5.48386057,2.67426632 5.32,3.41 C5.30469816,3.52616492 5.30469816,3.64383508 5.32,3.76 C5.31475327,3.81654522 5.31475327,3.87345478 5.32,3.93 C5.379556,4.47495997 5.71067867,4.95283018 6.2,5.2 L5.75,5.2 C5.45295403,5.21516113 5.17807292,5.36176439 5,5.6 C4.8682073,5.7682158 4.79766452,5.97631702 4.8,6.19 L4.8,6.26 C4.7144254,6.19895967 4.61452957,6.16106815 4.51,6.15 L4,6.15 C4.31014774,6.00752784 4.53840553,5.73140954 4.62,5.4 L4.62,5.31 L4.62,5.31 C4.6248254,5.25343606 4.6248254,5.19656394 4.62,5.14 C4.63144676,4.53273079 4.15677634,4.02700717 3.55,4 L3.47,4 C2.90028314,4.05673071 2.46718243,4.5374725 2.47,5.11 C2.4651746,5.16656394 2.4651746,5.22343606 2.47,5.28 L2.47,5.28 C2.53132908,5.64859368 2.7709052,5.96303734 3.11,6.12 L2.68,6.12 C2.3546789,6.19031152 2.12186408,6.47717263 2.12,6.81 L2,8.22 C1.99436507,8.25645017 1.99436507,8.29354983 2,8.33 C2.1,8.67 2.61,8.91 2.82,8.96 C3.06328853,9.04721071 3.32243261,9.08130861 3.58,9.06 C3.85807579,9.08651033 4.13862829,9.06622942 4.41,9 C4.52073622,8.96744994 4.62793703,8.92389961 4.73,8.87 L4.9,8.75 L5.09,8.91 L5.18,8.97 L5.38,9.09 C5.51400812,9.16047159 5.65470268,9.21741938 5.8,9.26 C6.15224548,9.37000362 6.52176355,9.41407459 6.89,9.39 C7.28760996,9.40560048 7.6853223,9.36178471 8.07,9.26 C8.23608794,9.19814006 8.39134111,9.11038827 8.53,9 L8.71,8.88 L8.82,8.8 L9,8.67 L9.17,8.79 C9.26595917,8.84487717 9.36630285,8.89170422 9.47,8.93 L9.47,8.93 C9.4998502,8.93423982 9.5301498,8.93423982 9.56,8.93 C9.80306421,9.01813366 10.0624105,9.05225818 10.32,9.03 C10.6003184,9.04348965 10.8809073,9.00968375 11.15,8.93 C11.29,8.93 11.85,8.64 11.96,8.3 C11.9766071,8.2750998 11.9900441,8.24822577 12,8.22 L11.94,8.22 Z" id="Shape"></path>
                </g>
            </g>
        </g>
    </g>
</svg>