<?xml version="1.0" encoding="utf-8"?>
<!-- Generator: Adobe Illustrator 20.0.0, SVG Export Plug-In . SVG Version: 6.00 Build 0)  -->
<svg version="1.1" id="Layer_1" xmlns="http://www.w3.org/2000/svg" xmlns:xlink="http://www.w3.org/1999/xlink" x="0px" y="0px"
	 width="500px" height="500px" viewBox="0 0 500 500" enable-background="new 0 0 500 500" xml:space="preserve">
<title>006-stage-getapp</title>
<path d="M123.6,441.5c-3.2,0-6.4,0-9.6,0c-4.5,0.3-8.3-3-8.7-7.5c-0.1-0.9,0-1.8,0.2-2.7c0.8-4.2,4.7-7,8.9-6.6
	c6.3-0.3,12.7-0.3,19.1,0c5-0.2,9.2,3.7,9.4,8.8c0,0.1,0,0.3,0,0.4c2.2,15.3-5.1,30.4-18.4,38.3c-17.5,9.7-39.6,3.5-49.3-14
	c-1.1-1.9-2-4-2.7-6.1c-5.5-13.9-4.9-29.6,1.9-43c5.4-11.5,16.8-19.1,29.5-19.6c9.4-1.4,19,0.8,27,5.9c4.2,2.3,6.7,6.8,6.4,11.6
	c0,4-3.3,7.1-7.2,7.1c-1.1,0-2.3-0.3-3.3-0.8c-2.2-1-4.3-2.3-6.4-3.6c-4.4-2.7-9.7-3.9-14.9-3.4c-8.1,1-14.5,7.1-16,15
	c-2.7,9-1.9,18.7,2.4,27.1c3.8,7.7,12.5,11.7,20.8,9.4C119.9,456,124.6,449,123.6,441.5z"/>
<path d="M361.7,423.2c-4.6-8.2-13.6-12.9-22.9-11.8c-4.5,1.3-9,3-13.3,5c0-0.4-0.7-1.1-1.1-1.8c-2.2-2.4-5.5-3.3-8.6-2.5
	c-3,0.5-5.2,3.1-5.4,6.1c-0.4,2.4-0.7,4.8-0.7,7.2c-0.4,20.1-0.4,40.5-0.4,60.5c0,2.5,0.4,5.1,1.1,7.5c0.7,4.1,4.6,6.9,8.8,6.2
	c0.2,0,0.4-0.1,0.5-0.1c3.9-0.7,6.7-4.3,6.4-8.2c0.4-4.3,0.4-8.6,0.4-13.3v-7.2c1.1,0.7,1.8,0.7,2.1,1.1c8.7,6.1,20.5,5,27.9-2.5
	C368.8,457,370.8,438,361.7,423.2z M347.8,452.6c-2.2,5.3-8.3,7.9-13.7,5.7c-2.6-1.1-4.6-3.1-5.7-5.7c-1.5-2.9-2.2-6.1-2.1-9.3
	c0-2.7,0.5-5.4,1.4-7.9c1.4-4.5,5.4-7.6,10-7.9c4.6,0,8.7,2.9,10.4,7.2C350.9,440.4,350.8,447,347.8,452.6z"/>
<path d="M423,419.3c-7.7-9.4-21.5-10.7-30.9-3c-0.2,0.2-0.4,0.3-0.6,0.5c-0.4,0-0.8,0.1-1.1,0.4c-0.6-0.6-1.1-1.4-1.4-2.1
	c-2.2-2.6-5.7-3.8-9-2.9c-3.2,0.4-4.7,3.2-5.4,6.1c-0.6,1.8-0.9,3.8-0.7,5.7c-0.4,20.8-0.4,41.9-0.4,62.7c0.1,2.7,0.6,5.3,1.4,7.9
	c0.7,3.2,3.6,5.3,6.8,5c5.4,0,8.6-3.2,8.6-9.7c0.4-5,0.4-10,0.4-15.4v-3.6c0.7,0.2,1.3,0.6,1.8,1.1c9.3,6.5,21.9,4.9,29.4-3.6
	C434.2,454.5,434.7,433.7,423,419.3z M411.5,453.3c-1.6,3.7-5.3,6-9.3,5.7c-4,0.1-7.8-2.2-9.7-5.7c-2.2-4.8-2.7-10.3-1.4-15.4
	c0.8-5.8,5.6-10.2,11.5-10.4c5.9,1,10.5,5.8,11.1,11.8c-0.1,1.3,0.1,2.6,0.4,3.9C413.6,446.7,412.8,450.1,411.5,453.3z"/>
<path d="M304.4,458.7c-3.2-8.6-6.1-17.6-9.3-26.5c-3.6-11.1-7.2-22.2-11.1-33c-2.2-6.7-9.4-10.4-16.1-8.2c-4.5,2.1-7.9,6-9.3,10.7
	c-6.1,17.9-12.5,35.5-18.6,53c-1.4,3.6-2.1,7.2-2.9,9.3c-1.1,4.7,1.5,9.5,6.1,11.1c4.2,0.8,8.4-1.6,9.7-5.7c1.1-2.9,1.8-5.7,2.9-8.6
	c0.2-1.7,1.6-2.9,3.2-2.9c8.2,0.4,16.1,0.4,24.4,0c2.1,0,2.9,1.1,3.6,2.9c0.6,3.1,1.5,6.1,2.9,9c1.7,4.3,6.5,6.5,10.9,4.9
	c3.8-1.5,6.1-5.5,5.3-9.5C305.6,463,305.1,460.8,304.4,458.7z M261.5,441.1c3.2-10.4,6.4-20.4,9.7-30.1h0.7c2.9,9.7,6.1,19.7,9,30.1
	H261.5z"/>
<path d="M192.3,454.4c-2,1.3-4.2,2.2-6.4,2.9c-3.5,1.2-7.1,2-10.7,2.1c-6.3,0-11.4-5.1-11.5-11.5h31.5c6.4,0,8.2-1.8,7.9-8.2
	c0.1-2.2-0.1-4.4-0.7-6.4c-2.8-15-17.2-25-32.2-22.2c-3.3,0.6-6.5,1.8-9.3,3.6c-12.7,8.4-18.3,24.2-13.6,38.7
	c4.5,16.5,21.6,26.2,38.1,21.7c3-0.8,5.9-2.1,8.5-3.8c2.8-1.8,5.2-4.1,7.2-6.8c2.1-3.1,1.3-7.4-1.8-9.5
	C197.1,453.6,194.5,453.4,192.3,454.4z M175.9,425c6,0.4,10.6,5.5,10.4,11.5h-22.6c0.1-6.4,5.4-11.6,11.9-11.5
	C175.7,425,175.8,425,175.9,425z"/>
<path d="M228.5,399.1c0-4-3.2-7.2-7.2-7.2c-0.1,0-0.2,0-0.4,0c-3.9-0.4-7.5,2.4-7.9,6.3c0,0.2,0,0.4,0,0.6
	c-0.5,3.3-0.7,6.7-0.6,10.1c0,3-0.7,4.3-3.8,4.8c-3.8,0.1-6.8,3.2-6.7,7c0,0.2,0,0.5,0.1,0.7c0.1,3.9,3.3,6.9,7.2,6.9
	c2.7,0,3.1,1.3,3,3.6c0,9.7,0,19.5,0,29.2c0,2.4,0.3,4.8,0.8,7.2c1,4.2,5.3,6.8,9.5,5.8c2.9-0.7,5.1-2.9,5.8-5.8
	c0.5-2.3,0.8-4.8,0.8-7.2c0-8.6,0-17.2,0-25.7c-0.3-2.1-0.2-4.2,0.5-6.2c0.6-1.1,3.6-0.8,5.2-1.2c4.4-0.9,6.8-3.4,6.9-7.2
	c0-3.8-2.8-6.9-6.6-7.4c-1.8-0.4-3.6-0.6-5.8-1C229.2,408.2,229,403.6,228.5,399.1z"/>
<path d="M382.5,112.7c0.3-1.2,0.4-2.4,0.4-3.6C382.9,49,323.4,0.2,250,0.2S117.1,49,117.1,109.1c-0.1,1.2,0.1,2.4,0.4,3.6
	C56.4,113,5.6,159.7,0,220.5c1.5,38.5,24.1,73,58.7,89.9c3.2,21.5,31.9,33,39,34.7l3.6,0.7c8.7,2.5,17.8,3.5,26.9,2.9
	c11,0.3,22-0.9,32.6-3.6c4.8-1.3,9.4-3.4,13.6-6.1c9,7,19.4,12.1,30.4,15l5,1.4c11.9,3.1,24.2,4.3,36.5,3.6
	c15.2,0.5,30.4-1.2,45.1-5c11.3-3.4,21.8-8.9,31.2-16.1c5.2,3.1,10.7,5.5,16.5,7.2l3.6,0.7c8.7,2.5,17.8,3.5,26.9,2.9
	c10.9,0.4,21.7-0.8,32.2-3.6c5-1.1,34.7-12.9,39-34.7h0.4c34.6-16.9,57.2-51.4,58.7-89.9C494.4,159.7,443.6,113,382.5,112.7z
	 M428.4,298.6c-3.9,12.2-24,21.5-29,22.6c-9.6,2.9-19.7,4.1-29.7,3.6c-9.2,0.8-18.5-0.4-27.2-3.6c-1.1-0.2-2.2-0.6-3.2-1.1h-0.4
	c-3.7-1.4-7.3-3-10.7-5c-2.1-1.4-4.3-2.9-6.1-4.3c-1.8,1.8-3.9,3.6-6.1,5.4c-1.2,1-2.6,2-3.9,2.9l-6.4,4.3
	c-5.1,3.2-10.7,5.6-16.5,7.2c-13.8,3.7-28,5.2-42.3,4.7c-13.2,0.8-26.4-0.8-39-4.7c-5.2-1.5-10.2-3.6-15-6.1
	c-2.1-1.4-4.7-2.9-7.2-4.3l-3.2-2.1c-2.4-1.7-4.7-3.6-6.8-5.7c-2.1,1.4-3.9,2.9-6.1,4.3c-3.7,1.9-7.5,3.5-11.5,4.7
	c-9.6,2.9-19.7,4.1-29.7,3.6c-9.2,0.8-18.5-0.5-27.2-3.6c-7.5-1.8-25.8-10.4-29.4-22.6c-0.4-1.3-0.7-2.6-0.7-3.9l5-49.4
	c0-11.9,8.4-22.2,20.1-24.7c1.7-0.3,3.3-0.4,5-0.4h9c-12.1-5.6-20.7-16.9-22.9-30.1v-0.4c-0.3-2-0.4-4.1-0.4-6.1
	c0-21.2,16.5-38.6,37.6-39.8c0.9-0.3,1.9-0.4,2.9-0.4c22.1,0,40.1,17.9,40.1,40c0,0,0,0.1,0,0.1c0.1,2-0.1,4.1-0.4,6.1v0.4
	c-0.4,1.1-0.4,2.1-0.7,3.2c-2.9,11.9-11.1,21.8-22.2,26.9h14.3c1.1-0.1,2.2,0.1,3.2,0.4c3.7,0.4,7.3,1.7,10.4,3.9l0.4-2.5
	c-0.1-7.7,2.4-15.1,7.2-21.1c6.3-8.4,16-13.7,26.5-14.3h16.1c-17.9-8.6-30.2-25.7-32.6-45.5c-0.3-2-0.4-4.1-0.4-6.1
	c-0.1-4.2,0.4-8.4,1.4-12.5c5.9-26.4,29.2-45.1,56.2-45.1c28,0,51.8,20.4,56.2,48c0.7,3.2,1.1,6.4,1.1,9.7c0.1,2,0,4.1-0.4,6.1
	c-2.3,19.7-14.6,36.9-32.6,45.5H289c11-0.1,21.4,5.1,27.9,14c0.6,0.3,1,0.8,1.1,1.4c4.3,5.8,6.6,12.8,6.4,20.1v1.4l0.4,3.6
	c3-2.7,6.5-4.6,10.4-5.7c0.7-0.4,1.8-0.4,2.9-0.7c1.4-0.3,2.9-0.4,4.3-0.4h10c-10.4-4.9-18.2-14-21.5-25.1c-0.6-1.6-1.1-3.3-1.4-5
	v-0.4c-0.3-2-0.4-4.1-0.4-6.1c0-22.2,18-40.1,40.1-40.1c0.1,0,0.2,0,0.4,0c2-0.1,4.1,0.1,6.1,0.4c19.6,3,34.1,19.9,34,39.8
	c0.1,2-0.1,4.1-0.4,6.1v0.4c-2.2,13.2-10.8,24.4-22.9,30.1h14.3c13.2,0.8,23.4,11.8,23.3,25.1l5,49.4
	C429.1,296,428.8,297.3,428.4,298.6z"/>
</svg>
