<?xml version="1.0" encoding="iso-8859-1"?>
<!-- Generator: Adobe Illustrator 20.1.0, SVG Export Plug-In . SVG Version: 6.00 Build 0)  -->
<svg version="1.1" id="Layer_1" xmlns="http://www.w3.org/2000/svg" xmlns:xlink="http://www.w3.org/1999/xlink" x="0px" y="0px"
	 width="500px" height="500px" viewBox="0 0 500 500" enable-background="new 0 0 500 500" xml:space="preserve">
<g>
	<path d="M117,414.7c-7.2-0.3-14.5-0.3-21.7,0c-5.9,0.2-9.4,3.1-10.2,7.5c-1.1,6.7,2.5,11.1,9.6,11.5c3.7,0.2,7.4,0,11,0
		c1.5,8.7-4.4,17.2-12.5,19.1c-10,2.3-19-1.6-23.8-10.7c-5.2-9.9-5.5-20.4-2.7-30.9c2.5-9.4,8.2-15.7,18.3-17.2
		c6.1-0.9,11.7,1,17,3.8c2.4,1.3,4.8,2.8,7.3,3.9c6,2.8,11.4-0.6,12-7.1c0.5-6.1-2.8-10-7.3-13.2c-9.3-6.6-19.8-7.7-30.8-6.8
		C68,376,56.4,383.3,49.6,397c-7.9,15.8-8.2,32.5-2.2,48.9c11.2,30.1,41,32.6,59.3,23c14.6-7.6,23.1-25.4,21-43.7
		C127,418.6,123.6,414.9,117,414.7z"/>
	<path d="M351,399.6c-4.8,0.6-9.4,3.3-14.8,5.4c-0.2,0-0.8-0.8-1.5-1.7c-2.7-3.1-6-4-9.8-3.1c-3.7,0.8-5.4,3.5-6,6.9
		c-0.6,2.7-1,5.4-1,8.3c0,22.9-0.2,46-0.2,69c0,2.9,0.4,5.8,1,8.7c1.2,5.2,5.2,7.5,10.6,6.7c4.2-0.6,6.9-3.5,7.5-9
		c0.4-5,0.2-10.2,0.4-15.2v-8.3c1.2,0.6,1.9,1,2.5,1.2c10.6,6.9,22.7,5.6,31.9-2.9c13.3-12.9,16-37.3,5.6-52.7
		C371,403.5,362.5,398.1,351,399.6z M361.5,446.7c-2.3,4.6-5.8,7.1-11,7.1c-5.4,0-9.2-2.7-11.2-7.3c-1.5-3.3-1.9-7.1-2.9-10.4
		c0.8-3.3,1.2-6.5,2.3-9.2c2.1-5.2,5.6-8.3,11.2-8.7c4.8-0.4,9.8,2.7,12.1,7.9C365,432.9,364.8,439.8,361.5,446.7z"/>
	<path d="M411,405.4c-0.2,0.2-0.6,0.4-1,0.6c-0.6-0.8-1.2-1.5-1.9-2.3c-2.5-3.3-6-4.4-10-3.5c-3.7,0.6-5.4,3.8-6.2,7.1
		c-0.6,2.1-0.8,4.2-0.8,6.5c-0.2,23.7-0.2,47.7-0.2,71.7c0,2.9,0.6,6,1.5,8.7c1,3.7,4,5.6,7.9,5.8c5.8,0.2,9.6-3.7,10-10.8
		c0.2-5.8,0-11.9,0.2-17.7c0-1.2,0-2.5,0.2-4.2c0.8,0.6,1.5,0.8,1.7,1c10.2,7.9,24.6,5.4,33.5-4c14-14.6,14.6-40.6,1.2-55.6
		C438.1,398.3,421,395.4,411,405.4z M434.2,447.3c-2.1,4.4-5.8,6.7-10.8,6.5c-5,0-8.5-2.5-10.8-6.7c-3.1-5.4-3.1-11.7-1.7-17.5
		c1.5-7.3,7.3-12.1,13.1-11.5c6.5,0.4,11.9,6.2,12.5,13.3c0.2,1.5,0.2,2.9,0.4,4.4C436.9,440,435.6,443.7,434.2,447.3z"/>
	<path d="M311.9,453.5c-3.3-10-6.9-20.2-10.4-30.4c-4.2-12.5-8.3-25-12.9-37.5c-2.9-7.9-11-11.9-18.3-9.2
		c-5.8,2.1-8.3,6.9-10.4,12.3c-7.1,20-14.2,40-21.2,60.2c-1.5,4-2.7,8.1-3.5,10.4c0,7.9,2.5,11.7,7.3,12.7c4.6,1,8.3-1,10.6-6.7
		c1.5-2.9,2.5-6.2,3.3-9.6c0.6-2.1,1.7-3.1,4-3.1c9.2,0.2,18.3,0.2,27.5,0c2.5,0,3.5,1,4.2,3.1c0.8,3.5,1.9,7.1,3.3,10.4
		c2.3,5.2,6.9,7.1,12.1,5.4c4.8-1.3,7.3-5.6,6.5-11C313.3,458.1,312.7,455.8,311.9,453.5z M262.9,433.5c3.7-11.9,7.3-23.1,10.8-34.6
		h1.2c3.3,11.3,6.7,22.7,10,34.6H262.9z"/>
	<path d="M187.7,441c7.3,0,9-1.9,8.7-9.4c0-2.3-0.2-4.8-0.8-7.1c-5.4-23.7-29.8-31.9-47.5-21.3c-15,9.2-20,26.7-15.2,44
		c7.1,25.6,33.3,31,52.9,20.2c3.1-1.7,6-4.8,8.1-7.7c2.3-2.9,1.5-7.3-0.8-9.8c-2.5-2.7-5.6-2.7-9-1.5c-2.5,1.2-4.8,2.7-7.5,3.3
		c-4,1.2-7.9,2.3-11.9,2.3c-7.7,0-12.9-5.4-13.1-13.1h4.4C166.7,441,177.1,441.2,187.7,441z M151.5,427.9
		c0.4-7.7,6.5-13.3,13.7-12.9c6.9,0.4,12.3,6,12.3,12.9H151.5z"/>
	<path d="M240.6,410.8c0.1-4.1-2.7-7.4-7.5-8.5c-2.1-0.5-4.3-0.7-6.6-1.1c-0.4-5.4-0.5-10.6-1.1-15.7c-0.6-5.2-3.9-8-8.6-8
		c-5.1,0-8.4,2.7-9.1,7.9c-0.5,3.8-0.8,7.7-0.7,11.5c0.1,3.4-0.8,4.9-4.4,5.5c-5.4,0.8-7.8,4-7.6,8.8c0.2,4.3,3.3,7.5,8.4,7.9
		c3,0.2,3.5,1.5,3.5,4.1c-0.1,11.1-0.1,22.2-0.1,33.3c0,2.8,0.3,5.6,0.9,8.2c1.1,4.6,4.1,6.8,8.5,6.9c4.7,0.1,7.8-2,9-6.7
		c0.7-2.7,0.9-5.5,0.9-8.2c0.1-9.8,0-19.6,0-29.3c0-2.4-0.5-5.2,0.6-7c0.7-1.2,3.9-0.9,6-1.4C237.8,417.8,240.5,415,240.6,410.8z"/>
	<path d="M380.6,110.4c0.2-1,0.2-2.3,0.2-3.3C380.8,47.9,322.3,0,250,0S119.2,47.9,119.2,107.1c0,1,0,2.3,0.2,3.3
		c-65,6-115.6,51.2-115.6,106.2c0,36.5,22.3,68.5,56,87.7c2.7,17.1,26.9,28.1,36,30.2l3.8,0.8c5.8,1.7,9.8,2.5,25.8,2.5
		c17.5,0,24.4-1.7,29.6-2.9l2.3-0.4c2.9-0.6,9.2-3.1,15.8-7.3c11.2,9,25,14.4,31.9,16c2.3,0.6,4,1,5.6,1.5
		c8.1,2.1,13.5,3.3,35.8,3.3c24.8,0,34.2-2.3,41.7-4l3.1-0.8c5-1,20.4-7.3,32.7-17.3c7.1,4.6,14.6,7.5,18.8,8.5l3.7,0.8
		c5.8,1.7,9.8,2.5,25.6,2.5c17.7,0,24.4-1.7,29.8-2.9l2.3-0.4c6.7-1.5,32.1-12.7,35.6-30c34.2-19.2,56.5-51.5,56.5-87.9
		C496.2,161.7,445.6,116.5,380.6,110.4z M125.8,141c1-0.2,2.1-0.2,3.1-0.2c17.9,0,33.1,12.1,37.7,28.5c0,0,0.2,0,0.2,0.2
		c1,3.5,1.7,7.1,1.7,11c0,3.1-0.4,6.2-1.2,9.2c-0.4,2.3-1,4.4-2.1,6.5c-0.2,0-0.2,0.2-0.2,0.2c-3.3,8.1-9.8,15-17.9,19.2
		c-0.4,0.4-1,0.6-1.5,0.8h0.4h10.4h2.9c1.9,0,3.7,0.2,5.4,0.6h0.2c2.5,0.6,5,1.7,7.1,2.9c0.4,0.2,0.8,0.4,1.2,0.8l0.2-2.7
		c0-1,0-2.1,0.2-2.9c0.4-6.7,2.9-12.7,6.7-17.7c0.6-1.2,1.7-2.3,2.7-3.3c3.5-4,8.3-7.1,13.5-9c2.7-1,5.4-1.7,8.3-1.9
		c1-0.2,2.3-0.2,3.3-0.2h7.9h6c-9.4-4.4-17.3-11.2-23.1-20c0,0,0-0.2-0.2-0.4c-5.6-8.7-9-19.2-9-30.4c0-1.5,0-2.9,0.2-4.4
		c0.2-2.5,0.6-5.2,1-7.7c2.1-9.8,6.7-18.5,13.1-25.6c0.2,0,0.4-0.2,0.4-0.2C215,82.9,230,75.8,246.7,75.8c16.7,0,31.7,7.3,41.9,18.7
		c0.6,0.6,1,1,1.7,1.7c6,7.5,10.4,16.7,12.1,26.7c-0.4,0.2-0.8,0.2-1,0.4c0.8,1.9,1.5,3.5,1.7,5.4c0.2,1.2,0.2,2.3,0.2,3.5
		c0,11.7-3.5,22.3-9.6,31.2c0,0.2-0.2,0.2-0.2,0.4c-5.6,8.3-13.5,14.8-22.5,19.2h5.8h11.5c3.1,0,6.2,0.4,9,1.2
		c6.7,1.7,12.7,5.4,16.9,10.4c0,0,0.4,0,0.4,0.2c1,1,2.1,2.3,2.7,3.7c3.5,4.8,5.4,10.6,5.8,16.9c0.2,0.8,0.2,1.7,0.2,2.5l0.4,5.2
		c0.4-0.4,0.8-0.8,1.5-1.2c1.9-1.7,4.2-2.9,6.5-4h0.6c2.5-1,5.2-1.7,7.9-1.7h10.2h0.6c-0.8-0.4-1.5-0.6-2.1-1.3
		c-7.9-4.2-14.4-11-17.7-19.4c-0.6-1.2-1-2.7-1.5-4c-1-3.5-1.7-7.3-1.7-11.2c0-4.2,0.6-8.1,2.1-11.9c4.8-16,19.8-27.9,37.5-27.9
		c2.1,0,4.4,0.2,6.5,0.6c6.2,0.8,12.1,3.5,17.1,7.3c0.2,0,0.2,0,0.4,0.2c6.3,4.6,11,11.3,13.5,18.8c1.5,4,2.3,8.3,2.3,12.9
		c0,3.3-0.4,6.5-1.2,9.6c-2.9,11.7-11.2,21-21.9,26.2h10h2.7c2.3,0,4.8,0.4,6.9,1c2.3,0.6,4.6,1.7,6.7,3.1c0,0.2-0.2,0.4-0.4,0.6
		c0.8,0.2,1.7,0.4,2.3,0.6c4.2,3.3,7.1,7.9,8.3,13.1c0,0,0.2,0,0.2,0.2c0.4,1.9,0.6,3.7,0.6,5.8l4.8,48.7c0,1.7-0.4,3.3-1,5
		c-4.6,11.3-23.5,20.2-28.3,21.3c-5.6,1.2-10.6,3.1-29.4,3.1c-18.8,0-19-1.2-26.9-3.1c-1.5-0.4-3.3-1-5.4-2.1
		c-1.9-0.6-4.2-1.7-6.5-3.1c-1.3-0.6-2.7-1.5-4-2.3c-0.8-0.8-1.5-1.5-1.7-2.1c-0.8-0.6-1.2-1.2-1.2-1.9c-0.4,0.2-0.6,0.6-1,1
		c-1.2,1.2-2.9,2.7-4.4,4c-1.9,1.5-4,2.9-5.8,4.2v0.2c-9.2,6-18.7,10-22.5,10.8c-7.7,1.9-14.8,4.6-41.5,4.6
		c-26.9,0-27.1-1.9-38.3-4.6c-4.8-1.2-12.7-4.6-20.6-9.4c0.2-0.4,0.6-0.8,1-1.3c-0.6,0.2-1.2,0.4-1.9,0.6c0,0,0,0-0.2,0
		c-1.7-1-3.3-2.3-4.8-3.5c-1.9-1.2-3.5-2.7-5.2-4.4c-0.2,0-0.2-0.2-0.4-0.4c-0.2,0.6-0.8,1.2-1.7,1.9l-0.2,0.2v0.2
		c-2.1,1.2-4.2,2.5-6,3.5c-2.7,1.5-5,2.5-6.9,3.1c-0.8,0.2-1.5,0.4-2.1,0.6c-5.6,1.2-10.6,3.1-29.4,3.1c-18.7,0-19-1.2-26.9-3.1
		c-6.9-1.7-24-10-28.3-21v-0.2c-0.6-1.7-1-3.3-1-5l4.8-48.7c0-2.1,0.2-4,0.6-5.8c0-0.2,0.2-0.2,0.2-0.2c1.9-7.7,7.1-13.7,14.2-16.7
		c2.7-1,5.6-1.7,8.7-1.9h9.8c-11-5.2-19.2-15.2-21.9-27.1c-0.6-2.9-1-5.8-1-8.7c0-4.8,0.8-9.2,2.5-13.3v-0.2
		c2.5-7.5,7.3-13.7,13.5-18.3C111,144.4,118.1,141.5,125.8,141z"/>
</g>
</svg>
