<?xml version="1.0" encoding="utf-8"?>
<!-- Generator: Adobe Illustrator 20.0.0, SVG Export Plug-In . SVG Version: 6.00 Build 0)  -->
<svg version="1.1" id="Layer_1" xmlns="http://www.w3.org/2000/svg" xmlns:xlink="http://www.w3.org/1999/xlink" x="0px" y="0px"
	 width="500px" height="500px" viewBox="0 0 500 500" enable-background="new 0 0 500 500" xml:space="preserve">
<title>007-stage-review</title>
<path d="M368.6,185.7L285.4,174L250,99.7L214.6,174l-82.2,12.1l57.9,57.5l-13.9,81.8l73.6-38.6l73.2,38.6l-13.9-81.8L368.6,185.7z
	 M285.4,247.9l5.7,32.5L262.1,265L250,259l-11.8,6.1l-28.9,15.4l5.4-32.5l2.1-12.5l-32.5-32.5l32.5-4.6l12.5-1.8L235,185l15-29.6
	l14.6,29.6l5.7,11.4l12.5,1.8l32.5,4.6l-32.5,32.5L285.4,247.9z"/>
<path d="M462.5,0H37.5C18-0.1,2.2,15.6,2.1,35.1c0,0.1,0,0.2,0,0.3v354.3C2,409.2,17.7,425,37.2,425.1c0.1,0,0.2,0,0.3,0h70.7
	c-3.5,15.6-8.6,30.8-15,45.4c-5,7.3-5,17,0,24.3c0,0,3.9,4.6,6.4,5c3.6,0.4,7.2,0.4,10.7,0c50.9-15.7,98.3-41.1,139.7-74.7h212.5
	c19.5,0.1,35.3-15.6,35.4-35.1c0-0.1,0-0.2,0-0.3V35.4C498,15.9,482.3,0.1,462.8,0C462.7,0,462.6,0,462.5,0z M462.5,389.7H237.1
	l-8.9,7.1c-10.7,8.2-24.6,17.9-40,28.2c-15.9,10.6-32.5,20.2-49.7,28.6c2.9-9.4,5.3-18.9,7.1-28.6c2.8-11.6,4.4-23.4,4.6-35.4H37.5
	V35.4h425.1V389.7z"/>
</svg>
