<svg xmlns="http://www.w3.org/2000/svg" viewBox="0 0 14 14.13"><title>Asset 7</title><g id="Layer_2" data-name="Layer 2"><g id="Icons"><path d="M13,0H1A1,1,0,0,0,0,1V11a1,1,0,0,0,1,1H3a7.14,7.14,0,0,1-.43,1.28.6.6,0,0,0,0,.68s.11.14.19.15a2,2,0,0,0,.3,0A11.88,11.88,0,0,0,7,12h6a1,1,0,0,0,1-1V1a1,1,0,0,0-1-1ZM1,11V1H13V11H6.64l-.26.2c-.3.23-.69.51-1.12.8a12.4,12.4,0,0,1-1.41.8,6.31,6.31,0,0,0,.21-.8,5.83,5.83,0,0,0,.13-1Z"/><path d="M7,4.39l.41.83.16.33.36.05.92.13-.66.65-.26.26L8,7l.16.91-.82-.43L7,7.31l-.33.17-.82.43L6,7l.06-.36-.26-.26-.66-.65.92-.13.36-.05.16-.33L7,4.39M7,2.81,6,4.91l-2.32.34L5.32,6.88l-.4,2.31L7,8.1,9.07,9.19l-.4-2.31,1.68-1.64L8,4.91,7,2.81Z"/></g></g></svg>