<?xml version="1.0" encoding="UTF-8" standalone="no"?>
<svg width="14px" height="15px" viewBox="0 0 14 15" version="1.1" xmlns="http://www.w3.org/2000/svg" xmlns:xlink="http://www.w3.org/1999/xlink">
    <!-- Generator: Sketch 3.8.2 (29753) - http://www.bohemiancoding.com/sketch -->
    <title>119-stage-review</title>
    <desc>Created with Sketch.</desc>
    <defs></defs>
    <g id="Page-1" stroke="none" stroke-width="1" fill="none" fill-rule="evenodd">
        <g id="119-stage-review" fill="#000000">
            <g id="Layer_2">
                <g id="Icons">
                    <path d="M13,0 L1,0 C0.44771525,-3.38176876e-17 6.76353751e-17,0.44771525 0,1 L0,11 C6.76353751e-17,11.5522847 0.44771525,12 1,12 L3,12 C2.89742408,12.4392925 2.75344707,12.8678752 2.57,13.28 C2.42915771,13.4847881 2.42915771,13.7552119 2.57,13.96 C2.57,13.96 2.68,14.1 2.76,14.11 C2.85985898,14.1175106 2.96014102,14.1175106 3.06,14.11 C4.49499865,13.6622729 5.831988,12.9462709 7,12 L13,12 C13.5522847,12 14,11.5522847 14,11 L14,1 C14,0.44771525 13.5522847,3.38176876e-17 13,0 L13,0 Z M1,11 L1,1 L13,1 L13,11 L6.64,11 L6.38,11.2 C6.08,11.43 5.69,11.71 5.26,12 C4.80795345,12.2971373 4.33694713,12.564375 3.85,12.8 C3.93742057,12.538213 4.00757123,12.2709724 4.06,12 C4.13213443,11.671047 4.17563043,11.3364624 4.19,11 L1,11 Z" id="Shape"></path>
                    <path d="M7,4.39 L7.41,5.22 L7.57,5.55 L7.93,5.6 L8.85,5.73 L8.19,6.38 L7.93,6.64 L8,7 L8.16,7.91 L7.34,7.48 L7,7.31 L6.67,7.48 L5.85,7.91 L6,7 L6.06,6.64 L5.8,6.38 L5.14,5.73 L6.06,5.6 L6.42,5.55 L6.58,5.22 L7,4.39 L7,4.39 Z M7,2.81 L6,4.91 L3.68,5.25 L5.32,6.88 L4.92,9.19 L7,8.1 L9.07,9.19 L8.67,6.88 L10.35,5.24 L8,4.91 L7,2.81 L7,2.81 Z" id="Shape"></path>
                </g>
            </g>
        </g>
    </g>
</svg>