<?xml version="1.0" encoding="iso-8859-1"?>
<!-- Generator: Adobe Illustrator 20.1.0, SVG Export Plug-In . SVG Version: 6.00 Build 0)  -->
<svg version="1.1" id="Layer_1" xmlns="http://www.w3.org/2000/svg" xmlns:xlink="http://www.w3.org/1999/xlink" x="0px" y="0px"
	 width="500px" height="500px" viewBox="0 0 500 500" enable-background="new 0 0 500 500" xml:space="preserve">
<g>
	<path d="M454,25H46c-11.9,0-21.6,9.7-21.6,21.6v343.5c0,11.9,9.7,21.6,21.6,21.6h81.7c-3.2,14-8,28.5-14.4,43.1
		c-2.6,6-4.7,11-0.4,16.4c0,0,1.6,2.4,4.3,3.3c2.7,0.9,6.5,0.4,6.5,0.4c38.2-8.4,87.1-41.2,116.7-63.2H454
		c11.9,0,21.6-9.7,21.6-21.6V46.6C475.6,34.7,465.9,25,454,25z M454,390.1H267.9h-34.7c-8.2,6-18.5,13.8-30,21.6
		c-19.8,13.2-42.7,27.2-63.6,35.6c4.3-12.1,7.8-23.9,10.4-35.6c1.5-7.3,2.8-14.4,3.7-21.6h-22H46V46.6h408V390.1z"/>
	<path d="M173,326l-2.2,12.5l12.9-6.9l64-34.3l77,41.2l-14.7-87.1l62.3-61.5l-86-12.7l-38.6-79.1l-38.6,79.1l-86,12.7l62.3,61.5
		L173,326z M169.1,204.8l43.3-6.3l11.2-1.7l5-10.4l19.2-39.2l19.2,39.2l5,10.4l11.2,1.7l43.3,6.3l-31.5,31.3l-8,8l1.7,11l7.5,43.8
		L258,278.4l-10.1-5.4l-10.1,5.4l-38.4,20.5l7.5-43.8l1.7-11l-8-8L169.1,204.8z"/>
</g>
</svg>
