<?xml version="1.0" encoding="UTF-8" standalone="no"?>
<svg width="16px" height="13px" viewBox="0 0 16 13" version="1.1" xmlns="http://www.w3.org/2000/svg" xmlns:xlink="http://www.w3.org/1999/xlink">
    <!-- Generator: Sketch 3.8.2 (29753) - http://www.bohemiancoding.com/sketch -->
    <title>120-stage-group</title>
    <desc>Created with Sketch.</desc>
    <defs></defs>
    <g id="Page-1" stroke="none" stroke-width="1" fill="none" fill-rule="evenodd">
        <g id="120-stage-group" fill="#231F20">
            <g id="Layer_2">
                <g id="Icons">
                    <path d="M11.86,6.18 C12.9719127,5.59102835 13.5422557,4.3225163 13.2448621,3.0998984 C12.9474686,1.8772805 11.858206,1.01245629 10.6,1 C9.42563175,0.99324395 8.37853777,1.73829159 8,2.85 L8,3 L8.1,3 C8.28723973,3.01933292 8.47172385,3.059584 8.65,3.12 L8.74,3.12 L8.74,3.03 C9.08500036,2.1443665 10.0182516,1.63647908 10.9492799,1.82768123 C11.8803082,2.01888339 12.5378603,2.85346875 12.5058989,3.80339001 C12.4739376,4.75331128 11.7617746,5.54181077 10.82,5.67 L10.72,5.67 L10.72,5.77 C10.7261412,5.86323231 10.7261412,5.95676769 10.72,6.05 C10.7206651,6.2581476 10.7005656,6.46584247 10.66,6.67 L10.66,6.78 L10.78,6.78 C12.549226,6.82417798 14.065641,8.0570357 14.47,9.78 L11.7,9.78 L11.83,9.94 C11.9731388,10.1206687 12.1034572,10.311134 12.22,10.51 L12.22,10.51 L15.22,10.51 L15.32,10.51 L15.32,10.41 C15.2461209,8.38349067 13.8316289,6.65421281 11.86,6.18 L11.86,6.18 Z" id="Shape"></path>
                    <path d="M3.14,10.53 C3.25388357,10.3445094 3.38087349,10.1673919 3.52,10 L3.65,9.84 L0.85,9.84 C1.25119891,8.11505953 2.76948447,6.88068102 4.54,6.84 L4.66,6.84 L4.66,6.73 C4.61943439,6.52584247 4.59933489,6.3181476 4.6,6.11 C4.59385877,6.01676769 4.59385877,5.92323231 4.6,5.83 L4.6,5.7 L4.5,5.7 C3.5211426,5.596302 2.76327016,4.7957699 2.71327769,3.81270538 C2.66328522,2.82964087 3.33603787,1.95635618 4.29932583,1.75389289 C5.2626138,1.5514296 6.23000536,2.07998976 6.58,3 L6.58,3.09 L6.67,3.09 C6.86240727,3.03673489 7.06046259,3.00652306 7.26,3 L7.38,3 L7.38,2.88 C7.06336922,1.4719113 5.70544282,0.553542539 4.28070178,0.783937465 C2.85596075,1.01433239 1.85669416,2.31388292 2,3.75 C2.00271679,4.77777997 2.5824429,5.71693627 3.5,6.18 C1.48801634,6.64548091 0.0473714151,8.4154161 0,10.48 L0,10.58 L3.11,10.58 L3.14,10.53 Z" id="Shape"></path>
                    <path d="M11.22,9.82 C10.611557,9.19759952 9.84348597,8.75474773 9,8.54 L8.91,8.54 C9.60459754,8.17528189 10.1103536,7.53126163 10.3,6.77 C10.3510367,6.55364338 10.3778681,6.33228447 10.38,6.11 C10.3856649,6.01008023 10.3856649,5.90991977 10.38,5.81 C10.266718,4.53104534 9.27451218,3.50548811 8,3.35 C7.79076442,3.32466 7.57923558,3.32466 7.37,3.35 C6.10950037,3.50722224 5.12566554,4.51596427 5,5.78 C4.99439859,5.87992156 4.99439859,5.98007844 5,6.08 C4.97498288,6.30263275 4.97498288,6.52736725 5,6.75 C5.19786965,7.51374488 5.71535281,8.15513245 6.42,8.51 L6.33,8.51 C5.49756403,8.73992049 4.74376041,9.19289423 4.15,9.82 C3.96670575,10.0028327 3.802524,10.2038716 3.66,10.42 C3.17568559,11.1227113 2.91750607,11.9565614 2.92,12.81 L2.92,12.91 L12.35,12.91 L12.45,12.91 L12.45,12.81 C12.4490643,11.9632851 12.1910112,11.1368179 11.71,10.44 C11.5682505,10.2171547 11.4040614,10.0094052 11.22,9.82 L11.22,9.82 Z M7.68,9.14 C7.9762689,9.13817117 8.27169547,9.17174237 8.56,9.24 C8.79036549,9.28032351 9.01522571,9.34744596 9.23,9.44 C9.58989093,9.56576189 9.9274531,9.74804546 10.23,9.98 C10.9383959,10.5047031 11.4323024,11.2686593 11.62,12.13 L3.77,12.13 C3.89184391,11.5457227 4.16025333,11.0020215 4.55,10.55 C4.73029043,10.3426211 4.9351268,10.1579326 5.16,10 C5.46282285,9.76847195 5.80031434,9.58622655 6.16,9.46 C6.37477429,9.36744596 6.59963451,9.30032351 6.83,9.26 C7.1077178,9.18715639 7.39297046,9.14688542 7.68,9.14 L7.68,9.14 Z M8.52,7.85 C8.33396076,7.93509267 8.13409007,7.98590725 7.93,8 C7.75791976,8.02947563 7.58208024,8.02947563 7.41,8 C7.21144365,7.97747806 7.01845515,7.91992009 6.84,7.83 C6.1650025,7.50781733 5.73376386,6.82793658 5.73,6.08 C5.72890535,5.91806356 5.74907775,5.75668433 5.79,5.6 C5.92269554,5.05134342 6.28777694,4.58769003 6.79,4.33 C6.97719386,4.22975042 7.18009517,4.16211665 7.39,4.13 C7.57883374,4.1002282 7.77116626,4.1002282 7.96,4.13 C8.16985917,4.16230569 8.37272925,4.22992905 8.56,4.33 C9.05717947,4.59377179 9.42020933,5.05481971 9.56,5.6 C9.60069749,5.75672745 9.6208662,5.91807709 9.62,6.08 C9.6139701,6.82950993 9.18936766,7.51273387 8.52,7.85 L8.52,7.85 Z" id="Shape"></path>
                </g>
            </g>
        </g>
    </g>
</svg>