<?xml version="1.0" encoding="utf-8"?>
<!-- Generator: Adobe Illustrator 20.1.0, SVG Export Plug-In . SVG Version: 6.00 Build 0)  -->
<svg version="1.1" id="Flat" xmlns="http://www.w3.org/2000/svg" xmlns:xlink="http://www.w3.org/1999/xlink" x="0px" y="0px"
	 width="500px" height="500px" viewBox="0 0 500 500" enable-background="new 0 0 500 500" xml:space="preserve">
<path d="M125.6,262H44.1c6-29.5,24-55.2,49.7-70.9c-6.9-3.8-13.3-8.4-19-13.8C40.4,202,20,241.7,20,283.9h107.8
	C126.3,276.7,125.6,269.4,125.6,262z M151.7,20.8c-39.4,0-71.3,31.9-71.3,71.3c0,10,2.1,20,6.3,29.1c6.8,15.4,18.9,27.8,34.1,35
	c19.4,9.6,42.2,9.6,61.7,0c15.2-7.2,27.3-19.6,34.1-35c4.2-9.1,6.4-19,6.3-29.1C223,52.7,191.1,20.8,151.7,20.8z M195.6,114.2
	c-12.1,24.3-41.6,34.3-65.9,22.2c-9.6-4.8-17.5-12.6-22.2-22.2c-12.2-24.4-2.4-54,22-66.3c6.9-3.5,14.5-5.3,22.2-5.2
	c27.3,0,49.4,22.1,49.4,49.4C201.1,99.8,199.2,107.4,195.6,114.2z M455.9,262h-81.4c0.1,7.3-0.7,14.7-2.2,21.9H480
	c0.1-42.3-20.3-82-54.7-106.5c-5.6,5.4-12,10-18.8,13.8C432.1,206.9,450,232.6,455.9,262z M348.5,20.8c-39.4,0-71.3,31.9-71.3,71.3
	v0.2c0,10,2.2,19.8,6.4,28.9c6.8,15.4,18.9,27.8,34.1,35c19.4,9.6,42.2,9.6,61.7,0c15.2-7.2,27.3-19.6,34.1-35
	c4.2-9.1,6.4-19,6.3-29.1C419.8,52.7,387.9,20.8,348.5,20.8z M392.5,114.2c-12.1,24.3-41.6,34.3-65.9,22.2
	c-9.6-4.8-17.5-12.6-22.2-22.2c-12.2-24.4-2.4-54,22-66.3c6.9-3.5,14.5-5.3,22.2-5.2c27.3,0,49.4,22.1,49.4,49.4
	C398,99.8,396.1,107.4,392.5,114.2z M332.6,355c-5.9,5.4-12.3,10.1-19.2,14c32.7,18.9,55.3,51.2,61.9,88.4H125
	c6.6-37.1,29.2-69.5,61.9-88.4c-6.9-3.9-13.4-8.6-19.2-14c-41.5,27.7-66.5,74.3-66.5,124.2h297.9C399,429.3,374.1,382.7,332.6,355z
	 M309.4,207.3c-5.7-6.3-12.5-11.5-19.9-15.5c-16.3-9.2-35.4-12.3-53.8-9c-17.5,3.2-33.4,12-45.3,25.2c-13.6,14.7-21.1,34-21,54
	c0,7.4,1,14.8,3.1,21.9c0.2,0.7,0.4,1.5,0.6,2.2c1.6,4.9,3.5,9.6,5.7,14.2c6,10.8,14.4,20.2,24.5,27.3c3.6,2.8,7.5,5.1,11.6,7
	c22.2,10.8,48.2,10.8,70.4,0c4.1-1.9,8-4.2,11.6-7c10.1-7.1,18.5-16.5,24.5-27.3c2.2-4.3,4.1-8.9,5.5-13.6c0.4-0.9,0.7-1.9,0.9-2.8
	C335.4,256.9,328.5,227.9,309.4,207.3z M300,293.1c-17.1,27.5-53.2,36-80.8,19c-7.7-4.8-14.2-11.3-19-19c-1.9-2.9-3.4-6-4.6-9.2
	c-2.9-6.9-4.4-14.4-4.4-21.9c0-24.6,15.4-46.5,38.5-54.9c4.7-1.8,9.6-2.9,14.6-3.5c1.9-0.2,3.8-0.3,5.7-0.2c1.8,0,3.7,0,5.5,0.2
	c5.1,0.5,10.1,1.6,14.9,3.5c23.1,8.4,38.5,30.3,38.5,54.9C309.1,273,306,283.8,300,293.1z"/>
</svg>
