<svg xmlns="http://www.w3.org/2000/svg" viewBox="0 0 15.36 11.91"><defs><style>.cls-1{fill:#231f20;}</style></defs><title>Asset 8</title><g id="Layer_2" data-name="Layer 2"><g id="Icons"><path class="cls-1" d="M11.86,5.18A2.75,2.75,0,0,0,10.6,0,2.73,2.73,0,0,0,8,1.85L8,2H8.1a2.52,2.52,0,0,1,.55.12l.09,0,0-.09a1.95,1.95,0,1,1,2.08,2.64h-.1v.1a2.13,2.13,0,0,1,0,.28,3.13,3.13,0,0,1-.06.62l0,.11h.12a3.89,3.89,0,0,1,3.69,3H11.7l.13.16a4.94,4.94,0,0,1,.39.57l0,0h3l.1,0v-.1A4.52,4.52,0,0,0,11.86,5.18Z"/><path class="cls-1" d="M3.14,9.53A4.57,4.57,0,0,1,3.52,9l.13-.16H.85a3.88,3.88,0,0,1,3.69-3h.12l0-.11a3.13,3.13,0,0,1-.06-.62,2.13,2.13,0,0,1,0-.28V4.7H4.5A2,2,0,1,1,6.58,2l0,.09.09,0A2.52,2.52,0,0,1,7.26,2h.12l0-.12A2.73,2.73,0,0,0,2,2.75,2.73,2.73,0,0,0,3.5,5.18,4.52,4.52,0,0,0,0,9.48v.1H3.11Z"/><path class="cls-1" d="M11.22,8.82A4.74,4.74,0,0,0,9,7.54l-.09,0a2.75,2.75,0,0,0,1.39-1.77,3,3,0,0,0,.08-.66,2.65,2.65,0,0,0,0-.3A2.72,2.72,0,0,0,8,2.35a2.62,2.62,0,0,0-.63,0A2.72,2.72,0,0,0,5,4.78a2.68,2.68,0,0,0,0,.3A3,3,0,0,0,5,5.75,2.74,2.74,0,0,0,6.42,7.51l-.09,0A4.74,4.74,0,0,0,4.15,8.82a3.81,3.81,0,0,0-.49.6,4.19,4.19,0,0,0-.74,2.39v.1h9.43l.1,0v-.1a4.18,4.18,0,0,0-.74-2.37A3.87,3.87,0,0,0,11.22,8.82ZM7.68,8.14a3.72,3.72,0,0,1,.88.1,3,3,0,0,1,.67.2,3.59,3.59,0,0,1,1,.54,3.64,3.64,0,0,1,1.39,2.15H3.77a3.52,3.52,0,0,1,.78-1.58A3.39,3.39,0,0,1,5.16,9a3.62,3.62,0,0,1,1-.54,3,3,0,0,1,.67-.2A3.7,3.7,0,0,1,7.68,8.14Zm.84-1.29A1.7,1.7,0,0,1,7.93,7a1.54,1.54,0,0,1-.52,0,1.69,1.69,0,0,1-.57-.17A1.95,1.95,0,0,1,5.73,5.08a1.85,1.85,0,0,1,.06-.48,1.94,1.94,0,0,1,1-1.27,1.87,1.87,0,0,1,.6-.2,1.83,1.83,0,0,1,.57,0,1.88,1.88,0,0,1,.6.2,2,2,0,0,1,1,1.27,1.87,1.87,0,0,1,.06.48A2,2,0,0,1,8.52,6.85Z"/></g></g></svg>