<?xml version="1.0" encoding="UTF-8" standalone="no"?>
<svg width="14px" height="14px" viewBox="0 0 14 14" version="1.1" xmlns="http://www.w3.org/2000/svg" xmlns:xlink="http://www.w3.org/1999/xlink">
    <!-- Generator: Sketch 3.8.2 (29753) - http://www.bohemiancoding.com/sketch -->
    <title>121-stage-quiz</title>
    <desc>Created with Sketch.</desc>
    <defs></defs>
    <g id="Page-1" stroke="none" stroke-width="1" fill="none" fill-rule="evenodd">
        <g id="121-stage-quiz" transform="translate(-1.000000, 0.000000)" fill="#000000">
            <g id="Layer_2">
                <g id="Icons">
                    <path d="M4,1 L4,3 L2,3 L2,1 L4,1 L4,1 Z M4,0 L2,0 C1.44771525,-3.38176876e-17 1,0.44771525 1,1 L1,3 C1,3.55228475 1.44771525,4 2,4 L4,4 C4.55228475,4 5,3.55228475 5,3 L5,1 C5,0.44771525 4.55228475,3.38176876e-17 4,0 L4,0 Z M4,10.82 L4,12.82 L2,12.82 L2,10.82 L4,10.82 L4,10.82 Z M4,9.82 L2,9.82 C1.44771525,9.82 1,10.2677153 1,10.82 L1,12.82 C1,13.3722847 1.44771525,13.82 2,13.82 L4,13.82 C4.55228475,13.82 5,13.3722847 5,12.82 L5,10.82 C5,10.2677153 4.55228475,9.82 4,9.82 L4,9.82 Z M14.87,1.82 C14.87,1.54385763 14.6461424,1.32 14.37,1.32 L7,1.32 C6.72385763,1.32 6.5,1.54385763 6.5,1.82 C6.5,2.09614237 6.72385763,2.32 7,2.32 L14.37,2.32 C14.5043323,2.32268719 14.6340935,2.27119745 14.7300357,2.17713643 C14.825978,2.08307541 14.8800269,1.95435918 14.88,1.82 L14.87,1.82 Z M14.87,6.82 C14.87,6.54385763 14.6461424,6.32 14.37,6.32 L7,6.32 C6.72385763,6.32 6.5,6.54385763 6.5,6.82 C6.5,7.09614237 6.72385763,7.32 7,7.32 L14.37,7.32 C14.5043323,7.32268719 14.6340935,7.27119745 14.7300357,7.17713643 C14.825978,7.08307541 14.8800269,6.95435918 14.88,6.82 L14.87,6.82 Z M14.87,11.89 C14.87,11.6138576 14.6461424,11.39 14.37,11.39 L7,11.39 C6.72385763,11.39 6.5,11.6138576 6.5,11.89 C6.5,12.1661424 6.72385763,12.39 7,12.39 L14.37,12.39 C14.5043323,12.3926872 14.6340935,12.3411975 14.7300357,12.2471364 C14.825978,12.1530754 14.8800269,12.0243592 14.88,11.89 L14.87,11.89 Z M5.83,5.46 C6.02606107,5.26393891 6.02606107,4.94606109 5.82999999,4.75000001 C5.63393891,4.55393893 5.31606109,4.55393893 5.12,4.75 L2.77,7.11 L1.85,6.2 C1.65393891,6.00393891 1.33606109,6.00393891 1.14,6.2 C0.943938914,6.39606109 0.943938914,6.71393891 1.14,6.91 L2.77,8.53 L5.83,5.46 Z" id="Shape"></path>
                </g>
            </g>
        </g>
    </g>
</svg>