<svg xmlns="http://www.w3.org/2000/svg" viewBox="0 0 13.88 13.82"><title>Asset 9</title><g id="Layer_2" data-name="Layer 2"><g id="Icons"><path d="M3,1V3H1V1H3M3,0H1A1,1,0,0,0,0,1V3A1,1,0,0,0,1,4H3A1,1,0,0,0,4,3V1A1,1,0,0,0,3,0ZM3,10.82v2H1v-2H3m0-1H1a1,1,0,0,0-1,1v2a1,1,0,0,0,1,1H3a1,1,0,0,0,1-1v-2a1,1,0,0,0-1-1Zm10.87-8a.5.5,0,0,0-.5-.5H6a.5.5,0,0,0,0,1h7.37A.5.5,0,0,0,13.88,1.82Zm0,5a.5.5,0,0,0-.5-.5H6a.5.5,0,0,0,0,1h7.37A.5.5,0,0,0,13.88,6.82Zm0,5.07a.5.5,0,0,0-.5-.5H6a.5.5,0,0,0,0,1h7.37A.5.5,0,0,0,13.88,11.89ZM4.83,5.46a.5.5,0,0,0-.71-.71L1.77,7.11.85,6.2a.5.5,0,0,0-.71.71L1.77,8.53Z"/></g></g></svg>