<?xml version="1.0" encoding="utf-8"?>
<!-- Generator: Adobe Illustrator 20.0.0, SVG Export Plug-In . SVG Version: 6.00 Build 0)  -->
<svg version="1.1" id="Layer_1" xmlns="http://www.w3.org/2000/svg" xmlns:xlink="http://www.w3.org/1999/xlink" x="0px" y="0px"
	 width="500px" height="500px" viewBox="0 0 500 500" enable-background="new 0 0 500 500" xml:space="preserve">
<title>009-stage-quiz</title>
<path d="M108.2,1.3h-72c-19.9,0-36,16.1-36,36l0,0v72c0,19.9,16.1,36,36,36h72c19.9,0,36-16.1,36-36v-72
	C144.2,17.4,128.1,1.3,108.2,1.3C108.2,1.3,108.2,1.3,108.2,1.3z M108.2,109.3h-72v-72h72V109.3z"/>
<path d="M108.2,354.7h-72c-19.9,0-36,16.1-36,36v72c0,19.9,16.1,36,36,36h72c19.9,0,36-16.1,36-36v-72
	C144.2,370.9,128.1,354.7,108.2,354.7z M108.2,462.7h-72v-72h72V462.7z"/>
<path d="M499.6,66.8c0-9.9-8.1-18-18-18H216.4c-9.9,0-18,8.1-18,18c0,9.9,8.1,18,18,18h265.3c9.9,0.2,18.2-7.7,18.4-17.6
	c0,0,0,0,0,0v-0.4H499.6z"/>
<path d="M499.6,246.8c0-9.9-8.1-18-18-18H216.4c-9.9,0-18,8.1-18,18c0,9.9,8.1,18,18,18h265.3c9.9,0.2,18.2-7.7,18.4-17.6
	c0,0,0,0,0,0v-0.4H499.6z"/>
<path d="M499.6,429.3c0-9.9-8.1-18-18-18H216.4c-9.9,0-18,8.1-18,18c0,9.9,8.1,18,18,18h265.3c9.9,0.2,18.2-7.7,18.4-17.6
	c0,0,0,0,0,0v-0.4H499.6z"/>
<path d="M174.2,197.8c7.1-7.1,7.1-18.5,0-25.6c-7.1-7.1-18.5-7.1-25.6,0l-84.6,85L31,224.4c-7.1-7.1-18.5-7.1-25.6-0.1
	s-7.1,18.5-0.1,25.6l58.7,58.3L174.2,197.8z"/>
</svg>
