<?xml version="1.0" encoding="utf-8"?>
<!-- Generator: Adobe Illustrator 20.1.0, SVG Export Plug-In . SVG Version: 6.00 Build 0)  -->
<svg version="1.1" id="Layer_1" xmlns="http://www.w3.org/2000/svg" xmlns:xlink="http://www.w3.org/1999/xlink" x="0px" y="0px"
	 width="500px" height="500px" viewBox="0 0 500 500" enable-background="new 0 0 500 500" xml:space="preserve">
<path d="M270,20l-79.9,62.4l79.9,62.4h199.9V20H270z M448.1,123H277.5l-52-40.6l52-40.6h170.6V123z M270,189.1l-79.9,62.4l79.9,62.4
	h199.9V189.1H270z M448.1,292H277.5l-51.9-40.6l51.9-40.6h170.6V292z M269.9,355.3l-79.8,62.9L270,480h199.9V355.3H269.9z
	 M448.1,458.2H277.5l-52-40.2l52-41h170.6V458.2z M342.1,100.1h26.4l4.2,11h11.4l-22.6-57.4H349l-22.6,57.4h11.4L342.1,100.1z
	 M355.3,63.8l10.3,27.4H345L355.3,63.8z M378.2,264.7c0-7.1-5-13.2-11.1-14.2c5.3-1.1,10-5.9,10-13.2c0-8.1-5.8-14.6-16.4-14.6
	h-28.2v57.4h29C372.3,280.2,378.2,273.6,378.2,264.7z M342.5,231.7h16.1c5.2,0,8.1,3.2,8.1,7.5s-2.9,7.4-8.1,7.4h-16.1V231.7z
	 M342.5,271.4v-15.9H359c5.7,0,8.8,3.6,8.8,7.9c0,5-3.3,8-8.8,8H342.5z M360,447.4c11.6,0,18.7-6.1,23.1-12.9l-8.6-4.4
	c-2.8,4.8-8.3,8.3-14.5,8.3c-11.4,0-19.8-8.7-19.8-20.7c0-12.1,8.4-20.8,19.8-20.8c6.2,0,11.7,3.6,14.5,8.4l8.6-4.4
	C378.8,394,371.6,388,360,388c-17,0-30.1,12-30.1,29.7C329.9,435.3,343,447.4,360,447.4z M92.1,197c-30.1,0-54.5,24.4-54.5,54.5
	S62,306,92.1,306c30.1,0,54.5-24.4,54.5-54.5S122.2,197,92.1,197z M92.1,284.2c-18,0-32.7-14.7-32.7-32.7s14.7-32.7,32.7-32.7
	s32.7,14.7,32.7,32.7S110.1,284.2,92.1,284.2z M92.1,365.4c-30.1,0-54.5,24.4-54.5,54.5c0,30.1,24.4,54.5,54.5,54.5
	c30.1,0,54.5-24.4,54.5-54.5C146.6,389.8,122.2,365.4,92.1,365.4z M92.1,452.6c-18,0-32.7-14.7-32.7-32.7s14.7-32.7,32.7-32.7
	s32.7,14.7,32.7,32.7S110.1,452.6,92.1,452.6z M135.1,36.5l-59,59L53.4,72.7c-5.3-5.3-14-5.3-19.3,0s-5.3,14,0,19.3l42,42l78.3-78.3
	c5.3-5.3,5.3-14,0-19.3C149.1,31.2,140.4,31.2,135.1,36.5z"/>
</svg>
