<svg xmlns="http://www.w3.org/2000/svg" viewBox="0 0 14.06 13.86"><title>Asset 10</title><g id="Layer_2" data-name="Layer 2"><g id="Icons"><path d="M6.9,8.38A6.21,6.21,0,0,1,11,9.85l.64-.64a6.86,6.86,0,0,0-3.3-1.6l-.17,0,.17-.07a3.86,3.86,0,1,0-2.78,0l.16.07-.17,0A6.57,6.57,0,0,0,0,13.86H8.44l-.9-.9H1V12.9A5.88,5.88,0,0,1,6.9,8.38Zm-3-4.49a3,3,0,1,1,3,3A3,3,0,0,1,3.94,3.89Zm9.42,7.79-.7.7c0,.17.09.34.13.52V13h-.72l-.9.9h2.61A6,6,0,0,0,13.36,11.68Zm.55-2-4.1,4.1L9,13,7.7,11.71A.5.5,0,0,1,8.41,11l1.4,1.4,1.84-1.85L13.2,9a.51.51,0,0,1,.71,0A.5.5,0,0,1,13.91,9.71Z"/></g></g></svg>