<?xml version="1.0" encoding="utf-8"?>
<!-- Generator: Adobe Illustrator 20.0.0, SVG Export Plug-In . SVG Version: 6.00 Build 0)  -->
<svg version="1.1" id="Layer_1" xmlns="http://www.w3.org/2000/svg" xmlns:xlink="http://www.w3.org/1999/xlink" x="0px" y="0px"
	 width="500px" height="500px" viewBox="0 0 500 500" enable-background="new 0 0 500 500" xml:space="preserve">
<title>010-stage-advocateconf</title>
<path d="M246.2,299.6c53.5-0.8,105.5,17.8,146.3,52.4l22.8-22.8c-33.4-29.3-74.1-49-117.7-57.1h-6.1l6.1-2.5
	c70.9-27.4,106.2-107.1,78.9-178C349,20.6,269.3-14.7,198.4,12.7s-106.2,107.1-78.9,178c14,36.2,42.6,64.9,78.9,78.9l5.7,2.5H198
	C87.2,289.6,4.2,383,0,495.1h301.1L269,463H35.7v-2.1C58.7,364,146.7,296.6,246.2,299.6z M140.6,139.4c0.4-58.7,48.3-106,107-105.6
	c58.7,0.4,106,48.3,105.6,107c-0.4,58.7-48.3,106-107,105.6c-58.6-0.3-105.9-48.1-105.6-106.7C140.6,139.6,140.6,139.5,140.6,139.4z
	"/>
<path d="M475.3,417.4l-25,25c0.9,6.3,2.5,12.5,4.6,18.6v3.6h-25.7l-32.1,32.1h93.1c0.5-27-4.1-53.9-13.6-79.2L475.3,417.4z"/>
<path d="M494.9,346L348.6,492.3l-27.5-27.8l-46.4-46c-7-7-7-18.3,0-25.3c7-7,18.3-7,25.3,0l0,0l50,50l65.7-66l55.3-55.3
	c6.9-7,18.2-7,25.2-0.1c0,0,0.1,0.1,0.1,0.1C501.7,329.1,501.1,339.3,494.9,346z"/>
</svg>
