<?xml version="1.0" encoding="iso-8859-1"?>
<!-- Generator: Adobe Illustrator 20.1.0, SVG Export Plug-In . SVG Version: 6.00 Build 0)  -->
<svg version="1.1" id="Layer_1" xmlns="http://www.w3.org/2000/svg" xmlns:xlink="http://www.w3.org/1999/xlink" x="0px" y="0px"
	 width="500px" height="500px" viewBox="0 0 500 500" enable-background="new 0 0 500 500" xml:space="preserve">
<g>
	<path d="M333.1,286c23.7,10.5,44.9,25.4,62.8,43.4l9.5-9.5c1.9-1.9,4.1-3.7,6.2-5.4c-16.8-17.2-36.3-31.6-57.8-42.6
		C347.3,277.2,340.4,281.9,333.1,286z"/>
	<path d="M467.7,409.7l-17.8,17.8c1.9,8,3.2,16.1,4.1,24.5h-28.6l-21.5,21.5h72.9C476.8,451.4,473.5,429.9,467.7,409.7z"/>
	<path d="M248.2,452H45.8c8-74.2,55.5-136.8,120.9-166c-7.1-4.1-14-8.8-20.4-14c-73.1,37.6-123,113.8-123,201.5h246L252,456.3
		C250.8,455.1,249.5,453.5,248.2,452z"/>
	<path d="M196.6,253.1c16.1,8.2,34.2,12.5,53.3,12.5c19.1,0,37.4-4.3,53.5-12.5c41.1-19.6,69.2-61.5,69.2-110.3
		C372.7,75.1,317.8,20,249.9,20c-67.7,0-122.6,55.1-122.6,122.8C127.3,191.6,155.5,233.5,196.6,253.1z M249.9,41.5
		c55.9,0,101.3,45.6,101.3,101.3c0,55.9-45.4,101.3-101.3,101.3c-55.7,0-101.1-45.4-101.1-101.3C148.8,87.1,194.2,41.5,249.9,41.5z"
		/>
	<path d="M450.1,366.5l0.9-0.9c4.3-4.3,4.3-11,0-15.3c-3.2-3.2-8-3.9-12-2.2c-1.1,0.4-2.2,1.3-3,2.2l-13.1,13.1l-86.2,86.2
		l-38.9-38.9c-4.1-4.1-11-4.1-15.1,0c-4.3,4.3-4.3,11,0,15.3l26,26l21.5,21.5l6.5,6.5l6.5-6.5l21.5-21.5l69.2-69.2L450.1,366.5z"/>
</g>
</svg>
