<?xml version="1.0" encoding="UTF-8" standalone="no"?>
<svg width="14px" height="12px" viewBox="0 0 14 12" version="1.1" xmlns="http://www.w3.org/2000/svg" xmlns:xlink="http://www.w3.org/1999/xlink">
    <!-- Generator: Sketch 3.8.2 (29753) - http://www.bohemiancoding.com/sketch -->
    <title>123-stage-img</title>
    <desc>Created with Sketch.</desc>
    <defs></defs>
    <g id="Page-1" stroke="none" stroke-width="1" fill="none" fill-rule="evenodd">
        <g id="123-stage-img" fill="#000000">
            <g id="Layer_2">
                <g id="Icons">
                    <path d="M13,0 L1,0 C0.44771525,-3.38176876e-17 6.76353751e-17,0.44771525 0,1 L0,11 C6.76353751e-17,11.5522847 0.44771525,12 1,12 L13,12 C13.5522847,12 14,11.5522847 14,11 L14,1 C14,0.44771525 13.5522847,3.38176876e-17 13,0 L13,0 Z M13,11 L1,11 L1,1 L13,1 L13,11 Z M4.19,2.68 C4.63984092,2.67594722 5.04764619,2.94380531 5.22260835,3.35824653 C5.39757051,3.77268774 5.30508786,4.25174939 4.98843199,4.57128395 C4.67177611,4.89081851 4.19357102,4.98763268 3.77756344,4.81642821 C3.36155586,4.64522374 3.09001826,4.23985917 3.09,3.79 C3.08997528,3.18084803 3.58087275,2.68548786 4.19,2.68 L4.19,2.68 Z M4.19,1.98 C3.1903646,1.98 2.38,2.7903646 2.38,3.79 C2.38,4.7896354 3.1903646,5.6 4.19,5.6 C5.1896354,5.6 6,4.7896354 6,3.79 C5.98904004,2.79818384 5.18187671,1.99993945 4.19,2 L4.19,1.98 Z M12,7.18 C11.9359027,7.24661409 11.847444,7.2842565 11.755,7.2842565 C11.662556,7.2842565 11.5740973,7.24661409 11.51,7.18 L9.67,5.36 L7.08,8 L8.53,9.41 C8.59661409,9.4740973 8.6342565,9.56255596 8.6342565,9.655 C8.6342565,9.74744404 8.59661409,9.8359027 8.53,9.9 C8.46955815,9.9694968 8.38210237,10.0095807 8.29,10.01 C8.18168452,10.0189904 8.07510527,9.97856378 8,9.9 L5.29,7.15 L2.53,9.9 C2.39469023,10.0463555 2.16635546,10.0553098 2.02000001,9.91999999 C1.87364455,9.78469023 1.86469024,9.55635546 2,9.41 L5.29,6.16 L6.59,7.46 L9.67,4.37 L12,6.69 C12.0666141,6.7540973 12.1042565,6.84255596 12.1042565,6.935 C12.1042565,7.02744404 12.0666141,7.1159027 12,7.18 L12,7.18 Z" id="Shape"></path>
                </g>
            </g>
        </g>
    </g>
</svg>