<svg xmlns="http://www.w3.org/2000/svg" viewBox="0 0 14 12"><title>Asset 11</title><g id="Layer_2" data-name="Layer 2"><g id="Icons"><path d="M13,0H1A1,1,0,0,0,0,1V11a1,1,0,0,0,1,1H13a1,1,0,0,0,1-1V1A1,1,0,0,0,13,0Zm0,11H1V1H13ZM4.19,2.68A1.11,1.11,0,1,1,3.09,3.79,1.11,1.11,0,0,1,4.19,2.68Zm0-.7A1.81,1.81,0,1,0,6,3.79,1.81,1.81,0,0,0,4.19,2ZM12,7.18a.34.34,0,0,1-.49,0L9.67,5.36,7.08,8,8.53,9.41a.34.34,0,0,1,0,.49.32.32,0,0,1-.24.11A.36.36,0,0,1,8,9.9L5.29,7.15,2.53,9.9A.35.35,0,0,1,2,9.41L5.29,6.16l1.3,1.3L9.67,4.37,12,6.69A.34.34,0,0,1,12,7.18Z"/></g></g></svg>