<?xml version="1.0" encoding="iso-8859-1"?>
<!-- Generator: Adobe Illustrator 20.1.0, SVG Export Plug-In . SVG Version: 6.00 Build 0)  -->
<svg version="1.1" id="Layer_1" xmlns="http://www.w3.org/2000/svg" xmlns:xlink="http://www.w3.org/1999/xlink" x="0px" y="0px"
	 width="500px" height="500px" viewBox="0 0 500 500" enable-background="new 0 0 500 500" xml:space="preserve">
<g>
	<path d="M489.6,34.2H10.4C4.7,34.2,0,38.9,0,44.6v410.7c0,5.8,4.7,10.4,10.4,10.4h479.1c5.8,0,10.4-4.7,10.4-10.4V44.6
		C500,38.9,495.3,34.2,489.6,34.2z M479.1,444.9H20.9V55.1h458.3V444.9z"/>
	<path d="M149.1,242.3c43.9,0,79.6-35.6,79.6-79.6c0-43.9-35.6-79.6-79.6-79.6s-79.6,35.6-79.6,79.6
		C69.5,206.7,105.1,242.3,149.1,242.3z M149.1,104c32.4,0,58.7,26.3,58.7,58.7c0,32.4-26.3,58.7-58.7,58.7
		c-32.4,0-58.7-26.3-58.7-58.7C90.3,130.4,116.7,104,149.1,104z"/>
	<path d="M63.1,413.3L179.4,297l116.3,116.3c2,2,4.7,3.1,7.4,3.1c2.7,0,5.3-1,7.4-3.1c4.1-4.1,4.1-10.7,0-14.7l-62.9-62.9L360.2,223
		l77.9,77.9c4.1,4.1,10.7,4.1,14.7,0c4.1-4.1,4.1-10.7,0-14.7l-92.6-92.7L232.8,320.9l-53.4-53.4l-131,131c-4.1,4.1-4.1,10.7,0,14.7
		S59,417.3,63.1,413.3z"/>
</g>
</svg>
