<?xml version="1.0" encoding="iso-8859-1"?>
<!-- Generator: Adobe Illustrator 20.1.0, SVG Export Plug-In . SVG Version: 6.00 Build 0)  -->
<svg version="1.1" id="Layer_1" xmlns="http://www.w3.org/2000/svg" xmlns:xlink="http://www.w3.org/1999/xlink" x="0px" y="0px"
	 width="500px" height="500px" viewBox="0 0 500 500" enable-background="new 0 0 500 500" xml:space="preserve">
<g>
	<path d="M405.9,230.1c-15.5,0-29.9,3.8-42.7,10.5c0.2,3.1,0.2,6.3,0.2,9.4c0,2.9,0,5.6-0.2,8.4c12.3-7.9,27-12.6,42.7-12.6
		c43.3,0,78.5,35.4,78.5,78.7s-35.1,78.5-78.5,78.5c-33.1,0-61.3-20.3-73-49.2c-3.1,5-6.5,9.8-10.5,14.6
		c15.9,29.9,47.3,50.2,83.5,50.2c51.9,0,94.1-42.3,94.1-94.1C500,272.4,457.7,230.1,405.9,230.1z"/>
	<circle cx="371.5" cy="300.9" r="10.5"/>
	<circle cx="440.1" cy="300.9" r="10.5"/>
	<path d="M364.7,371.5c1.3,0.8,2.7,1.2,4.1,1.2c2.6,0,5.2-1.3,6.7-3.7c6.5-10.7,17.9-17.1,30.3-17.1c12.4,0,23.7,6.4,30.3,17
		c2.3,3.7,7.1,4.9,10.8,2.6c3.7-2.3,4.8-7.1,2.6-10.8c-9.4-15.3-25.7-24.5-43.6-24.5c-17.9,0-34.2,9.2-43.7,24.5
		C359.8,364.4,361,369.2,364.7,371.5z"/>
	<path d="M339.3,282.6c1.7-9,2.7-18.4,2.9-27.8c0.2-1.7,0.2-3.1,0.2-4.8c0-94.4-76.8-171.3-171.3-171.3C76.8,78.7,0,155.6,0,250
		s76.8,171.3,171.1,171.3c59.4,0,111.9-30.3,142.7-76.6c5.2-7.7,9.8-16.1,13.6-24.7C332.8,308.2,336.8,295.6,339.3,282.6z
		 M171.1,400.4c-82.8,0-150.2-67.6-150.2-150.4c0-82.8,67.4-150.4,150.2-150.4c82.8,0,150.4,67.6,150.4,150.4
		C321.5,332.8,254,400.4,171.1,400.4z"/>
	<circle cx="107.4" cy="206.3" r="19.5"/>
	<circle cx="235" cy="206.3" r="19.5"/>
	<path d="M251.3,276.5c-5.5-1.9-11.4,1.2-13.2,6.7c-9.6,29.2-36.5,48.8-66.9,48.8c-30.4,0-57.3-19.6-66.9-48.8
		c-1.8-5.5-7.7-8.5-13.2-6.7c-5.5,1.8-8.5,7.7-6.7,13.2c12.5,37.8,47.3,63.1,86.8,63.1c39.5,0,74.3-25.4,86.8-63.1
		C259.8,284.3,256.8,278.3,251.3,276.5z"/>
</g>
</svg>
