<?xml version="1.0" encoding="utf-8"?>
<!-- Generator: Adobe Illustrator 20.0.0, SVG Export Plug-In . SVG Version: 6.00 Build 0)  -->
<svg version="1.1" id="Layer_1" xmlns="http://www.w3.org/2000/svg" xmlns:xlink="http://www.w3.org/1999/xlink" x="0px" y="0px"
	 width="500px" height="500px" viewBox="0 0 500 500" enable-background="new 0 0 500 500" xml:space="preserve">
<title>012-stage-nps</title>
<path d="M404.1,218c-12.3,0.1-24.4,2.7-35.7,7.5c0.4,5.8,0.4,11.6,0,17.4c0.4,4,0.4,8.1,0,12.1c33.7-19.8,77.1-8.4,96.9,25.3
	c19.8,33.7,8.4,77.1-25.3,96.9c-33.7,19.8-77.1,8.4-96.9-25.3c-1.6-2.7-3-5.5-4.2-8.4c-5.4,8.6-11.6,16.7-18.5,24.2
	c28.9,45.4,89.1,58.8,134.5,29.9s58.8-89.1,29.9-134.5C466.9,235,435.9,218,402.5,218L404.1,218z"/>
<path d="M447.8,292.7c-0.2,5.7-5,10.1-10.7,9.9c-5.7-0.2-10.1-5-9.9-10.7c0.2-5.7,5-10.1,10.7-9.9c5.4,0.2,9.7,4.5,9.9,9.9
	C447.8,292.2,447.8,292.4,447.8,292.7z"/>
<path d="M381.1,292.7c-0.2,5.7-5,10.1-10.7,9.9c-5.7-0.2-10.1-5-9.9-10.7c0.2-5.7,5-10.1,10.7-9.9c5.4,0.2,9.7,4.5,9.9,9.9
	C381.2,292.2,381.2,292.4,381.1,292.7z"/>
<path d="M368,363.8c-3.6,1.7-7.8,0.1-9.5-3.4c-1.4-3-0.6-6.6,2-8.6c14.7-24.2,46.2-31.8,70.3-17.2c7,4.3,12.9,10.1,17.2,17.2
	c2.6,4.2,1.2,9.7-3,12.3c-4.2,2.6-9.7,1.2-12.3-3l0,0c-9.7-15.7-30.3-20.6-46-10.9c-4.4,2.7-8.2,6.5-10.9,10.9
	C373.9,363.1,370.9,364.2,368,363.8z"/>
<path d="M94.4,200.4c-0.2-10.5,8.1-19.1,18.6-19.3c10.5-0.2,19.1,8.1,19.3,18.6c0.2,10.5-8.1,19.1-18.6,19.3c-0.1,0-0.2,0-0.4,0
	C103,219,94.5,210.7,94.4,200.4z"/>
<path d="M218.7,200.4c-0.2-10.5,8.1-19.1,18.6-19.3c10.5-0.2,19.1,8.1,19.3,18.6c0.2,10.5-8.1,19.1-18.6,19.3c-0.1,0-0.2,0-0.4,0
	C227.3,219,218.9,210.7,218.7,200.4z"/>
<path d="M267.7,282.9c0,0.4-0.4,0.7-0.4,1.1c-16,50.8-70.2,79-121,63c-30-9.5-53.5-33-63-63c-3.1-9.4,2-19.5,11.4-22.6
	c9-3,18.7,1.6,22.2,10.4c0,0.5,0.1,1,0.4,1.4c10.6,32.1,45.1,49.5,77.2,38.9c18.4-6.1,32.8-20.5,38.9-38.9c2-9.7,11.4-15.9,21.1-14
	c9.7,2,15.9,11.4,14,21.1C268.2,281.2,268,282.1,267.7,282.9z"/>
<path d="M349.8,234.7c-5.2-96.5-87.7-170.5-184.2-165.3S-5,157,0.3,253.5s87.7,170.5,184.2,165.3c51.1-2.8,98.5-27.8,129.6-68.5
	c7.8-10.2,14.3-21.4,19.3-33.2c6.7-13.8,11.4-28.5,13.9-43.6c1.8-10,2.8-20.2,2.9-30.4C350.2,240.4,350.1,237.5,349.8,234.7z
	 M273.7,341.5c-54.4,54.4-142.6,54.5-197,0.2s-54.5-142.6-0.2-197s142.6-54.5,197-0.2c26.1,26.1,40.8,61.5,40.9,98.4
	C314.4,279.8,299.7,315.2,273.7,341.5z"/>
</svg>
