<svg xmlns="http://www.w3.org/2000/svg" viewBox="0 0 14.1 9.83"><title>Asset 12</title><g id="Layer_2" data-name="Layer 2"><g id="Icons"><path d="M11.35,4.21a2.63,2.63,0,0,0-1,.21,4,4,0,0,1,0,.49,1.94,1.94,0,0,1,0,.34,2,2,0,0,1,1-.29A2,2,0,1,1,9.52,7.74,4.63,4.63,0,0,1,9,8.42a2.74,2.74,0,1,0,2.31-4.21Zm-.65,2.1a.29.29,0,0,1-.29.29.27.27,0,0,1-.27-.26,0,0,0,0,1,0,0,.3.3,0,0,1,0-.16A.25.25,0,0,1,10.41,6,.29.29,0,0,1,10.7,6.31Zm1.88,0A.29.29,0,1,1,12.29,6,.29.29,0,0,1,12.58,6.31Zm-2.24,2a.25.25,0,0,1-.13,0,.25.25,0,0,1-.08-.34,1.44,1.44,0,0,1,2.46,0,.25.25,0,1,1-.43.26.94.94,0,0,0-1.6,0A.25.25,0,0,1,10.34,8.31Zm-.21-2a0,0,0,0,0,0,0,1.29,1.29,0,0,0,0-.19A.3.3,0,0,0,10.13,6.31ZM9.82,4.68a4.92,4.92,0,1,0-1,3.25A4.29,4.29,0,0,0,9.36,7a4.21,4.21,0,0,0,.39-1.23,4.71,4.71,0,0,0,.08-.85A1.7,1.7,0,0,0,9.82,4.68ZM4.91,8.83A3.92,3.92,0,1,1,8.83,4.91,3.92,3.92,0,0,1,4.91,8.83ZM3.7,3.71a.53.53,0,1,1-.53-.53A.53.53,0,0,1,3.7,3.71Zm3.5,0a.53.53,0,1,1-.53-.53A.53.53,0,0,1,7.2,3.71ZM4.91,7.95A2.72,2.72,0,0,1,2.33,6.07a.5.5,0,1,1,.95-.31,1.72,1.72,0,0,0,3.27,0,.5.5,0,1,1,.95.31A2.72,2.72,0,0,1,4.91,7.95Z"/></g></g></svg>