<?xml version="1.0" encoding="UTF-8" standalone="no"?>
<svg width="15px" height="10px" viewBox="0 0 15 10" version="1.1" xmlns="http://www.w3.org/2000/svg" xmlns:xlink="http://www.w3.org/1999/xlink">
    <!-- Generator: Sketch 3.8.2 (29753) - http://www.bohemiancoding.com/sketch -->
    <title>124-stage-nps</title>
    <desc>Created with Sketch.</desc>
    <defs></defs>
    <g id="Page-1" stroke="none" stroke-width="1" fill="none" fill-rule="evenodd">
        <g id="124-stage-nps" transform="translate(-1.000000, 0.000000)" fill="#000000">
            <g id="Layer_2">
                <g id="Icons">
                    <path d="M12.35,4.21 C12.0061432,4.2139505 11.6663988,4.28529683 11.35,4.42 C11.3600136,4.58317986 11.3600136,4.74682014 11.35,4.91 C11.3599504,5.02311493 11.3599504,5.13688507 11.35,5.25 C11.6518835,5.06674019 11.9969091,4.96668276 12.35,4.96 C13.3531017,4.95417417 14.2053435,5.69232524 14.3427604,6.68598691 C14.4801773,7.67964858 13.8602537,8.62139048 12.8932196,8.8880215 C11.9261856,9.15465253 10.9112332,8.66367934 10.52,7.74 C10.3680377,7.98223843 10.1939605,8.20987781 10,8.42 C10.7056518,9.52998127 12.1004725,9.98195141 13.323012,9.4967708 C14.5455514,9.01159018 15.2508608,7.72615621 15.0033366,6.43436107 C14.7558123,5.14256593 13.6252953,4.20889946 12.31,4.21 L12.35,4.21 Z M11.7,6.31 C11.7,6.47016258 11.5701626,6.6 11.41,6.6 C11.2647026,6.60009969 11.1453814,6.4851977 11.14,6.34 C11.1255155,6.2876501 11.1255155,6.2323499 11.14,6.18 C11.173543,6.06180609 11.2879968,5.98550356 11.41,6 C11.4905068,5.9998083 11.5674703,6.03309164 11.6224692,6.09188361 C11.6774682,6.15067558 11.7055524,6.22968468 11.7,6.31 L11.7,6.31 Z M13.58,6.31 C13.5691393,6.46709864 13.4348933,6.5868215 13.2775807,6.5797027 C13.1202681,6.5725839 12.9973842,6.44122526 13.0007571,6.28378777 C13.0041299,6.12635028 13.1325268,6.00037497 13.29,6 C13.3705068,5.9998083 13.4474703,6.03309164 13.5024692,6.09188361 C13.5574682,6.15067558 13.5855524,6.22968468 13.58,6.31 L13.58,6.31 Z M11.34,8.31 C11.2974249,8.32146379 11.2525751,8.32146379 11.21,8.31 C11.0954562,8.23717612 11.0599462,8.08625863 11.13,7.97 C11.3913095,7.54076506 11.8574811,7.27879904 12.36,7.27879904 C12.8625189,7.27879904 13.3286905,7.54076506 13.59,7.97 C13.6364445,8.0468121 13.6383823,8.14256727 13.5950833,8.22119547 C13.5517843,8.29982366 13.4698268,8.34937938 13.3800833,8.35119547 C13.2903398,8.35301156 13.2064445,8.30681211 13.16,8.23 C12.9888056,7.95251411 12.6860459,7.78355851 12.36,7.78355851 C12.0339541,7.78355851 11.7311944,7.95251411 11.56,8.23 C11.5044536,8.29147413 11.4220591,8.32143574 11.34,8.31 L11.34,8.31 Z M11.13,6.31 C11.1346704,6.24675277 11.1346704,6.18324723 11.13,6.12 C11.1094148,6.18166063 11.1094148,6.24833937 11.13,6.31 L11.13,6.31 Z M10.82,4.68 C10.6905031,2.29938048 8.87279195,0.354179518 6.50639639,0.0638507661 C4.14000083,-0.226477986 1.90597174,1.22162236 1.2048302,3.50033237 C0.50368866,5.77904237 1.53722387,8.23254712 3.6575088,9.32273544 C5.77779372,10.4129238 8.37460834,9.82603842 9.82,7.93 C10.0382963,7.64387746 10.2197214,7.33142313 10.36,7 C10.5524326,6.61247651 10.6839774,6.19760471 10.75,5.77 C10.8023438,5.48967275 10.8291204,5.20517094 10.83,4.92 C10.8323299,4.83986428 10.8289882,4.75966413 10.82,4.68 L10.82,4.68 Z M5.91,8.83 C3.74504378,8.83 1.99,7.07495622 1.99,4.91 C1.99,2.74504378 3.74504378,0.99 5.91,0.99 C8.07495622,0.99 9.83,2.74504378 9.83,4.91 C9.83,7.07495622 8.07495622,8.83 5.91,8.83 L5.91,8.83 Z M4.7,3.71 C4.7,4.00271092 4.46271092,4.24 4.17,4.24 C3.87728908,4.24 3.64,4.00271092 3.64,3.71 C3.64,3.41728908 3.87728908,3.18 4.17,3.18 C4.31056474,3.18 4.44537231,3.23583913 4.54476659,3.33523341 C4.64416087,3.43462769 4.7,3.56943526 4.7,3.71 L4.7,3.71 Z M8.2,3.71 C8.2,4.00271092 7.96271092,4.24 7.67,4.24 C7.37728908,4.24 7.14,4.00271092 7.14,3.71 C7.14,3.41728908 7.37728908,3.18 7.67,3.18 C7.96271092,3.18 8.2,3.41728908 8.2,3.71 L8.2,3.71 Z M5.91,7.95 C4.73401783,7.94695298 3.69316823,7.18850444 3.33,6.07 C3.26672697,5.89818288 3.30242786,5.70552312 3.42306311,5.5677852 C3.54369837,5.43004728 3.72997145,5.36926344 3.90862947,5.40933723 C4.0872875,5.44941103 4.22975274,5.58393236 4.28,5.76 C4.5110487,6.46740082 5.17082299,6.94598221 5.915,6.94598221 C6.65917701,6.94598221 7.3189513,6.46740082 7.55,5.76 C7.60024726,5.58393236 7.7427125,5.44941103 7.92137053,5.40933723 C8.10002855,5.36926344 8.28630163,5.43004728 8.40693689,5.5677852 C8.52757214,5.70552312 8.56327303,5.89818288 8.5,6.07 C8.13569115,7.19200626 7.08966832,7.95128152 5.91,7.95 L5.91,7.95 Z" id="Shape"></path>
                </g>
            </g>
        </g>
    </g>
</svg>