<?xml version="1.0" encoding="UTF-8" standalone="no"?>
<svg width="11px" height="14px" viewBox="0 0 11 14" version="1.1" xmlns="http://www.w3.org/2000/svg" xmlns:xlink="http://www.w3.org/1999/xlink">
    <!-- Generator: Sketch 3.8.2 (29753) - http://www.bohemiancoding.com/sketch -->
    <title>125-stage-location</title>
    <desc>Created with Sketch.</desc>
    <defs></defs>
    <g id="Page-1" stroke="none" stroke-width="1" fill="none" fill-rule="evenodd">
        <g id="125-stage-location" fill="#000000">
            <g id="Layer_2">
                <g id="Icons">
                    <path d="M5.22,2.15 C3.7785368,2.15 2.61,3.3185368 2.61,4.76 C2.61,6.2014632 3.7785368,7.37 5.22,7.37 C6.6614632,7.37 7.83,6.2014632 7.83,4.76 C7.83,4.06778496 7.55501865,3.40392125 7.0655487,2.9144513 C6.57607875,2.42498135 5.91221504,2.15 5.22,2.15 L5.22,2.15 Z M5.22,6.37 C4.33082155,6.37 3.61,5.64917845 3.61,4.76 C3.61,3.87082155 4.33082155,3.15 5.22,3.15 C6.10917845,3.15 6.83,3.87082155 6.83,4.76 C6.83,5.18699855 6.66037549,5.59650835 6.35844192,5.89844192 C6.05650835,6.20037549 5.64699855,6.37 5.22,6.37 L5.22,6.37 Z" id="Shape"></path>
                    <path d="M5.22,0 C2.33707361,-1.76528329e-16 3.53056658e-16,2.33707361 0,5.22 C0,8.1 5.22,14 5.22,14 C5.22,14 10.44,8.1 10.44,5.22 C10.44,3.83556992 9.89003729,2.5078425 8.9110974,1.5289026 C7.9321575,0.549962707 6.60443008,8.47718931e-17 5.22,0 L5.22,0 Z M5.22,12.46 C3.35,10.19 1,6.82 1,5.22 C1,2.88935836 2.88935836,1 5.22,1 C7.55064164,1 9.44,2.88935836 9.44,5.22 C9.44,6.82 7.09,10.19 5.22,12.46 L5.22,12.46 Z" id="Shape"></path>
                </g>
            </g>
        </g>
    </g>
</svg>