<?xml version="1.0" encoding="utf-8"?>
<!-- Generator: Adobe Illustrator 20.0.0, SVG Export Plug-In . SVG Version: 6.00 Build 0)  -->
<svg version="1.1" id="Layer_1" xmlns="http://www.w3.org/2000/svg" xmlns:xlink="http://www.w3.org/1999/xlink" x="0px" y="0px"
	 width="500px" height="500px" viewBox="0 0 500 500" enable-background="new 0 0 500 500" xml:space="preserve">
<title>013-stage-location</title>
<path d="M244.8,76.8c-51.5,0-93.2,41.7-93.2,93.2s41.7,93.2,93.2,93.2S338,221.5,338,170l0,0C338,118.5,296.2,76.8,244.8,76.8z
	 M244.8,227.5c-31.8,0-57.5-25.7-57.5-57.5c0-31.8,25.7-57.5,57.5-57.5s57.5,25.7,57.5,57.5c0,0,0,0,0,0
	C302.3,201.7,276.6,227.5,244.8,227.5C244.8,227.5,244.8,227.5,244.8,227.5z"/>
<path d="M244.8,0C141.9,0.1,58.4,83.5,58.4,186.4C58.4,289.3,244.8,500,244.8,500s186.4-210.7,186.4-313.6
	C431.1,83.5,347.7,0.1,244.8,0z M94.1,186.4c0-83.2,67.5-150.7,150.7-150.7c83.2,0,150.7,67.5,150.7,150.7
	c0,57.1-83.9,177.5-150.7,258.6C178,363.9,94.1,243.6,94.1,186.4z"/>
</svg>
