<?xml version="1.0" encoding="iso-8859-1"?>
<!-- Generator: Adobe Illustrator 20.1.0, SVG Export Plug-In . SVG Version: 6.00 Build 0)  -->
<svg version="1.1" id="Layer_1" xmlns="http://www.w3.org/2000/svg" xmlns:xlink="http://www.w3.org/1999/xlink" x="0px" y="0px"
	 width="500px" height="500px" viewBox="0 0 500 500" enable-background="new 0 0 500 500" xml:space="preserve">
<g>
	<path d="M250,76.7c-51.5,0-93.2,41.7-93.2,93.2s41.7,93.2,93.2,93.2s93.2-41.7,93.2-93.2S301.5,76.7,250,76.7z M250,242.4
		c-39.9,0-72.4-32.5-72.4-72.4s32.5-72.4,72.4-72.4s72.4,32.5,72.4,72.4S289.9,242.4,250,242.4z"/>
	<path d="M250,0C147,0,63.5,83.5,63.5,186.5C63.5,289.5,250,500,250,500s186.5-210.5,186.5-313.5C436.5,83.5,353,0,250,0z
		 M250,468.1C192.5,400,84.4,257.4,84.4,186.5c0-91.3,74.3-165.6,165.6-165.6s165.6,74.3,165.6,165.6
		C415.6,257.3,307.5,400,250,468.1z"/>
</g>
</svg>
