<?xml version="1.0" encoding="utf-8"?>
<!-- Generator: Adobe Illustrator 20.0.0, SVG Export Plug-In . SVG Version: 6.00 Build 0)  -->
<svg version="1.1" id="Layer_1" xmlns="http://www.w3.org/2000/svg" xmlns:xlink="http://www.w3.org/1999/xlink" x="0px" y="0px"
	 width="500px" height="500px" viewBox="0 0 500 500" enable-background="new 0 0 500 500" xml:space="preserve">
<title>014-stage-question</title>
<path d="M266.1,296.1c8.8,9,8.6,23.4-0.4,32.1c-4.3,4.2-10,6.5-16,6.5c-12.5-0.1-22.6-10.4-22.4-22.9c0.1-12.5,10.4-22.6,22.9-22.4
	C256.1,289.4,261.9,291.8,266.1,296.1z"/>
<path d="M212.1,151.1l-35.4-3.6c1.8-18.2,10.7-35,24.6-46.8c14.2-11.8,32.3-17.9,50.7-17.1c9.1,0,18.2,1.4,26.8,4.3
	c8.2,2.5,15.8,6.8,22.1,12.5c6.1,5.4,11,12.1,14.3,19.6c3.9,8.5,5.7,17.8,5.4,27.1c0,7.7-1.5,15.3-4.3,22.5
	c-2.5,6.7-6,12.9-10.4,18.6l-20.7,21.1l-2.9,3.2l-8.2,7.1c-2,2.2-3.5,4.8-4.6,7.5c-1.4,2.8-2.2,5.8-2.5,8.9c-0.4,3.9-0.4,7.9,0,11.8
	v16.4h-33.2v-21.1c-0.4-5.1-0.4-10.2,0-15.4c1.1-3.8,2.5-7.5,4.3-11.1c2.1-3.5,4.6-6.7,7.5-9.6l11.4-11.1l11.1-10
	c3.5-3.4,6.7-7.1,9.6-11.1c3.2-3.6,5.7-7.7,7.5-12.1c2-4.4,3-9.1,2.9-13.9c0.1-5-0.9-10-2.9-14.6c-1.7-4.4-4.4-8.3-7.9-11.4
	c-3.3-3.2-7.2-5.8-11.4-7.5c-4.5-1.8-9.4-2.8-14.3-2.9c-10.1-0.4-20,3.5-27.1,10.7C217.4,130.8,213,140.6,212.1,151.1z"/>
<path d="M462.5,0H37.5C18-0.1,2.2,15.6,2.1,35.1c0,0.1,0,0.2,0,0.3v354.3C2,409.2,17.7,425,37.2,425.1c0.1,0,0.2,0,0.3,0h70.7
	c-3.5,15.6-8.6,30.8-15,45.4c-5,7.3-5,17,0,24.3c0,0,3.9,4.6,6.4,5c3.6,0.4,7.2,0.4,10.7,0c50.9-15.7,98.3-41.1,139.7-74.7h212.5
	c19.5,0.1,35.3-15.6,35.4-35.1c0-0.1,0-0.2,0-0.3V35.4C498,15.9,482.3,0.1,462.8,0C462.7,0,462.6,0,462.5,0z M462.5,389.7H237.1
	l-8.9,7.1c-10.7,8.2-24.6,17.9-40,28.2c-15.9,10.6-32.5,20.2-49.7,28.6c2.9-9.4,5.3-18.9,7.1-28.6c2.8-11.6,4.4-23.4,4.6-35.4H37.5
	V35.4h425.1V389.7z"/>
</svg>
