<?xml version="1.0" encoding="iso-8859-1"?>
<!-- Generator: Adobe Illustrator 20.1.0, SVG Export Plug-In . SVG Version: 6.00 Build 0)  -->
<svg version="1.1" id="Layer_1" xmlns="http://www.w3.org/2000/svg" xmlns:xlink="http://www.w3.org/1999/xlink" x="0px" y="0px"
	 width="500px" height="500px" viewBox="0 0 500 500" enable-background="new 0 0 500 500" xml:space="preserve">
<g>
	<path d="M242,282.1c-4.9,0-9,1.7-12.5,5.2c-3.2,3.4-4.9,7.5-4.9,12.5c0,4.7,1.7,8.8,5.4,12.3c3.4,3.4,7.5,5.2,12,5.2
		c4.5,0,8.4-1.7,12-5.2c3.7-3.4,5.4-7.5,5.4-12.3c0-4.9-1.7-9-5.2-12.5C251.1,283.8,247,282.1,242,282.1z"/>
	<path d="M220.3,133.6c6.2-5.8,14.2-8.6,24.1-8.6c9.7,0,17.2,2.8,22.6,8.8c5.6,6,8.2,13.6,8.2,22.8c0,4.7-0.6,8.8-2.4,12.5
		c-1.5,3.9-3.4,7.3-5.8,10.5c-2.6,3.4-5.2,6.5-8.2,9.5c-3,3-6,6-9,9.2c-3.9,3.9-6.9,7.1-9.5,9.9c-2.6,2.6-4.5,5.4-6.2,8.2
		c-1.5,2.8-2.6,6-3.2,9.5c-0.6,3.7-1.1,8-1.1,13.6v18.3h24.5v-13.3c0-4.1,0-7.5,0.4-10.3c0.2-3,0.9-5.6,1.9-7.7
		c0.9-2.4,2.4-4.5,4.1-6.7c1.9-2.2,4.3-4.7,7.5-7.7c4.3-4.1,8.4-8,12.5-12c4.1-3.9,7.5-8.2,10.5-12.5c3-4.3,5.6-9,7.3-14.2
		c1.9-5.2,2.8-11,2.8-17.4c0-8.4-1.5-15.7-4.3-22.2c-3-6.7-7.1-12-12-16.3c-5.2-4.3-11.2-7.7-18.1-9.9c-6.9-2.2-14.4-3.4-22.4-3.4
		c-8,0-15.5,1.3-22.4,3.4c-7.1,2.2-13.1,5.4-18.7,9.7c-5.4,4.1-9.9,9.3-13.6,15.5c-3.4,6.2-6,13.3-7.3,21.3l26.2,2.8
		C210.4,147.2,214.3,139.4,220.3,133.6z"/>
	<path d="M453.5,25.4h-407C34.7,25.4,25,35.1,25,47v342.7c0,11.8,9.7,21.5,21.5,21.5H128c-3.2,14-8,28.4-14.4,43
		c-2.6,6-4.7,11-0.4,16.3c0,0,0.8,1.4,4.2,3.1c3.3,1.8,6.6,0.5,6.6,0.5c38.1-8.4,86.9-41.1,116.4-63h213.2
		c11.8,0,21.5-9.7,21.5-21.5V47C475,35.1,465.3,25.4,453.5,25.4z M453.5,389.6H267.9h-34.6c-8.2,6-18.5,13.8-29.9,21.5
		c-19.8,13.1-42.6,27.1-63.5,35.5c4.3-12,7.7-23.9,10.3-35.5c1.5-7.3,2.8-14.4,3.7-21.5h-21.9H46.5V47h407V389.6z"/>
</g>
</svg>
