<svg xmlns="http://www.w3.org/2000/svg" viewBox="0 0 14 14.13"><title>Asset 14</title><g id="Layer_2" data-name="Layer 2"><g id="Icons"><path d="M13,0H1A1,1,0,0,0,0,1V11a1,1,0,0,0,1,1H3a7.14,7.14,0,0,1-.43,1.28.6.6,0,0,0,0,.68s.11.14.19.15a2,2,0,0,0,.3,0A11.88,11.88,0,0,0,7,12h6a1,1,0,0,0,1-1V1A1,1,0,0,0,13,0Zm0,11H6.64l-.26.2c-.3.23-.69.51-1.12.8a12.4,12.4,0,0,1-1.41.8,6.31,6.31,0,0,0,.21-.8,5.83,5.83,0,0,0,.13-1H1V1H13Z"/><path d="M6.28,3.48a1,1,0,0,1,.77-.3,1,1,0,0,1,.4.08,1,1,0,0,1,.33.21A1.06,1.06,0,0,1,8,3.79a1,1,0,0,1,.08.41A1,1,0,0,1,8,4.6a1.77,1.77,0,0,1-.21.34,3.17,3.17,0,0,1-.28.31l-.31.29-.32.31a1.19,1.19,0,0,0-.21.27,1.16,1.16,0,0,0-.12.31,2,2,0,0,0,0,.44v.59h.93V7a2.52,2.52,0,0,1,0-.34.85.85,0,0,1,.07-.25.89.89,0,0,1,.14-.21L7.92,6,8,5.91l.58-.6a2,2,0,0,0,.3-.52A1.8,1.8,0,0,0,9,4.15a1.85,1.85,0,0,0-.15-.76,1.62,1.62,0,0,0-.41-.56,1.83,1.83,0,0,0-.62-.35,2.32,2.32,0,0,0-.76-.12,2.16,2.16,0,0,0-1.43.48,2,2,0,0,0-.7,1.32l1,.1A1.3,1.3,0,0,1,6.28,3.48Z"/><path d="M7,8.17a.64.64,0,1,0,.45.19A.61.61,0,0,0,7,8.17Z"/></g></g></svg>