<?xml version="1.0" encoding="utf-8"?>
<!-- Generator: Adobe Illustrator 20.0.0, SVG Export Plug-In . SVG Version: 6.00 Build 0)  -->
<svg version="1.1" id="Layer_1" xmlns="http://www.w3.org/2000/svg" xmlns:xlink="http://www.w3.org/1999/xlink" x="0px" y="0px"
	 width="500px" height="500px" viewBox="0 0 500 500" enable-background="new 0 0 500 500" xml:space="preserve">
<title>015-stage-link</title>
<path d="M471.8,59.3l-31.9-31.9c-38-36.3-97.9-36.3-136,0l-68.2,69c-5.9,7.9-4.3,19.1,3.6,25c6.4,4.8,15.1,4.8,21.4,0l68.7-68.5
	c24-23,61.8-23,85.7,0L447,84.8c23.6,23.7,23.6,62,0,85.7l0,0L328,289.1c-24,23.2-62,23.2-86.1,0l-39.7-38.6
	c-6.9-7-18.3-7.1-25.3-0.1c-7,6.9-7.1,18.3-0.1,25.3c0.1,0.1,0.2,0.2,0.4,0.4l39.9,38.3c37.4,37.6,98.2,37.7,135.7,0.3c0,0,0,0,0,0
	l0.3-0.3l118.6-119c37.6-37.4,37.7-98.2,0.3-135.7c0,0,0,0,0,0L471.8,59.3z"/>
<path d="M244,373l-73.3,73.5c-23.7,23.5-62,23.5-85.7,0l-31.9-32.1c-23.5-23.7-23.5-62,0-85.7l122.2-122.2
	c23.8-23.7,62.3-23.7,86.1,0l39.6,38.6c6,7.8,17.2,9.3,25,3.2s9.3-17.2,3.2-25c-1.1-1.4-2.4-2.7-3.9-3.7l-39.3-37.8
	c-37.4-37.6-98.2-37.7-135.7-0.3c0,0,0,0,0,0l-0.3,0.3L28,304c-37.4,37.6-37.4,98.4,0,136l31.9,31.9c37.6,37.4,98.4,37.4,136,0
	l73.3-73.3c5.9-7.9,4.3-19.1-3.6-25c-6.4-4.8-15.1-4.8-21.4,0L244,373z"/>
</svg>
