<?xml version="1.0" encoding="utf-8"?>
<!-- Generator: Adobe Illustrator 20.1.0, SVG Export Plug-In . SVG Version: 6.00 Build 0)  -->
<svg version="1.1" id="Layer_1" xmlns="http://www.w3.org/2000/svg" xmlns:xlink="http://www.w3.org/1999/xlink" x="0px" y="0px"
	 width="500px" height="500px" viewBox="0 0 500 500" enable-background="new 0 0 500 500" xml:space="preserve">
<g>
	<path d="M446.2,53.9C401,8.7,327.9,8.7,282.7,53.9l-62,62c12-0.9,24-0.2,35.7,1.9l45.1-45.1c17.3-17.3,40.2-25.9,62.9-25.9
		c22.7,0,45.6,8.6,62.9,25.9c34.7,34.7,34.7,91.1,0,125.8l-45.1,45.1l-38.1,37.9l-10.3,10.3c-7.5,7.5-15.8,13.3-24.8,17.3
		c-17.5,8.3-37.2,10.7-55.8,6.6c-16.5-3.2-32.1-11.1-44.9-24c-12.8-12.8-20.8-28.5-24-44.9l-21.8,21.8c5.6,15.4,14.5,29.7,26.7,42.1
		c12.4,12.2,26.7,21.2,42.1,26.7c12.8,4.7,26.1,7.1,39.6,7.1c3.4,0,7.1-0.2,10.5-0.4c16.5-1.5,32.7-6.6,47.5-15.2
		c8.6-4.9,16.5-10.9,23.7-18.2l31.4-31.4l62-62C491.3,172.2,491.3,99,446.2,53.9z"/>
	<path d="M243.6,382.2l-45.1,45.1c-34.7,34.7-91.1,34.7-125.8,0s-34.7-91.1,0-125.8l45.1-45.1l38.1-37.9l10.3-10.3
		c7.5-7.5,15.8-13.3,24.8-17.3c12-6,25-8.8,38.1-8.8c6,0,12,0.6,18,1.9c16.5,3.4,32.1,11.6,44.7,24.2c12.8,12.8,20.8,28.5,24,44.9
		l21.8-21.8c-5.6-15.4-14.5-29.7-26.7-42.1c-12.4-12.2-26.7-21.2-42.1-26.7c-16-5.8-33.2-7.9-50.1-6.6c-16.5,1.5-32.7,6.6-47.5,15.2
		c-8.6,4.9-16.5,10.9-23.7,18.2l-31.4,31.4l-62,62C9,327.8,9,401,54.1,446.1C76.3,468.7,106,480,135.5,480s59.3-11.3,81.7-33.8
		l62-62c-2.8,0.4-5.6,0.4-8.3,0.4C261.8,384.6,252.6,383.7,243.6,382.2z"/>
</g>
</svg>
