<svg xmlns="http://www.w3.org/2000/svg" viewBox="0 0 14.12 14.09"><title>Asset 15</title><g id="Layer_2" data-name="Layer 2"><g id="Icons"><path d="M13.32,1.66l-.9-.9a2.78,2.78,0,0,0-3.84,0L6.65,2.71a.5.5,0,0,0,.71.71L9.3,1.48a1.75,1.75,0,0,1,2.42,0l.9.9a1.71,1.71,0,0,1,0,2.42L9.26,8.15a1.75,1.75,0,0,1-2.43,0L5.71,7.06A.5.5,0,0,0,5,7.78L6.13,8.86a2.71,2.71,0,0,0,3.84,0L13.32,5.5a2.71,2.71,0,0,0,0-3.84Z"/><path d="M6.89,10.52,4.82,12.59a1.72,1.72,0,0,1-2.42,0l-.9-.9a1.72,1.72,0,0,1,0-2.42L4.95,5.82a1.72,1.72,0,0,1,2.43,0L8.5,6.91a.5.5,0,1,0,.69-.72L8.08,5.12a2.71,2.71,0,0,0-3.84,0L.79,8.57a2.72,2.72,0,0,0,0,3.84l.9.9a2.72,2.72,0,0,0,3.84,0l2.07-2.07a.5.5,0,0,0-.71-.71Z"/></g></g></svg>