<?xml version="1.0" encoding="UTF-8" standalone="no"?>
<svg width="15px" height="15px" viewBox="0 0 15 15" version="1.1" xmlns="http://www.w3.org/2000/svg" xmlns:xlink="http://www.w3.org/1999/xlink">
    <!-- Generator: Sketch 3.8.2 (29753) - http://www.bohemiancoding.com/sketch -->
    <title>127-stage-link</title>
    <desc>Created with Sketch.</desc>
    <defs></defs>
    <g id="Page-1" stroke="none" stroke-width="1" fill="none" fill-rule="evenodd">
        <g id="127-stage-link" transform="translate(-1.000000, -1.000000)" fill="#000000">
            <g id="Layer_2">
                <g id="Icons">
                    <path d="M14.32,2.66 L13.42,1.76 C12.3456154,0.733963442 10.6543846,0.733963442 9.58,1.76 L7.65,3.71 C7.52317072,3.83682928 7.47363824,4.02168699 7.52006098,4.19493902 C7.56648372,4.36819104 7.70180896,4.50351628 7.87506098,4.54993902 C8.04831301,4.59636176 8.23317072,4.54682928 8.36,4.42 L10.3,2.48 C10.9766802,1.83237127 12.0433198,1.83237127 12.72,2.48 L13.62,3.38 C13.9412059,3.70075586 14.1216954,4.13606437 14.1216954,4.59 C14.1216954,5.04393563 13.9412059,5.47924414 13.62,5.8 L10.26,9.15 C9.58202505,9.80403454 8.50797495,9.80403454 7.83,9.15 L6.71,8.06 C6.51117749,7.86393892 6.19106109,7.8661775 5.99500001,8.06500001 C5.79893893,8.26382252 5.8011775,8.58393891 6,8.78 L7.13,9.86 C7.63852464,10.3705158 8.32942822,10.6574886 9.05,10.6574886 C9.77057178,10.6574886 10.4614754,10.3705158 10.97,9.86 L14.32,6.5 C14.8305158,5.99147536 15.1174886,5.30057178 15.1174886,4.58 C15.1174886,3.85942822 14.8305158,3.16852464 14.32,2.66 L14.32,2.66 Z" id="Shape"></path>
                    <path d="M7.89,11.52 L5.82,13.59 C5.14974666,14.2534458 4.07025334,14.2534458 3.4,13.59 L2.5,12.69 C1.83655419,12.0197467 1.83655419,10.9402533 2.5,10.27 L5.95,6.82 C6.62142089,6.14992813 7.70857911,6.14992813 8.38,6.82 L9.5,7.91 C9.62538054,8.04941645 9.81822399,8.10696608 9.99950491,8.05906559 C10.1807858,8.0111651 10.32003,7.86586678 10.3601766,7.68271252 C10.4003232,7.49955826 10.3346232,7.30933715 10.19,7.19 L9.08,6.12 C8.57147536,5.6094842 7.88057178,5.32251144 7.16,5.32251144 C6.43942822,5.32251144 5.74852464,5.6094842 5.24,6.12 L1.79,9.57 C0.732206843,10.6314597 0.732206843,12.3485403 1.79,13.41 L2.69,14.31 C3.75145969,15.3677932 5.46854031,15.3677932 6.53,14.31 L8.6,12.24 C8.79606107,12.0439389 8.79606107,11.7260611 8.59999999,11.53 C8.40393891,11.3339389 8.08606109,11.3339389 7.89,11.53 L7.89,11.52 Z" id="Shape"></path>
                </g>
            </g>
        </g>
    </g>
</svg>