<?xml version="1.0" encoding="utf-8"?>
<!-- Generator: Adobe Illustrator 20.1.0, SVG Export Plug-In . SVG Version: 6.00 Build 0)  -->
<svg version="1.1" id="Layer_1" xmlns="http://www.w3.org/2000/svg" xmlns:xlink="http://www.w3.org/1999/xlink" x="0px" y="0px"
	 width="500px" height="500px" viewBox="0 0 500 500" enable-background="new 0 0 500 500" xml:space="preserve">
<g>
	<path d="M498.8,10.2c-0.2-0.7-0.7-1.4-1.2-2.1c-0.5-0.9-1.2-1.6-2.1-2.1c-0.7-0.7-1.9-1.4-3-1.9c-1.4-0.5-3-0.9-4.5-0.9
		c-0.9,0-1.9,0-2.8,0.5c-0.9,0.2-1.9,0.5-2.8,1.2c-0.5,0-0.9,0.2-1.4,0.7l-0.2,0.2L5.8,276.4c-4.2,2.3-6.6,7.3-5.6,12.2
		c0.7,4.9,4.7,8.7,9.4,9.6l212,37.3l3.8,149.9c0,5.2,3.3,9.4,8.2,11c1.2,0.2,2.3,0.5,3.5,0.5c3.5,0,7.3-1.9,9.4-4.9l58.4-81.6
		l-20.2-12.2l-36.8,51.6l-2.6-103l34.5,20.9l18.8,11.3l20.2,12.2l34.9,21.1l95.7,57.5c1.9,1.2,4,1.6,6.1,1.6c1.9,0,3.8-0.2,5.4-1.2
		c3.8-1.9,6.1-5.6,6.3-9.6L500,15.8v-0.7C500,13.5,499.5,11.6,498.8,10.2z M228.4,313h-0.2L45.7,280.6l392.8-224h0.2L228.4,313z
		 M445.1,439.9l-122.9-74.1l-71.5-43.2L473.7,51L445.1,439.9z"/>
</g>
</svg>
