<svg id="Flat" xmlns="http://www.w3.org/2000/svg" viewBox="0 0 24 24"><title>111-send</title><path d="M22.54,1.68a.187.187,0,0,0-.07-.06.2.2,0,0,1,.09.09C22.56,1.7,22.55,1.69,22.54,1.68Z"/><path d="M22.61,1.8a.405.405,0,0,0-.05-.09.2.2,0,0,0-.09-.09.41.41,0,0,0-.13-.08.645.645,0,0,0-.19-.04.254.254,0,0,0-.12.02.308.308,0,0,0-.12.05.086.086,0,0,0-.06.03l-.01.01L1.59,13.15a.491.491,0,0,0-.24.52.5.5,0,0,0,.4.41l9.04,1.59.16,6.39a.492.492,0,0,0,.35.47.771.771,0,0,0,.15.02.5.5,0,0,0,.4-.21l2.49-3.48-.86-.52-1.57,2.2-.11-4.39,1.47.89.8.48.86.52,1.49.9,4.08,2.45a.485.485,0,0,0,.26.07.455.455,0,0,0,.23-.05.492.492,0,0,0,.27-.41l1.4-18.96V2.01A.5.5,0,0,0,22.61,1.8ZM11.08,14.71h-.01L3.29,13.33,20.04,3.78h.01Zm9.24,5.41-5.24-3.16-3.05-1.84L21.54,3.54Z"/></svg>