<?xml version="1.0" encoding="iso-8859-1"?>
<!-- Generator: Adobe Illustrator 20.1.0, SVG Export Plug-In . SVG Version: 6.00 Build 0)  -->
<svg version="1.1" id="Layer_1" xmlns="http://www.w3.org/2000/svg" xmlns:xlink="http://www.w3.org/1999/xlink" x="0px" y="0px"
	 width="500px" height="500px" viewBox="0 0 500 500" enable-background="new 0 0 500 500" xml:space="preserve">
<g>
	<polygon points="109,162.6 154.9,162.6 154.9,413.8 176.9,413.8 176.9,140.5 86.9,140.5 86.9,413.8 109,413.8 	"/>
	<polygon points="245.4,94.8 291.3,94.8 291.3,413.8 313.3,413.8 313.3,72.8 223.3,72.8 223.3,413.8 245.4,413.8 	"/>
	<polygon points="381.8,261 427.7,261 427.7,413.8 449.8,413.8 449.8,239 359.7,239 359.7,413.8 381.8,413.8 	"/>
	<path d="M470.3,457.9h-20.5h-90.1h-46.4h-90.1h-46.4H86.9H54.4H40.7V31c0-6.2-5.1-11-11-11c-6.2,0-11,4.9-11,11v449h35.8h32.4h90.1
		h46.4h90.1h46.4h90.1h20.5c6,0,11-4.9,11-11C481.3,463,476.2,457.9,470.3,457.9z"/>
</g>
</svg>
