<?xml version="1.0" encoding="utf-8"?>
<!-- Generator: Adobe Illustrator 20.1.0, SVG Export Plug-In . SVG Version: 6.00 Build 0)  -->
<svg version="1.1" id="Layer_1" xmlns="http://www.w3.org/2000/svg" xmlns:xlink="http://www.w3.org/1999/xlink" x="0px" y="0px"
	 width="500px" height="500px" viewBox="0 0 500 500" enable-background="new 0 0 500 500" xml:space="preserve">
<path fill="#010101" d="M201.5,127.1c15.9-2.3,32.2-3.3,48.9-3.3c10.7,0,21.1,0.4,31.3,1.3h0.8c10,0.8,19.8,2.1,29.2,3.8
	c13.2,2.3,25.7,5.4,38,9.2c0.2,0,0.4,0.2,0.8,0.2c11.9,3.8,23.4,8.1,34.5,13.4c5.6,2.7,11.3,5.6,16.7,8.6l4.8,2.7
	c37.8,21.9,61.2,48,75.2,63.5c4.4,4.6,9.2,10,10.9,11.1c3.6,0.8,5.8,3.1,6.9,6.5c1.3,3.6-0.2,6.9-2.3,9.8
	c-2.5,2.9-35.7,43.7-91.9,77.3l-15.5-15.5c42-24.4,71.2-53.5,84-67c-2.1-2.3-4.6-5-7.5-8.1c-11.7-12.7-30.1-33.4-58.9-52.2
	c-1.3,39.5-17.5,75.4-43,101.9l-14.8-14.8C372.8,251,387,218,387,181.6c0-1.7-0.2-3.8-0.2-5.6c0-0.2,0-0.2,0-0.4c-5-2.5-10-5-15-7.1
	c-7.1-3.3-14.6-6.1-22.1-8.4c-4.8-1.9-9.6-3.3-14.6-4.6c-5.4-1.5-10.9-2.9-16.3-4c-2.9-0.8-6.3-1.5-9.4-1.9
	c-1.9-0.4-3.8-0.6-5.6-0.8c-4.6-1-9.2-1.7-14-2.1l-6.9-0.6c-4-0.4-8.1-0.6-12.1-1c-2.3,0-4.8,0-7.1-0.2
	c29.7,6.3,52.2,32.8,52.2,64.5c0,9.4-2.1,18.4-5.4,26.5l-16.5-16.5c0.6-3.3,1-6.7,1-10c0-24.9-20.3-45.1-45.1-45.1
	c-3.3,0-6.9,0.4-10,1L201.5,127.1z M414.1,414.3c-2.1,2.1-4.8,3.1-7.3,3.1c-2.7,0-5.4-1-7.5-3.1l-54.7-54.7
	c-28.4,10.2-60.2,16.7-94.8,16.7c-125.7,0-210.3-85.8-238.1-113.8c-2.7-2.9-4.8-5-6.1-6.1c-1.7-1-3.3-2.3-4.2-4.2
	c-1.9-3.3-1.9-7.3,0.2-10.7c2.1-3.6,40.9-63.9,128-96.9l-44.3-44.3c-4-4.2-4-10.7,0-14.8c4.2-4,10.7-4,14.8,0l313.9,313.9
	C418.1,403.6,418.1,410.1,414.1,414.3z M206.3,221.3c4.2,15.7,16.5,27.8,32,32L206.3,221.3z M146.3,161.4
	c-10.4,3.3-20.9,7.5-30.7,12.5c-0.6,0-1,0.4-1.7,0.6v0.2c-0.2,2.3-0.2,4.6-0.2,6.9c0,75.4,61.2,136.6,136.6,136.6
	c15.9,0,30.9-2.7,45.1-7.7l-35.7-35.7c-3.3,0.6-6.7,0.8-10,0.8c-36.3,0-66-29.7-66-66.2c0-3.3,0.2-6.7,0.8-9.8L146.3,161.4z
	 M327.8,342.9l-16.1-16.1h-0.2c-18.8,7.9-39.5,12.3-61.2,12.3c-85.4,0-155-68.3-157.3-153.1c-37,22.1-59.3,47.6-68.7,59.5
	c0.6,0.6,1.5,1.5,2.1,2.1c26.3,26.7,106.3,107.8,223.3,107.8C277.7,355.4,304,350.6,327.8,342.9z"/>
</svg>
