<?xml version="1.0" encoding="utf-8"?>
<!-- Generator: Adobe Illustrator 20.1.0, SVG Export Plug-In . SVG Version: 6.00 Build 0)  -->
<svg version="1.1" id="Layer_1" xmlns="http://www.w3.org/2000/svg" xmlns:xlink="http://www.w3.org/1999/xlink" x="0px" y="0px"
	 width="500px" height="500px" viewBox="0 0 500 500" enable-background="new 0 0 500 500" xml:space="preserve">
<g>
	<path fill="#231F20" d="M382.4,247l-0.7-0.2l-0.7-0.3c-3-1.3-6.1-2.3-9.3-3l-14.5-3.2l-1.1-14.8c-1.6-20.5-10.8-39.5-25.9-53.6
		c-15.2-14.1-35-21.9-55.7-21.9c-14.3,0-28.3,3.7-40.5,10.6c-12.1,6.8-22.3,16.8-29.5,28.7l-9.7,16.1l-16.7-8.7
		c-4.8-2.5-10.1-3.8-15.6-3.8c-8.7,0-17,3.4-23.3,9.5c-6.3,6.1-9.9,14.2-10.2,22.9l-0.4,12.4l-11.3,5.1
		c-9.8,4.4-18.1,11.5-24.1,20.7c-6,9.2-9.2,19.8-9.2,30.5c0,30.9,25.1,56.1,56,56.1c2.6,0,91-0.4,161.6-0.4
		c32.2,0,56.2,0.1,71.1,0.2c1.6-0.2,7.7-2.3,17-9.3c8.5-6.4,14.6-13.4,17-17.4l0.4-0.6l0.4-0.6c5.7-8.3,8.7-17.9,8.7-28
		C416.1,272.6,402.5,253.8,382.4,247z"/>
	<path fill="#231F20" d="M447.9,20H54.4c-17.9,0-33.2,15.3-33.2,33.2v393.6c0,17.9,15.3,33.2,33.2,33.2h391
		c17.9,0,33.2-15.3,33.2-33.2V53.2C481.1,35.3,465.8,20,447.9,20z M423.9,333.2c-8.9,15.3-36.1,36.6-51.1,36.6c-0.1,0-0.1,0-0.2,0
		c-16.5-0.2-42.4-0.2-71.1-0.2c-72.1,0-161.6,0.4-161.6,0.4c-41.9,0-76.1-34.1-76.1-76.1c0-30.2,18.2-57.4,45-69.4
		c1-28.7,24.6-51.6,53.5-51.6c8.8,0,17.3,2.1,24.9,6.1c18.1-30,50.7-48.9,87.1-48.9C328,130,372,171.5,376,224
		c4.3,1,8.6,2.3,12.7,4.1c28.4,9.5,47.3,35.9,47.3,65.9C436.1,308,431.9,321.6,423.9,333.2z"/>
</g>
</svg>
