<?xml version="1.0" encoding="utf-8"?>
<!-- Generator: Adobe Illustrator 20.1.0, SVG Export Plug-In . SVG Version: 6.00 Build 0)  -->
<svg version="1.1" id="Layer_1" xmlns="http://www.w3.org/2000/svg" xmlns:xlink="http://www.w3.org/1999/xlink" x="0px" y="0px"
	 width="500px" height="500px" viewBox="0 0 500 500" enable-background="new 0 0 500 500" xml:space="preserve">
<path fill="#231F20" d="M447.9,20H54.4c-17.9,0-33.2,15.3-33.2,33.2v393.6c0,17.9,15.3,33.2,33.2,33.2h391
	c17.9,0,33.2-15.3,33.2-33.2V53.2C481.1,35.3,465.8,20,447.9,20z M267.7,103.1c13.1-14.9,31.3-24.3,51.1-26.4
	c1.5,20.1-4.8,40.1-17.7,55.6c-12.6,15.6-31.5,24.5-51.5,24.3C248.3,137,254.8,117.8,267.7,103.1z M366.8,380.3
	c-14.2,21.3-29.2,42.1-52.9,42.5c-23,0.5-30.8-13.5-57.2-13.5c-26.6,0-34.9,13.2-57,14.1c-22.6,0.8-39.8-22.7-54.5-43.8
	c-29.5-43.1-52.4-121.5-21.7-174.8c14.5-26,41.5-42.5,71.2-43.4c22.6-0.5,43.6,15.3,57.4,15.3c13.6,0,39.5-18.8,66.3-16
	c25.4,0.8,49,13.5,63.6,34.3c-23,14.1-37.2,39.1-37.6,66.1c0,30.6,18.3,58.2,46.5,70.1C385.6,348.6,377.4,365.3,366.8,380.3z"/>
</svg>
