<?xml version="1.0" encoding="utf-8"?>
<!-- Generator: Adobe Illustrator 21.0.0, SVG Export Plug-In . SVG Version: 6.00 Build 0)  -->
<svg version="1.1" id="filter" xmlns="http://www.w3.org/2000/svg" xmlns:xlink="http://www.w3.org/1999/xlink" x="0px" y="0px"
	 viewBox="0 0 500 500" style="enable-background:new 0 0 500 500;" xml:space="preserve">
<g>
	<g>
		<path d="M480.4,162.3H23.6c-11.9,0-21.6-9.7-21.6-21.6s9.7-21.6,21.6-21.6h456.8c11.9,0,21.6,9.7,21.6,21.6
			S492.3,162.3,480.4,162.3z"/>
	</g>
	<g>
		<path d="M399.4,290.4H104.6c-11.9,0-21.6-9.7-21.6-21.6c0-11.9,9.7-21.6,21.6-21.6h294.8c11.9,0,21.6,9.7,21.6,21.6
			C421,280.8,411.3,290.4,399.4,290.4z"/>
	</g>
	<g>
		<path d="M312.1,415.8H191.9c-11.9,0-21.6-9.7-21.6-21.6c0-11.9,9.7-21.6,21.6-21.6h120.2c11.9,0,21.6,9.7,21.6,21.6
			C333.7,406.2,324,415.8,312.1,415.8z"/>
	</g>
</g>
</svg>
