<?xml version="1.0" encoding="utf-8"?>
<!-- Generator: Adobe Illustrator 21.0.0, SVG Export Plug-In . SVG Version: 6.00 Build 0)  -->
<svg version="1.1" id="Layer_1" xmlns="http://www.w3.org/2000/svg" xmlns:xlink="http://www.w3.org/1999/xlink" x="0px" y="0px"
	 viewBox="0 0 500 500" enable-background="new 0 0 500 500" xml:space="preserve">
<g>
	<path d="M76.4,234.4c11,0,20,8.9,20,20c0,11-8.9,20-20,20s-20-8.9-20-20C56.4,243.3,65.4,234.4,76.4,234.4 M76.4,218.8
		c-19.6,0-35.6,16-35.6,35.6c0,19.6,16,35.6,35.6,35.6s35.6-16,35.6-35.6C112,234.7,96,218.8,76.4,218.8L76.4,218.8z"/>
	<path d="M116.7,146.7c36.6,0,70.6,23.1,86.4,58.9l5.5,12.4h13.6h218.1l30.7,32l-22.2,22.9l-14.5-15.1l-14.1-14.7l-15,13.7
		l-20.4,18.6l-19.6-16.9l-14-12l-13.6,12.4L312.2,282l-90.1,0h-13.6l-5.5,12.4c-15.9,35.8-49.8,58.9-86.4,58.9
		c-52.9,0-95.9-46.4-95.9-103.3S63.8,146.7,116.7,146.7 M116.7,125.8C52.2,125.8,0,181.4,0,250c0,68.6,52.2,124.2,116.7,124.2
		c46.7,0,86.8-29.2,105.5-71.3l98.1,0l31.3-28.6l33.6,29l34-31.1l29.5,30.7L500,250l-50.8-52.9h-227
		C203.5,155,163.4,125.8,116.7,125.8L116.7,125.8z"/>
</g>
</svg>
