<?xml version="1.0" encoding="utf-8"?>
<!-- Generator: Adobe Illustrator 21.0.0, SVG Export Plug-In . SVG Version: 6.00 Build 0)  -->
<svg version="1.1" id="Layer_1" xmlns="http://www.w3.org/2000/svg" xmlns:xlink="http://www.w3.org/1999/xlink" x="0px" y="0px"
	 viewBox="0 0 500 500" enable-background="new 0 0 500 500" xml:space="preserve">
<g>
	<g>
		<path d="M488.6,250.7c-2.4,0-4.9-0.8-6.9-2.4L250,69.4l-231.7,179c-5,3.8-12.1,2.9-15.9-2c-3.8-5-2.9-12.1,2-15.9L243.1,46.1
			c4.1-3.2,9.8-3.2,13.9,0l238.6,184.3c5,3.8,5.9,11,2,15.9C495.4,249.2,492,250.7,488.6,250.7z"/>
	</g>
	<g>
		<path d="M387.8,211.2v222.4h-86.7V294.8c0-6.3-5.1-11.4-11.4-11.4h-79.5c-6.3,0-11.4,5.1-11.4,11.4v138.7h-86.6v-223l-22.7,17.6
			v216.8c0,6.3,5.1,11.4,11.4,11.4h109.4c6.3,0,11.4-5.1,11.4-11.4V306.2h56.8v138.7c0,6.3,5.1,11.4,11.4,11.4h109.4
			c6.3,0,11.4-5.1,11.4-11.4V228.7L387.8,211.2z"/>
	</g>
</g>
</svg>
