<?xml version="1.0" encoding="utf-8"?>
<!-- Generator: Adobe Illustrator 21.0.0, SVG Export Plug-In . SVG Version: 6.00 Build 0)  -->
<svg version="1.1" id="Layer_1" xmlns="http://www.w3.org/2000/svg" xmlns:xlink="http://www.w3.org/1999/xlink" x="0px" y="0px"
	 viewBox="0 0 500 500" style="enable-background:new 0 0 500 500;" xml:space="preserve">
<g>
	<path d="M457.7,480c-3.5,0-7-1.3-9.7-4L231.8,259.7c-5.4-5.4-5.4-14.1,0-19.4L448,24c5.4-5.4,14.1-5.4,19.4,0
		c5.4,5.4,5.4,14.1,0,19.4L260.9,250l206.5,206.5c5.4,5.4,5.4,14.1,0,19.4C464.8,478.7,461.2,480,457.7,480z"/>
</g>
<g>
	<path d="M258.5,480c-3.5,0-7-1.3-9.7-4L32.6,259.7c-5.4-5.4-5.4-14.1,0-19.4L248.8,24c5.4-5.4,14.1-5.4,19.4,0
		c5.4,5.4,5.4,14.1,0,19.4L61.7,250l206.5,206.5c5.4,5.4,5.4,14.1,0,19.4C265.6,478.7,262,480,258.5,480z"/>
</g>
</svg>
