<?xml version="1.0" encoding="utf-8"?>
<!-- Generator: Adobe Illustrator 21.0.0, SVG Export Plug-In . SVG Version: 6.00 Build 0)  -->
<svg version="1.1" id="Layer_1" xmlns="http://www.w3.org/2000/svg" xmlns:xlink="http://www.w3.org/1999/xlink" x="0px" y="0px"
	 viewBox="0 0 500 500" style="enable-background:new 0 0 500 500;" xml:space="preserve">
<g>
	<path d="M32.6,475.9c-5.4-5.3-5.4-14,0-19.4L239.1,250L32.6,43.4c-5.4-5.3-5.4-14,0-19.4c5.3-5.4,14-5.4,19.4,0l216.2,216.3
		c5.4,5.3,5.4,14,0,19.4L52,476c-2.7,2.7-6.2,4-9.7,4S35.2,478.7,32.6,475.9z"/>
</g>
<g>
	<path d="M231.8,475.9c-5.4-5.3-5.4-14,0-19.4L438.3,250L231.8,43.4c-5.4-5.3-5.4-14,0-19.4c5.3-5.4,14-5.4,19.4,0l216.2,216.3
		c5.4,5.3,5.4,14,0,19.4L251.2,476c-2.7,2.7-6.2,4-9.7,4S234.4,478.7,231.8,475.9z"/>
</g>
</svg>
