<?xml version="1.0" encoding="UTF-8"?>
<svg width="27px" height="18px" viewBox="0 0 27 18" version="1.1" xmlns="http://www.w3.org/2000/svg" xmlns:xlink="http://www.w3.org/1999/xlink">
    <!-- Generator: Sketch 44.1 (41455) - http://www.bohemiancoding.com/sketch -->
    <title>Icon / Add User</title>
    <desc>Created with Sketch.</desc>
    <defs></defs>
    <g id="Symbols" stroke="none" stroke-width="1" fill="none" fill-rule="evenodd">
        <g id="Icon-/-Add-User" stroke="#1883C7" stroke-width="0.5" fill="#1883C7">
            <g id="Group-19" transform="translate(1.000000, 1.000000)">
                <path d="M24.7087683,7.79123173 L20.7912317,7.79123173 L20.7912317,11.7087683 C20.7912317,11.8696111 20.6608428,12 20.5,12 C20.3391572,12 20.2087683,11.8696111 20.2087683,11.7087683 L20.2087683,7.79123173 L16.2912317,7.79123173 C16.1303889,7.79123173 16,7.66084284 16,7.5 C16,7.33915716 16.1303889,7.20876827 16.2912317,7.20876827 L20.2087683,7.20876827 L20.2087683,3.29123173 C20.2087683,3.13038889 20.3391572,3 20.5,3 C20.6608428,3 20.7912317,3.13038889 20.7912317,3.29123173 L20.7912317,7.20876827 L24.7087683,7.20876827 C24.8692906,7.2095394 24.9992289,7.33947766 25,7.5 C24.9992289,7.66052234 24.8692906,7.7904606 24.7087683,7.79123173 Z" id="Plus"></path>
                <path d="M10.9397818,9.37695756 C13.3002916,10.4319152 14.9214646,12.6628341 15.1958272,15.2337615 L0.804172845,15.2337615 C1.07943579,12.6631807 2.70031608,10.4326645 5.06021822,9.37695756 C4.80785751,9.23103842 4.56692641,9.06619082 4.33949752,8.88383288 C1.67455214,10.2522631 -0.000790727788,12.9966622 2.79980664e-07,15.9924149 L15.9999997,15.9924149 C16.0007907,12.9966622 14.3254479,10.2522631 11.6605025,8.88383288 C11.4330736,9.06619082 11.1921425,9.23103842 10.9397818,9.37695756 Z M7.99620673,1.98782648e-06 C5.98112849,0.00161709741 4.23425283,1.3948307 3.78445536,3.35906724 C3.33465789,5.32330378 4.30117474,7.33786673 6.11474639,8.21621792 C7.30310228,8.80296462 8.69689772,8.80296462 9.88525361,8.21621792 C11.700103,7.33724856 12.6665358,5.32059412 12.2146975,3.35536954 C11.7628592,1.39014496 10.0127041,-0.00192003516 7.99620673,1.98782648e-06 L7.99620673,1.98782648e-06 Z M7.99620673,7.8975835 C6.0248478,7.89548743 4.42844462,6.29568644 4.43053995,4.32432751 C4.43263529,2.35296857 6.03243567,0.756564793 8.00379461,0.758659384 C9.97515354,0.760753975 11.5715579,2.36055376 11.5694641,4.33191269 C11.5665333,6.30292591 9.96722173,7.89884191 7.99620673,7.8975835 L7.99620673,7.8975835 Z" id="User"></path>
            </g>
        </g>
    </g>
</svg>