<?xml version="1.0" encoding="utf-8"?>
<!-- Generator: Adobe Illustrator 21.0.0, SVG Export Plug-In . SVG Version: 6.00 Build 0)  -->
<svg version="1.1" id="Layer_1" xmlns="http://www.w3.org/2000/svg" xmlns:xlink="http://www.w3.org/1999/xlink" x="0px" y="0px"
	 viewBox="0 0 500 500" style="enable-background:new 0 0 500 500;" xml:space="preserve">
<style type="text/css">
	.st0{fill:none;stroke:#000000;stroke-width:15;stroke-linecap:round;stroke-linejoin:round;stroke-miterlimit:10;}
</style>
<path d="M304.4,274.8c-5.8,4.6-12,8.9-18.3,12.5c58.8,26.4,101.3,82.3,108.2,148.9H28.4c6.9-66.5,49.5-122.7,108.2-148.9
	c-6.3-3.7-12.5-7.9-18.3-12.5C52.7,308.6,8,376.9,8,455.6h406.7C414.7,376.9,370,308.6,304.4,274.8z M211.3,49
	c-60.8,0-109.9,49.2-109.9,110.1c0,43.6,25.3,81.2,62.1,98.8c14.5,7.3,30.7,11.2,47.8,11.2s33.6-3.8,48-11.2
	c36.8-17.6,62.1-55.2,62.1-98.8C321.4,98.2,272.2,49,211.3,49z M211.3,249.8c-49.9,0-90.6-40.7-90.6-90.6
	c0-50.1,40.7-90.9,90.6-90.9c50.1,0,90.9,40.7,90.9,90.9C302.1,209.1,261.4,249.8,211.3,249.8z"/>
<g>
	<line class="st0" x1="344" y1="241" x2="489" y2="241"/>
	<line class="st0" x1="416.5" y1="313.5" x2="416.5" y2="168.5"/>
</g>
</svg>
