<?xml version="1.0" encoding="utf-8"?>
<!-- Generator: Adobe Illustrator 21.0.0, SVG Export Plug-In . SVG Version: 6.00 Build 0)  -->
<svg version="1.1" id="Layer_1" xmlns="http://www.w3.org/2000/svg" xmlns:xlink="http://www.w3.org/1999/xlink" x="0px" y="0px"
	 viewBox="0 0 500 500" style="enable-background:new 0 0 500 500;" xml:space="preserve">
<g>
	<polygon points="94.2,171.4 73.1,150.2 73.1,490 488.1,490 488.1,74.7 147.8,74.7 169.2,95.9 466.9,95.9 466.9,468.7 94.2,468.7 	
		"/>
	<path d="M306.3,312.1V132.8c0-5.7-4.6-10.6-10.6-10.6c-5.9,0-10.6,4.9-10.6,10.6v139.3l-40-40l-21.3-21.2L44.9,32
		c-1.9-2.1-4.6-3-7.4-3c-2.7,0-5.5,0.9-7.4,3c-4.3,4.3-4.3,10.8,0,15.1l200.4,200.4l43.4,43.4h-60.2h-86.6
		c-5.7,0-10.6,4.6-10.6,10.6c0,5.9,4.9,10.6,10.6,10.6h107.8H306.3z"/>
</g>
</svg>
