<?xml version="1.0" encoding="UTF-8"?>
<svg width="500px" height="500px" viewBox="0 0 500 500" version="1.1" xmlns="http://www.w3.org/2000/svg" xmlns:xlink="http://www.w3.org/1999/xlink">
    <!-- Generator: Sketch 44.1 (41455) - http://www.bohemiancoding.com/sketch -->
    <title>Icon / Not Joined</title>
    <desc>Created with Sketch.</desc>
    <defs></defs>
    <g id="FIXES" stroke="none" stroke-width="1" fill="none" fill-rule="evenodd">
        <g id="Artboard" transform="translate(-586.000000, -738.000000)">
            <g id="Not-joined-flag" transform="translate(580.000000, 732.000000)">
                <g id="Icon-/-Not-Joined" transform="translate(6.000000, 6.000000)">
                    <path d="M8.0786414,7.00619022 L8.0786414,7.00619022 C8.25622257,6.90624499 8.42524506,6.79180268 8.58398503,6.66403047 C9.10963311,6.93196968 9.58794542,7.28403599 10,7.70630171 C9.94672743,7.74732041 9.8957643,7.79125414 9.84734411,7.83790161 L9.61572828,8.06951745 C9.17393927,7.62258427 8.65266298,7.26197533 8.0786414,7.00619022 Z M5.99936292,11.0699953 C6.0309469,11.1068432 6.06253088,11.1436912 6.09411485,11.1752752 L6.51523454,11.5963949 L0.493222942,11.5963949 C0.492674093,9.51776032 1.65512836,7.61353016 3.50422874,6.66403047 C3.6620411,6.79055009 3.82921279,6.90493072 4.00430838,7.00619022 C2.36664266,7.73950303 1.24065073,9.28623927 1.04594254,11.0699953 L5.99936292,11.0699953 Z M4.73600384,6.20079881 L4.73600384,6.20079881 C3.47732701,5.59106426 2.80684063,4.19258894 3.11963084,2.82942869 C3.43242105,1.46626844 4.64552061,0.5 6.04410689,0.5 C7.44269317,0.5 8.65579272,1.46626844 8.96858294,2.82942869 C9.28137315,4.19258894 8.61088677,5.59106426 7.35220993,6.20079881 C6.52763783,6.60783831 5.56057595,6.60783831 4.73600384,6.20079881 Z M6.04147489,1.02102659 L6.04147489,1.02102659 C4.67518957,1.0262373 3.5697035,2.13407547 3.5673967,3.50036878 C3.56739896,4.50364763 4.17204244,5.408037 5.09915554,5.79148159 C6.02626864,6.17492617 7.09308968,5.96183758 7.80176065,5.2516588 C8.51043163,4.54148001 8.72125231,3.47420849 8.33583812,2.54791245 C7.95042392,1.62161642 7.04475148,1.01889649 6.04147489,1.02102659 Z" id="User-Approve" fill="#000000"></path>
                    <g id="X" transform="translate(8.000000, 9.000000)" stroke="#000000" stroke-width="0.5" fill="#353535" stroke-linecap="square">
                        <path d="M0.283309937,2.53125 L2.54978943,0.28125" id="Line"></path>
                        <path d="M2.54978943,2.53125 L0.283309937,0.28125" id="Line"></path>
                    </g>
                </g>
            </g>
        </g>
    </g>
</svg>
