<?xml version="1.0" encoding="utf-8"?>
<!-- Generator: Adobe Illustrator 21.0.0, SVG Export Plug-In . SVG Version: 6.00 Build 0)  -->
<svg version="1.1" id="not-joined" xmlns="http://www.w3.org/2000/svg" xmlns:xlink="http://www.w3.org/1999/xlink" x="0px" y="0px"
	 viewBox="0 0 500 500" style="enable-background:new 0 0 500 500;" xml:space="preserve">
<title>Icon / Not Joined</title>
<desc>Created with Sketch.</desc>
<g id="FIXES">
	<g id="Artboard" transform="translate(-586.000000, -738.000000)">
		<g id="Icon-_x2F_-Not-Joined" transform="translate(6.000000, 6.000000)">
			<path d="M610.5,1207.1l0-5c0-42.1,11.6-83.4,33.6-119.4s53.4-65.2,90.9-84.4l2.9-1.5l2.5,2c6.2,4.9,12.8,9.5,19.6,13.4l8.5,4.9
				l-8.9,4c-31.7,14.2-59.2,36.5-79.7,64.6c-19.3,26.6-31.8,57.6-36.3,90.1h196.9l1.5,1.7c1.2,1.4,2.4,2.8,3.6,4l25.6,25.6H610.5z
				 M980.7,1063c-17.5-17.7-37.9-31.8-60.6-41.9l-9.1-4l8.7-4.9c6.9-3.9,13.6-8.4,19.7-13.4l2.5-2l2.9,1.5
				c21.8,11.1,41.5,25.6,58.5,43.1l3.9,4l-4.5,3.4c-2,1.5-3.9,3.2-5.8,5l-12.9,12.9L980.7,1063z M839.9,1001.3
				c-19,0-38.1-4.4-55.1-12.9c-25.6-12.4-46.5-33.4-58.8-59c-12.3-25.7-15.6-55.1-9.2-82.8c6.4-27.7,22.1-52.8,44.4-70.5
				c22.3-17.7,50.2-27.5,78.7-27.5c28.5,0,56.4,9.8,78.7,27.5c22.3,17.7,38,42.8,44.4,70.5s3.1,57.2-9.2,82.8
				c-12.3,25.7-33.2,46.6-58.8,59.1C877.9,996.9,858.9,1001.3,839.9,1001.3z M839.8,779.6c-52.3,0.2-94.9,42.9-95,95.2
				c0,38.7,23.1,73.2,58.8,88c11.6,4.8,23.8,7.2,36.4,7.2c0,0,0,0,0,0c25.5,0,49.4-9.9,67.4-28c27.3-27.4,35.4-68.1,20.5-103.8
				c-14.8-35.6-49.3-58.6-87.9-58.6H839.8z"/>
			<polygon points="1032.6,1119.1 1011.4,1097.8 976.2,1132.8 941,1097.8 919.8,1119.1 954.9,1154 919.8,1188.8 941,1210.1
				976.2,1175.1 1011.4,1210.1 1032.6,1188.8 997.5,1154 			"/>
		</g>
	</g>
</g>
</svg>
