<?xml version="1.0" encoding="utf-8"?>
<!-- Generator: Adobe Illustrator 21.0.0, SVG Export Plug-In . SVG Version: 6.00 Build 0)  -->
<svg version="1.1" id="Lightbulb" xmlns="http://www.w3.org/2000/svg" xmlns:xlink="http://www.w3.org/1999/xlink" x="0px" y="0px"
	width="500px" height="500px" viewBox="0 0 500 500" style="enable-background:new 0 0 500 500;" xml:space="preserve">
<g>
	<path style="fill:none;" d="M189,414.8h122c6.9,0,12.5,5.6,12.5,12.5v0.2c0,6.9-5.6,12.5-12.5,12.5H189c-6.9,0-12.5-5.6-12.5-12.5
		v-0.2C176.5,420.4,182.1,414.8,189,414.8z"/>
</g>
<g>
	<path d="M311,446.3H189c-10.4,0-18.8-8.4-18.8-18.8v-0.2c0-10.4,8.4-18.8,18.8-18.8h122c10.4,0,18.8,8.4,18.8,18.8v0.2
		C329.8,437.9,321.4,446.3,311,446.3z M189,421.1c-3.4,0-6.2,2.8-6.2,6.2v0.2c0,3.4,2.8,6.2,6.2,6.2h122c3.4,0,6.2-2.8,6.2-6.2v-0.2
		c0-3.4-2.8-6.2-6.2-6.2H189z"/>
</g>
<g>
	<path d="M311,421H189c-10.4,0-18.8-8.4-18.8-18.8V402c0-10.4,8.4-18.8,18.8-18.8h122c10.4,0,18.8,8.4,18.8,18.8v0.2
		C329.8,412.6,321.4,421,311,421z M189,395.8c-3.4,0-6.2,2.8-6.2,6.2v0.2c0,3.4,2.8,6.2,6.2,6.2h122c3.4,0,6.2-2.8,6.2-6.2V402
		c0-3.4-2.8-6.2-6.2-6.2H189z"/>
</g>
<g>
	<path style="fill:none;" d="M201.3,440h97.4c6.9,0,12.5,5.6,12.5,12.5v0.2c0,6.9-5.6,12.5-12.5,12.5h-97.4
		c-6.9,0-12.5-5.6-12.5-12.5v-0.2C188.8,445.7,194.4,440,201.3,440z"/>
</g>
<g>
	<path d="M298.7,471.5h-97.4c-10.4,0-18.8-8.4-18.8-18.8v-0.2c0-10.4,8.4-18.8,18.8-18.8h97.4c10.4,0,18.8,8.4,18.8,18.8v0.2
		C317.5,463.1,309.1,471.5,298.7,471.5z M201.3,446.3c-3.4,0-6.2,2.9-6.2,6.2v0.2c0,3.4,2.8,6.2,6.2,6.2h97.4c3.4,0,6.2-2.8,6.2-6.2
		v-0.2c0-3.4-2.8-6.2-6.2-6.2H201.3z"/>
</g>
<g>
	<path style="fill:none;" d="M213.5,465.3h72.9c6.9,0,12.5,5.6,12.5,12.5v0.2c0,6.9-5.6,12.5-12.5,12.5h-72.9
		c-6.9,0-12.5-5.6-12.5-12.5v-0.2C201,471,206.6,465.3,213.5,465.3z"/>
</g>
<g>
	<path d="M286.4,496.8h-72.9c-10.4,0-18.8-8.4-18.8-18.8v-0.2c0-10.4,8.4-18.8,18.8-18.8h72.9c10.4,0,18.8,8.4,18.8,18.8v0.2
		C305.2,488.4,296.8,496.8,286.4,496.8z M213.5,471.6c-3.4,0-6.2,2.9-6.2,6.2v0.2c0,3.4,2.8,6.2,6.2,6.2h72.9c3.4,0,6.2-2.8,6.2-6.2
		v-0.2c0-3.4-2.8-6.2-6.2-6.2H213.5z"/>
</g>
<g>
	<path d="M257.3,383.8h-12.5v-88.5h-19c-10.4,0-18.3-2.8-23.7-8.3c-5.2-5.3-7.7-13-7.4-22.8c0-10.3,2.7-18.3,8.1-23.7
		c5.3-5.4,13.1-8.1,23-8.1c20.1,0,31.3,11.1,31.6,31.3v19h41.4v12.5h-41.4L257.3,383.8z M225.7,245c-6.5,0-11.2,1.5-14.1,4.4
		c-3,3-4.5,8-4.4,14.9l0,0.1l0,0.1c-0.2,6.3,1.1,10.9,3.9,13.8c2.9,3,7.8,4.5,14.7,4.5h19v-18.9C244.6,250.6,238.9,245,225.7,245z"
		/>
</g>
<g>
	<path d="M367.6,76.6c-1.9,0-3.8-0.7-5.2-2.2c-2.9-2.9-2.9-7.5,0-10.4L382,44.4c2.9-2.9,7.5-2.9,10.4,0c2.9,2.9,2.9,7.5,0,10.4
		l-19.6,19.6C371.4,75.8,369.5,76.6,367.6,76.6z"/>
</g>
<g>
	<path d="M152,76.6c-1.9,0-3.8-0.7-5.2-2.2l-19.6-19.6c-2.9-2.9-2.9-7.5,0-10.4c2.9-2.9,7.5-2.9,10.4,0L157.2,64
		c2.9,2.9,2.9,7.5,0,10.4C155.8,75.8,153.9,76.6,152,76.6z"/>
</g>
<g>
	<path d="M260.2,59.1c-4.1,0-7.3-3.3-7.3-7.4V9.4c0-4.1,3.3-7.4,7.3-7.4s7.3,3.3,7.3,7.4v42.3C267.5,55.8,264.3,59.1,260.2,59.1z"/>
</g>
<path d="M250,92.4c-84.5,0-153.3,67.8-153.3,151.1c0,44.8,20,87,54.8,115.8c11.8,12.3,19.3,22,24,29.6c3-3,6.9-5.1,11.3-5.6
	c-5.8-9.6-14.6-20.5-26.6-33l-0.5-0.5c-32.1-26.4-50.5-65.2-50.5-106.4c0-76.4,63.1-138.5,140.7-138.5s140.7,62.1,140.7,138.5
	c0,41.2-18.4,79.9-50.5,106.4l-0.5,0.5c-11.9,12.4-20.7,23.3-26.5,33c4.4,0.5,8.3,2.5,11.3,5.5c4.7-7.6,12.3-17.3,24-29.6
	c34.8-28.8,54.8-71,54.8-115.8C403.3,160.2,334.5,92.4,250,92.4z"/>
</svg>
