<?xml version="1.0" encoding="utf-8"?>
<!-- Generator: Adobe Illustrator 21.0.0, SVG Export Plug-In . SVG Version: 6.00 Build 0)  -->
<svg version="1.1" id="Lightbulb" xmlns="http://www.w3.org/2000/svg" xmlns:xlink="http://www.w3.org/1999/xlink" x="0px" y="0px"
	 viewBox="0 0 500 500" style="enable-background:new 0 0 500 500;" xml:space="preserve">
<style type="text/css">
	.st0{fill:none;}
	.st1{fill:none;stroke:#000000;stroke-width:12.544;stroke-miterlimit:10;}
	.st2{fill:#FFFFFF;stroke:#000000;stroke-width:12.544;stroke-miterlimit:10;}
	.st3{fill:none;stroke:#000000;stroke-width:14.7;stroke-linecap:round;stroke-linejoin:round;stroke-miterlimit:10;}
</style>
<title>SVG Icon</title>
<path class="st0" d="M155.8,354.7c-32.3-26.6-52.8-66.5-52.8-111.2c0-80,65.8-144.8,147-144.8s147,64.8,147,144.8
	c0,44.7-20.5,84.6-52.8,111.2c-23,23.9-34,42.1-33.1,54.7H188.9C189.8,396.7,178.7,378.5,155.8,354.7z"/>
<path class="st1" d="M155.8,354.7c-32.3-26.6-52.8-66.5-52.8-111.2c0-80,65.8-144.8,147-144.8s147,64.8,147,144.8
	c0,44.7-20.5,84.6-52.8,111.2c-23,23.9-34,42.1-33.1,54.7H188.9C189.8,396.7,178.7,378.5,155.8,354.7z"/>
<path class="st0" d="M189,414.8h122c6.9,0,12.5,5.6,12.5,12.5v0.2c0,6.9-5.6,12.5-12.5,12.5H189c-6.9,0-12.5-5.6-12.5-12.5v-0.2
	C176.5,420.4,182.1,414.8,189,414.8z"/>
<path class="st1" d="M189,414.8h122c6.9,0,12.5,5.6,12.5,12.5v0.2c0,6.9-5.6,12.5-12.5,12.5H189c-6.9,0-12.5-5.6-12.5-12.5v-0.2
	C176.5,420.4,182.1,414.8,189,414.8z"/>
<path class="st2" d="M189,389.5h122c6.9,0,12.5,5.6,12.5,12.5v0.2c0,6.9-5.6,12.5-12.5,12.5H189c-6.9,0-12.5-5.6-12.5-12.5V402
	C176.5,395.1,182.1,389.5,189,389.5z"/>
<path class="st0" d="M201.3,440h97.4c6.9,0,12.5,5.6,12.5,12.5v0.2c0,6.9-5.6,12.5-12.5,12.5h-97.4c-6.9,0-12.5-5.6-12.5-12.5v-0.2
	C188.8,445.7,194.4,440,201.3,440z"/>
<path class="st1" d="M201.3,440h97.4c6.9,0,12.5,5.6,12.5,12.5v0.2c0,6.9-5.6,12.5-12.5,12.5h-97.4c-6.9,0-12.5-5.6-12.5-12.5v-0.2
	C188.8,445.7,194.4,440,201.3,440z"/>
<path class="st0" d="M213.5,465.3h72.9c6.9,0,12.5,5.6,12.5,12.5v0.2c0,6.9-5.6,12.5-12.5,12.5h-72.9c-6.9,0-12.5-5.6-12.5-12.5
	v-0.2C201,471,206.6,465.3,213.5,465.3z"/>
<path class="st1" d="M213.5,465.3h72.9c6.9,0,12.5,5.6,12.5,12.5v0.2c0,6.9-5.6,12.5-12.5,12.5h-72.9c-6.9,0-12.5-5.6-12.5-12.5
	v-0.2C201,471,206.6,465.3,213.5,465.3z"/>
<path class="st1" d="M251,383.8v-120c-0.2-16.7-8.6-25.1-25.3-25.1s-24.9,8.5-24.8,25.6c-0.5,16.5,7.8,24.7,24.8,24.7s41.3,0,73,0"
	/>
<line class="st3" x1="367.6" y1="69.2" x2="387.2" y2="49.6"/>
<line class="st3" x1="152" y1="69.2" x2="132.4" y2="49.6"/>
<line class="st3" x1="260.2" y1="51.7" x2="260.2" y2="9.4"/>
</svg>
